<?xml version="1.0" encoding="UTF-8"?><svg id="Layer_1" xmlns="http://www.w3.org/2000/svg" viewBox="0 0 760 708.34"><defs><style>.cls-1{fill:#87a194;}.cls-2{fill:none;opacity:.4;stroke:#000;stroke-miterlimit:10;}.cls-3{fill:#221f20;}.cls-4{fill:#c5d7cf;}.cls-5{fill:#636466;}</style></defs><path class="cls-5" d="M554.91,661.19l-.04,1.8h-1.5v-14.8h1.6v6.2c.56-1.02,1.74-1.9,3.5-1.9,2.68,0,4.4,2.1,4.4,5.18v.38c0,3.08-1.78,5.18-4.42,5.18-1.8,0-3.02-.98-3.54-2.04ZM561.23,658.05v-.38c0-2.38-1.12-3.82-3.06-3.82-2.08,0-3.26,1.42-3.26,3.82v.38c0,2.38,1.16,3.82,3.28,3.82,1.92,0,3.04-1.46,3.04-3.82Z"/><path class="cls-5" d="M564.75,659.35v-6.62h1.6v6.32c0,1.72.66,2.78,2.38,2.78s2.76-1.36,2.76-3.34v-5.76h1.6v10.26h-1.56l-.02-1.62c-.62,1.1-1.74,1.86-3.24,1.86-2.36,0-3.52-1.48-3.52-3.88Z"/><path class="cls-5" d="M576.57,660.41v-6.4h-2.06v-1.28h2.06v-3.16h1.6v3.16h2.94v1.28h-2.94v6.18c0,1.14.38,1.68,1.72,1.68.4,0,.96-.1,1.3-.2v1.36c-.42.1-1.06.2-1.5.2-2.04,0-3.12-.94-3.12-2.82Z"/><path class="cls-5" d="M584.77,666.39l1.32-3.42-4-10.24h1.72l3.12,8.4,2.98-8.4h1.66l-5.16,13.66h-1.64Z"/><path class="cls-5" d="M593.07,662.99v-10.26h1.56l.02,1.98c.62-1.42,1.76-2.22,3.18-2.22.16,0,.34,0,.54.04v1.6c-.22-.02-.36-.02-.58-.02-1.86,0-3.12,1.14-3.12,3.38v5.5h-1.6Z"/><path class="cls-5" d="M598.89,660.31c0-1.48.88-2.6,2.52-2.84l4.32-.64v-.9c0-1.48-1.04-2.14-2.36-2.14-1.42,0-2.4.7-2.52,1.94h-1.56c.18-2.04,1.72-3.24,4.1-3.24,2.5,0,3.92,1.42,3.92,3.54v6.96h-1.5l-.06-1.6c-.66,1.2-1.98,1.84-3.42,1.84-2.14,0-3.44-1.2-3.44-2.92ZM605.73,659.19v-1.06l-3.8.56c-.98.14-1.42.7-1.42,1.58,0,.98.68,1.62,1.98,1.62,1.72,0,3.24-1.14,3.24-2.7Z"/><path class="cls-5" d="M610.63,660.41v-6.4h-2.06v-1.28h2.06v-3.16h1.6v3.16h2.94v1.28h-2.94v6.18c0,1.14.38,1.68,1.72,1.68.4,0,.96-.1,1.3-.2v1.36c-.42.1-1.06.2-1.5.2-2.04,0-3.12-.94-3.12-2.82Z"/><path class="cls-5" d="M616.33,658.05v-.38c0-3.06,1.82-5.18,4.86-5.18,3.26,0,4.8,2.24,4.66,5.68h-7.88c.04,2.38,1.24,3.7,3.24,3.7,1.62,0,2.62-.74,2.96-2.06h1.62c-.5,2.16-2.14,3.42-4.58,3.42-3.1,0-4.88-2.14-4.88-5.18ZM624.17,656.87c-.16-1.9-1.16-3.02-2.98-3.02s-2.96,1.06-3.18,3.02h6.16Z"/><rect class="cls-4" x="6.44" y="403.09" width="232.93" height="91.87"/><path class="cls-3" d="M66,454.8v-15.62h11v3.01h-7.33v3.56h6.51v2.99h-6.51v6.05h-3.67Z"/><path class="cls-3" d="M82.12,438.51v16.28h-3.52v-16.28h3.52Z"/><path class="cls-3" d="M83.73,451.63c0-1.96,1.25-3.12,3.43-3.39l3.96-.53v-.73c0-.84-.55-1.34-1.69-1.34s-1.8.46-1.89,1.32h-3.34c.13-2.42,2.2-3.83,5.3-3.83s5.06,1.5,5.06,3.87v7.79h-3.3l-.11-1.69c-.68,1.23-1.96,1.98-3.67,1.98-2.2,0-3.74-1.45-3.74-3.45ZM91.12,450.66v-.81l-2.68.35c-.88.11-1.3.53-1.3,1.21,0,.75.55,1.19,1.56,1.19,1.32,0,2.42-.77,2.42-1.94Z"/><path class="cls-3" d="M99.35,454.8l-4.11-11.38h3.72l2.4,7.83,2.42-7.83h3.54l-4.09,11.38h-3.87Z"/><path class="cls-3" d="M107.49,449.21v-.22c0-3.43,2.38-5.85,5.96-5.85s5.96,2.42,5.96,5.85v.22c0,3.45-2.35,5.88-5.96,5.88s-5.96-2.42-5.96-5.88ZM115.85,449.21v-.22c0-2.07-.73-3.17-2.4-3.17s-2.4,1.1-2.4,3.17v.22c0,2.09.75,3.19,2.4,3.19s2.4-1.1,2.4-3.19Z"/><path class="cls-3" d="M121.13,454.8v-11.38h3.37l.09,1.74c.55-1.01,1.67-2.02,3.59-2.02,2.88,0,3.96,1.83,3.96,4.36v7.31h-3.52v-6.4c0-1.54-.48-2.44-1.83-2.44s-2.13.92-2.13,2.6v6.25h-3.52Z"/><path class="cls-3" d="M133.73,449.21v-.22c0-3.43,2.38-5.85,5.96-5.85s5.96,2.42,5.96,5.85v.22c0,3.45-2.35,5.88-5.96,5.88s-5.96-2.42-5.96-5.88ZM142.09,449.21v-.22c0-2.07-.73-3.17-2.4-3.17s-2.4,1.1-2.4,3.17v.22c0,2.09.75,3.19,2.4,3.19s2.4-1.1,2.4-3.19Z"/><path class="cls-3" d="M150.96,442.06h-3.65v-3.54h3.65v3.54ZM150.89,443.42v11.38h-3.52v-11.38h3.52Z"/><path class="cls-3" d="M152.59,449.21v-.22c0-3.32,1.8-5.85,4.86-5.85,1.63,0,2.79.77,3.43,1.78v-6.4h3.54v16.28h-3.28l-.11-1.83c-.46,1.06-1.65,2.11-3.48,2.11-3.08,0-4.97-2.49-4.97-5.88ZM160.99,449.21v-.22c0-2.11-.79-3.21-2.42-3.21s-2.42,1.1-2.42,3.21v.22c0,2.09.79,3.21,2.42,3.21s2.42-1.12,2.42-3.21Z"/><path class="cls-3" d="M166,451.14h3.34c.13.97.9,1.52,2.07,1.52,1.06,0,1.69-.42,1.69-1.08,0-.62-.37-.99-2.4-1.34-3.04-.48-4.38-1.45-4.38-3.5,0-2.18,2-3.61,4.95-3.61s4.88,1.39,5.06,3.74h-3.28c-.09-.88-.79-1.34-1.83-1.34-.97,0-1.54.4-1.54,1.01s.46.95,2.4,1.23c3.21.46,4.47,1.54,4.47,3.48,0,2.29-1.98,3.83-5.17,3.83s-5.21-1.47-5.39-3.94Z"/><rect class="cls-2" x="6.44" y="403.09" width="232.93" height="295.55"/><path class="cls-5" d="M20.6,517.85c0-1.18.76-1.84,1.8-1.84s1.8.66,1.8,1.84-.78,1.82-1.8,1.82-1.8-.68-1.8-1.82Z"/><path class="cls-5" d="M37.95,516.73v-.56c0-4.18,2.58-7.06,6.48-7.06,3.22,0,5.46,2.04,5.78,5.22h-1.72c-.34-2.36-1.9-3.7-4.08-3.7-2.94,0-4.7,2.28-4.7,5.54v.56c0,3.26,1.78,5.54,4.7,5.54,2.4,0,3.98-1.58,4.08-3.92h1.74c-.24,3.14-2.46,5.44-5.82,5.44-3.86,0-6.46-2.82-6.46-7.06Z"/><path class="cls-5" d="M51.59,520.87c0-1.48.88-2.6,2.52-2.84l4.32-.64v-.9c0-1.48-1.04-2.14-2.36-2.14-1.42,0-2.4.7-2.52,1.94h-1.56c.18-2.04,1.72-3.24,4.1-3.24,2.5,0,3.92,1.42,3.92,3.54v6.96h-1.5l-.06-1.6c-.66,1.2-1.98,1.84-3.42,1.84-2.14,0-3.44-1.2-3.44-2.92ZM58.43,519.75v-1.06l-3.8.56c-.98.14-1.42.7-1.42,1.58,0,.98.68,1.62,1.98,1.62,1.72,0,3.24-1.14,3.24-2.7Z"/><path class="cls-5" d="M62.33,523.55v-10.26h1.56l.04,1.66c.6-1.1,1.68-1.9,3.32-1.9,2.44,0,3.56,1.5,3.56,3.86v6.64h-1.58v-6.26c0-1.84-.72-2.86-2.4-2.86s-2.9,1.26-2.9,3.3v5.82h-1.6Z"/><path class="cls-5" d="M73.13,523.55v-10.26h1.56l.04,1.66c.6-1.1,1.68-1.9,3.32-1.9,2.44,0,3.56,1.5,3.56,3.86v6.64h-1.58v-6.26c0-1.84-.72-2.86-2.4-2.86s-2.9,1.26-2.9,3.3v5.82h-1.6Z"/><path class="cls-5" d="M85.01,523.55v-8.98h-2.06v-1.28h2.06v-1.96c0-1.88,1.08-2.82,3.12-2.82.44,0,1.08.1,1.5.2v1.34c-.34-.08-.9-.2-1.3-.2-1.34,0-1.72.56-1.72,1.7v1.74h2.94v1.28h-2.94v8.98h-1.6ZM92.73,523.55h-1.6v-14.8h1.6v14.8Z"/><path class="cls-5" d="M94.65,520.87c0-1.48.88-2.6,2.52-2.84l4.32-.64v-.9c0-1.48-1.04-2.14-2.36-2.14-1.42,0-2.4.7-2.52,1.94h-1.56c.18-2.04,1.72-3.24,4.1-3.24,2.5,0,3.92,1.42,3.92,3.54v6.96h-1.5l-.06-1.6c-.66,1.2-1.98,1.84-3.42,1.84-2.14,0-3.44-1.2-3.44-2.92ZM101.49,519.75v-1.06l-3.8.56c-.98.14-1.42.7-1.42,1.58,0,.98.68,1.62,1.98,1.62,1.72,0,3.24-1.14,3.24-2.7Z"/><path class="cls-5" d="M108.01,523.55l-3.9-10.26h1.7l3.1,8.56,3.04-8.56h1.66l-3.84,10.26h-1.76Z"/><path class="cls-5" d="M116.77,511.62h-1.68v-2.88h1.68v2.88ZM116.71,513.28v10.26h-1.6v-10.26h1.6Z"/><path class="cls-5" d="M119.11,523.55v-10.26h1.56l.04,1.66c.6-1.1,1.68-1.9,3.32-1.9,2.44,0,3.56,1.5,3.56,3.86v6.64h-1.58v-6.26c0-1.84-.72-2.86-2.4-2.86s-2.9,1.26-2.9,3.3v5.82h-1.6Z"/><path class="cls-5" d="M144.01,523.55l-1.48-3.88h-6.44l-1.48,3.88h-1.72l5.54-14.2h1.84l5.54,14.2h-1.8ZM136.65,518.21h5.32l-2.66-6.98-2.66,6.98Z"/><path class="cls-5" d="M147.27,525.85c1.08,0,1.62-.58,1.62-1.72v-.58h-.8v-2.06h1.88v2.54c0,1.76-1.04,2.82-2.7,2.82v-1Z"/><path class="cls-5" d="M157.18,523.55v-14.2h5.42c2.74,0,4.54,1.1,4.54,3.7v.18c0,1.26-.62,2.3-1.7,2.8,1.46.46,2.36,1.74,2.36,3.3v.3c0,2.58-2,3.92-4.74,3.92h-5.88ZM158.87,515.52h3.78c1.88,0,2.76-.88,2.76-2.28v-.18c0-1.7-1.08-2.26-2.86-2.26h-3.68v4.72ZM158.87,522.09h4.14c1.78,0,3.06-.76,3.06-2.48v-.28c0-1.54-1-2.36-2.86-2.36h-4.34v5.12Z"/><path class="cls-5" d="M169.71,525.85c1.08,0,1.62-.58,1.62-1.72v-.58h-.8v-2.06h1.88v2.54c0,1.76-1.04,2.82-2.7,2.82v-1Z"/><path class="cls-5" d="M179.1,516.73v-.56c0-4.18,2.58-7.06,6.48-7.06,3.22,0,5.46,2.04,5.78,5.22h-1.72c-.34-2.36-1.9-3.7-4.08-3.7-2.94,0-4.7,2.28-4.7,5.54v.56c0,3.26,1.78,5.54,4.7,5.54,2.4,0,3.98-1.58,4.08-3.92h1.74c-.24,3.14-2.46,5.44-5.82,5.44-3.86,0-6.46-2.82-6.46-7.06Z"/><path class="cls-5" d="M20.6,546.7c0-1.18.76-1.84,1.8-1.84s1.8.66,1.8,1.84-.78,1.82-1.8,1.82-1.8-.68-1.8-1.82Z"/><path class="cls-5" d="M38.47,552.4v-14.2h8.86v1.48h-7.18v4.88h6.54v1.48h-6.54v6.36h-1.68Z"/><path class="cls-5" d="M50.79,537.59v14.8h-1.6v-14.8h1.6Z"/><path class="cls-5" d="M52.69,549.72c0-1.48.88-2.6,2.52-2.84l4.32-.64v-.9c0-1.48-1.04-2.14-2.36-2.14-1.42,0-2.4.7-2.52,1.94h-1.56c.18-2.04,1.72-3.24,4.1-3.24,2.5,0,3.92,1.42,3.92,3.54v6.96h-1.5l-.06-1.6c-.66,1.2-1.98,1.84-3.42,1.84-2.14,0-3.44-1.2-3.44-2.92ZM59.53,548.6v-1.06l-3.8.56c-.98.14-1.42.7-1.42,1.58,0,.98.68,1.62,1.98,1.62,1.72,0,3.24-1.14,3.24-2.7Z"/><path class="cls-5" d="M66.05,552.4l-3.9-10.26h1.7l3.1,8.56,3.04-8.56h1.66l-3.84,10.26h-1.76Z"/><path class="cls-5" d="M72.13,547.46v-.38c0-3.14,1.88-5.18,4.86-5.18s4.88,2.04,4.88,5.18v.38c0,3.14-1.9,5.18-4.88,5.18s-4.86-2.04-4.86-5.18ZM80.23,547.46v-.38c0-2.4-1.14-3.82-3.24-3.82s-3.22,1.42-3.22,3.82v.38c0,2.4,1.14,3.82,3.22,3.82s3.24-1.42,3.24-3.82Z"/><path class="cls-5" d="M83.83,552.4v-10.26h1.56l.04,1.66c.6-1.1,1.68-1.9,3.32-1.9,2.44,0,3.56,1.5,3.56,3.86v6.64h-1.58v-6.26c0-1.84-.72-2.86-2.4-2.86s-2.9,1.26-2.9,3.3v5.82h-1.6Z"/><path class="cls-5" d="M94.19,547.46v-.38c0-3.06,1.82-5.18,4.86-5.18,3.26,0,4.8,2.24,4.66,5.68h-7.88c.04,2.38,1.24,3.7,3.24,3.7,1.62,0,2.62-.74,2.96-2.06h1.62c-.5,2.16-2.14,3.42-4.58,3.42-3.1,0-4.88-2.14-4.88-5.18ZM102.03,546.28c-.16-1.9-1.16-3.02-2.98-3.02s-2.96,1.06-3.18,3.02h6.16Z"/><path class="cls-5" d="M20.6,575.55c0-1.18.76-1.84,1.8-1.84s1.8.66,1.8,1.84-.78,1.82-1.8,1.82-1.8-.68-1.8-1.82Z"/><path class="cls-5" d="M38.47,581.25v-14.2h8.86v1.48h-7.18v4.88h6.54v1.48h-6.54v6.36h-1.68Z"/><path class="cls-5" d="M50.79,566.44v14.8h-1.6v-14.8h1.6Z"/><path class="cls-5" d="M52.69,578.57c0-1.48.88-2.6,2.52-2.84l4.32-.64v-.9c0-1.48-1.04-2.14-2.36-2.14-1.42,0-2.4.7-2.52,1.94h-1.56c.18-2.04,1.72-3.24,4.1-3.24,2.5,0,3.92,1.42,3.92,3.54v6.96h-1.5l-.06-1.6c-.66,1.2-1.98,1.84-3.42,1.84-2.14,0-3.44-1.2-3.44-2.92ZM59.53,577.45v-1.06l-3.8.56c-.98.14-1.42.7-1.42,1.58,0,.98.68,1.62,1.98,1.62,1.72,0,3.24-1.14,3.24-2.7Z"/><path class="cls-5" d="M66.05,581.25l-3.9-10.26h1.7l3.1,8.56,3.04-8.56h1.66l-3.84,10.26h-1.76Z"/><path class="cls-5" d="M72.13,576.31v-.38c0-3.14,1.88-5.18,4.86-5.18s4.88,2.04,4.88,5.18v.38c0,3.14-1.9,5.18-4.88,5.18s-4.86-2.04-4.86-5.18ZM80.23,576.31v-.38c0-2.4-1.14-3.82-3.24-3.82s-3.22,1.42-3.22,3.82v.38c0,2.4,1.14,3.82,3.22,3.82s3.24-1.42,3.24-3.82Z"/><path class="cls-5" d="M83.83,581.25v-10.26h1.56l.04,1.66c.6-1.1,1.68-1.9,3.32-1.9,2.44,0,3.56,1.5,3.56,3.86v6.64h-1.58v-6.26c0-1.84-.72-2.86-2.4-2.86s-2.9,1.26-2.9,3.3v5.82h-1.6Z"/><path class="cls-5" d="M94.19,576.31v-.38c0-3.14,1.88-5.18,4.86-5.18s4.88,2.04,4.88,5.18v.38c0,3.14-1.9,5.18-4.88,5.18s-4.86-2.04-4.86-5.18ZM102.29,576.31v-.38c0-2.4-1.14-3.82-3.24-3.82s-3.22,1.42-3.22,3.82v.38c0,2.4,1.14,3.82,3.22,3.82s3.24-1.42,3.24-3.82Z"/><path class="cls-5" d="M107.49,566.44v14.8h-1.6v-14.8h1.6Z"/><rect class="cls-4" x="251.3" y="403.09" width="257.4" height="91.87"/><path class="cls-3" d="M352.95,454.8v-12.61h-4.31v-3.01h12.32v3.01h-4.29v12.61h-3.72Z"/><path class="cls-3" d="M362.4,454.8v-16.28h3.54v6.51c.57-.99,1.69-1.89,3.5-1.89,2.88,0,3.96,1.83,3.96,4.36v7.31h-3.52v-6.4c0-1.54-.48-2.44-1.83-2.44s-2.13.92-2.13,2.6v6.25h-3.52Z"/><path class="cls-3" d="M378.97,442.06h-3.65v-3.54h3.65v3.54ZM378.91,443.42v11.38h-3.52v-11.38h3.52Z"/><path class="cls-3" d="M380.6,449.21v-.22c0-3.43,2.38-5.85,5.96-5.85s5.96,2.42,5.96,5.85v.22c0,3.45-2.35,5.88-5.96,5.88s-5.96-2.42-5.96-5.88ZM388.96,449.21v-.22c0-2.07-.73-3.17-2.4-3.17s-2.4,1.1-2.4,3.17v.22c0,2.09.75,3.19,2.4,3.19s2.4-1.1,2.4-3.19Z"/><path class="cls-3" d="M397.76,438.51v16.28h-3.52v-16.28h3.52Z"/><path class="cls-3" d="M399.34,451.14h3.34c.13.97.9,1.52,2.07,1.52,1.06,0,1.69-.42,1.69-1.08,0-.62-.37-.99-2.4-1.34-3.04-.48-4.38-1.45-4.38-3.5,0-2.18,2-3.61,4.95-3.61s4.88,1.39,5.06,3.74h-3.28c-.09-.88-.79-1.34-1.83-1.34-.97,0-1.54.4-1.54,1.01s.46.95,2.4,1.23c3.21.46,4.47,1.54,4.47,3.48,0,2.29-1.98,3.83-5.17,3.83s-5.21-1.47-5.39-3.94Z"/><rect class="cls-2" x="251.3" y="403.09" width="257.4" height="295.55"/><path class="cls-5" d="M265.46,517.85c0-1.18.76-1.84,1.8-1.84s1.8.66,1.8,1.84-.78,1.82-1.8,1.82-1.8-.68-1.8-1.82Z"/><path class="cls-5" d="M283.33,523.55v-14.2h4.64c4.06,0,6.86,2.4,6.86,6.82v.56c0,4.38-2.76,6.82-6.86,6.82h-4.64ZM285.03,522.07h2.8c3.22,0,5.24-1.7,5.24-5.34v-.56c0-3.6-2-5.34-5.28-5.34h-2.76v11.24Z"/><path class="cls-5" d="M298.51,511.62h-1.68v-2.88h1.68v2.88ZM298.45,513.28v10.26h-1.6v-10.26h1.6Z"/><path class="cls-5" d="M300.85,523.55v-10.26h1.56l.02,1.62c.56-1.02,1.62-1.86,3.24-1.86s2.6.74,3.08,2.04c.72-1.3,1.88-2.04,3.42-2.04,2.26,0,3.4,1.44,3.4,3.82v6.68h-1.6v-6.34c0-1.84-.7-2.78-2.26-2.78-1.7,0-2.7,1.28-2.7,3.32v5.8h-1.6v-6.34c0-1.82-.66-2.78-2.22-2.78-1.7,0-2.74,1.28-2.74,3.36v5.76h-1.6Z"/><path class="cls-5" d="M317.45,518.61v-.38c0-3.06,1.82-5.18,4.86-5.18,3.26,0,4.8,2.24,4.66,5.68h-7.88c.04,2.38,1.24,3.7,3.24,3.7,1.62,0,2.62-.74,2.96-2.06h1.62c-.5,2.16-2.14,3.42-4.58,3.42-3.1,0-4.88-2.14-4.88-5.18ZM325.29,517.43c-.16-1.9-1.16-3.02-2.98-3.02s-2.96,1.06-3.18,3.02h6.16Z"/><path class="cls-5" d="M329.91,520.97v-6.4h-2.06v-1.28h2.06v-3.16h1.6v3.16h2.94v1.28h-2.94v6.18c0,1.14.38,1.68,1.72,1.68.4,0,.96-.1,1.3-.2v1.36c-.42.1-1.06.2-1.5.2-2.04,0-3.12-.94-3.12-2.82Z"/><path class="cls-5" d="M336.33,523.55v-14.8h1.6v6.18c.6-1.1,1.7-1.88,3.32-1.88,2.44,0,3.56,1.5,3.56,3.86v6.64h-1.58v-6.26c0-1.84-.72-2.86-2.4-2.86s-2.9,1.26-2.9,3.3v5.82h-1.6Z"/><path class="cls-5" d="M348.63,526.95l1.32-3.42-4-10.24h1.72l3.12,8.4,2.98-8.4h1.66l-5.16,13.66h-1.64Z"/><path class="cls-5" d="M358.53,508.74v14.8h-1.6v-14.8h1.6Z"/><path class="cls-5" d="M364.31,519.13h1.72c.2,2.3,1.86,3.16,3.96,3.16,1.88,0,3.5-.82,3.5-2.48v-.14c0-1.36-.96-2.1-3.96-2.62-3.52-.6-4.7-1.84-4.7-3.86v-.2c0-2.14,1.9-3.88,4.9-3.88,2.78,0,4.86,1.38,5.18,4.22h-1.72c-.24-1.84-1.56-2.74-3.46-2.74s-3.24.9-3.24,2.38v.14c0,1.32.82,2,3.62,2.46,3.34.54,5.06,1.68,5.06,4v.2c0,2.26-1.92,4.02-5.26,4.02s-5.44-1.6-5.6-4.66Z"/><path class="cls-5" d="M376.99,519.91v-6.62h1.6v6.32c0,1.72.66,2.78,2.38,2.78s2.76-1.36,2.76-3.34v-5.76h1.6v10.26h-1.56l-.02-1.62c-.62,1.1-1.74,1.86-3.24,1.86-2.36,0-3.52-1.48-3.52-3.88Z"/><path class="cls-5" d="M389.33,508.74v14.8h-1.6v-14.8h1.6Z"/><path class="cls-5" d="M392.81,523.55v-8.98h-2.06v-1.28h2.06v-1.96c0-1.88,1.08-2.82,3.12-2.82.44,0,1.08.1,1.5.2v1.34c-.34-.08-.9-.2-1.3-.2-1.34,0-1.72.56-1.72,1.7v1.74h2.94v1.28h-2.94v8.98h-1.6ZM398.91,511.62v-2.88h1.68v2.88h-1.68ZM400.53,523.55h-1.6v-10.26h1.6v10.26Z"/><path class="cls-5" d="M402.48,518.61v-.38c0-3.08,1.7-5.18,4.4-5.18,1.74,0,2.9.86,3.46,1.88v-6.18h1.62v14.8h-1.48l-.04-1.84c-.52,1.06-1.74,2.08-3.56,2.08-2.66,0-4.4-2.1-4.4-5.18ZM410.45,518.61v-.38c0-2.4-1.18-3.82-3.28-3.82-1.92,0-3.04,1.44-3.04,3.82v.38c0,2.36,1.1,3.82,3.04,3.82,2.12,0,3.28-1.44,3.28-3.82Z"/><path class="cls-5" d="M413.92,518.61v-.38c0-3.06,1.82-5.18,4.86-5.18,3.26,0,4.8,2.24,4.66,5.68h-7.88c.04,2.38,1.24,3.7,3.24,3.7,1.62,0,2.62-.74,2.96-2.06h1.62c-.5,2.16-2.14,3.42-4.58,3.42-3.1,0-4.88-2.14-4.88-5.18ZM421.77,517.43c-.16-1.9-1.16-3.02-2.98-3.02s-2.96,1.06-3.18,3.02h6.16Z"/><rect class="cls-4" x="520.62" y="403.09" width="232.93" height="91.87"/><path class="cls-3" d="M605.72,454.8v-15.62h11.53v3.01h-7.88v3.19h7.06v2.93h-7.06v3.48h8.05v3.01h-11.71Z"/><path class="cls-3" d="M618.68,451.14h3.34c.13.97.9,1.52,2.07,1.52,1.06,0,1.69-.42,1.69-1.08,0-.62-.37-.99-2.4-1.34-3.04-.48-4.38-1.45-4.38-3.5,0-2.18,2-3.61,4.95-3.61s4.88,1.39,5.06,3.74h-3.28c-.09-.88-.79-1.34-1.83-1.34-.97,0-1.54.4-1.54,1.01s.46.95,2.4,1.23c3.21.46,4.47,1.54,4.47,3.48,0,2.29-1.98,3.83-5.17,3.83s-5.21-1.47-5.39-3.94Z"/><path class="cls-3" d="M631.88,451.36v-5.41h-2.07v-2.53h2.07v-3.63h3.52v3.63h2.86v2.53h-2.86v5.17c0,.9.44,1.28,1.54,1.28.53,0,.97-.11,1.36-.22v2.62c-.59.18-1.47.29-2.22.29-2.88,0-4.2-1.28-4.2-3.72Z"/><path class="cls-3" d="M639.27,449.21v-.22c0-3.5,2.35-5.85,6.01-5.85,3.96,0,5.94,2.77,5.7,6.78h-8.21c.15,1.74.97,2.57,2.49,2.57,1.25,0,1.96-.62,2.2-1.34h3.45c-.55,2.4-2.6,3.94-5.63,3.94-3.72,0-6.01-2.31-6.01-5.88ZM647.44,447.87c-.09-1.3-.79-2.13-2.2-2.13s-2.18.66-2.42,2.13h4.62Z"/><path class="cls-3" d="M652.71,454.8v-11.38h3.37l.07,2.22c.53-1.32,1.61-2.42,3.32-2.42.24,0,.51.02.7.07v3.37c-.24-.02-.59-.04-.92-.04-2.05,0-3.01,1.01-3.01,2.88v5.3h-3.52Z"/><path class="cls-3" d="M661.14,451.14h3.34c.13.97.9,1.52,2.07,1.52,1.06,0,1.69-.42,1.69-1.08,0-.62-.37-.99-2.4-1.34-3.04-.48-4.38-1.45-4.38-3.5,0-2.18,2-3.61,4.95-3.61s4.88,1.39,5.06,3.74h-3.28c-.09-.88-.79-1.34-1.83-1.34-.97,0-1.54.4-1.54,1.01s.46.95,2.4,1.23c3.21.46,4.47,1.54,4.47,3.48,0,2.29-1.98,3.83-5.17,3.83s-5.21-1.47-5.39-3.94Z"/><path class="cls-1" d="M321.94,27.59v-.44c0-4.6,3.04-7.88,7.7-7.88,4.05,0,6.73,2.53,6.95,6.34h-3.74c-.15-2.09-1.39-3.28-3.28-3.28-2.44,0-3.78,1.94-3.78,4.82v.44c0,2.88,1.36,4.8,3.81,4.8,1.89,0,3.15-1.23,3.23-3.41h3.74c-.2,3.89-2.79,6.49-6.95,6.49-4.75,0-7.68-3.28-7.68-7.88Z"/><path class="cls-1" d="M349.2,35.18l-1.08-3.1h-5.99l-1.08,3.1h-3.76l5.88-15.62h4.05l5.88,15.62h-3.89ZM343.15,29.17h3.98l-2-5.76-1.98,5.76Z"/><path class="cls-1" d="M354.35,35.18v-15.62h4.33l5.92,10.36v-10.36h3.5v15.62h-4.12l-6.09-10.78v10.78h-3.54Z"/><path class="cls-1" d="M370.3,35.18v-15.62h4.33l5.92,10.36v-10.36h3.5v15.62h-4.12l-6.09-10.78v10.78h-3.54Z"/><path class="cls-1" d="M397.23,35.18l-1.08-3.1h-5.99l-1.08,3.1h-3.76l5.88-15.62h4.05l5.88,15.62h-3.89ZM391.18,29.17h3.98l-2-5.76-1.98,5.76Z"/><path class="cls-1" d="M402.38,35.18v-15.62h7.08c3.1,0,5.26,1.25,5.26,4.03v.22c0,1.32-.7,2.53-2.02,3.19,1.69.62,2.66,1.96,2.66,3.61v.2c0,2.66-2.24,4.38-5.48,4.38h-7.5ZM405.98,25.9h3.01c1.41,0,2.05-.51,2.05-1.63v-.22c0-1.1-.7-1.56-2.05-1.56h-3.01v3.41ZM405.98,32.25h3.54c1.39,0,2.16-.66,2.16-1.69v-.2c0-1.08-.7-1.69-2.13-1.69h-3.56v3.59Z"/><path class="cls-1" d="M417.18,35.18v-15.62h3.74v15.62h-3.74Z"/><path class="cls-1" d="M422.68,30.08h3.67c.22,1.65,1.41,2.49,3.26,2.49,1.65,0,2.62-.62,2.62-1.67v-.09c0-1.06-.7-1.52-3.65-2.05-3.76-.68-5.37-2.09-5.37-4.66v-.15c0-2.86,2.55-4.66,6.07-4.66s6.12,1.78,6.38,5.06h-3.67c-.15-1.47-1.14-2.18-2.77-2.18s-2.33.7-2.33,1.63v.07c0,.9.44,1.41,3.41,1.89,3.59.59,5.63,1.94,5.63,4.64v.18c0,3.04-2.68,4.91-6.4,4.91-4.14,0-6.62-2.02-6.84-5.39Z"/><rect class="cls-4" x="6.44" y="58.14" width="232.93" height="91.87"/><path class="cls-3" d="M72.07,95.42v-15.62h6.01c4.77,0,8.05,2.71,8.05,7.59v.44c0,4.88-3.28,7.59-8.05,7.59h-6.01ZM75.72,92.4h2.13c2.71,0,4.42-1.28,4.42-4.58v-.44c0-3.3-1.72-4.58-4.42-4.58h-2.13v9.59Z"/><path class="cls-3" d="M87.45,89.83v-.22c0-3.43,2.38-5.85,5.96-5.85s5.96,2.42,5.96,5.85v.22c0,3.45-2.35,5.88-5.96,5.88s-5.96-2.42-5.96-5.88ZM95.81,89.83v-.22c0-2.07-.73-3.17-2.4-3.17s-2.4,1.1-2.4,3.17v.22c0,2.09.75,3.19,2.4,3.19s2.4-1.1,2.4-3.19Z"/><path class="cls-3" d="M101.09,95.42v-11.38h3.37l.09,1.74c.53-1.01,1.65-2.02,3.41-2.02s2.86.68,3.43,2.11c.79-1.32,2.02-2.11,3.67-2.11,2.79,0,3.89,1.8,3.89,4.44v7.22h-3.52v-6.56c0-1.56-.59-2.31-1.69-2.31-1.23,0-1.96.88-1.96,2.75v6.12h-3.52v-6.54c0-1.54-.53-2.33-1.65-2.33-1.21,0-2,.84-2,2.73v6.14h-3.52Z"/><path class="cls-3" d="M124.52,82.68h-3.65v-3.54h3.65v3.54ZM124.45,84.04v11.38h-3.52v-11.38h3.52Z"/><path class="cls-3" d="M126.52,95.42v-11.38h3.37l.09,1.74c.55-1.01,1.67-2.02,3.59-2.02,2.88,0,3.96,1.83,3.96,4.36v7.31h-3.52v-6.4c0-1.54-.48-2.44-1.83-2.44s-2.13.92-2.13,2.6v6.25h-3.52Z"/><path class="cls-3" d="M139.04,92.25c0-1.96,1.25-3.12,3.43-3.39l3.96-.53v-.73c0-.84-.55-1.34-1.69-1.34s-1.8.46-1.89,1.32h-3.34c.13-2.42,2.2-3.83,5.3-3.83s5.06,1.5,5.06,3.87v7.79h-3.3l-.11-1.69c-.68,1.23-1.96,1.98-3.67,1.98-2.2,0-3.74-1.45-3.74-3.45ZM146.43,91.28v-.81l-2.68.35c-.88.11-1.3.53-1.3,1.21,0,.75.55,1.19,1.56,1.19,1.32,0,2.42-.77,2.42-1.94Z"/><path class="cls-3" d="M151.84,95.42v-11.38h3.37l.09,1.74c.55-1.01,1.67-2.02,3.59-2.02,2.88,0,3.96,1.83,3.96,4.36v7.31h-3.52v-6.4c0-1.54-.48-2.44-1.83-2.44s-2.13.92-2.13,2.6v6.25h-3.52Z"/><path class="cls-3" d="M166.1,91.99v-5.41h-2.07v-2.53h2.07v-3.63h3.52v3.63h2.86v2.53h-2.86v5.17c0,.9.44,1.28,1.54,1.28.53,0,.97-.11,1.36-.22v2.62c-.59.18-1.47.29-2.22.29-2.88,0-4.2-1.28-4.2-3.72Z"/><path class="cls-3" d="M51.07,116.68v-.44c0-4.6,3.04-7.88,7.7-7.88,4.05,0,6.73,2.53,6.95,6.34h-3.74c-.15-2.09-1.39-3.28-3.28-3.28-2.44,0-3.78,1.94-3.78,4.82v.44c0,2.88,1.36,4.8,3.81,4.8,1.89,0,3.15-1.23,3.23-3.41h3.74c-.2,3.89-2.79,6.49-6.95,6.49-4.75,0-7.68-3.28-7.68-7.88Z"/><path class="cls-3" d="M66.82,121.1c0-1.96,1.25-3.12,3.43-3.39l3.96-.53v-.73c0-.84-.55-1.34-1.69-1.34s-1.8.46-1.89,1.32h-3.34c.13-2.42,2.2-3.83,5.3-3.83s5.06,1.5,5.06,3.87v7.79h-3.3l-.11-1.69c-.68,1.23-1.96,1.98-3.67,1.98-2.2,0-3.74-1.45-3.74-3.45ZM74.21,120.13v-.81l-2.68.35c-.88.11-1.3.53-1.3,1.21,0,.75.55,1.19,1.56,1.19,1.32,0,2.42-.77,2.42-1.94Z"/><path class="cls-3" d="M79.62,124.27v-11.38h3.37l.09,1.74c.55-1.01,1.67-2.02,3.59-2.02,2.88,0,3.96,1.83,3.96,4.36v7.31h-3.52v-6.4c0-1.54-.48-2.44-1.83-2.44s-2.13.92-2.13,2.6v6.25h-3.52Z"/><path class="cls-3" d="M92.6,124.27v-11.38h3.37l.09,1.74c.55-1.01,1.67-2.02,3.59-2.02,2.88,0,3.96,1.83,3.96,4.36v7.31h-3.52v-6.4c0-1.54-.48-2.44-1.83-2.44s-2.13.92-2.13,2.6v6.25h-3.52Z"/><path class="cls-3" d="M105.12,121.1c0-1.96,1.25-3.12,3.43-3.39l3.96-.53v-.73c0-.84-.55-1.34-1.69-1.34s-1.8.46-1.89,1.32h-3.34c.13-2.42,2.2-3.83,5.3-3.83s5.06,1.5,5.06,3.87v7.79h-3.3l-.11-1.69c-.68,1.23-1.96,1.98-3.67,1.98-2.2,0-3.74-1.45-3.74-3.45ZM112.51,120.13v-.81l-2.68.35c-.88.11-1.3.53-1.3,1.21,0,.75.55,1.19,1.56,1.19,1.32,0,2.42-.77,2.42-1.94Z"/><path class="cls-3" d="M121.31,122.44l-.11,1.83h-3.28v-16.28h3.54v6.4c.64-1.01,1.8-1.78,3.43-1.78,3.06,0,4.86,2.53,4.86,5.85v.22c0,3.39-1.89,5.88-4.97,5.88-1.83,0-3.01-1.06-3.48-2.11ZM126.2,118.68v-.22c0-2.11-.79-3.21-2.42-3.21s-2.42,1.1-2.42,3.21v.22c0,2.09.79,3.21,2.42,3.21s2.42-1.12,2.42-3.21Z"/><path class="cls-3" d="M135.04,111.53h-3.65v-3.54h3.65v3.54ZM134.97,112.89v11.38h-3.52v-11.38h3.52Z"/><path class="cls-3" d="M137.04,124.27v-11.38h3.37l.09,1.74c.55-1.01,1.67-2.02,3.59-2.02,2.88,0,3.96,1.83,3.96,4.36v7.31h-3.52v-6.4c0-1.54-.48-2.44-1.83-2.44s-2.13.92-2.13,2.6v6.25h-3.52Z"/><path class="cls-3" d="M149.65,118.68v-.22c0-3.43,2.38-5.85,5.96-5.85s5.96,2.42,5.96,5.85v.22c0,3.45-2.35,5.88-5.96,5.88s-5.96-2.42-5.96-5.88ZM158.01,118.68v-.22c0-2.07-.73-3.17-2.4-3.17s-2.4,1.1-2.4,3.17v.22c0,2.09.75,3.19,2.4,3.19s2.4-1.1,2.4-3.19Z"/><path class="cls-3" d="M166.87,111.53h-3.65v-3.54h3.65v3.54ZM166.81,112.89v11.38h-3.52v-11.38h3.52Z"/><path class="cls-3" d="M168.5,118.68v-.22c0-3.32,1.8-5.85,4.86-5.85,1.63,0,2.79.77,3.43,1.78v-6.4h3.54v16.28h-3.28l-.11-1.83c-.46,1.06-1.65,2.11-3.48,2.11-3.08,0-4.97-2.49-4.97-5.88ZM176.91,118.68v-.22c0-2.11-.79-3.21-2.42-3.21s-2.42,1.1-2.42,3.21v.22c0,2.09.79,3.21,2.42,3.21s2.42-1.12,2.42-3.21Z"/><path class="cls-3" d="M181.92,120.62h3.34c.13.97.9,1.52,2.07,1.52,1.06,0,1.69-.42,1.69-1.08,0-.62-.37-.99-2.4-1.34-3.04-.48-4.38-1.45-4.38-3.5,0-2.18,2-3.61,4.95-3.61s4.88,1.39,5.06,3.74h-3.28c-.09-.88-.79-1.34-1.83-1.34-.97,0-1.54.4-1.54,1.01s.46.95,2.4,1.23c3.21.46,4.47,1.54,4.47,3.48,0,2.29-1.98,3.83-5.17,3.83s-5.21-1.47-5.39-3.94Z"/><rect class="cls-2" x="6.44" y="58.14" width="232.93" height="322.57"/><path class="cls-5" d="M20.6,172.89c0-1.18.76-1.84,1.8-1.84s1.8.66,1.8,1.84-.78,1.82-1.8,1.82-1.8-.68-1.8-1.82Z"/><path class="cls-5" d="M38.47,178.59v-14.2h4.64c4.06,0,6.86,2.4,6.86,6.82v.56c0,4.38-2.76,6.82-6.86,6.82h-4.64ZM40.17,177.11h2.8c3.22,0,5.24-1.7,5.24-5.34v-.56c0-3.6-2-5.34-5.28-5.34h-2.76v11.24Z"/><path class="cls-5" d="M52.05,174.95h1.72c.22,1.5,1.34,2.4,2.98,2.4,2.28,0,3.6-1.32,3.6-5.62v-.32c-.62,1.18-2,2.12-3.86,2.12-2.52,0-4.58-1.72-4.58-4.44v-.24c0-2.7,2.04-4.7,4.86-4.7,3.16,0,5.22,2.38,5.22,7v.74c0,4.36-1.9,6.94-5.24,6.94-2.56,0-4.34-1.48-4.7-3.88ZM60.01,169.09v-.32c0-1.86-1.38-3.2-3.26-3.2s-3.14,1.24-3.14,3.2v.36c0,1.82,1.28,3,3.14,3s3.26-1.28,3.26-3.04Z"/><path class="cls-5" d="M67.83,178.59v-12.72h-4.36v-1.48h10.44v1.48h-4.38v12.72h-1.7Z"/><path class="cls-5" d="M75.63,178.59v-14.2h1.7v6.14h7.78v-6.14h1.7v14.2h-1.7v-6.58h-7.78v6.58h-1.7Z"/><path class="cls-5" d="M88.97,171.77v-.56c0-4.18,2.58-7.06,6.48-7.06,3.22,0,5.46,2.04,5.78,5.22h-1.72c-.34-2.36-1.9-3.7-4.08-3.7-2.94,0-4.7,2.28-4.7,5.54v.56c0,3.26,1.78,5.54,4.7,5.54,2.4,0,3.98-1.58,4.08-3.92h1.74c-.24,3.14-2.46,5.44-5.82,5.44-3.86,0-6.46-2.82-6.46-7.06Z"/><path class="cls-5" d="M20.6,201.74c0-1.18.76-1.84,1.8-1.84s1.8.66,1.8,1.84-.78,1.82-1.8,1.82-1.8-.68-1.8-1.82Z"/><path class="cls-5" d="M38.47,207.44v-14.2h4.64c4.06,0,6.86,2.4,6.86,6.82v.56c0,4.38-2.76,6.82-6.86,6.82h-4.64ZM40.17,205.96h2.8c3.22,0,5.24-1.7,5.24-5.34v-.56c0-3.6-2-5.34-5.28-5.34h-2.76v11.24Z"/><path class="cls-5" d="M52.05,203.8h1.72c.22,1.5,1.34,2.4,2.98,2.4,2.28,0,3.6-1.32,3.6-5.62v-.32c-.62,1.18-2,2.12-3.86,2.12-2.52,0-4.58-1.72-4.58-4.44v-.24c0-2.7,2.04-4.7,4.86-4.7,3.16,0,5.22,2.38,5.22,7v.74c0,4.36-1.9,6.94-5.24,6.94-2.56,0-4.34-1.48-4.7-3.88ZM60.01,197.94v-.32c0-1.86-1.38-3.2-3.26-3.2s-3.14,1.24-3.14,3.2v.36c0,1.82,1.28,3,3.14,3s3.26-1.28,3.26-3.04Z"/><path class="cls-5" d="M67.83,207.44v-12.72h-4.36v-1.48h10.44v1.48h-4.38v12.72h-1.7Z"/><path class="cls-5" d="M75.63,207.44v-14.2h1.7v6.14h7.78v-6.14h1.7v14.2h-1.7v-6.58h-7.78v6.58h-1.7Z"/><path class="cls-5" d="M88.97,200.62v-.56c0-4.18,2.58-7.06,6.48-7.06,3.22,0,5.46,2.04,5.78,5.22h-1.72c-.34-2.36-1.9-3.7-4.08-3.7-2.94,0-4.7,2.28-4.7,5.54v.56c0,3.26,1.78,5.54,4.7,5.54,2.4,0,3.98-1.58,4.08-3.92h1.74c-.24,3.14-2.46,5.44-5.82,5.44-3.86,0-6.46-2.82-6.46-7.06Z"/><path class="cls-5" d="M113.33,207.44l-1.48-3.88h-6.44l-1.48,3.88h-1.72l5.54-14.2h1.84l5.54,14.2h-1.8ZM105.97,202.1h5.32l-2.66-6.98-2.66,6.98Z"/><path class="cls-5" d="M20.6,230.59c0-1.18.76-1.84,1.8-1.84s1.8.66,1.8,1.84-.78,1.82-1.8,1.82-1.8-.68-1.8-1.82Z"/><path class="cls-5" d="M37.95,229.47v-.56c0-4.18,2.58-7.06,6.48-7.06,3.22,0,5.46,2.04,5.78,5.22h-1.72c-.34-2.36-1.9-3.7-4.08-3.7-2.94,0-4.7,2.28-4.7,5.54v.56c0,3.26,1.78,5.54,4.7,5.54,2.4,0,3.98-1.58,4.08-3.92h1.74c-.24,3.14-2.46,5.44-5.82,5.44-3.86,0-6.46-2.82-6.46-7.06Z"/><path class="cls-5" d="M52.23,236.29v-14.2h5.42c2.74,0,4.54,1.1,4.54,3.7v.18c0,1.26-.62,2.3-1.7,2.8,1.46.46,2.36,1.74,2.36,3.3v.3c0,2.58-2,3.92-4.74,3.92h-5.88ZM53.91,228.27h3.78c1.88,0,2.76-.88,2.76-2.28v-.18c0-1.7-1.08-2.26-2.86-2.26h-3.68v4.72ZM53.91,234.83h4.14c1.78,0,3.06-.76,3.06-2.48v-.28c0-1.54-1-2.36-2.86-2.36h-4.34v5.12Z"/><path class="cls-5" d="M64.93,236.29v-14.2h4.64c4.06,0,6.86,2.4,6.86,6.82v.56c0,4.38-2.76,6.82-6.86,6.82h-4.64ZM66.63,234.81h2.8c3.22,0,5.24-1.7,5.24-5.34v-.56c0-3.6-2-5.34-5.28-5.34h-2.76v11.24Z"/><path class="cls-5" d="M20.6,259.44c0-1.18.76-1.84,1.8-1.84s1.8.66,1.8,1.84-.78,1.82-1.8,1.82-1.8-.68-1.8-1.82Z"/><path class="cls-5" d="M37.95,258.32v-.56c0-4.18,2.58-7.06,6.48-7.06,3.22,0,5.46,2.04,5.78,5.22h-1.72c-.34-2.36-1.9-3.7-4.08-3.7-2.94,0-4.7,2.28-4.7,5.54v.56c0,3.26,1.78,5.54,4.7,5.54,2.4,0,3.98-1.58,4.08-3.92h1.74c-.24,3.14-2.46,5.44-5.82,5.44-3.86,0-6.46-2.82-6.46-7.06Z"/><path class="cls-5" d="M52.23,265.14v-14.2h5.42c2.74,0,4.54,1.1,4.54,3.7v.18c0,1.26-.62,2.3-1.7,2.8,1.46.46,2.36,1.74,2.36,3.3v.3c0,2.58-2,3.92-4.74,3.92h-5.88ZM53.91,257.12h3.78c1.88,0,2.76-.88,2.76-2.28v-.18c0-1.7-1.08-2.26-2.86-2.26h-3.68v4.72ZM53.91,263.68h4.14c1.78,0,3.06-.76,3.06-2.48v-.28c0-1.54-1-2.36-2.86-2.36h-4.34v5.12Z"/><path class="cls-5" d="M64.93,265.14v-14.2h4.64c4.06,0,6.86,2.4,6.86,6.82v.56c0,4.38-2.76,6.82-6.86,6.82h-4.64ZM66.63,263.66h2.8c3.22,0,5.24-1.7,5.24-5.34v-.56c0-3.6-2-5.34-5.28-5.34h-2.76v11.24Z"/><path class="cls-5" d="M87.71,265.14l-1.48-3.88h-6.44l-1.48,3.88h-1.72l5.54-14.2h1.84l5.54,14.2h-1.8ZM80.35,259.8h5.32l-2.66-6.98-2.66,6.98Z"/><rect class="cls-4" x="251.3" y="58.14" width="257.4" height="91.87"/><path class="cls-3" d="M350.94,95.42v-15.62h5.28l3.43,10.91,3.45-10.91h5v15.62h-3.5v-11.31l-3.59,11.31h-2.88l-3.63-11.35v11.35h-3.56Z"/><path class="cls-3" d="M373.82,82.68h-3.65v-3.54h3.65v3.54ZM373.75,84.04v11.38h-3.52v-11.38h3.52Z"/><path class="cls-3" d="M375.82,95.42v-11.38h3.37l.09,1.74c.55-1.01,1.67-2.02,3.59-2.02,2.88,0,3.96,1.83,3.96,4.36v7.31h-3.52v-6.4c0-1.54-.48-2.44-1.83-2.44s-2.13.92-2.13,2.6v6.25h-3.52Z"/><path class="cls-3" d="M388.43,89.83v-.22c0-3.43,2.38-5.85,5.96-5.85s5.96,2.42,5.96,5.85v.22c0,3.45-2.35,5.88-5.96,5.88s-5.96-2.42-5.96-5.88ZM396.79,89.83v-.22c0-2.07-.73-3.17-2.4-3.17s-2.4,1.1-2.4,3.17v.22c0,2.09.75,3.19,2.4,3.19s2.4-1.1,2.4-3.19Z"/><path class="cls-3" d="M402.07,95.42v-11.38h3.37l.07,2.22c.53-1.32,1.61-2.42,3.32-2.42.24,0,.51.02.7.07v3.37c-.24-.02-.59-.04-.92-.04-2.05,0-3.01,1.01-3.01,2.88v5.3h-3.52Z"/><path class="cls-3" d="M308.16,116.68v-.44c0-4.6,3.04-7.88,7.7-7.88,4.05,0,6.73,2.53,6.95,6.34h-3.74c-.15-2.09-1.39-3.28-3.28-3.28-2.44,0-3.78,1.94-3.78,4.82v.44c0,2.88,1.36,4.8,3.81,4.8,1.89,0,3.15-1.23,3.23-3.41h3.74c-.2,3.89-2.79,6.49-6.95,6.49-4.75,0-7.68-3.28-7.68-7.88Z"/><path class="cls-3" d="M323.91,121.1c0-1.96,1.25-3.12,3.43-3.39l3.96-.53v-.73c0-.84-.55-1.34-1.69-1.34s-1.8.46-1.89,1.32h-3.34c.13-2.42,2.2-3.83,5.3-3.83s5.06,1.5,5.06,3.87v7.79h-3.3l-.11-1.69c-.68,1.23-1.96,1.98-3.67,1.98-2.2,0-3.74-1.45-3.74-3.45ZM331.3,120.13v-.81l-2.68.35c-.88.11-1.3.53-1.3,1.21,0,.75.55,1.19,1.56,1.19,1.32,0,2.42-.77,2.42-1.94Z"/><path class="cls-3" d="M336.71,124.27v-11.38h3.37l.09,1.74c.55-1.01,1.67-2.02,3.59-2.02,2.88,0,3.96,1.83,3.96,4.36v7.31h-3.52v-6.4c0-1.54-.48-2.44-1.83-2.44s-2.13.92-2.13,2.6v6.25h-3.52Z"/><path class="cls-3" d="M349.69,124.27v-11.38h3.37l.09,1.74c.55-1.01,1.67-2.02,3.59-2.02,2.88,0,3.96,1.83,3.96,4.36v7.31h-3.52v-6.4c0-1.54-.48-2.44-1.83-2.44s-2.13.92-2.13,2.6v6.25h-3.52Z"/><path class="cls-3" d="M362.21,121.1c0-1.96,1.25-3.12,3.43-3.39l3.96-.53v-.73c0-.84-.55-1.34-1.69-1.34s-1.8.46-1.89,1.32h-3.34c.13-2.42,2.2-3.83,5.3-3.83s5.06,1.5,5.06,3.87v7.79h-3.3l-.11-1.69c-.68,1.23-1.96,1.98-3.67,1.98-2.2,0-3.74-1.45-3.74-3.45ZM369.6,120.13v-.81l-2.68.35c-.88.11-1.3.53-1.3,1.21,0,.75.55,1.19,1.56,1.19,1.32,0,2.42-.77,2.42-1.94Z"/><path class="cls-3" d="M378.4,122.44l-.11,1.83h-3.28v-16.28h3.54v6.4c.64-1.01,1.8-1.78,3.43-1.78,3.06,0,4.86,2.53,4.86,5.85v.22c0,3.39-1.89,5.88-4.97,5.88-1.83,0-3.01-1.06-3.48-2.11ZM383.29,118.68v-.22c0-2.11-.79-3.21-2.42-3.21s-2.42,1.1-2.42,3.21v.22c0,2.09.79,3.21,2.42,3.21s2.42-1.12,2.42-3.21Z"/><path class="cls-3" d="M392.13,111.53h-3.65v-3.54h3.65v3.54ZM392.06,112.89v11.38h-3.52v-11.38h3.52Z"/><path class="cls-3" d="M394.13,124.27v-11.38h3.37l.09,1.74c.55-1.01,1.67-2.02,3.59-2.02,2.88,0,3.96,1.83,3.96,4.36v7.31h-3.52v-6.4c0-1.54-.48-2.44-1.83-2.44s-2.13.92-2.13,2.6v6.25h-3.52Z"/><path class="cls-3" d="M406.74,118.68v-.22c0-3.43,2.38-5.85,5.96-5.85s5.96,2.42,5.96,5.85v.22c0,3.45-2.35,5.88-5.96,5.88s-5.96-2.42-5.96-5.88ZM415.1,118.68v-.22c0-2.07-.73-3.17-2.4-3.17s-2.4,1.1-2.4,3.17v.22c0,2.09.75,3.19,2.4,3.19s2.4-1.1,2.4-3.19Z"/><path class="cls-3" d="M423.96,111.53h-3.65v-3.54h3.65v3.54ZM423.9,112.89v11.38h-3.52v-11.38h3.52Z"/><path class="cls-3" d="M425.59,118.68v-.22c0-3.32,1.8-5.85,4.86-5.85,1.63,0,2.79.77,3.43,1.78v-6.4h3.54v16.28h-3.28l-.11-1.83c-.46,1.06-1.65,2.11-3.48,2.11-3.08,0-4.97-2.49-4.97-5.88ZM434,118.68v-.22c0-2.11-.79-3.21-2.42-3.21s-2.42,1.1-2.42,3.21v.22c0,2.09.79,3.21,2.42,3.21s2.42-1.12,2.42-3.21Z"/><path class="cls-3" d="M439.01,120.62h3.34c.13.97.9,1.52,2.07,1.52,1.06,0,1.69-.42,1.69-1.08,0-.62-.37-.99-2.4-1.34-3.04-.48-4.38-1.45-4.38-3.5,0-2.18,2-3.61,4.95-3.61s4.88,1.39,5.06,3.74h-3.28c-.09-.88-.79-1.34-1.83-1.34-.97,0-1.54.4-1.54,1.01s.46.95,2.4,1.23c3.21.46,4.47,1.54,4.47,3.48,0,2.29-1.98,3.83-5.17,3.83s-5.21-1.47-5.39-3.94Z"/><rect class="cls-2" x="251.3" y="58.14" width="257.4" height="322.57"/><path class="cls-5" d="M265.46,172.89c0-1.18.76-1.84,1.8-1.84s1.8.66,1.8,1.84-.78,1.82-1.8,1.82-1.8-.68-1.8-1.82Z"/><path class="cls-5" d="M282.81,171.77v-.56c0-4.18,2.58-7.06,6.48-7.06,3.22,0,5.46,2.04,5.78,5.22h-1.72c-.34-2.36-1.9-3.7-4.08-3.7-2.94,0-4.7,2.28-4.7,5.54v.56c0,3.26,1.78,5.54,4.7,5.54,2.4,0,3.98-1.58,4.08-3.92h1.74c-.24,3.14-2.46,5.44-5.82,5.44-3.86,0-6.46-2.82-6.46-7.06Z"/><path class="cls-5" d="M297.09,178.59v-14.2h5.42c2.74,0,4.54,1.1,4.54,3.7v.18c0,1.26-.62,2.3-1.7,2.8,1.46.46,2.36,1.74,2.36,3.3v.3c0,2.58-2,3.92-4.74,3.92h-5.88ZM298.77,170.57h3.78c1.88,0,2.76-.88,2.76-2.28v-.18c0-1.7-1.08-2.26-2.86-2.26h-3.68v4.72ZM298.77,177.13h4.14c1.78,0,3.06-.76,3.06-2.48v-.28c0-1.54-1-2.36-2.86-2.36h-4.34v5.12Z"/><path class="cls-5" d="M309.27,171.77v-.56c0-4.16,2.62-7.06,6.5-7.06,3.14,0,5.38,1.96,5.76,4.84h-1.72c-.36-2.1-1.92-3.32-4.06-3.32-2.98,0-4.72,2.28-4.72,5.54v.56c0,3.26,1.78,5.54,4.66,5.54s4.26-2.08,4.26-4.02v-.66h-4.38v-1.46h5.98v7.42h-1.44l-.22-2.06c-.66,1.34-2.32,2.3-4.22,2.3-3.82,0-6.4-2.84-6.4-7.06Z"/><path class="cls-5" d="M265.46,201.74c0-1.18.76-1.84,1.8-1.84s1.8.66,1.8,1.84-.78,1.82-1.8,1.82-1.8-.68-1.8-1.82Z"/><path class="cls-5" d="M282.81,200.62v-.56c0-4.18,2.58-7.06,6.48-7.06,3.22,0,5.46,2.04,5.78,5.22h-1.72c-.34-2.36-1.9-3.7-4.08-3.7-2.94,0-4.7,2.28-4.7,5.54v.56c0,3.26,1.78,5.54,4.7,5.54,2.4,0,3.98-1.58,4.08-3.92h1.74c-.24,3.14-2.46,5.44-5.82,5.44-3.86,0-6.46-2.82-6.46-7.06Z"/><path class="cls-5" d="M297.09,207.44v-14.2h5.42c2.74,0,4.54,1.1,4.54,3.7v.18c0,1.26-.62,2.3-1.7,2.8,1.46.46,2.36,1.74,2.36,3.3v.3c0,2.58-2,3.92-4.74,3.92h-5.88ZM298.77,199.42h3.78c1.88,0,2.76-.88,2.76-2.28v-.18c0-1.7-1.08-2.26-2.86-2.26h-3.68v4.72ZM298.77,205.98h4.14c1.78,0,3.06-.76,3.06-2.48v-.28c0-1.54-1-2.36-2.86-2.36h-4.34v5.12Z"/><path class="cls-5" d="M309.27,200.62v-.56c0-4.18,2.58-7.06,6.48-7.06,3.22,0,5.46,2.04,5.78,5.22h-1.72c-.34-2.36-1.9-3.7-4.08-3.7-2.94,0-4.7,2.28-4.7,5.54v.56c0,3.26,1.78,5.54,4.7,5.54,2.4,0,3.98-1.58,4.08-3.92h1.74c-.24,3.14-2.46,5.44-5.82,5.44-3.86,0-6.46-2.82-6.46-7.06Z"/><path class="cls-5" d="M265.46,230.59c0-1.18.76-1.84,1.8-1.84s1.8.66,1.8,1.84-.78,1.82-1.8,1.82-1.8-.68-1.8-1.82Z"/><path class="cls-5" d="M282.81,229.47v-.56c0-4.18,2.58-7.06,6.48-7.06,3.22,0,5.46,2.04,5.78,5.22h-1.72c-.34-2.36-1.9-3.7-4.08-3.7-2.94,0-4.7,2.28-4.7,5.54v.56c0,3.26,1.78,5.54,4.7,5.54,2.4,0,3.98-1.58,4.08-3.92h1.74c-.24,3.14-2.46,5.44-5.82,5.44-3.86,0-6.46-2.82-6.46-7.06Z"/><path class="cls-5" d="M297.09,236.29v-14.2h5.42c2.74,0,4.54,1.1,4.54,3.7v.18c0,1.26-.62,2.3-1.7,2.8,1.46.46,2.36,1.74,2.36,3.3v.3c0,2.58-2,3.92-4.74,3.92h-5.88ZM298.77,228.27h3.78c1.88,0,2.76-.88,2.76-2.28v-.18c0-1.7-1.08-2.26-2.86-2.26h-3.68v4.72ZM298.77,234.83h4.14c1.78,0,3.06-.76,3.06-2.48v-.28c0-1.54-1-2.36-2.86-2.36h-4.34v5.12Z"/><path class="cls-5" d="M309.79,236.29v-14.2h2.08l7.4,11.72v-11.72h1.68v14.2h-1.94l-7.54-11.96v11.96h-1.68Z"/><path class="cls-5" d="M265.46,259.44c0-1.18.76-1.84,1.8-1.84s1.8.66,1.8,1.84-.78,1.82-1.8,1.82-1.8-.68-1.8-1.82Z"/><path class="cls-5" d="M286.73,265.14v-12.72h-4.36v-1.48h10.44v1.48h-4.38v12.72h-1.7Z"/><path class="cls-5" d="M294.53,265.14v-14.2h1.7v6.14h7.78v-6.14h1.7v14.2h-1.7v-6.58h-7.78v6.58h-1.7Z"/><path class="cls-5" d="M307.87,258.32v-.56c0-4.18,2.58-7.06,6.48-7.06,3.22,0,5.46,2.04,5.78,5.22h-1.72c-.34-2.36-1.9-3.7-4.08-3.7-2.94,0-4.7,2.28-4.7,5.54v.56c0,3.26,1.78,5.54,4.7,5.54,2.4,0,3.98-1.58,4.08-3.92h1.74c-.24,3.14-2.46,5.44-5.82,5.44-3.86,0-6.46-2.82-6.46-7.06Z"/><path class="cls-5" d="M324.81,265.14l-3.9-10.26h1.7l3.1,8.56,3.04-8.56h1.66l-3.84,10.26h-1.76Z"/><path class="cls-5" d="M265.46,288.29c0-1.18.76-1.84,1.8-1.84s1.8.66,1.8,1.84-.78,1.82-1.8,1.82-1.8-.68-1.8-1.82Z"/><path class="cls-5" d="M282.81,287.17v-.56c0-4.18,2.58-7.06,6.48-7.06,3.22,0,5.46,2.04,5.78,5.22h-1.72c-.34-2.36-1.9-3.7-4.08-3.7-2.94,0-4.7,2.28-4.7,5.54v.56c0,3.26,1.78,5.54,4.7,5.54,2.4,0,3.98-1.58,4.08-3.92h1.74c-.24,3.14-2.46,5.44-5.82,5.44-3.86,0-6.46-2.82-6.46-7.06Z"/><path class="cls-5" d="M297.09,293.99v-14.2h5.42c2.74,0,4.54,1.1,4.54,3.7v.18c0,1.26-.62,2.3-1.7,2.8,1.46.46,2.36,1.74,2.36,3.3v.3c0,2.58-2,3.92-4.74,3.92h-5.88ZM298.77,285.97h3.78c1.88,0,2.76-.88,2.76-2.28v-.18c0-1.7-1.08-2.26-2.86-2.26h-3.68v4.72ZM298.77,292.53h4.14c1.78,0,3.06-.76,3.06-2.48v-.28c0-1.54-1-2.36-2.86-2.36h-4.34v5.12Z"/><path class="cls-5" d="M309.79,293.99v-14.2h4.64c4.06,0,6.86,2.4,6.86,6.82v.56c0,4.38-2.76,6.82-6.86,6.82h-4.64ZM311.49,292.51h2.8c3.22,0,5.24-1.7,5.24-5.34v-.56c0-3.6-2-5.34-5.28-5.34h-2.76v11.24Z"/><path class="cls-5" d="M326.31,293.99l-3.9-10.26h1.7l3.1,8.56,3.04-8.56h1.66l-3.84,10.26h-1.76Z"/><path class="cls-5" d="M265.46,317.14c0-1.18.76-1.84,1.8-1.84s1.8.66,1.8,1.84-.78,1.82-1.8,1.82-1.8-.68-1.8-1.82Z"/><path class="cls-5" d="M283.41,322.84v-14.2h1.7v14.2h-1.7Z"/><path class="cls-5" d="M287.21,319.7h1.54c.24,1.46,1.2,2.08,2.76,2.08,1.44,0,2.4-.58,2.4-1.7,0-.98-.68-1.44-2.74-1.8-2.38-.44-3.6-1.16-3.6-2.98s1.54-2.96,3.76-2.96,3.76,1.12,3.98,3.12h-1.58c-.18-1.2-1.1-1.82-2.4-1.82s-2.18.6-2.18,1.58.62,1.4,2.64,1.72c2.38.4,3.74,1.18,3.74,2.98,0,1.92-1.66,3.16-4.06,3.16s-4.06-1.18-4.26-3.38Z"/><path class="cls-5" d="M296.99,317.9v-.38c0-3.14,1.88-5.18,4.86-5.18s4.88,2.04,4.88,5.18v.38c0,3.14-1.9,5.18-4.88,5.18s-4.86-2.04-4.86-5.18ZM305.09,317.9v-.38c0-2.4-1.14-3.82-3.24-3.82s-3.22,1.42-3.22,3.82v.38c0,2.4,1.14,3.82,3.22,3.82s3.24-1.42,3.24-3.82Z"/><path class="cls-5" d="M308.69,322.84v-10.26h1.56l.02,1.62c.56-1.02,1.62-1.86,3.24-1.86s2.6.74,3.08,2.04c.72-1.3,1.88-2.04,3.42-2.04,2.26,0,3.4,1.44,3.4,3.82v6.68h-1.6v-6.34c0-1.84-.7-2.78-2.26-2.78-1.7,0-2.7,1.28-2.7,3.32v5.8h-1.6v-6.34c0-1.82-.66-2.78-2.22-2.78-1.7,0-2.74,1.28-2.74,3.36v5.76h-1.6Z"/><path class="cls-5" d="M325.29,317.9v-.38c0-3.06,1.82-5.18,4.86-5.18,3.26,0,4.8,2.24,4.66,5.68h-7.88c.04,2.38,1.24,3.7,3.24,3.7,1.62,0,2.62-.74,2.96-2.06h1.62c-.5,2.16-2.14,3.42-4.58,3.42-3.1,0-4.88-2.14-4.88-5.18ZM333.13,316.72c-.16-1.9-1.16-3.02-2.98-3.02s-2.96,1.06-3.18,3.02h6.16Z"/><path class="cls-5" d="M336.67,322.84v-10.26h1.56l.02,1.98c.62-1.42,1.76-2.22,3.18-2.22.16,0,.34,0,.54.04v1.6c-.22-.02-.36-.02-.58-.02-1.86,0-3.12,1.14-3.12,3.38v5.5h-1.6Z"/><path class="cls-5" d="M342.93,319.7h1.54c.24,1.46,1.2,2.08,2.76,2.08,1.44,0,2.4-.58,2.4-1.7,0-.98-.68-1.44-2.74-1.8-2.38-.44-3.6-1.16-3.6-2.98s1.54-2.96,3.76-2.96,3.76,1.12,3.98,3.12h-1.58c-.18-1.2-1.1-1.82-2.4-1.82s-2.18.6-2.18,1.58.62,1.4,2.64,1.72c2.38.4,3.74,1.18,3.74,2.98,0,1.92-1.66,3.16-4.06,3.16s-4.06-1.18-4.26-3.38Z"/><rect class="cls-4" x="520.62" y="58.14" width="232.93" height="91.87"/><path class="cls-3" d="M582.85,109.84v-12.61h-4.31v-3.01h12.32v3.01h-4.29v12.61h-3.72Z"/><path class="cls-3" d="M589.73,104.25v-.22c0-3.5,2.35-5.85,6.01-5.85,3.96,0,5.94,2.77,5.7,6.78h-8.21c.15,1.74.97,2.57,2.49,2.57,1.25,0,1.96-.62,2.2-1.34h3.45c-.55,2.4-2.6,3.94-5.63,3.94-3.72,0-6.01-2.31-6.01-5.88ZM597.89,102.91c-.09-1.3-.79-2.13-2.2-2.13s-2.18.66-2.42,2.13h4.62Z"/><path class="cls-3" d="M603.17,109.84v-11.38h3.37l.07,2.22c.53-1.32,1.61-2.42,3.32-2.42.24,0,.51.02.7.07v3.37c-.24-.02-.59-.04-.92-.04-2.05,0-3.01,1.01-3.01,2.88v5.3h-3.52Z"/><path class="cls-3" d="M612.08,113.58v-15.12h3.28l.11,1.8c.48-1.06,1.72-2.09,3.52-2.09,3.08,0,4.93,2.51,4.93,5.85v.22c0,3.37-1.85,5.88-4.91,5.88-1.58,0-2.79-.79-3.39-1.85v5.3h-3.54ZM620.36,104.25v-.22c0-2.11-.79-3.21-2.42-3.21s-2.42,1.1-2.42,3.21v.22c0,2.09.79,3.21,2.42,3.21s2.42-1.12,2.42-3.21Z"/><path class="cls-3" d="M625.24,104.25v-.22c0-3.5,2.35-5.85,6.01-5.85,3.96,0,5.94,2.77,5.7,6.78h-8.21c.15,1.74.97,2.57,2.49,2.57,1.25,0,1.96-.62,2.2-1.34h3.45c-.55,2.4-2.6,3.94-5.63,3.94-3.72,0-6.01-2.31-6.01-5.88ZM633.4,102.91c-.09-1.3-.79-2.13-2.2-2.13s-2.18.66-2.42,2.13h4.62Z"/><path class="cls-3" d="M638.68,109.84v-11.38h3.37l.09,1.74c.55-1.01,1.67-2.02,3.59-2.02,2.88,0,3.96,1.83,3.96,4.36v7.31h-3.52v-6.4c0-1.54-.48-2.44-1.83-2.44s-2.13.92-2.13,2.6v6.25h-3.52Z"/><path class="cls-3" d="M651.29,104.25v-.22c0-3.43,2.38-5.85,5.96-5.85s5.96,2.42,5.96,5.85v.22c0,3.45-2.35,5.88-5.96,5.88s-5.96-2.42-5.96-5.88ZM659.65,104.25v-.22c0-2.07-.73-3.17-2.4-3.17s-2.4,1.1-2.4,3.17v.22c0,2.09.75,3.19,2.4,3.19s2.4-1.1,2.4-3.19Z"/><path class="cls-3" d="M668.51,97.1h-3.65v-3.54h3.65v3.54ZM668.45,98.47v11.38h-3.52v-11.38h3.52Z"/><path class="cls-3" d="M670.14,104.25v-.22c0-3.32,1.8-5.85,4.86-5.85,1.63,0,2.79.77,3.43,1.78v-6.4h3.54v16.28h-3.28l-.11-1.83c-.46,1.06-1.65,2.11-3.48,2.11-3.08,0-4.97-2.49-4.97-5.88ZM678.55,104.25v-.22c0-2.11-.79-3.21-2.42-3.21s-2.42,1.1-2.42,3.21v.22c0,2.09.79,3.21,2.42,3.21s2.42-1.12,2.42-3.21Z"/><path class="cls-3" d="M683.56,106.19h3.34c.13.97.9,1.52,2.07,1.52,1.06,0,1.69-.42,1.69-1.08,0-.62-.37-.99-2.4-1.34-3.04-.48-4.38-1.45-4.38-3.5,0-2.18,2-3.61,4.95-3.61s4.88,1.39,5.06,3.74h-3.28c-.09-.88-.79-1.34-1.83-1.34-.97,0-1.54.4-1.54,1.01s.46.95,2.4,1.23c3.21.46,4.47,1.54,4.47,3.48,0,2.29-1.98,3.83-5.17,3.83s-5.21-1.47-5.39-3.94Z"/><rect class="cls-2" x="520.62" y="58.14" width="232.93" height="322.57"/><path class="cls-5" d="M534.79,172.89c0-1.18.76-1.84,1.8-1.84s1.8.66,1.8,1.84-.78,1.82-1.8,1.82-1.8-.68-1.8-1.82Z"/><path class="cls-5" d="M552.65,178.59v-14.2h1.7v6.14h7.78v-6.14h1.7v14.2h-1.7v-6.58h-7.78v6.58h-1.7Z"/><path class="cls-5" d="M566.29,174.95v-6.62h1.6v6.32c0,1.72.66,2.78,2.38,2.78s2.76-1.36,2.76-3.34v-5.76h1.6v10.26h-1.56l-.02-1.62c-.62,1.1-1.74,1.86-3.24,1.86-2.36,0-3.52-1.48-3.52-3.88Z"/><path class="cls-5" d="M577.03,178.59v-10.26h1.56l.02,1.62c.56-1.02,1.62-1.86,3.24-1.86s2.6.74,3.08,2.04c.72-1.3,1.88-2.04,3.42-2.04,2.26,0,3.4,1.44,3.4,3.82v6.68h-1.6v-6.34c0-1.84-.7-2.78-2.26-2.78-1.7,0-2.7,1.28-2.7,3.32v5.8h-1.6v-6.34c0-1.82-.66-2.78-2.22-2.78-1.7,0-2.74,1.28-2.74,3.36v5.76h-1.6Z"/><path class="cls-5" d="M593.99,174.95v-6.62h1.6v6.32c0,1.72.66,2.78,2.38,2.78s2.76-1.36,2.76-3.34v-5.76h1.6v10.26h-1.56l-.02-1.62c-.62,1.1-1.74,1.86-3.24,1.86-2.36,0-3.52-1.48-3.52-3.88Z"/><path class="cls-5" d="M606.33,163.79v14.8h-1.6v-14.8h1.6Z"/><path class="cls-5" d="M608.29,173.65v-.38c0-3.06,1.82-5.18,4.86-5.18,3.26,0,4.8,2.24,4.66,5.68h-7.88c.04,2.38,1.24,3.7,3.24,3.7,1.62,0,2.62-.74,2.96-2.06h1.62c-.5,2.16-2.14,3.42-4.58,3.42-3.1,0-4.88-2.14-4.88-5.18ZM616.13,172.47c-.16-1.9-1.16-3.02-2.98-3.02s-2.96,1.06-3.18,3.02h6.16Z"/><path class="cls-5" d="M619.67,178.59v-10.26h1.56l.04,1.66c.6-1.1,1.68-1.9,3.32-1.9,2.44,0,3.56,1.5,3.56,3.86v6.64h-1.58v-6.26c0-1.84-.72-2.86-2.4-2.86s-2.9,1.26-2.9,3.3v5.82h-1.6Z"/><path class="cls-5" d="M630.03,173.65v-.38c0-3.06,1.82-5.18,4.86-5.18,3.26,0,4.8,2.24,4.66,5.68h-7.88c.04,2.38,1.24,3.7,3.24,3.7,1.62,0,2.62-.74,2.96-2.06h1.62c-.5,2.16-2.14,3.42-4.58,3.42-3.1,0-4.88-2.14-4.88-5.18ZM637.87,172.47c-.16-1.9-1.16-3.02-2.98-3.02s-2.96,1.06-3.18,3.02h6.16Z"/><path class="cls-5" d="M534.79,201.74c0-1.18.76-1.84,1.8-1.84s1.8.66,1.8,1.84-.78,1.82-1.8,1.82-1.8-.68-1.8-1.82Z"/><path class="cls-5" d="M554.43,206.44v1.34c0,1.12.04,2.8.24,3.62h-1.64c-.24-.64-.3-2-.3-3.4v-9.2c0-2.76.74-3.98,1.5-4.72.66-.64,1.56-1.06,2.84-1.06,2,0,3.52,1.4,3.52,3.48,0,1.54-.88,2.68-1.8,3.12v.1c1.52.3,2.96,1.58,2.96,3.8,0,2.68-2.04,4.14-4.16,4.14-1.36,0-2.36-.44-3.12-1.22h-.04ZM554.43,204.7c.44.74,1.44,1.6,2.82,1.6,1.6,0,2.74-1.18,2.74-2.76,0-1.94-1.34-2.92-3.12-2.98h-.54v-1.2c.12,0,.24,0,.34-.02,1.52-.12,2.28-1.3,2.28-2.56,0-1.44-.86-2.36-2.04-2.36-1.62,0-2.48,1.4-2.48,4.18v6.1Z"/><path class="cls-5" d="M563.69,202.42v-1.48h6.18v1.48h-6.18Z"/><path class="cls-5" d="M571.89,200.62v-.56c0-4.18,2.58-7.06,6.48-7.06,3.22,0,5.46,2.04,5.78,5.22h-1.72c-.34-2.36-1.9-3.7-4.08-3.7-2.94,0-4.7,2.28-4.7,5.54v.56c0,3.26,1.78,5.54,4.7,5.54,2.4,0,3.98-1.58,4.08-3.92h1.74c-.24,3.14-2.46,5.44-5.82,5.44-3.86,0-6.46-2.82-6.46-7.06Z"/><path class="cls-5" d="M585.53,204.76c0-1.48.88-2.6,2.52-2.84l4.32-.64v-.9c0-1.48-1.04-2.14-2.36-2.14-1.42,0-2.4.7-2.52,1.94h-1.56c.18-2.04,1.72-3.24,4.1-3.24,2.5,0,3.92,1.42,3.92,3.54v6.96h-1.5l-.06-1.6c-.66,1.2-1.98,1.84-3.42,1.84-2.14,0-3.44-1.2-3.44-2.92ZM592.37,203.64v-1.06l-3.8.56c-.98.14-1.42.7-1.42,1.58,0,.98.68,1.62,1.98,1.62,1.72,0,3.24-1.14,3.24-2.7Z"/><path class="cls-5" d="M596.27,207.44v-10.26h1.56l.02,1.98c.62-1.42,1.76-2.22,3.18-2.22.16,0,.34,0,.54.04v1.6c-.22-.02-.36-.02-.58-.02-1.86,0-3.12,1.14-3.12,3.38v5.5h-1.6Z"/><path class="cls-5" d="M604.85,210.85l1.32-3.42-4-10.24h1.72l3.12,8.4,2.98-8.4h1.66l-5.16,13.66h-1.64Z"/><path class="cls-5" d="M612.11,202.5v-.38c0-3.14,1.88-5.18,4.86-5.18s4.88,2.04,4.88,5.18v.38c0,3.14-1.9,5.18-4.88,5.18s-4.86-2.04-4.86-5.18ZM620.21,202.5v-.38c0-2.4-1.14-3.82-3.24-3.82s-3.22,1.42-3.22,3.82v.38c0,2.4,1.14,3.82,3.22,3.82s3.24-1.42,3.24-3.82Z"/><path class="cls-5" d="M623.81,210.85v-13.66h1.5l.04,1.84c.52-1.08,1.74-2.08,3.56-2.08,2.66,0,4.4,2.08,4.4,5.18v.38c0,3.08-1.74,5.18-4.42,5.18-1.74,0-2.92-.9-3.48-1.92v5.08h-1.6ZM631.67,202.5v-.38c0-2.38-1.12-3.82-3.04-3.82-2.12,0-3.28,1.44-3.28,3.82v.38c0,2.4,1.18,3.82,3.26,3.82,1.94,0,3.06-1.44,3.06-3.82Z"/><path class="cls-5" d="M635.27,207.44v-14.8h1.6v6.18c.6-1.1,1.7-1.88,3.32-1.88,2.44,0,3.56,1.5,3.56,3.86v6.64h-1.58v-6.26c0-1.84-.72-2.86-2.4-2.86s-2.9,1.26-2.9,3.3v5.82h-1.6Z"/><path class="cls-5" d="M647.57,210.85l1.32-3.42-4-10.24h1.72l3.12,8.4,2.98-8.4h1.66l-5.16,13.66h-1.64Z"/><path class="cls-5" d="M657.47,192.64v14.8h-1.6v-14.8h1.6Z"/><path class="cls-5" d="M661.47,192.64v14.8h-1.6v-14.8h1.6Z"/><path class="cls-5" d="M663.43,202.5v-.38c0-3.06,1.82-5.18,4.86-5.18,3.26,0,4.8,2.24,4.66,5.68h-7.88c.04,2.38,1.24,3.7,3.24,3.7,1.62,0,2.62-.74,2.96-2.06h1.62c-.5,2.16-2.14,3.42-4.58,3.42-3.1,0-4.88-2.14-4.88-5.18ZM671.27,201.32c-.16-1.9-1.16-3.02-2.98-3.02s-2.96,1.06-3.18,3.02h6.16Z"/><path class="cls-5" d="M674.81,207.44v-10.26h1.56l.04,1.66c.6-1.1,1.68-1.9,3.32-1.9,2.44,0,3.56,1.5,3.56,3.86v6.64h-1.58v-6.26c0-1.84-.72-2.86-2.4-2.86s-2.9,1.26-2.9,3.3v5.82h-1.6Z"/><path class="cls-5" d="M685.17,202.5v-.38c0-3.06,1.82-5.18,4.86-5.18,3.26,0,4.8,2.24,4.66,5.68h-7.88c.04,2.38,1.24,3.7,3.24,3.7,1.62,0,2.62-.74,2.96-2.06h1.62c-.5,2.16-2.14,3.42-4.58,3.42-3.1,0-4.88-2.14-4.88-5.18ZM693.01,201.32c-.16-1.9-1.16-3.02-2.98-3.02s-2.96,1.06-3.18,3.02h6.16Z"/><path class="cls-5" d="M534.79,230.59c0-1.18.76-1.84,1.8-1.84s1.8.66,1.8,1.84-.78,1.82-1.8,1.82-1.8-.68-1.8-1.82Z"/><path class="cls-5" d="M552.65,236.29v-14.2h1.7v12.72h6.26v1.48h-7.96Z"/><path class="cls-5" d="M563.79,224.37h-1.68v-2.88h1.68v2.88ZM563.73,226.03v10.26h-1.6v-10.26h1.6Z"/><path class="cls-5" d="M566.13,236.29v-10.26h1.56l.02,1.62c.56-1.02,1.62-1.86,3.24-1.86s2.6.74,3.08,2.04c.72-1.3,1.88-2.04,3.42-2.04,2.26,0,3.4,1.44,3.4,3.82v6.68h-1.6v-6.34c0-1.84-.7-2.78-2.26-2.78-1.7,0-2.7,1.28-2.7,3.32v5.8h-1.6v-6.34c0-1.82-.66-2.78-2.22-2.78-1.7,0-2.74,1.28-2.74,3.36v5.76h-1.6Z"/><path class="cls-5" d="M582.73,231.35v-.38c0-3.14,1.88-5.18,4.86-5.18s4.88,2.04,4.88,5.18v.38c0,3.14-1.9,5.18-4.88,5.18s-4.86-2.04-4.86-5.18ZM590.83,231.35v-.38c0-2.4-1.14-3.82-3.24-3.82s-3.22,1.42-3.22,3.82v.38c0,2.4,1.14,3.82,3.22,3.82s3.24-1.42,3.24-3.82Z"/><path class="cls-5" d="M594.43,236.29v-10.26h1.56l.04,1.66c.6-1.1,1.68-1.9,3.32-1.9,2.44,0,3.56,1.5,3.56,3.86v6.64h-1.58v-6.26c0-1.84-.72-2.86-2.4-2.86s-2.9,1.26-2.9,3.3v5.82h-1.6Z"/><path class="cls-5" d="M604.79,231.35v-.38c0-3.06,1.82-5.18,4.86-5.18,3.26,0,4.8,2.24,4.66,5.68h-7.88c.04,2.38,1.24,3.7,3.24,3.7,1.62,0,2.62-.74,2.96-2.06h1.62c-.5,2.16-2.14,3.42-4.58,3.42-3.1,0-4.88-2.14-4.88-5.18ZM612.63,230.17c-.16-1.9-1.16-3.02-2.98-3.02s-2.96,1.06-3.18,3.02h6.16Z"/><path class="cls-5" d="M616.17,236.29v-10.26h1.56l.04,1.66c.6-1.1,1.68-1.9,3.32-1.9,2.44,0,3.56,1.5,3.56,3.86v6.64h-1.58v-6.26c0-1.84-.72-2.86-2.4-2.86s-2.9,1.26-2.9,3.3v5.82h-1.6Z"/><path class="cls-5" d="M626.53,231.35v-.38c0-3.06,1.82-5.18,4.86-5.18,3.26,0,4.8,2.24,4.66,5.68h-7.88c.04,2.38,1.24,3.7,3.24,3.7,1.62,0,2.62-.74,2.96-2.06h1.62c-.5,2.16-2.14,3.42-4.58,3.42-3.1,0-4.88-2.14-4.88-5.18ZM634.37,230.17c-.16-1.9-1.16-3.02-2.98-3.02s-2.96,1.06-3.18,3.02h6.16Z"/><path class="cls-5" d="M534.79,259.44c0-1.18.76-1.84,1.8-1.84s1.8.66,1.8,1.84-.78,1.82-1.8,1.82-1.8-.68-1.8-1.82Z"/><path class="cls-5" d="M554.43,264.14v1.34c0,1.12.04,2.8.24,3.62h-1.64c-.24-.64-.3-2-.3-3.4v-9.2c0-2.76.74-3.98,1.5-4.72.66-.64,1.56-1.06,2.84-1.06,2,0,3.52,1.4,3.52,3.48,0,1.54-.88,2.68-1.8,3.12v.1c1.52.3,2.96,1.58,2.96,3.8,0,2.68-2.04,4.14-4.16,4.14-1.36,0-2.36-.44-3.12-1.22h-.04ZM554.43,262.4c.44.74,1.44,1.6,2.82,1.6,1.6,0,2.74-1.18,2.74-2.76,0-1.94-1.34-2.92-3.12-2.98h-.54v-1.2c.12,0,.24,0,.34-.02,1.52-.12,2.28-1.3,2.28-2.56,0-1.44-.86-2.36-2.04-2.36-1.62,0-2.48,1.4-2.48,4.18v6.1Z"/><path class="cls-5" d="M563.69,260.12v-1.48h6.18v1.48h-6.18Z"/><path class="cls-5" d="M572.41,265.14v-14.2h5.54c2.76,0,4.56,1.42,4.56,4.04v.36c0,2.64-1.8,4.04-4.56,4.04h-3.84v5.76h-1.7ZM574.11,257.9h3.78c1.78,0,2.9-.82,2.9-2.56v-.36c0-1.74-1.12-2.56-2.9-2.56h-3.78v5.48Z"/><path class="cls-5" d="M585.97,253.22h-1.68v-2.88h1.68v2.88ZM585.91,254.88v10.26h-1.6v-10.26h1.6Z"/><path class="cls-5" d="M588.31,265.14v-10.26h1.56l.04,1.66c.6-1.1,1.68-1.9,3.32-1.9,2.44,0,3.56,1.5,3.56,3.86v6.64h-1.58v-6.26c0-1.84-.72-2.86-2.4-2.86s-2.9,1.26-2.9,3.3v5.82h-1.6Z"/><path class="cls-5" d="M598.67,260.2v-.38c0-3.06,1.82-5.18,4.86-5.18,3.26,0,4.8,2.24,4.66,5.68h-7.88c.04,2.38,1.24,3.7,3.24,3.7,1.62,0,2.62-.74,2.96-2.06h1.62c-.5,2.16-2.14,3.42-4.58,3.42-3.1,0-4.88-2.14-4.88-5.18ZM606.51,259.02c-.16-1.9-1.16-3.02-2.98-3.02s-2.96,1.06-3.18,3.02h6.16Z"/><path class="cls-5" d="M610.05,265.14v-10.26h1.56l.04,1.66c.6-1.1,1.68-1.9,3.32-1.9,2.44,0,3.56,1.5,3.56,3.86v6.64h-1.58v-6.26c0-1.84-.72-2.86-2.4-2.86s-2.9,1.26-2.9,3.3v5.82h-1.6Z"/><path class="cls-5" d="M620.41,260.2v-.38c0-3.06,1.82-5.18,4.86-5.18,3.26,0,4.8,2.24,4.66,5.68h-7.88c.04,2.38,1.24,3.7,3.24,3.7,1.62,0,2.62-.74,2.96-2.06h1.62c-.5,2.16-2.14,3.42-4.58,3.42-3.1,0-4.88-2.14-4.88-5.18ZM628.25,259.02c-.16-1.9-1.16-3.02-2.98-3.02s-2.96,1.06-3.18,3.02h6.16Z"/><path class="cls-5" d="M534.79,288.29c0-1.18.76-1.84,1.8-1.84s1.8.66,1.8,1.84-.78,1.82-1.8,1.82-1.8-.68-1.8-1.82Z"/><path class="cls-5" d="M561.09,284.31c-.1,1.02-.26,4.34-.26,6.94,0,1.14.28,1.6.96,1.62l-.14,1.26c-.14.06-.4.08-.6.08-.86,0-1.56-.56-1.66-2.04h-.06c-.64,1.18-1.76,2.04-3.3,2.04-2.3,0-3.96-1.92-3.96-4.86,0-3.16,2.08-5.24,4.32-5.24,1.4,0,2.46.72,2.98,1.9h.08c.04-.74.1-1.24.18-1.7h1.46ZM553.85,289.33c0,1.8.94,3.48,2.62,3.48,1.22,0,2.28-1.18,2.58-2.44.1-.44.12-.82.12-1.36,0-.4,0-.72-.08-1.06-.24-1.28-1.2-2.46-2.48-2.46-1.62,0-2.76,1.62-2.76,3.8v.04Z"/><path class="cls-5" d="M563.51,288.97v-1.48h6.18v1.48h-6.18Z"/><path class="cls-5" d="M572.23,293.99v-14.2h5.54c2.76,0,4.56,1.42,4.56,4.04v.36c0,2.64-1.8,4.04-4.56,4.04h-3.84v5.76h-1.7ZM573.93,286.75h3.78c1.78,0,2.9-.82,2.9-2.56v-.36c0-1.74-1.12-2.56-2.9-2.56h-3.78v5.48Z"/><path class="cls-5" d="M585.79,282.07h-1.68v-2.88h1.68v2.88ZM585.73,283.73v10.26h-1.6v-10.26h1.6Z"/><path class="cls-5" d="M588.13,293.99v-10.26h1.56l.04,1.66c.6-1.1,1.68-1.9,3.32-1.9,2.44,0,3.56,1.5,3.56,3.86v6.64h-1.58v-6.26c0-1.84-.72-2.86-2.4-2.86s-2.9,1.26-2.9,3.3v5.82h-1.6Z"/><path class="cls-5" d="M598.49,289.05v-.38c0-3.06,1.82-5.18,4.86-5.18,3.26,0,4.8,2.24,4.66,5.68h-7.88c.04,2.38,1.24,3.7,3.24,3.7,1.62,0,2.62-.74,2.96-2.06h1.62c-.5,2.16-2.14,3.42-4.58,3.42-3.1,0-4.88-2.14-4.88-5.18ZM606.33,287.87c-.16-1.9-1.16-3.02-2.98-3.02s-2.96,1.06-3.18,3.02h6.16Z"/><path class="cls-5" d="M609.87,293.99v-10.26h1.56l.04,1.66c.6-1.1,1.68-1.9,3.32-1.9,2.44,0,3.56,1.5,3.56,3.86v6.64h-1.58v-6.26c0-1.84-.72-2.86-2.4-2.86s-2.9,1.26-2.9,3.3v5.82h-1.6Z"/><path class="cls-5" d="M620.23,289.05v-.38c0-3.06,1.82-5.18,4.86-5.18,3.26,0,4.8,2.24,4.66,5.68h-7.88c.04,2.38,1.24,3.7,3.24,3.7,1.62,0,2.62-.74,2.96-2.06h1.62c-.5,2.16-2.14,3.42-4.58,3.42-3.1,0-4.88-2.14-4.88-5.18ZM628.07,287.87c-.16-1.9-1.16-3.02-2.98-3.02s-2.96,1.06-3.18,3.02h6.16Z"/><path class="cls-5" d="M534.79,317.14c0-1.18.76-1.84,1.8-1.84s1.8.66,1.8,1.84-.78,1.82-1.8,1.82-1.8-.68-1.8-1.82Z"/><path class="cls-5" d="M556.05,322.84v-12.72h-4.36v-1.48h10.44v1.48h-4.38v12.72h-1.7Z"/><path class="cls-5" d="M561.05,317.9v-.38c0-3.06,1.82-5.18,4.86-5.18,3.26,0,4.8,2.24,4.66,5.68h-7.88c.04,2.38,1.24,3.7,3.24,3.7,1.62,0,2.62-.74,2.96-2.06h1.62c-.5,2.16-2.14,3.42-4.58,3.42-3.1,0-4.88-2.14-4.88-5.18ZM568.89,316.72c-.16-1.9-1.16-3.02-2.98-3.02s-2.96,1.06-3.18,3.02h6.16Z"/><path class="cls-5" d="M572.43,322.84v-10.26h1.56l.02,1.98c.62-1.42,1.76-2.22,3.18-2.22.16,0,.34,0,.54.04v1.6c-.22-.02-.36-.02-.58-.02-1.86,0-3.12,1.14-3.12,3.38v5.5h-1.6Z"/><path class="cls-5" d="M579.23,326.25v-13.66h1.5l.04,1.84c.52-1.08,1.74-2.08,3.56-2.08,2.66,0,4.4,2.08,4.4,5.18v.38c0,3.08-1.74,5.18-4.42,5.18-1.74,0-2.92-.9-3.48-1.92v5.08h-1.6ZM587.09,317.9v-.38c0-2.38-1.12-3.82-3.04-3.82-2.12,0-3.28,1.44-3.28,3.82v.38c0,2.4,1.18,3.82,3.26,3.82,1.94,0,3.06-1.44,3.06-3.82Z"/><path class="cls-5" d="M592.35,310.92h-1.68v-2.88h1.68v2.88ZM592.29,312.58v10.26h-1.6v-10.26h1.6Z"/><path class="cls-5" d="M594.69,322.84v-10.26h1.56l.04,1.66c.6-1.1,1.68-1.9,3.32-1.9,2.44,0,3.56,1.5,3.56,3.86v6.64h-1.58v-6.26c0-1.84-.72-2.86-2.4-2.86s-2.9,1.26-2.9,3.3v5.82h-1.6Z"/><path class="cls-5" d="M605.05,317.9v-.38c0-3.14,1.88-5.18,4.86-5.18s4.88,2.04,4.88,5.18v.38c0,3.14-1.9,5.18-4.88,5.18s-4.86-2.04-4.86-5.18ZM613.15,317.9v-.38c0-2.4-1.14-3.82-3.24-3.82s-3.22,1.42-3.22,3.82v.38c0,2.4,1.14,3.82,3.22,3.82s3.24-1.42,3.24-3.82Z"/><path class="cls-5" d="M618.35,308.04v14.8h-1.6v-14.8h1.6Z"/><path class="cls-5" d="M620.31,317.9v-.38c0-3.06,1.82-5.18,4.86-5.18,3.26,0,4.8,2.24,4.66,5.68h-7.88c.04,2.38,1.24,3.7,3.24,3.7,1.62,0,2.62-.74,2.96-2.06h1.62c-.5,2.16-2.14,3.42-4.58,3.42-3.1,0-4.88-2.14-4.88-5.18ZM628.15,316.72c-.16-1.9-1.16-3.02-2.98-3.02s-2.96,1.06-3.18,3.02h6.16Z"/><path class="cls-5" d="M631.69,322.84v-10.26h1.56l.04,1.66c.6-1.1,1.68-1.9,3.32-1.9,2.44,0,3.56,1.5,3.56,3.86v6.64h-1.58v-6.26c0-1.84-.72-2.86-2.4-2.86s-2.9,1.26-2.9,3.3v5.82h-1.6Z"/><path class="cls-5" d="M642.05,317.9v-.38c0-3.06,1.82-5.18,4.86-5.18,3.26,0,4.8,2.24,4.66,5.68h-7.88c.04,2.38,1.24,3.7,3.24,3.7,1.62,0,2.62-.74,2.96-2.06h1.62c-.5,2.16-2.14,3.42-4.58,3.42-3.1,0-4.88-2.14-4.88-5.18ZM649.89,316.72c-.16-1.9-1.16-3.02-2.98-3.02s-2.96,1.06-3.18,3.02h6.16Z"/><path class="cls-5" d="M534.79,345.99c0-1.18.76-1.84,1.8-1.84s1.8.66,1.8,1.84-.78,1.82-1.8,1.82-1.8-.68-1.8-1.82Z"/><path class="cls-5" d="M552.65,351.69v-14.2h2.6l4.46,12.1,4.46-12.1h2.56v14.2h-1.7v-12.14l-4.54,12.14h-1.58l-4.56-12.14v12.14h-1.7Z"/><path class="cls-5" d="M571.05,355.09l1.32-3.42-4-10.24h1.72l3.12,8.4,2.98-8.4h1.66l-5.16,13.66h-1.64Z"/><path class="cls-5" d="M579.35,351.69v-10.26h1.56l.02,1.98c.62-1.42,1.76-2.22,3.18-2.22.16,0,.34,0,.54.04v1.6c-.22-.02-.36-.02-.58-.02-1.86,0-3.12,1.14-3.12,3.38v5.5h-1.6Z"/><path class="cls-5" d="M585.37,346.75v-.38c0-3.06,1.72-5.18,4.78-5.18,2.48,0,4.08,1.46,4.36,3.66h-1.6c-.28-1.42-1.18-2.3-2.8-2.3-2,0-3.1,1.4-3.1,3.82v.38c0,2.42,1.1,3.82,3.12,3.82,1.6,0,2.56-.94,2.84-2.36h1.6c-.38,2.28-1.98,3.72-4.44,3.72-3.04,0-4.76-2.14-4.76-5.18Z"/><path class="cls-5" d="M595.61,346.75v-.38c0-3.06,1.82-5.18,4.86-5.18,3.26,0,4.8,2.24,4.66,5.68h-7.88c.04,2.38,1.24,3.7,3.24,3.7,1.62,0,2.62-.74,2.96-2.06h1.62c-.5,2.16-2.14,3.42-4.58,3.42-3.1,0-4.88-2.14-4.88-5.18ZM603.45,345.57c-.16-1.9-1.16-3.02-2.98-3.02s-2.96,1.06-3.18,3.02h6.16Z"/><path class="cls-5" d="M606.99,351.69v-10.26h1.56l.04,1.66c.6-1.1,1.68-1.9,3.32-1.9,2.44,0,3.56,1.5,3.56,3.86v6.64h-1.58v-6.26c0-1.84-.72-2.86-2.4-2.86s-2.9,1.26-2.9,3.3v5.82h-1.6Z"/><path class="cls-5" d="M617.35,346.75v-.38c0-3.06,1.82-5.18,4.86-5.18,3.26,0,4.8,2.24,4.66,5.68h-7.88c.04,2.38,1.24,3.7,3.24,3.7,1.62,0,2.62-.74,2.96-2.06h1.62c-.5,2.16-2.14,3.42-4.58,3.42-3.1,0-4.88-2.14-4.88-5.18ZM625.19,345.57c-.16-1.9-1.16-3.02-2.98-3.02s-2.96,1.06-3.18,3.02h6.16Z"/><rect class="cls-2" x="520.62" y="403.09" width="232.93" height="295.55"/><path class="cls-5" d="M534.79,517.85c0-1.18.76-1.84,1.8-1.84s1.8.66,1.8,1.84-.78,1.82-1.8,1.82-1.8-.68-1.8-1.82Z"/><path class="cls-5" d="M552.65,523.55v-14.2h2.6l4.46,12.1,4.46-12.1h2.56v14.2h-1.7v-12.14l-4.54,12.14h-1.58l-4.56-12.14v12.14h-1.7Z"/><path class="cls-5" d="M568.83,518.61v-.38c0-3.06,1.82-5.18,4.86-5.18,3.26,0,4.8,2.24,4.66,5.68h-7.88c.04,2.38,1.24,3.7,3.24,3.7,1.62,0,2.62-.74,2.96-2.06h1.62c-.5,2.16-2.14,3.42-4.58,3.42-3.1,0-4.88-2.14-4.88-5.18ZM576.67,517.43c-.16-1.9-1.16-3.02-2.98-3.02s-2.96,1.06-3.18,3.02h6.16Z"/><path class="cls-5" d="M581.29,520.97v-6.4h-2.06v-1.28h2.06v-3.16h1.6v3.16h2.94v1.28h-2.94v6.18c0,1.14.38,1.68,1.72,1.68.4,0,.96-.1,1.3-.2v1.36c-.42.1-1.06.2-1.5.2-2.04,0-3.12-.94-3.12-2.82Z"/><path class="cls-5" d="M587.71,523.55v-14.8h1.6v6.18c.6-1.1,1.7-1.88,3.32-1.88,2.44,0,3.56,1.5,3.56,3.86v6.64h-1.58v-6.26c0-1.84-.72-2.86-2.4-2.86s-2.9,1.26-2.9,3.3v5.82h-1.6Z"/><path class="cls-5" d="M600.01,526.95l1.32-3.42-4-10.24h1.72l3.12,8.4,2.98-8.4h1.66l-5.16,13.66h-1.64Z"/><path class="cls-5" d="M609.91,508.74v14.8h-1.6v-14.8h1.6Z"/><path class="cls-5" d="M615.81,516.73v-.56c0-4.18,2.58-7.06,6.48-7.06,3.22,0,5.46,2.04,5.78,5.22h-1.72c-.34-2.36-1.9-3.7-4.08-3.7-2.94,0-4.7,2.28-4.7,5.54v.56c0,3.26,1.78,5.54,4.7,5.54,2.4,0,3.98-1.58,4.08-3.92h1.74c-.24,3.14-2.46,5.44-5.82,5.44-3.86,0-6.46-2.82-6.46-7.06Z"/><path class="cls-5" d="M631.61,511.62h-1.68v-2.88h1.68v2.88ZM631.55,513.28v10.26h-1.6v-10.26h1.6Z"/><path class="cls-5" d="M633.95,523.55v-10.26h1.56l.04,1.66c.6-1.1,1.68-1.9,3.32-1.9,2.44,0,3.56,1.5,3.56,3.86v6.64h-1.58v-6.26c0-1.84-.72-2.86-2.4-2.86s-2.9,1.26-2.9,3.3v5.82h-1.6Z"/><path class="cls-5" d="M644.75,523.55v-10.26h1.56l.04,1.66c.6-1.1,1.68-1.9,3.32-1.9,2.44,0,3.56,1.5,3.56,3.86v6.64h-1.58v-6.26c0-1.84-.72-2.86-2.4-2.86s-2.9,1.26-2.9,3.3v5.82h-1.6Z"/><path class="cls-5" d="M655.05,520.87c0-1.48.88-2.6,2.52-2.84l4.32-.64v-.9c0-1.48-1.04-2.14-2.36-2.14-1.42,0-2.4.7-2.52,1.94h-1.56c.18-2.04,1.72-3.24,4.1-3.24,2.5,0,3.92,1.42,3.92,3.54v6.96h-1.5l-.06-1.6c-.66,1.2-1.98,1.84-3.42,1.84-2.14,0-3.44-1.2-3.44-2.92ZM661.89,519.75v-1.06l-3.8.56c-.98.14-1.42.7-1.42,1.58,0,.98.68,1.62,1.98,1.62,1.72,0,3.24-1.14,3.24-2.7Z"/><path class="cls-5" d="M665.79,523.55v-10.26h1.56l.02,1.62c.56-1.02,1.62-1.86,3.24-1.86s2.6.74,3.08,2.04c.72-1.3,1.88-2.04,3.42-2.04,2.26,0,3.4,1.44,3.4,3.82v6.68h-1.6v-6.34c0-1.84-.7-2.78-2.26-2.78-1.7,0-2.7,1.28-2.7,3.32v5.8h-1.6v-6.34c0-1.82-.66-2.78-2.22-2.78-1.7,0-2.74,1.28-2.74,3.36v5.76h-1.6Z"/><path class="cls-5" d="M682.33,520.87c0-1.48.88-2.6,2.52-2.84l4.32-.64v-.9c0-1.48-1.04-2.14-2.36-2.14-1.42,0-2.4.7-2.52,1.94h-1.56c.18-2.04,1.72-3.24,4.1-3.24,2.5,0,3.92,1.42,3.92,3.54v6.96h-1.5l-.06-1.6c-.66,1.2-1.98,1.84-3.42,1.84-2.14,0-3.44-1.2-3.44-2.92ZM689.17,519.75v-1.06l-3.8.56c-.98.14-1.42.7-1.42,1.58,0,.98.68,1.62,1.98,1.62,1.72,0,3.24-1.14,3.24-2.7Z"/><path class="cls-5" d="M694.05,520.97v-6.4h-2.06v-1.28h2.06v-3.16h1.6v3.16h2.94v1.28h-2.94v6.18c0,1.14.38,1.68,1.72,1.68.4,0,.96-.1,1.3-.2v1.36c-.42.1-1.06.2-1.5.2-2.04,0-3.12-.94-3.12-2.82Z"/><path class="cls-5" d="M699.75,518.61v-.38c0-3.06,1.82-5.18,4.86-5.18,3.26,0,4.8,2.24,4.66,5.68h-7.88c.04,2.38,1.24,3.7,3.24,3.7,1.62,0,2.62-.74,2.96-2.06h1.62c-.5,2.16-2.14,3.42-4.58,3.42-3.1,0-4.88-2.14-4.88-5.18ZM707.59,517.43c-.16-1.9-1.16-3.02-2.98-3.02s-2.96,1.06-3.18,3.02h6.16Z"/><path class="cls-5" d="M534.79,546.7c0-1.18.76-1.84,1.8-1.84s1.8.66,1.8,1.84-.78,1.82-1.8,1.82-1.8-.68-1.8-1.82Z"/><path class="cls-5" d="M552.65,552.4v-14.2h2.6l4.46,12.1,4.46-12.1h2.56v14.2h-1.7v-12.14l-4.54,12.14h-1.58l-4.56-12.14v12.14h-1.7Z"/><path class="cls-5" d="M568.83,547.46v-.38c0-3.06,1.82-5.18,4.86-5.18,3.26,0,4.8,2.24,4.66,5.68h-7.88c.04,2.38,1.24,3.7,3.24,3.7,1.62,0,2.62-.74,2.96-2.06h1.62c-.5,2.16-2.14,3.42-4.58,3.42-3.1,0-4.88-2.14-4.88-5.18ZM576.67,546.28c-.16-1.9-1.16-3.02-2.98-3.02s-2.96,1.06-3.18,3.02h6.16Z"/><path class="cls-5" d="M581.29,549.82v-6.4h-2.06v-1.28h2.06v-3.16h1.6v3.16h2.94v1.28h-2.94v6.18c0,1.14.38,1.68,1.72,1.68.4,0,.96-.1,1.3-.2v1.36c-.42.1-1.06.2-1.5.2-2.04,0-3.12-.94-3.12-2.82Z"/><path class="cls-5" d="M587.71,552.4v-14.8h1.6v6.18c.6-1.1,1.7-1.88,3.32-1.88,2.44,0,3.56,1.5,3.56,3.86v6.64h-1.58v-6.26c0-1.84-.72-2.86-2.4-2.86s-2.9,1.26-2.9,3.3v5.82h-1.6Z"/><path class="cls-5" d="M600.01,555.8l1.32-3.42-4-10.24h1.72l3.12,8.4,2.98-8.4h1.66l-5.16,13.66h-1.64Z"/><path class="cls-5" d="M609.91,537.59v14.8h-1.6v-14.8h1.6Z"/><path class="cls-5" d="M616.33,552.4v-14.2h1.7v6.14h7.78v-6.14h1.7v14.2h-1.7v-6.58h-7.78v6.58h-1.7Z"/><path class="cls-5" d="M629.61,547.46v-.38c0-3.06,1.82-5.18,4.86-5.18,3.26,0,4.8,2.24,4.66,5.68h-7.88c.04,2.38,1.24,3.7,3.24,3.7,1.62,0,2.62-.74,2.96-2.06h1.62c-.5,2.16-2.14,3.42-4.58,3.42-3.1,0-4.88-2.14-4.88-5.18ZM637.45,546.28c-.16-1.9-1.16-3.02-2.98-3.02s-2.96,1.06-3.18,3.02h6.16Z"/><path class="cls-5" d="M639.49,552.4l3.74-5.26-3.56-5h1.9l2.66,3.8,2.68-3.8h1.78l-3.56,4.94,3.8,5.32h-1.9l-2.9-4.14-2.86,4.14h-1.78Z"/><path class="cls-5" d="M649.29,547.46v-.38c0-3.06,1.82-5.18,4.86-5.18,3.26,0,4.8,2.24,4.66,5.68h-7.88c.04,2.38,1.24,3.7,3.24,3.7,1.62,0,2.62-.74,2.96-2.06h1.62c-.5,2.16-2.14,3.42-4.58,3.42-3.1,0-4.88-2.14-4.88-5.18ZM657.13,546.28c-.16-1.9-1.16-3.02-2.98-3.02s-2.96,1.06-3.18,3.02h6.16Z"/><path class="cls-5" d="M660.67,552.4v-10.26h1.56l.04,1.66c.6-1.1,1.68-1.9,3.32-1.9,2.44,0,3.56,1.5,3.56,3.86v6.64h-1.58v-6.26c0-1.84-.72-2.86-2.4-2.86s-2.9,1.26-2.9,3.3v5.82h-1.6Z"/><path class="cls-5" d="M671.03,547.46v-.38c0-3.14,1.88-5.18,4.86-5.18s4.88,2.04,4.88,5.18v.38c0,3.14-1.9,5.18-4.88,5.18s-4.86-2.04-4.86-5.18ZM679.13,547.46v-.38c0-2.4-1.14-3.82-3.24-3.82s-3.22,1.42-3.22,3.82v.38c0,2.4,1.14,3.82,3.22,3.82s3.24-1.42,3.24-3.82Z"/><path class="cls-5" d="M682.23,549.72c0-1.48.88-2.6,2.52-2.84l4.32-.64v-.9c0-1.48-1.04-2.14-2.36-2.14-1.42,0-2.4.7-2.52,1.94h-1.56c.18-2.04,1.72-3.24,4.1-3.24,2.5,0,3.92,1.42,3.92,3.54v6.96h-1.5l-.06-1.6c-.66,1.2-1.98,1.84-3.42,1.84-2.14,0-3.44-1.2-3.44-2.92ZM689.07,548.6v-1.06l-3.8.56c-.98.14-1.42.7-1.42,1.58,0,.98.68,1.62,1.98,1.62,1.72,0,3.24-1.14,3.24-2.7Z"/><path class="cls-5" d="M693.97,549.82v-6.4h-2.06v-1.28h2.06v-3.16h1.6v3.16h2.94v1.28h-2.94v6.18c0,1.14.38,1.68,1.72,1.68.4,0,.96-.1,1.3-.2v1.36c-.42.1-1.06.2-1.5.2-2.04,0-3.12-.94-3.12-2.82Z"/><path class="cls-5" d="M699.67,547.46v-.38c0-3.06,1.82-5.18,4.86-5.18,3.26,0,4.8,2.24,4.66,5.68h-7.88c.04,2.38,1.24,3.7,3.24,3.7,1.62,0,2.62-.74,2.96-2.06h1.62c-.5,2.16-2.14,3.42-4.58,3.42-3.1,0-4.88-2.14-4.88-5.18ZM707.51,546.28c-.16-1.9-1.16-3.02-2.98-3.02s-2.96,1.06-3.18,3.02h6.16Z"/><path class="cls-5" d="M534.79,575.55c0-1.18.76-1.84,1.8-1.84s1.8.66,1.8,1.84-.78,1.82-1.8,1.82-1.8-.68-1.8-1.82Z"/><path class="cls-5" d="M552.65,581.25v-14.2h2.6l4.46,12.1,4.46-12.1h2.56v14.2h-1.7v-12.14l-4.54,12.14h-1.58l-4.56-12.14v12.14h-1.7Z"/><path class="cls-5" d="M568.83,576.31v-.38c0-3.06,1.82-5.18,4.86-5.18,3.26,0,4.8,2.24,4.66,5.68h-7.88c.04,2.38,1.24,3.7,3.24,3.7,1.62,0,2.62-.74,2.96-2.06h1.62c-.5,2.16-2.14,3.42-4.58,3.42-3.1,0-4.88-2.14-4.88-5.18ZM576.67,575.13c-.16-1.9-1.16-3.02-2.98-3.02s-2.96,1.06-3.18,3.02h6.16Z"/><path class="cls-5" d="M581.29,578.67v-6.4h-2.06v-1.28h2.06v-3.16h1.6v3.16h2.94v1.28h-2.94v6.18c0,1.14.38,1.68,1.72,1.68.4,0,.96-.1,1.3-.2v1.36c-.42.1-1.06.2-1.5.2-2.04,0-3.12-.94-3.12-2.82Z"/><path class="cls-5" d="M587.71,581.25v-14.8h1.6v6.18c.6-1.1,1.7-1.88,3.32-1.88,2.44,0,3.56,1.5,3.56,3.86v6.64h-1.58v-6.26c0-1.84-.72-2.86-2.4-2.86s-2.9,1.26-2.9,3.3v5.82h-1.6Z"/><path class="cls-5" d="M600.01,584.65l1.32-3.42-4-10.24h1.72l3.12,8.4,2.98-8.4h1.66l-5.16,13.66h-1.64Z"/><path class="cls-5" d="M609.91,566.44v14.8h-1.6v-14.8h1.6Z"/><path class="cls-5" d="M616.33,581.25v-14.2h5.42c2.74,0,4.54,1.1,4.54,3.7v.18c0,1.26-.62,2.3-1.7,2.8,1.46.46,2.36,1.74,2.36,3.3v.3c0,2.58-2,3.92-4.74,3.92h-5.88ZM618.01,573.23h3.78c1.88,0,2.76-.88,2.76-2.28v-.18c0-1.7-1.08-2.26-2.86-2.26h-3.68v4.72ZM618.01,579.79h4.14c1.78,0,3.06-.76,3.06-2.48v-.28c0-1.54-1-2.36-2.86-2.36h-4.34v5.12Z"/><path class="cls-5" d="M628.81,577.61v-6.62h1.6v6.32c0,1.72.66,2.78,2.38,2.78s2.76-1.36,2.76-3.34v-5.76h1.6v10.26h-1.56l-.02-1.62c-.62,1.1-1.74,1.86-3.24,1.86-2.36,0-3.52-1.48-3.52-3.88Z"/><path class="cls-5" d="M640.63,578.67v-6.4h-2.06v-1.28h2.06v-3.16h1.6v3.16h2.94v1.28h-2.94v6.18c0,1.14.38,1.68,1.72,1.68.4,0,.96-.1,1.3-.2v1.36c-.42.1-1.06.2-1.5.2-2.04,0-3.12-.94-3.12-2.82Z"/><path class="cls-5" d="M648.83,584.65l1.32-3.42-4-10.24h1.72l3.12,8.4,2.98-8.4h1.66l-5.16,13.66h-1.64Z"/><path class="cls-5" d="M657.13,581.25v-10.26h1.56l.02,1.98c.62-1.42,1.76-2.22,3.18-2.22.16,0,.34,0,.54.04v1.6c-.22-.02-.36-.02-.58-.02-1.86,0-3.12,1.14-3.12,3.38v5.5h-1.6Z"/><path class="cls-5" d="M662.93,578.57c0-1.48.88-2.6,2.52-2.84l4.32-.64v-.9c0-1.48-1.04-2.14-2.36-2.14-1.42,0-2.4.7-2.52,1.94h-1.56c.18-2.04,1.72-3.24,4.1-3.24,2.5,0,3.92,1.42,3.92,3.54v6.96h-1.5l-.06-1.6c-.66,1.2-1.98,1.84-3.42,1.84-2.14,0-3.44-1.2-3.44-2.92ZM669.77,577.45v-1.06l-3.8.56c-.98.14-1.42.7-1.42,1.58,0,.98.68,1.62,1.98,1.62,1.72,0,3.24-1.14,3.24-2.7Z"/><path class="cls-5" d="M674.67,578.67v-6.4h-2.06v-1.28h2.06v-3.16h1.6v3.16h2.94v1.28h-2.94v6.18c0,1.14.38,1.68,1.72,1.68.4,0,.96-.1,1.3-.2v1.36c-.42.1-1.06.2-1.5.2-2.04,0-3.12-.94-3.12-2.82Z"/><path class="cls-5" d="M680.37,576.31v-.38c0-3.06,1.82-5.18,4.86-5.18,3.26,0,4.8,2.24,4.66,5.68h-7.88c.04,2.38,1.24,3.7,3.24,3.7,1.62,0,2.62-.74,2.96-2.06h1.62c-.5,2.16-2.14,3.42-4.58,3.42-3.1,0-4.88-2.14-4.88-5.18ZM688.21,575.13c-.16-1.9-1.16-3.02-2.98-3.02s-2.96,1.06-3.18,3.02h6.16Z"/><path class="cls-5" d="M265.46,546.7c0-1.18.76-1.84,1.8-1.84s1.8.66,1.8,1.84-.78,1.82-1.8,1.82-1.8-.68-1.8-1.82Z"/><path class="cls-5" d="M283.05,548.28h1.68c.18,1.9,1.48,2.92,3.52,2.92,1.76,0,3.28-1,3.28-2.64v-.36c0-1.62-1.38-2.42-3.18-2.42h-1.5v-1.4h1.46c1.5,0,2.8-.8,2.8-2.32v-.36c0-1.38-1.26-2.34-2.84-2.34-1.92,0-3.12,1.1-3.24,2.96h-1.64c.12-2.62,2.04-4.36,4.86-4.36,2.54,0,4.46,1.52,4.46,3.74v.24c0,1.52-.94,2.6-2.3,3.04,1.6.36,2.76,1.54,2.76,3.32v.24c0,2.4-2.14,4.1-4.96,4.1-3.04,0-4.98-1.64-5.16-4.36Z"/><path class="cls-5" d="M295.47,547.38v-1.48h6.18v1.48h-6.18Z"/><path class="cls-5" d="M304.19,552.4v-14.2h2.6l4.46,12.1,4.46-12.1h2.56v14.2h-1.7v-12.14l-4.54,12.14h-1.58l-4.56-12.14v12.14h-1.7Z"/><path class="cls-5" d="M320.37,547.46v-.38c0-3.06,1.82-5.18,4.86-5.18,3.26,0,4.8,2.24,4.66,5.68h-7.88c.04,2.38,1.24,3.7,3.24,3.7,1.62,0,2.62-.74,2.96-2.06h1.62c-.5,2.16-2.14,3.42-4.58,3.42-3.1,0-4.88-2.14-4.88-5.18ZM328.21,546.28c-.16-1.9-1.16-3.02-2.98-3.02s-2.96,1.06-3.18,3.02h6.16Z"/><path class="cls-5" d="M332.83,549.82v-6.4h-2.06v-1.28h2.06v-3.16h1.6v3.16h2.94v1.28h-2.94v6.18c0,1.14.38,1.68,1.72,1.68.4,0,.96-.1,1.3-.2v1.36c-.42.1-1.06.2-1.5.2-2.04,0-3.12-.94-3.12-2.82Z"/><path class="cls-5" d="M339.25,552.4v-14.8h1.6v6.18c.6-1.1,1.7-1.88,3.32-1.88,2.44,0,3.56,1.5,3.56,3.86v6.64h-1.58v-6.26c0-1.84-.72-2.86-2.4-2.86s-2.9,1.26-2.9,3.3v5.82h-1.6Z"/><path class="cls-5" d="M351.83,555.8l1.32-3.42-4-10.24h1.72l3.12,8.4,2.98-8.4h1.66l-5.16,13.66h-1.64Z"/><path class="cls-5" d="M361.73,537.59v14.8h-1.6v-14.8h1.6Z"/><path class="cls-5" d="M365.21,549.82v-6.4h-2.06v-1.28h2.06v-3.16h1.6v3.16h2.94v1.28h-2.94v6.18c0,1.14.38,1.68,1.72,1.68.4,0,.96-.1,1.3-.2v1.36c-.42.1-1.06.2-1.5.2-2.04,0-3.12-.94-3.12-2.82Z"/><path class="cls-5" d="M371.63,552.4v-14.8h1.6v6.18c.6-1.1,1.7-1.88,3.32-1.88,2.44,0,3.56,1.5,3.56,3.86v6.64h-1.58v-6.26c0-1.84-.72-2.86-2.4-2.86s-2.9,1.26-2.9,3.3v5.82h-1.6Z"/><path class="cls-5" d="M384.09,540.47h-1.68v-2.88h1.68v2.88ZM384.03,542.13v10.26h-1.6v-10.26h1.6Z"/><path class="cls-5" d="M385.99,547.46v-.38c0-3.14,1.88-5.18,4.86-5.18s4.88,2.04,4.88,5.18v.38c0,3.14-1.9,5.18-4.88,5.18s-4.86-2.04-4.86-5.18ZM394.09,547.46v-.38c0-2.4-1.14-3.82-3.24-3.82s-3.22,1.42-3.22,3.82v.38c0,2.4,1.14,3.82,3.22,3.82s3.24-1.42,3.24-3.82Z"/><path class="cls-5" d="M397.69,555.8v-13.66h1.5l.04,1.84c.52-1.08,1.74-2.08,3.56-2.08,2.66,0,4.4,2.08,4.4,5.18v.38c0,3.08-1.74,5.18-4.42,5.18-1.74,0-2.92-.9-3.48-1.92v5.08h-1.6ZM405.55,547.46v-.38c0-2.38-1.12-3.82-3.04-3.82-2.12,0-3.28,1.44-3.28,3.82v.38c0,2.4,1.18,3.82,3.26,3.82,1.94,0,3.06-1.44,3.06-3.82Z"/><path class="cls-5" d="M409.15,552.4v-14.8h1.6v6.18c.6-1.1,1.7-1.88,3.32-1.88,2.44,0,3.56,1.5,3.56,3.86v6.64h-1.58v-6.26c0-1.84-.72-2.86-2.4-2.86s-2.9,1.26-2.9,3.3v5.82h-1.6Z"/><path class="cls-5" d="M419.5,547.46v-.38c0-3.06,1.82-5.18,4.86-5.18,3.26,0,4.8,2.24,4.66,5.68h-7.88c.04,2.38,1.24,3.7,3.24,3.7,1.62,0,2.62-.74,2.96-2.06h1.62c-.5,2.16-2.14,3.42-4.58,3.42-3.1,0-4.88-2.14-4.88-5.18ZM427.35,546.28c-.16-1.9-1.16-3.02-2.98-3.02s-2.96,1.06-3.18,3.02h6.16Z"/><path class="cls-5" d="M430.88,552.4v-10.26h1.56l.04,1.66c.6-1.1,1.68-1.9,3.32-1.9,2.44,0,3.56,1.5,3.56,3.86v6.64h-1.58v-6.26c0-1.84-.72-2.86-2.4-2.86s-2.9,1.26-2.9,3.3v5.82h-1.6Z"/><path class="cls-5" d="M441.25,547.46v-.38c0-3.06,1.82-5.18,4.86-5.18,3.26,0,4.8,2.24,4.66,5.68h-7.88c.04,2.38,1.24,3.7,3.24,3.7,1.62,0,2.62-.74,2.96-2.06h1.62c-.5,2.16-2.14,3.42-4.58,3.42-3.1,0-4.88-2.14-4.88-5.18ZM449.09,546.28c-.16-1.9-1.16-3.02-2.98-3.02s-2.96,1.06-3.18,3.02h6.16Z"/><path class="cls-5" d="M265.46,575.55c0-1.18.76-1.84,1.8-1.84s1.8.66,1.8,1.84-.78,1.82-1.8,1.82-1.8-.68-1.8-1.82Z"/><path class="cls-5" d="M283.05,577.13h1.68c.18,1.9,1.48,2.92,3.52,2.92,1.76,0,3.28-1,3.28-2.64v-.36c0-1.62-1.38-2.42-3.18-2.42h-1.5v-1.4h1.46c1.5,0,2.8-.8,2.8-2.32v-.36c0-1.38-1.26-2.34-2.84-2.34-1.92,0-3.12,1.1-3.24,2.96h-1.64c.12-2.62,2.04-4.36,4.86-4.36,2.54,0,4.46,1.52,4.46,3.74v.24c0,1.52-.94,2.6-2.3,3.04,1.6.36,2.76,1.54,2.76,3.32v.24c0,2.4-2.14,4.1-4.96,4.1-3.04,0-4.98-1.64-5.16-4.36Z"/><path class="cls-5" d="M295.47,576.23v-1.48h6.18v1.48h-6.18Z"/><path class="cls-5" d="M304.19,581.25v-14.2h2.6l4.46,12.1,4.46-12.1h2.56v14.2h-1.7v-12.14l-4.54,12.14h-1.58l-4.56-12.14v12.14h-1.7Z"/><path class="cls-5" d="M320.37,576.31v-.38c0-3.06,1.82-5.18,4.86-5.18,3.26,0,4.8,2.24,4.66,5.68h-7.88c.04,2.38,1.24,3.7,3.24,3.7,1.62,0,2.62-.74,2.96-2.06h1.62c-.5,2.16-2.14,3.42-4.58,3.42-3.1,0-4.88-2.14-4.88-5.18ZM328.21,575.13c-.16-1.9-1.16-3.02-2.98-3.02s-2.96,1.06-3.18,3.02h6.16Z"/><path class="cls-5" d="M332.83,578.67v-6.4h-2.06v-1.28h2.06v-3.16h1.6v3.16h2.94v1.28h-2.94v6.18c0,1.14.38,1.68,1.72,1.68.4,0,.96-.1,1.3-.2v1.36c-.42.1-1.06.2-1.5.2-2.04,0-3.12-.94-3.12-2.82Z"/><path class="cls-5" d="M339.25,581.25v-14.8h1.6v6.18c.6-1.1,1.7-1.88,3.32-1.88,2.44,0,3.56,1.5,3.56,3.86v6.64h-1.58v-6.26c0-1.84-.72-2.86-2.4-2.86s-2.9,1.26-2.9,3.3v5.82h-1.6Z"/><path class="cls-5" d="M351.83,584.65l1.32-3.42-4-10.24h1.72l3.12,8.4,2.98-8.4h1.66l-5.16,13.66h-1.64Z"/><path class="cls-5" d="M361.73,566.44v14.8h-1.6v-14.8h1.6Z"/><path class="cls-5" d="M364.11,576.23v-1.48h6.18v1.48h-6.18Z"/><path class="cls-5" d="M372.33,581.25v-1.3c0-2.36.4-3.9,4.38-5.68,2.76-1.22,3.26-1.9,3.26-3.5v-.1c0-1.4-1.02-2.4-2.72-2.4-1.84,0-2.98,1.08-3.06,2.9h-1.72c.12-2.62,1.98-4.36,4.76-4.36,2.62,0,4.46,1.62,4.46,3.84v.12c0,2-.72,3.26-4.2,4.8-3.02,1.38-3.4,2.28-3.42,4.2h7.78v1.48h-9.52Z"/><path class="cls-5" d="M383.81,576.23v-1.48h6.18v1.48h-6.18Z"/><path class="cls-5" d="M535.65,603.59c0-1.18.76-1.84,1.8-1.84s1.8.66,1.8,1.84-.78,1.82-1.8,1.82-1.8-.68-1.8-1.82Z"/><path class="cls-5" d="M553.59,609.29v-14.2h1.7v14.2h-1.7Z"/><path class="cls-5" d="M557.39,606.15h1.54c.24,1.46,1.2,2.08,2.76,2.08,1.44,0,2.4-.58,2.4-1.7,0-.98-.68-1.44-2.74-1.8-2.38-.44-3.6-1.16-3.6-2.98s1.54-2.96,3.76-2.96,3.76,1.12,3.98,3.12h-1.58c-.18-1.2-1.1-1.82-2.4-1.82s-2.18.6-2.18,1.58.62,1.4,2.64,1.72c2.38.4,3.74,1.18,3.74,2.98,0,1.92-1.66,3.16-4.06,3.16s-4.06-1.18-4.26-3.38Z"/><path class="cls-5" d="M567.17,604.35v-.38c0-3.14,1.88-5.18,4.86-5.18s4.88,2.04,4.88,5.18v.38c0,3.14-1.9,5.18-4.88,5.18s-4.86-2.04-4.86-5.18ZM575.27,604.35v-.38c0-2.4-1.14-3.82-3.24-3.82s-3.22,1.42-3.22,3.82v.38c0,2.4,1.14,3.82,3.22,3.82s3.24-1.42,3.24-3.82Z"/><path class="cls-5" d="M578.37,606.61c0-1.48.88-2.6,2.52-2.84l4.32-.64v-.9c0-1.48-1.04-2.14-2.36-2.14-1.42,0-2.4.7-2.52,1.94h-1.56c.18-2.04,1.72-3.24,4.1-3.24,2.5,0,3.92,1.42,3.92,3.54v6.96h-1.5l-.06-1.6c-.66,1.2-1.98,1.84-3.42,1.84-2.14,0-3.44-1.2-3.44-2.92ZM585.21,605.49v-1.06l-3.8.56c-.98.14-1.42.7-1.42,1.58,0,.98.68,1.62,1.98,1.62,1.72,0,3.24-1.14,3.24-2.7Z"/><path class="cls-5" d="M589.11,609.29v-10.26h1.56l.02,1.62c.56-1.02,1.62-1.86,3.24-1.86s2.6.74,3.08,2.04c.72-1.3,1.88-2.04,3.42-2.04,2.26,0,3.4,1.44,3.4,3.82v6.68h-1.6v-6.34c0-1.84-.7-2.78-2.26-2.78-1.7,0-2.7,1.28-2.7,3.32v5.8h-1.6v-6.34c0-1.82-.66-2.78-2.22-2.78-1.7,0-2.74,1.28-2.74,3.36v5.76h-1.6Z"/><path class="cls-5" d="M607.65,612.69l1.32-3.42-4-10.24h1.72l3.12,8.4,2.98-8.4h1.66l-5.16,13.66h-1.64Z"/><path class="cls-5" d="M617.55,594.49v14.8h-1.6v-14.8h1.6Z"/><path class="cls-5" d="M634.05,609.29l-1.48-3.88h-6.44l-1.48,3.88h-1.72l5.54-14.2h1.84l5.54,14.2h-1.8ZM626.69,603.95h5.32l-2.66-6.98-2.66,6.98Z"/><path class="cls-5" d="M636.41,604.35v-.38c0-3.06,1.72-5.18,4.78-5.18,2.48,0,4.08,1.46,4.36,3.66h-1.6c-.28-1.42-1.18-2.3-2.8-2.3-2,0-3.1,1.4-3.1,3.82v.38c0,2.42,1.1,3.82,3.12,3.82,1.6,0,2.56-.94,2.84-2.36h1.6c-.38,2.28-1.98,3.72-4.44,3.72-3.04,0-4.76-2.14-4.76-5.18Z"/><path class="cls-5" d="M646.67,604.35v-.38c0-3.06,1.82-5.18,4.86-5.18,3.26,0,4.8,2.24,4.66,5.68h-7.88c.04,2.38,1.24,3.7,3.24,3.7,1.62,0,2.62-.74,2.96-2.06h1.62c-.5,2.16-2.14,3.42-4.58,3.42-3.1,0-4.88-2.14-4.88-5.18ZM654.51,603.17c-.16-1.9-1.16-3.02-2.98-3.02s-2.96,1.06-3.18,3.02h6.16Z"/><path class="cls-5" d="M659.13,606.71v-6.4h-2.06v-1.28h2.06v-3.16h1.6v3.16h2.94v1.28h-2.94v6.18c0,1.14.38,1.68,1.72,1.68.4,0,.96-.1,1.3-.2v1.36c-.42.1-1.06.2-1.5.2-2.04,0-3.12-.94-3.12-2.82Z"/><path class="cls-5" d="M665.05,606.61c0-1.48.88-2.6,2.52-2.84l4.32-.64v-.9c0-1.48-1.04-2.14-2.36-2.14-1.42,0-2.4.7-2.52,1.94h-1.56c.18-2.04,1.72-3.24,4.1-3.24,2.5,0,3.92,1.42,3.92,3.54v6.96h-1.5l-.06-1.6c-.66,1.2-1.98,1.84-3.42,1.84-2.14,0-3.44-1.2-3.44-2.92ZM671.89,605.49v-1.06l-3.8.56c-.98.14-1.42.7-1.42,1.58,0,.98.68,1.62,1.98,1.62,1.72,0,3.24-1.14,3.24-2.7Z"/><path class="cls-5" d="M676.79,606.71v-6.4h-2.06v-1.28h2.06v-3.16h1.6v3.16h2.94v1.28h-2.94v6.18c0,1.14.38,1.68,1.72,1.68.4,0,.96-.1,1.3-.2v1.36c-.42.1-1.06.2-1.5.2-2.04,0-3.12-.94-3.12-2.82Z"/><path class="cls-5" d="M682.49,604.35v-.38c0-3.06,1.82-5.18,4.86-5.18,3.26,0,4.8,2.24,4.66,5.68h-7.88c.04,2.38,1.24,3.7,3.24,3.7,1.62,0,2.62-.74,2.96-2.06h1.62c-.5,2.16-2.14,3.42-4.58,3.42-3.1,0-4.88-2.14-4.88-5.18ZM690.33,603.17c-.16-1.9-1.16-3.02-2.98-3.02s-2.96,1.06-3.18,3.02h6.16Z"/><path class="cls-5" d="M535.65,632.44c0-1.18.76-1.84,1.8-1.84s1.8.66,1.8,1.84-.78,1.82-1.8,1.82-1.8-.68-1.8-1.82Z"/><path class="cls-5" d="M553.51,638.14v-14.2h9.34v1.48h-7.64v4.72h7.04v1.48h-7.04v5.04h7.74v1.48h-9.44Z"/><path class="cls-5" d="M566.19,635.56v-6.4h-2.06v-1.28h2.06v-3.16h1.6v3.16h2.94v1.28h-2.94v6.18c0,1.14.38,1.68,1.72,1.68.4,0,.96-.1,1.3-.2v1.36c-.42.1-1.06.2-1.5.2-2.04,0-3.12-.94-3.12-2.82Z"/><path class="cls-5" d="M572.61,638.14v-14.8h1.6v6.18c.6-1.1,1.7-1.88,3.32-1.88,2.44,0,3.56,1.5,3.56,3.86v6.64h-1.58v-6.26c0-1.84-.72-2.86-2.4-2.86s-2.9,1.26-2.9,3.3v5.82h-1.6Z"/><path class="cls-5" d="M584.91,641.54l1.32-3.42-4-10.24h1.72l3.12,8.4,2.98-8.4h1.66l-5.16,13.66h-1.64Z"/><path class="cls-5" d="M594.81,623.34v14.8h-1.6v-14.8h1.6Z"/><path class="cls-5" d="M597.19,633.12v-1.48h6.18v1.48h-6.18Z"/><path class="cls-5" d="M605.41,638.14v-1.3c0-2.36.4-3.9,4.38-5.68,2.76-1.22,3.26-1.9,3.26-3.5v-.1c0-1.4-1.02-2.4-2.72-2.4-1.84,0-2.98,1.08-3.06,2.9h-1.72c.12-2.62,1.98-4.36,4.76-4.36,2.62,0,4.46,1.62,4.46,3.84v.12c0,2-.72,3.26-4.2,4.8-3.02,1.38-3.4,2.28-3.42,4.2h7.78v1.48h-9.52Z"/><path class="cls-5" d="M616.89,633.12v-1.48h6.18v1.48h-6.18Z"/><path class="cls-5" d="M625.61,638.14v-14.2h2.6l4.46,12.1,4.46-12.1h2.56v14.2h-1.7v-12.14l-4.54,12.14h-1.58l-4.56-12.14v12.14h-1.7Z"/><path class="cls-5" d="M641.79,633.2v-.38c0-3.06,1.82-5.18,4.86-5.18,3.26,0,4.8,2.24,4.66,5.68h-7.88c.04,2.38,1.24,3.7,3.24,3.7,1.62,0,2.62-.74,2.96-2.06h1.62c-.5,2.16-2.14,3.42-4.58,3.42-3.1,0-4.88-2.14-4.88-5.18ZM649.63,632.02c-.16-1.9-1.16-3.02-2.98-3.02s-2.96,1.06-3.18,3.02h6.16Z"/><path class="cls-5" d="M654.25,635.56v-6.4h-2.06v-1.28h2.06v-3.16h1.6v3.16h2.94v1.28h-2.94v6.18c0,1.14.38,1.68,1.72,1.68.4,0,.96-.1,1.3-.2v1.36c-.42.1-1.06.2-1.5.2-2.04,0-3.12-.94-3.12-2.82Z"/><path class="cls-5" d="M660.67,638.14v-14.8h1.6v6.18c.6-1.1,1.7-1.88,3.32-1.88,2.44,0,3.56,1.5,3.56,3.86v6.64h-1.58v-6.26c0-1.84-.72-2.86-2.4-2.86s-2.9,1.26-2.9,3.3v5.82h-1.6Z"/><path class="cls-5" d="M672.95,641.54l1.32-3.42-4-10.24h1.72l3.12,8.4,2.98-8.4h1.66l-5.16,13.66h-1.64Z"/><path class="cls-5" d="M682.85,623.34v14.8h-1.6v-14.8h1.6Z"/><path class="cls-5" d="M685.23,633.12v-1.48h6.18v1.48h-6.18Z"/><path class="cls-5" d="M286.15,603.95l-.04,1.8h-1.5v-14.8h1.6v6.2c.56-1.02,1.74-1.9,3.5-1.9,2.68,0,4.4,2.1,4.4,5.18v.38c0,3.08-1.78,5.18-4.42,5.18-1.8,0-3.02-.98-3.54-2.04ZM292.47,600.81v-.38c0-2.38-1.12-3.82-3.06-3.82-2.08,0-3.26,1.42-3.26,3.82v.38c0,2.38,1.16,3.82,3.28,3.82,1.92,0,3.04-1.46,3.04-3.82Z"/><path class="cls-5" d="M295.99,602.11v-6.62h1.6v6.32c0,1.72.66,2.78,2.38,2.78s2.76-1.36,2.76-3.34v-5.76h1.6v10.26h-1.56l-.02-1.62c-.62,1.1-1.74,1.86-3.24,1.86-2.36,0-3.52-1.48-3.52-3.88Z"/><path class="cls-5" d="M307.81,603.17v-6.4h-2.06v-1.28h2.06v-3.16h1.6v3.16h2.94v1.28h-2.94v6.18c0,1.14.38,1.68,1.72,1.68.4,0,.96-.1,1.3-.2v1.36c-.42.1-1.06.2-1.5.2-2.04,0-3.12-.94-3.12-2.82Z"/><path class="cls-5" d="M313.79,600.81v-.38c0-3.06,1.82-5.18,4.86-5.18,3.26,0,4.8,2.24,4.66,5.68h-7.88c.04,2.38,1.24,3.7,3.24,3.7,1.62,0,2.62-.74,2.96-2.06h1.62c-.5,2.16-2.14,3.42-4.58,3.42-3.1,0-4.88-2.14-4.88-5.18ZM321.63,599.63c-.16-1.9-1.16-3.02-2.98-3.02s-2.96,1.06-3.18,3.02h6.16Z"/><path class="cls-5" d="M325.17,605.75v-10.26h1.56l.04,1.66c.6-1.1,1.68-1.9,3.32-1.9,2.44,0,3.56,1.5,3.56,3.86v6.64h-1.58v-6.26c0-1.84-.72-2.86-2.4-2.86s-2.9,1.26-2.9,3.3v5.82h-1.6Z"/><path class="cls-5" d="M335.53,600.81v-.38c0-3.06,1.82-5.18,4.86-5.18,3.26,0,4.8,2.24,4.66,5.68h-7.88c.04,2.38,1.24,3.7,3.24,3.7,1.62,0,2.62-.74,2.96-2.06h1.62c-.5,2.16-2.14,3.42-4.58,3.42-3.1,0-4.88-2.14-4.88-5.18ZM343.37,599.63c-.16-1.9-1.16-3.02-2.98-3.02s-2.96,1.06-3.18,3.02h6.16Z"/><path class="cls-5" d="M346.89,600.73v-1.48h6.18v1.48h-6.18Z"/><path class="cls-5" d="M357.97,605.75v-11.76c-.8.7-1.82,1.14-2.9,1.42v-1.56c1.34-.32,2.62-1.14,3.28-2.3h1.22v14.2h-1.6Z"/><path class="cls-5" d="M362.53,600.73v-1.48h6.18v1.48h-6.18Z"/><path class="cls-5" d="M372.19,603.17v-6.4h-2.06v-1.28h2.06v-3.16h1.6v3.16h2.94v1.28h-2.94v6.18c0,1.14.38,1.68,1.72,1.68.4,0,.96-.1,1.3-.2v1.36c-.42.1-1.06.2-1.5.2-2.04,0-3.12-.94-3.12-2.82Z"/><path class="cls-5" d="M378.61,605.75v-14.8h1.6v6.18c.6-1.1,1.7-1.88,3.32-1.88,2.44,0,3.56,1.5,3.56,3.86v6.64h-1.58v-6.26c0-1.84-.72-2.86-2.4-2.86s-2.9,1.26-2.9,3.3v5.82h-1.6Z"/><path class="cls-5" d="M391.07,593.83h-1.68v-2.88h1.68v2.88ZM391.01,595.49v10.26h-1.6v-10.26h1.6Z"/><path class="cls-5" d="M392.96,600.81v-.38c0-3.14,1.88-5.18,4.86-5.18s4.88,2.04,4.88,5.18v.38c0,3.14-1.9,5.18-4.88,5.18s-4.86-2.04-4.86-5.18ZM401.07,600.81v-.38c0-2.4-1.14-3.82-3.24-3.82s-3.22,1.42-3.22,3.82v.38c0,2.4,1.14,3.82,3.22,3.82s3.24-1.42,3.24-3.82Z"/><path class="cls-5" d="M406.27,590.95v14.8h-1.6v-14.8h1.6Z"/></svg>