<?xml version="1.0" encoding="UTF-8"?><svg id="Layer_1" xmlns="http://www.w3.org/2000/svg" viewBox="0 0 760 708.34"><defs><style>.cls-1{fill:#aabfd5;}.cls-2{fill:#6e8399;}.cls-3{fill:none;opacity:.4;stroke:#000;stroke-miterlimit:10;}.cls-4{fill:#221f20;}.cls-5{fill:#636466;}</style></defs><path class="cls-2" d="M317.56,27.59v-.44c0-4.6,3.04-7.88,7.7-7.88,4.05,0,6.73,2.53,6.95,6.34h-3.74c-.15-2.09-1.39-3.28-3.28-3.28-2.44,0-3.78,1.94-3.78,4.82v.44c0,2.88,1.36,4.8,3.81,4.8,1.89,0,3.15-1.23,3.23-3.41h3.74c-.2,3.89-2.79,6.49-6.95,6.49-4.75,0-7.68-3.28-7.68-7.88Z"/><path class="cls-2" d="M332.98,27.59v-.44c0-4.55,2.97-7.88,7.75-7.88s7.77,3.32,7.77,7.88v.44c0,4.55-2.97,7.88-7.77,7.88s-7.75-3.32-7.75-7.88ZM344.64,27.59v-.44c0-2.95-1.39-4.82-3.92-4.82s-3.89,1.87-3.89,4.82v.44c0,2.95,1.41,4.82,3.89,4.82s3.92-1.87,3.92-4.82Z"/><path class="cls-2" d="M350.25,35.18v-15.62h4.33l5.92,10.36v-10.36h3.5v15.62h-4.12l-6.09-10.78v10.78h-3.54Z"/><path class="cls-2" d="M365.65,30.08h3.67c.22,1.65,1.41,2.49,3.26,2.49,1.65,0,2.62-.62,2.62-1.67v-.09c0-1.06-.7-1.52-3.65-2.05-3.76-.68-5.37-2.09-5.37-4.67v-.15c0-2.86,2.55-4.66,6.07-4.66s6.12,1.78,6.38,5.06h-3.67c-.15-1.47-1.14-2.18-2.77-2.18s-2.33.7-2.33,1.63v.07c0,.9.44,1.41,3.41,1.89,3.59.59,5.63,1.94,5.63,4.64v.18c0,3.04-2.68,4.91-6.4,4.91-4.14,0-6.62-2.02-6.84-5.39Z"/><path class="cls-2" d="M380.48,29.04v-9.48h3.72v9.44c0,2.13.88,3.34,2.99,3.34s3.01-1.17,3.01-3.37v-9.42h3.7v9.48c0,4.14-2.27,6.42-6.71,6.42s-6.71-2.27-6.71-6.42Z"/><path class="cls-2" d="M396.01,35.18v-15.62h5.28l3.43,10.91,3.45-10.91h5v15.62h-3.5v-11.31l-3.59,11.31h-2.88l-3.63-11.35v11.35h-3.56Z"/><path class="cls-2" d="M415.37,35.18v-15.62h11.53v3.01h-7.88v3.19h7.06v2.93h-7.06v3.48h8.05v3.01h-11.71Z"/><path class="cls-2" d="M428.88,35.18v-15.62h7.08c3.32,0,5.81,1.76,5.81,5.06v.22c0,2.38-1.25,3.94-3.21,4.64l3.67,5.7h-4.07l-3.26-5.28h-2.35v5.28h-3.67ZM432.55,26.89h3.01c1.41,0,2.38-.62,2.38-2.05v-.22c0-1.43-.97-2.05-2.38-2.05h-3.01v4.31Z"/><rect class="cls-1" x="6.44" y="58.15" width="232.93" height="91.87"/><path class="cls-4" d="M71.35,109.85v-15.62h3.74v15.62h-3.74Z"/><path class="cls-4" d="M77.33,109.85v-11.38h3.37l.09,1.74c.55-1.01,1.67-2.02,3.59-2.02,2.88,0,3.96,1.83,3.96,4.36v7.31h-3.52v-6.4c0-1.54-.48-2.44-1.83-2.44s-2.13.92-2.13,2.6v6.25h-3.52Z"/><path class="cls-4" d="M89.94,104.26v-.22c0-3.32,1.8-5.85,4.86-5.85,1.63,0,2.79.77,3.43,1.78v-6.4h3.54v16.28h-3.28l-.11-1.83c-.46,1.06-1.65,2.11-3.48,2.11-3.08,0-4.97-2.49-4.97-5.88ZM98.34,104.26v-.22c0-2.11-.79-3.21-2.42-3.21s-2.42,1.1-2.42,3.21v.22c0,2.09.79,3.21,2.42,3.21s2.42-1.12,2.42-3.21Z"/><path class="cls-4" d="M107.43,97.11h-3.65v-3.54h3.65v3.54ZM107.36,98.48v11.38h-3.52v-11.38h3.52Z"/><path class="cls-4" d="M112.67,109.85l-4.11-11.38h3.72l2.4,7.83,2.42-7.83h3.54l-4.09,11.38h-3.87Z"/><path class="cls-4" d="M125.4,97.11h-3.65v-3.54h3.65v3.54ZM125.34,98.48v11.38h-3.52v-11.38h3.52Z"/><path class="cls-4" d="M127.03,104.26v-.22c0-3.32,1.8-5.85,4.86-5.85,1.63,0,2.79.77,3.43,1.78v-6.4h3.54v16.28h-3.28l-.11-1.83c-.46,1.06-1.65,2.11-3.48,2.11-3.08,0-4.97-2.49-4.97-5.88ZM135.44,104.26v-.22c0-2.11-.79-3.21-2.42-3.21s-2.42,1.1-2.42,3.21v.22c0,2.09.79,3.21,2.42,3.21s2.42-1.12,2.42-3.21Z"/><path class="cls-4" d="M140.85,105.72v-7.24h3.54v6.56c0,1.52.55,2.29,1.74,2.29s2.05-.88,2.05-2.66v-6.18h3.54v11.38h-3.39l-.09-1.63c-.62.97-1.78,1.91-3.43,1.91-2.73,0-3.96-1.72-3.96-4.42Z"/><path class="cls-4" d="M153.32,106.68c0-1.96,1.25-3.12,3.43-3.39l3.96-.53v-.73c0-.84-.55-1.34-1.69-1.34s-1.8.46-1.89,1.32h-3.34c.13-2.42,2.2-3.83,5.3-3.83s5.06,1.5,5.06,3.87v7.79h-3.3l-.11-1.69c-.68,1.23-1.96,1.98-3.67,1.98-2.2,0-3.74-1.45-3.74-3.45ZM160.71,105.72v-.81l-2.68.35c-.88.11-1.3.53-1.3,1.21,0,.75.55,1.19,1.56,1.19,1.32,0,2.42-.77,2.42-1.94Z"/><path class="cls-4" d="M169.64,93.57v16.28h-3.52v-16.28h3.52Z"/><rect class="cls-3" x="6.44" y="58.15" width="232.93" height="344.94"/><path class="cls-5" d="M20.6,172.9c0-1.18.76-1.84,1.8-1.84s1.8.66,1.8,1.84-.78,1.82-1.8,1.82-1.8-.68-1.8-1.82Z"/><path class="cls-5" d="M48.55,178.6l-1.48-3.88h-6.44l-1.48,3.88h-1.72l5.54-14.2h1.84l5.54,14.2h-1.8ZM41.19,173.26h5.32l-2.66-6.98-2.66,6.98Z"/><path class="cls-5" d="M51.25,179.3h1.72c.14,1.06,1.06,1.64,2.74,1.64s3.06-.84,3.06-2.74v-1.68c-.54,1.04-1.72,1.92-3.46,1.92-2.68,0-4.4-2.1-4.4-4.9v-.56c0-2.9,1.72-4.88,4.4-4.88,1.8,0,3.04,1,3.56,2.08l.04-1.84h1.48v9.76c0,2.44-1.7,4.14-4.74,4.14-2.6,0-4.22-1.18-4.4-2.94ZM58.87,173.54v-.56c0-2.2-1.16-3.52-3.28-3.52-1.94,0-3.04,1.34-3.04,3.52v.56c0,2.1,1.12,3.54,3.04,3.54,2.1,0,3.28-1.42,3.28-3.54Z"/><path class="cls-5" d="M62.35,173.66v-.38c0-3.06,1.82-5.18,4.86-5.18,3.26,0,4.8,2.24,4.66,5.68h-7.88c.04,2.38,1.24,3.7,3.24,3.7,1.62,0,2.62-.74,2.96-2.06h1.62c-.5,2.16-2.14,3.42-4.58,3.42-3.1,0-4.88-2.14-4.88-5.18ZM70.19,172.48c-.16-1.9-1.16-3.02-2.98-3.02s-2.96,1.06-3.18,3.02h6.16Z"/><path class="cls-5" d="M20.6,201.75c0-1.18.76-1.84,1.8-1.84s1.8.66,1.8,1.84-.78,1.82-1.8,1.82-1.8-.68-1.8-1.82Z"/><path class="cls-5" d="M38.47,207.45v-14.2h1.7v6.14h7.78v-6.14h1.7v14.2h-1.7v-6.58h-7.78v6.58h-1.7Z"/><path class="cls-5" d="M51.75,202.51v-.38c0-3.06,1.82-5.18,4.86-5.18,3.26,0,4.8,2.24,4.66,5.68h-7.88c.04,2.38,1.24,3.7,3.24,3.7,1.62,0,2.62-.74,2.96-2.06h1.62c-.5,2.16-2.14,3.42-4.58,3.42-3.1,0-4.88-2.14-4.88-5.18ZM59.59,201.33c-.16-1.9-1.16-3.02-2.98-3.02s-2.96,1.06-3.18,3.02h6.16Z"/><path class="cls-5" d="M64.79,195.53h-1.68v-2.88h1.68v2.88ZM64.73,197.19v10.26h-1.6v-10.26h1.6Z"/><path class="cls-5" d="M67.03,208.15h1.72c.14,1.06,1.06,1.64,2.74,1.64s3.06-.84,3.06-2.74v-1.68c-.54,1.04-1.72,1.92-3.46,1.92-2.68,0-4.4-2.1-4.4-4.9v-.56c0-2.9,1.72-4.88,4.4-4.88,1.8,0,3.04,1,3.56,2.08l.04-1.84h1.48v9.76c0,2.44-1.7,4.14-4.74,4.14-2.6,0-4.22-1.18-4.4-2.94ZM74.65,202.39v-.56c0-2.2-1.16-3.52-3.28-3.52-1.94,0-3.04,1.34-3.04,3.52v.56c0,2.1,1.12,3.54,3.04,3.54,2.1,0,3.28-1.42,3.28-3.54Z"/><path class="cls-5" d="M78.57,207.45v-14.8h1.6v6.18c.6-1.1,1.7-1.88,3.32-1.88,2.44,0,3.56,1.5,3.56,3.86v6.64h-1.58v-6.26c0-1.84-.72-2.86-2.4-2.86s-2.9,1.26-2.9,3.3v5.82h-1.6Z"/><path class="cls-5" d="M90.45,204.87v-6.4h-2.06v-1.28h2.06v-3.16h1.6v3.16h2.94v1.28h-2.94v6.18c0,1.14.38,1.68,1.72,1.68.4,0,.96-.1,1.3-.2v1.36c-.42.1-1.06.2-1.5.2-2.04,0-3.12-.94-3.12-2.82Z"/><path class="cls-5" d="M20.6,230.6c0-1.18.76-1.84,1.8-1.84s1.8.66,1.8,1.84-.78,1.82-1.8,1.82-1.8-.68-1.8-1.82Z"/><path class="cls-5" d="M41.31,236.3l-3.88-14.2h1.78l3.16,12.04,3.32-12.04h1.96l3.32,12.02,3.1-12.02h1.72l-3.86,14.2h-1.96l-3.32-11.94-3.32,11.94h-2.02Z"/><path class="cls-5" d="M55.55,231.36v-.38c0-3.06,1.82-5.18,4.86-5.18,3.26,0,4.8,2.24,4.66,5.68h-7.88c.04,2.38,1.24,3.7,3.24,3.7,1.62,0,2.62-.74,2.96-2.06h1.62c-.5,2.16-2.14,3.42-4.58,3.42-3.1,0-4.88-2.14-4.88-5.18ZM63.39,230.18c-.16-1.9-1.16-3.02-2.98-3.02s-2.96,1.06-3.18,3.02h6.16Z"/><path class="cls-5" d="M68.59,224.38h-1.68v-2.88h1.68v2.88ZM68.53,226.04v10.26h-1.6v-10.26h1.6Z"/><path class="cls-5" d="M70.83,237h1.72c.14,1.06,1.06,1.64,2.74,1.64s3.06-.84,3.06-2.74v-1.68c-.54,1.04-1.72,1.92-3.46,1.92-2.68,0-4.4-2.1-4.4-4.9v-.56c0-2.9,1.72-4.88,4.4-4.88,1.8,0,3.04,1,3.56,2.08l.04-1.84h1.48v9.76c0,2.44-1.7,4.14-4.74,4.14-2.6,0-4.22-1.18-4.4-2.94ZM78.45,231.24v-.56c0-2.2-1.16-3.52-3.28-3.52-1.94,0-3.04,1.34-3.04,3.52v.56c0,2.1,1.12,3.54,3.04,3.54,2.1,0,3.28-1.42,3.28-3.54Z"/><path class="cls-5" d="M82.37,236.3v-14.8h1.6v6.18c.6-1.1,1.7-1.88,3.32-1.88,2.44,0,3.56,1.5,3.56,3.86v6.64h-1.58v-6.26c0-1.84-.72-2.86-2.4-2.86s-2.9,1.26-2.9,3.3v5.82h-1.6Z"/><path class="cls-5" d="M94.25,233.72v-6.4h-2.06v-1.28h2.06v-3.16h1.6v3.16h2.94v1.28h-2.94v6.18c0,1.14.38,1.68,1.72,1.68.4,0,.96-.1,1.3-.2v1.36c-.42.1-1.06.2-1.5.2-2.04,0-3.12-.94-3.12-2.82Z"/><path class="cls-5" d="M100.47,238.31l5.12-16.8h1.54l-5.14,16.8h-1.52Z"/><path class="cls-5" d="M109.47,236.3v-14.2h5.42c2.74,0,4.54,1.1,4.54,3.7v.18c0,1.26-.62,2.3-1.7,2.8,1.46.46,2.36,1.74,2.36,3.3v.3c0,2.58-2,3.92-4.74,3.92h-5.88ZM111.15,228.28h3.78c1.88,0,2.76-.88,2.76-2.28v-.18c0-1.7-1.08-2.26-2.86-2.26h-3.68v4.72ZM111.15,234.84h4.14c1.78,0,3.06-.76,3.06-2.48v-.28c0-1.54-1-2.36-2.86-2.36h-4.34v5.12Z"/><path class="cls-5" d="M122.17,236.3v-14.2h2.6l4.46,12.1,4.46-12.1h2.56v14.2h-1.7v-12.14l-4.54,12.14h-1.58l-4.56-12.14v12.14h-1.7Z"/><path class="cls-5" d="M139.01,236.3v-14.2h1.7v14.2h-1.7Z"/><path class="cls-5" d="M20.6,259.45c0-1.18.76-1.84,1.8-1.84s1.8.66,1.8,1.84-.78,1.82-1.8,1.82-1.8-.68-1.8-1.82Z"/><path class="cls-5" d="M42.55,265.15l-5.12-14.2h1.78l4.28,12.22,4.22-12.22h1.76l-5.1,14.2h-1.82Z"/><path class="cls-5" d="M52.25,253.23h-1.68v-2.88h1.68v2.88ZM52.19,254.89v10.26h-1.6v-10.26h1.6Z"/><path class="cls-5" d="M55.67,262.57v-6.4h-2.06v-1.28h2.06v-3.16h1.6v3.16h2.94v1.28h-2.94v6.18c0,1.14.38,1.68,1.72,1.68.4,0,.96-.1,1.3-.2v1.36c-.42.1-1.06.2-1.5.2-2.04,0-3.12-.94-3.12-2.82Z"/><path class="cls-5" d="M61.59,262.47c0-1.48.88-2.6,2.52-2.84l4.32-.64v-.9c0-1.48-1.04-2.14-2.36-2.14-1.42,0-2.4.7-2.52,1.94h-1.56c.18-2.04,1.72-3.24,4.1-3.24,2.5,0,3.92,1.42,3.92,3.54v6.96h-1.5l-.06-1.6c-.66,1.2-1.98,1.84-3.42,1.84-2.14,0-3.44-1.2-3.44-2.92ZM68.43,261.35v-1.06l-3.8.56c-.98.14-1.42.7-1.42,1.58,0,.98.68,1.62,1.98,1.62,1.72,0,3.24-1.14,3.24-2.7Z"/><path class="cls-5" d="M73.93,250.35v14.8h-1.6v-14.8h1.6Z"/><path class="cls-5" d="M79.71,260.73h1.72c.2,2.3,1.86,3.16,3.96,3.16,1.88,0,3.5-.82,3.5-2.48v-.14c0-1.36-.96-2.1-3.96-2.62-3.52-.6-4.7-1.84-4.7-3.86v-.2c0-2.14,1.9-3.88,4.9-3.88,2.78,0,4.86,1.38,5.18,4.22h-1.72c-.24-1.84-1.56-2.74-3.46-2.74s-3.24.9-3.24,2.38v.14c0,1.32.82,2,3.62,2.46,3.34.54,5.06,1.68,5.06,4v.2c0,2.26-1.92,4.02-5.26,4.02s-5.44-1.6-5.6-4.66Z"/><path class="cls-5" d="M94.13,253.23h-1.68v-2.88h1.68v2.88ZM94.07,254.89v10.26h-1.6v-10.26h1.6Z"/><path class="cls-5" d="M96.37,265.86h1.72c.14,1.06,1.06,1.64,2.74,1.64s3.06-.84,3.06-2.74v-1.68c-.54,1.04-1.72,1.92-3.46,1.92-2.68,0-4.4-2.1-4.4-4.9v-.56c0-2.9,1.72-4.88,4.4-4.88,1.8,0,3.04,1,3.56,2.08l.04-1.84h1.48v9.76c0,2.44-1.7,4.14-4.74,4.14-2.6,0-4.22-1.18-4.4-2.94ZM103.99,260.09v-.56c0-2.2-1.16-3.52-3.28-3.52-1.94,0-3.04,1.34-3.04,3.52v.56c0,2.1,1.12,3.54,3.04,3.54,2.1,0,3.28-1.42,3.28-3.54Z"/><path class="cls-5" d="M107.91,265.15v-10.26h1.56l.04,1.66c.6-1.1,1.68-1.9,3.32-1.9,2.44,0,3.56,1.5,3.56,3.86v6.64h-1.58v-6.26c0-1.84-.72-2.86-2.4-2.86s-2.9,1.26-2.9,3.3v5.82h-1.6Z"/><path class="cls-5" d="M118.17,262.01h1.54c.24,1.46,1.2,2.08,2.76,2.08,1.44,0,2.4-.58,2.4-1.7,0-.98-.68-1.44-2.74-1.8-2.38-.44-3.6-1.16-3.6-2.98s1.54-2.96,3.76-2.96,3.76,1.12,3.98,3.12h-1.58c-.18-1.2-1.1-1.82-2.4-1.82s-2.18.6-2.18,1.58.62,1.4,2.64,1.72c2.38.4,3.74,1.18,3.74,2.98,0,1.92-1.66,3.16-4.06,3.16s-4.06-1.18-4.26-3.38Z"/><path class="cls-5" d="M20.6,288.3c0-1.18.76-1.84,1.8-1.84s1.8.66,1.8,1.84-.78,1.82-1.8,1.82-1.8-.68-1.8-1.82Z"/><path class="cls-5" d="M38.47,294v-14.2h9.34v1.48h-7.64v4.72h7.04v1.48h-7.04v5.04h7.74v1.48h-9.44Z"/><path class="cls-5" d="M50.21,294v-14.2h9.34v1.48h-7.64v4.72h7.04v1.48h-7.04v5.04h7.74v1.48h-9.44Z"/><path class="cls-5" d="M61.43,287.18v-.56c0-4.16,2.62-7.06,6.5-7.06,3.14,0,5.38,1.96,5.76,4.84h-1.72c-.36-2.1-1.92-3.32-4.06-3.32-2.98,0-4.72,2.28-4.72,5.54v.56c0,3.26,1.78,5.54,4.66,5.54s4.26-2.08,4.26-4.02v-.66h-4.38v-1.46h5.98v7.42h-1.44l-.22-2.06c-.66,1.34-2.32,2.3-4.22,2.3-3.82,0-6.4-2.84-6.4-7.06Z"/><path class="cls-5" d="M20.6,317.15c0-1.18.76-1.84,1.8-1.84s1.8.66,1.8,1.84-.78,1.82-1.8,1.82-1.8-.68-1.8-1.82Z"/><path class="cls-5" d="M38.55,322.86v-14.2h1.7v14.2h-1.7Z"/><path class="cls-5" d="M42.89,322.86v-10.26h1.56l.02,1.62c.56-1.02,1.62-1.86,3.24-1.86s2.6.74,3.08,2.04c.72-1.3,1.88-2.04,3.42-2.04,2.26,0,3.4,1.44,3.4,3.82v6.68h-1.6v-6.34c0-1.84-.7-2.78-2.26-2.78-1.7,0-2.7,1.28-2.7,3.32v5.8h-1.6v-6.34c0-1.82-.66-2.78-2.22-2.78-1.7,0-2.74,1.28-2.74,3.36v5.76h-1.6Z"/><path class="cls-5" d="M59.43,320.17c0-1.48.88-2.6,2.52-2.84l4.32-.64v-.9c0-1.48-1.04-2.14-2.36-2.14-1.42,0-2.4.7-2.52,1.94h-1.56c.18-2.04,1.72-3.24,4.1-3.24,2.5,0,3.92,1.42,3.92,3.54v6.96h-1.5l-.06-1.6c-.66,1.2-1.98,1.84-3.42,1.84-2.14,0-3.44-1.2-3.44-2.92ZM66.27,319.05v-1.06l-3.8.56c-.98.14-1.42.7-1.42,1.58,0,.98.68,1.62,1.98,1.62,1.72,0,3.24-1.14,3.24-2.7Z"/><path class="cls-5" d="M70.07,323.56h1.72c.14,1.06,1.06,1.64,2.74,1.64s3.06-.84,3.06-2.74v-1.68c-.54,1.04-1.72,1.92-3.46,1.92-2.68,0-4.4-2.1-4.4-4.9v-.56c0-2.9,1.72-4.88,4.4-4.88,1.8,0,3.04,1,3.56,2.08l.04-1.84h1.48v9.76c0,2.44-1.7,4.14-4.74,4.14-2.6,0-4.22-1.18-4.4-2.94ZM77.69,317.79v-.56c0-2.2-1.16-3.52-3.28-3.52-1.94,0-3.04,1.34-3.04,3.52v.56c0,2.1,1.12,3.54,3.04,3.54,2.1,0,3.28-1.42,3.28-3.54Z"/><path class="cls-5" d="M83.27,310.93h-1.68v-2.88h1.68v2.88ZM83.21,312.59v10.26h-1.6v-10.26h1.6Z"/><path class="cls-5" d="M85.61,322.86v-10.26h1.56l.04,1.66c.6-1.1,1.68-1.9,3.32-1.9,2.44,0,3.56,1.5,3.56,3.86v6.64h-1.58v-6.26c0-1.84-.72-2.86-2.4-2.86s-2.9,1.26-2.9,3.3v5.82h-1.6Z"/><path class="cls-5" d="M96.31,323.56h1.72c.14,1.06,1.06,1.64,2.74,1.64s3.06-.84,3.06-2.74v-1.68c-.54,1.04-1.72,1.92-3.46,1.92-2.68,0-4.4-2.1-4.4-4.9v-.56c0-2.9,1.72-4.88,4.4-4.88,1.8,0,3.04,1,3.56,2.08l.04-1.84h1.48v9.76c0,2.44-1.7,4.14-4.74,4.14-2.6,0-4.22-1.18-4.4-2.94ZM103.93,317.79v-.56c0-2.2-1.16-3.52-3.28-3.52-1.94,0-3.04,1.34-3.04,3.52v.56c0,2.1,1.12,3.54,3.04,3.54,2.1,0,3.28-1.42,3.28-3.54Z"/><path class="cls-5" d="M20.6,346c0-1.18.76-1.84,1.8-1.84s1.8.66,1.8,1.84-.78,1.82-1.8,1.82-1.8-.68-1.8-1.82Z"/><path class="cls-5" d="M38.47,351.71v-14.2h1.7v12.72h6.26v1.48h-7.96Z"/><path class="cls-5" d="M47.45,349.02c0-1.48.88-2.6,2.52-2.84l4.32-.64v-.9c0-1.48-1.04-2.14-2.36-2.14-1.42,0-2.4.7-2.52,1.94h-1.56c.18-2.04,1.72-3.24,4.1-3.24,2.5,0,3.92,1.42,3.92,3.54v6.96h-1.5l-.06-1.6c-.66,1.2-1.98,1.84-3.42,1.84-2.14,0-3.44-1.2-3.44-2.92ZM54.29,347.9v-1.06l-3.8.56c-.98.14-1.42.7-1.42,1.58,0,.98.68,1.62,1.98,1.62,1.72,0,3.24-1.14,3.24-2.7Z"/><path class="cls-5" d="M59.73,349.9l-.04,1.8h-1.5v-14.8h1.6v6.2c.56-1.02,1.74-1.9,3.5-1.9,2.68,0,4.4,2.1,4.4,5.18v.38c0,3.08-1.78,5.18-4.42,5.18-1.8,0-3.02-.98-3.54-2.04ZM66.05,346.76v-.38c0-2.38-1.12-3.82-3.06-3.82-2.08,0-3.26,1.42-3.26,3.82v.38c0,2.38,1.16,3.82,3.28,3.82,1.92,0,3.04-1.46,3.04-3.82Z"/><path class="cls-5" d="M83.75,351.71l-1.48-3.88h-6.44l-1.48,3.88h-1.72l5.54-14.2h1.84l5.54,14.2h-1.8ZM76.39,346.36h5.32l-2.66-6.98-2.66,6.98Z"/><path class="cls-5" d="M87.05,351.71v-10.26h1.56l.04,1.66c.6-1.1,1.68-1.9,3.32-1.9,2.44,0,3.56,1.5,3.56,3.86v6.64h-1.58v-6.26c0-1.84-.72-2.86-2.4-2.86s-2.9,1.26-2.9,3.3v5.82h-1.6Z"/><path class="cls-5" d="M97.35,349.02c0-1.48.88-2.6,2.52-2.84l4.32-.64v-.9c0-1.48-1.04-2.14-2.36-2.14-1.42,0-2.4.7-2.52,1.94h-1.56c.18-2.04,1.72-3.24,4.1-3.24,2.5,0,3.92,1.42,3.92,3.54v6.96h-1.5l-.06-1.6c-.66,1.2-1.98,1.84-3.42,1.84-2.14,0-3.44-1.2-3.44-2.92ZM104.19,347.9v-1.06l-3.8.56c-.98.14-1.42.7-1.42,1.58,0,.98.68,1.62,1.98,1.62,1.72,0,3.24-1.14,3.24-2.7Z"/><path class="cls-5" d="M109.69,336.9v14.8h-1.6v-14.8h1.6Z"/><path class="cls-5" d="M113.87,355.11l1.32-3.42-4-10.24h1.72l3.12,8.4,2.98-8.4h1.66l-5.16,13.66h-1.64Z"/><path class="cls-5" d="M121.23,348.56h1.54c.24,1.46,1.2,2.08,2.76,2.08,1.44,0,2.4-.58,2.4-1.7,0-.98-.68-1.44-2.74-1.8-2.38-.44-3.6-1.16-3.6-2.98s1.54-2.96,3.76-2.96,3.76,1.12,3.98,3.12h-1.58c-.18-1.2-1.1-1.82-2.4-1.82s-2.18.6-2.18,1.58.62,1.4,2.64,1.72c2.38.4,3.74,1.18,3.74,2.98,0,1.92-1.66,3.16-4.06,3.16s-4.06-1.18-4.26-3.38Z"/><path class="cls-5" d="M133.11,339.78h-1.68v-2.88h1.68v2.88ZM133.05,341.44v10.26h-1.6v-10.26h1.6Z"/><path class="cls-5" d="M134.91,348.56h1.54c.24,1.46,1.2,2.08,2.76,2.08,1.44,0,2.4-.58,2.4-1.7,0-.98-.68-1.44-2.74-1.8-2.38-.44-3.6-1.16-3.6-2.98s1.54-2.96,3.76-2.96,3.76,1.12,3.98,3.12h-1.58c-.18-1.2-1.1-1.82-2.4-1.82s-2.18.6-2.18,1.58.62,1.4,2.64,1.72c2.38.4,3.74,1.18,3.74,2.98,0,1.92-1.66,3.16-4.06,3.16s-4.06-1.18-4.26-3.38Z"/><rect class="cls-1" x="251.3" y="58.15" width="257.4" height="91.87"/><path class="cls-4" d="M348.33,104.75h3.67c.22,1.65,1.41,2.49,3.26,2.49,1.65,0,2.62-.62,2.62-1.67v-.09c0-1.06-.7-1.52-3.65-2.05-3.76-.68-5.37-2.09-5.37-4.66v-.15c0-2.86,2.55-4.66,6.07-4.66s6.12,1.78,6.38,5.06h-3.67c-.15-1.47-1.14-2.18-2.77-2.18s-2.33.7-2.33,1.63v.07c0,.9.44,1.41,3.41,1.89,3.59.59,5.63,1.94,5.63,4.64v.18c0,3.04-2.68,4.91-6.4,4.91-4.14,0-6.62-2.02-6.84-5.39Z"/><path class="cls-4" d="M362.81,104.26v-.22c0-3.43,2.38-5.85,5.96-5.85s5.96,2.42,5.96,5.85v.22c0,3.45-2.35,5.88-5.96,5.88s-5.96-2.42-5.96-5.88ZM371.17,104.26v-.22c0-2.07-.73-3.17-2.4-3.17s-2.4,1.1-2.4,3.17v.22c0,2.09.75,3.19,2.4,3.19s2.4-1.1,2.4-3.19Z"/><path class="cls-4" d="M376.07,104.26v-.22c0-3.52,2.22-5.85,5.81-5.85,3.06,0,5.1,1.76,5.43,4.71h-3.45c-.15-1.21-.7-2.02-2.02-2.02-1.52,0-2.2,1.14-2.2,3.17v.22c0,2.07.68,3.19,2.2,3.19,1.32,0,1.87-.81,2.02-2h3.45c-.33,2.93-2.38,4.69-5.43,4.69-3.59,0-5.81-2.33-5.81-5.88Z"/><path class="cls-4" d="M392.44,97.11h-3.65v-3.54h3.65v3.54ZM392.38,98.48v11.38h-3.52v-11.38h3.52Z"/><path class="cls-4" d="M393.98,106.68c0-1.96,1.25-3.12,3.43-3.39l3.96-.53v-.73c0-.84-.55-1.34-1.69-1.34s-1.8.46-1.89,1.32h-3.34c.13-2.42,2.2-3.83,5.3-3.83s5.06,1.5,5.06,3.87v7.79h-3.3l-.11-1.69c-.68,1.23-1.96,1.98-3.67,1.98-2.2,0-3.74-1.45-3.74-3.45ZM401.37,105.72v-.81l-2.68.35c-.88.11-1.3.53-1.3,1.21,0,.75.55,1.19,1.56,1.19,1.32,0,2.42-.77,2.42-1.94Z"/><path class="cls-4" d="M410.31,93.57v16.28h-3.52v-16.28h3.52Z"/><rect class="cls-3" x="251.3" y="58.15" width="257.4" height="344.94"/><path class="cls-5" d="M265.46,172.9c0-1.18.76-1.84,1.8-1.84s1.8.66,1.8,1.84-.78,1.82-1.8,1.82-1.8-.68-1.8-1.82Z"/><path class="cls-5" d="M282.81,171.78v-.56c0-4.16,2.62-7.06,6.5-7.06,3.14,0,5.38,1.96,5.76,4.84h-1.72c-.36-2.1-1.92-3.32-4.06-3.32-2.98,0-4.72,2.28-4.72,5.54v.56c0,3.26,1.78,5.54,4.66,5.54s4.26-2.08,4.26-4.02v-.66h-4.38v-1.46h5.98v7.42h-1.44l-.22-2.06c-.66,1.34-2.32,2.3-4.22,2.3-3.82,0-6.4-2.84-6.4-7.06Z"/><path class="cls-5" d="M296.93,173.66v-.38c0-3.06,1.82-5.18,4.86-5.18,3.26,0,4.8,2.24,4.66,5.68h-7.88c.04,2.38,1.24,3.7,3.24,3.7,1.62,0,2.62-.74,2.96-2.06h1.62c-.5,2.16-2.14,3.42-4.58,3.42-3.1,0-4.88-2.14-4.88-5.18ZM304.77,172.48c-.16-1.9-1.16-3.02-2.98-3.02s-2.96,1.06-3.18,3.02h6.16Z"/><path class="cls-5" d="M308.31,178.6v-10.26h1.56l.04,1.66c.6-1.1,1.68-1.9,3.32-1.9,2.44,0,3.56,1.5,3.56,3.86v6.64h-1.58v-6.26c0-1.84-.72-2.86-2.4-2.86s-2.9,1.26-2.9,3.3v5.82h-1.6Z"/><path class="cls-5" d="M318.67,173.66v-.38c0-3.08,1.7-5.18,4.4-5.18,1.74,0,2.9.86,3.46,1.88v-6.18h1.62v14.8h-1.48l-.04-1.84c-.52,1.06-1.74,2.08-3.56,2.08-2.66,0-4.4-2.1-4.4-5.18ZM326.63,173.66v-.38c0-2.4-1.18-3.82-3.28-3.82-1.92,0-3.04,1.44-3.04,3.82v.38c0,2.36,1.1,3.82,3.04,3.82,2.12,0,3.28-1.44,3.28-3.82Z"/><path class="cls-5" d="M330.11,173.66v-.38c0-3.06,1.82-5.18,4.86-5.18,3.26,0,4.8,2.24,4.66,5.68h-7.88c.04,2.38,1.24,3.7,3.24,3.7,1.62,0,2.62-.74,2.96-2.06h1.62c-.5,2.16-2.14,3.42-4.58,3.42-3.1,0-4.88-2.14-4.88-5.18ZM337.95,172.48c-.16-1.9-1.16-3.02-2.98-3.02s-2.96,1.06-3.18,3.02h6.16Z"/><path class="cls-5" d="M341.49,178.6v-10.26h1.56l.02,1.98c.62-1.42,1.76-2.22,3.18-2.22.16,0,.34,0,.54.04v1.6c-.22-.02-.36-.02-.58-.02-1.86,0-3.12,1.14-3.12,3.38v5.5h-1.6Z"/><path class="cls-5" d="M265.46,201.75c0-1.18.76-1.84,1.8-1.84s1.8.66,1.8,1.84-.78,1.82-1.8,1.82-1.8-.68-1.8-1.82Z"/><path class="cls-5" d="M283.33,207.45v-14.2h5.74c2.76,0,4.56,1.42,4.56,4.04v.36c0,2.34-1.42,3.7-3.66,3.98l3.7,5.82h-1.96l-3.64-5.76h-3.04v5.76h-1.7ZM285.03,200.21h3.98c1.78,0,2.9-.82,2.9-2.56v-.36c0-1.74-1.12-2.56-2.9-2.56h-3.98v5.48Z"/><path class="cls-5" d="M294.81,204.77c0-1.48.88-2.6,2.52-2.84l4.32-.64v-.9c0-1.48-1.04-2.14-2.36-2.14-1.42,0-2.4.7-2.52,1.94h-1.56c.18-2.04,1.72-3.24,4.1-3.24,2.5,0,3.92,1.42,3.92,3.54v6.96h-1.5l-.06-1.6c-.66,1.2-1.98,1.84-3.42,1.84-2.14,0-3.44-1.2-3.44-2.92ZM301.65,203.65v-1.06l-3.8.56c-.98.14-1.42.7-1.42,1.58,0,.98.68,1.62,1.98,1.62,1.72,0,3.24-1.14,3.24-2.7Z"/><path class="cls-5" d="M305.11,202.51v-.38c0-3.06,1.72-5.18,4.78-5.18,2.48,0,4.08,1.46,4.36,3.66h-1.6c-.28-1.42-1.18-2.3-2.8-2.3-2,0-3.1,1.4-3.1,3.82v.38c0,2.42,1.1,3.82,3.12,3.82,1.6,0,2.56-.94,2.84-2.36h1.6c-.38,2.28-1.98,3.72-4.44,3.72-3.04,0-4.76-2.14-4.76-5.18Z"/><path class="cls-5" d="M315.37,202.51v-.38c0-3.06,1.82-5.18,4.86-5.18,3.26,0,4.8,2.24,4.66,5.68h-7.88c.04,2.38,1.24,3.7,3.24,3.7,1.62,0,2.62-.74,2.96-2.06h1.62c-.5,2.16-2.14,3.42-4.58,3.42-3.1,0-4.88-2.14-4.88-5.18ZM323.21,201.33c-.16-1.9-1.16-3.02-2.98-3.02s-2.96,1.06-3.18,3.02h6.16Z"/><path class="cls-5" d="M265.46,230.6c0-1.18.76-1.84,1.8-1.84s1.8.66,1.8,1.84-.78,1.82-1.8,1.82-1.8-.68-1.8-1.82Z"/><path class="cls-5" d="M283.33,236.3v-14.2h9.34v1.48h-7.64v4.72h7.04v1.48h-7.04v5.04h7.74v1.48h-9.44Z"/><path class="cls-5" d="M296.01,233.72v-6.4h-2.06v-1.28h2.06v-3.16h1.6v3.16h2.94v1.28h-2.94v6.18c0,1.14.38,1.68,1.72,1.68.4,0,.96-.1,1.3-.2v1.36c-.42.1-1.06.2-1.5.2-2.04,0-3.12-.94-3.12-2.82Z"/><path class="cls-5" d="M302.43,236.3v-14.8h1.6v6.18c.6-1.1,1.7-1.88,3.32-1.88,2.44,0,3.56,1.5,3.56,3.86v6.64h-1.58v-6.26c0-1.84-.72-2.86-2.4-2.86s-2.9,1.26-2.9,3.3v5.82h-1.6Z"/><path class="cls-5" d="M313.23,236.3v-10.26h1.56l.04,1.66c.6-1.1,1.68-1.9,3.32-1.9,2.44,0,3.56,1.5,3.56,3.86v6.64h-1.58v-6.26c0-1.84-.72-2.86-2.4-2.86s-2.9,1.26-2.9,3.3v5.82h-1.6Z"/><path class="cls-5" d="M325.69,224.38h-1.68v-2.88h1.68v2.88ZM325.63,226.04v10.26h-1.6v-10.26h1.6Z"/><path class="cls-5" d="M327.59,231.36v-.38c0-3.06,1.72-5.18,4.78-5.18,2.48,0,4.08,1.46,4.36,3.66h-1.6c-.28-1.42-1.18-2.3-2.8-2.3-2,0-3.1,1.4-3.1,3.82v.38c0,2.42,1.1,3.82,3.12,3.82,1.6,0,2.56-.94,2.84-2.36h1.6c-.38,2.28-1.98,3.72-4.44,3.72-3.04,0-4.76-2.14-4.76-5.18Z"/><path class="cls-5" d="M340.23,224.38h-1.68v-2.88h1.68v2.88ZM340.17,226.04v10.26h-1.6v-10.26h1.6Z"/><path class="cls-5" d="M343.65,233.72v-6.4h-2.06v-1.28h2.06v-3.16h1.6v3.16h2.94v1.28h-2.94v6.18c0,1.14.38,1.68,1.72,1.68.4,0,.96-.1,1.3-.2v1.36c-.42.1-1.06.2-1.5.2-2.04,0-3.12-.94-3.12-2.82Z"/><path class="cls-5" d="M351.85,239.71l1.32-3.42-4-10.24h1.72l3.12,8.4,2.98-8.4h1.66l-5.16,13.66h-1.64Z"/><path class="cls-5" d="M265.46,259.45c0-1.18.76-1.84,1.8-1.84s1.8.66,1.8,1.84-.78,1.82-1.8,1.82-1.8-.68-1.8-1.82Z"/><path class="cls-5" d="M283.33,265.15v-14.2h2.6l4.46,12.1,4.46-12.1h2.56v14.2h-1.7v-12.14l-4.54,12.14h-1.58l-4.56-12.14v12.14h-1.7Z"/><path class="cls-5" d="M299.45,262.47c0-1.48.88-2.6,2.52-2.84l4.32-.64v-.9c0-1.48-1.04-2.14-2.36-2.14-1.42,0-2.4.7-2.52,1.94h-1.56c.18-2.04,1.72-3.24,4.1-3.24,2.5,0,3.92,1.42,3.92,3.54v6.96h-1.5l-.06-1.6c-.66,1.2-1.98,1.84-3.42,1.84-2.14,0-3.44-1.2-3.44-2.92ZM306.29,261.35v-1.06l-3.8.56c-.98.14-1.42.7-1.42,1.58,0,.98.68,1.62,1.98,1.62,1.72,0,3.24-1.14,3.24-2.7Z"/><path class="cls-5" d="M310.19,265.15v-10.26h1.56l.02,1.98c.62-1.42,1.76-2.22,3.18-2.22.16,0,.34,0,.54.04v1.6c-.22-.02-.36-.02-.58-.02-1.86,0-3.12,1.14-3.12,3.38v5.5h-1.6Z"/><path class="cls-5" d="M318.65,253.23h-1.68v-2.88h1.68v2.88ZM318.59,254.89v10.26h-1.6v-10.26h1.6Z"/><path class="cls-5" d="M322.07,262.57v-6.4h-2.06v-1.28h2.06v-3.16h1.6v3.16h2.94v1.28h-2.94v6.18c0,1.14.38,1.68,1.72,1.68.4,0,.96-.1,1.3-.2v1.36c-.42.1-1.06.2-1.5.2-2.04,0-3.12-.94-3.12-2.82Z"/><path class="cls-5" d="M327.99,262.47c0-1.48.88-2.6,2.52-2.84l4.32-.64v-.9c0-1.48-1.04-2.14-2.36-2.14-1.42,0-2.4.7-2.52,1.94h-1.56c.18-2.04,1.72-3.24,4.1-3.24,2.5,0,3.92,1.42,3.92,3.54v6.96h-1.5l-.06-1.6c-.66,1.2-1.98,1.84-3.42,1.84-2.14,0-3.44-1.2-3.44-2.92ZM334.83,261.35v-1.06l-3.8.56c-.98.14-1.42.7-1.42,1.58,0,.98.68,1.62,1.98,1.62,1.72,0,3.24-1.14,3.24-2.7Z"/><path class="cls-5" d="M340.33,250.35v14.8h-1.6v-14.8h1.6Z"/><path class="cls-5" d="M346.11,260.73h1.72c.2,2.3,1.86,3.16,3.96,3.16,1.88,0,3.5-.82,3.5-2.48v-.14c0-1.36-.96-2.1-3.96-2.62-3.52-.6-4.7-1.84-4.7-3.86v-.2c0-2.14,1.9-3.88,4.9-3.88,2.78,0,4.86,1.38,5.18,4.22h-1.72c-.24-1.84-1.56-2.74-3.46-2.74s-3.24.9-3.24,2.38v.14c0,1.32.82,2,3.62,2.46,3.34.54,5.06,1.68,5.06,4v.2c0,2.26-1.92,4.02-5.26,4.02s-5.44-1.6-5.6-4.66Z"/><path class="cls-5" d="M359.87,262.57v-6.4h-2.06v-1.28h2.06v-3.16h1.6v3.16h2.94v1.28h-2.94v6.18c0,1.14.38,1.68,1.72,1.68.4,0,.96-.1,1.3-.2v1.36c-.42.1-1.06.2-1.5.2-2.04,0-3.12-.94-3.12-2.82Z"/><path class="cls-5" d="M365.79,262.47c0-1.48.88-2.6,2.52-2.84l4.32-.64v-.9c0-1.48-1.04-2.14-2.36-2.14-1.42,0-2.4.7-2.52,1.94h-1.56c.18-2.04,1.72-3.24,4.1-3.24,2.5,0,3.92,1.42,3.92,3.54v6.96h-1.5l-.06-1.6c-.66,1.2-1.98,1.84-3.42,1.84-2.14,0-3.44-1.2-3.44-2.92ZM372.63,261.35v-1.06l-3.8.56c-.98.14-1.42.7-1.42,1.58,0,.98.68,1.62,1.98,1.62,1.72,0,3.24-1.14,3.24-2.7Z"/><path class="cls-5" d="M377.51,262.57v-6.4h-2.06v-1.28h2.06v-3.16h1.6v3.16h2.94v1.28h-2.94v6.18c0,1.14.38,1.68,1.72,1.68.4,0,.96-.1,1.3-.2v1.36c-.42.1-1.06.2-1.5.2-2.04,0-3.12-.94-3.12-2.82Z"/><path class="cls-5" d="M383.85,261.51v-6.62h1.6v6.32c0,1.72.66,2.78,2.38,2.78s2.76-1.36,2.76-3.34v-5.76h1.6v10.26h-1.56l-.02-1.62c-.62,1.1-1.74,1.86-3.24,1.86-2.36,0-3.52-1.48-3.52-3.88Z"/><path class="cls-5" d="M394.05,262.01h1.54c.24,1.46,1.2,2.08,2.76,2.08,1.44,0,2.4-.58,2.4-1.7,0-.98-.68-1.44-2.74-1.8-2.38-.44-3.6-1.16-3.6-2.98s1.54-2.96,3.76-2.96,3.76,1.12,3.98,3.12h-1.58c-.18-1.2-1.1-1.82-2.4-1.82s-2.18.6-2.18,1.58.62,1.4,2.64,1.72c2.38.4,3.74,1.18,3.74,2.98,0,1.92-1.66,3.16-4.06,3.16s-4.06-1.18-4.26-3.38Z"/><path class="cls-5" d="M265.46,288.3c0-1.18.76-1.84,1.8-1.84s1.8.66,1.8,1.84-.78,1.82-1.8,1.82-1.8-.68-1.8-1.82Z"/><path class="cls-5" d="M283.33,294v-14.2h2.08l7.4,11.72v-11.72h1.68v14.2h-1.94l-7.54-11.96v11.96h-1.68Z"/><path class="cls-5" d="M296.95,290.36v-6.62h1.6v6.32c0,1.72.66,2.78,2.38,2.78s2.76-1.36,2.76-3.34v-5.76h1.6v10.26h-1.56l-.02-1.62c-.62,1.1-1.74,1.86-3.24,1.86-2.36,0-3.52-1.48-3.52-3.88Z"/><path class="cls-5" d="M307.69,294v-10.26h1.56l.02,1.62c.56-1.02,1.62-1.86,3.24-1.86s2.6.74,3.08,2.04c.72-1.3,1.88-2.04,3.42-2.04,2.26,0,3.4,1.44,3.4,3.82v6.68h-1.6v-6.34c0-1.84-.7-2.78-2.26-2.78-1.7,0-2.7,1.28-2.7,3.32v5.8h-1.6v-6.34c0-1.82-.66-2.78-2.22-2.78-1.7,0-2.74,1.28-2.74,3.36v5.76h-1.6Z"/><path class="cls-5" d="M326.27,292.2l-.04,1.8h-1.5v-14.8h1.6v6.2c.56-1.02,1.74-1.9,3.5-1.9,2.68,0,4.4,2.1,4.4,5.18v.38c0,3.08-1.78,5.18-4.42,5.18-1.8,0-3.02-.98-3.54-2.04ZM332.59,289.06v-.38c0-2.38-1.12-3.82-3.06-3.82-2.08,0-3.26,1.42-3.26,3.82v.38c0,2.38,1.16,3.82,3.28,3.82,1.92,0,3.04-1.46,3.04-3.82Z"/><path class="cls-5" d="M335.75,289.06v-.38c0-3.06,1.82-5.18,4.86-5.18,3.26,0,4.8,2.24,4.66,5.68h-7.88c.04,2.38,1.24,3.7,3.24,3.7,1.62,0,2.62-.74,2.96-2.06h1.62c-.5,2.16-2.14,3.42-4.58,3.42-3.1,0-4.88-2.14-4.88-5.18ZM343.59,287.88c-.16-1.9-1.16-3.02-2.98-3.02s-2.96,1.06-3.18,3.02h6.16Z"/><path class="cls-5" d="M347.13,294v-10.26h1.56l.02,1.98c.62-1.42,1.76-2.22,3.18-2.22.16,0,.34,0,.54.04v1.6c-.22-.02-.36-.02-.58-.02-1.86,0-3.12,1.14-3.12,3.38v5.5h-1.6Z"/><path class="cls-5" d="M357.37,289.06v-.38c0-3.14,1.88-5.18,4.86-5.18s4.88,2.04,4.88,5.18v.38c0,3.14-1.9,5.18-4.88,5.18s-4.86-2.04-4.86-5.18ZM365.47,289.06v-.38c0-2.4-1.14-3.82-3.24-3.82s-3.22,1.42-3.22,3.82v.38c0,2.4,1.14,3.82,3.22,3.82s3.24-1.42,3.24-3.82Z"/><path class="cls-5" d="M370.15,294v-8.98h-2.06v-1.28h2.06v-1.96c0-1.88,1.08-2.82,3.12-2.82.44,0,1.08.1,1.5.2v1.34c-.34-.08-.9-.2-1.3-.2-1.34,0-1.72.56-1.72,1.7v1.74h2.94v1.28h-2.94v8.98h-1.6Z"/><path class="cls-5" d="M379.76,287.18v-.56c0-4.18,2.58-7.06,6.48-7.06,3.22,0,5.46,2.04,5.78,5.22h-1.72c-.34-2.36-1.9-3.7-4.08-3.7-2.94,0-4.7,2.28-4.7,5.54v.56c0,3.26,1.78,5.54,4.7,5.54,2.4,0,3.98-1.58,4.08-3.92h1.74c-.24,3.14-2.46,5.44-5.82,5.44-3.86,0-6.46-2.82-6.46-7.06Z"/><path class="cls-5" d="M393.9,294v-14.8h1.6v6.18c.6-1.1,1.7-1.88,3.32-1.88,2.44,0,3.56,1.5,3.56,3.86v6.64h-1.58v-6.26c0-1.84-.72-2.86-2.4-2.86s-2.9,1.26-2.9,3.3v5.82h-1.6Z"/><path class="cls-5" d="M406.36,282.08h-1.68v-2.88h1.68v2.88ZM406.3,283.74v10.26h-1.6v-10.26h1.6Z"/><path class="cls-5" d="M410.3,279.2v14.8h-1.6v-14.8h1.6Z"/><path class="cls-5" d="M412.26,289.06v-.38c0-3.08,1.7-5.18,4.4-5.18,1.74,0,2.9.86,3.46,1.88v-6.18h1.62v14.8h-1.48l-.04-1.84c-.52,1.06-1.74,2.08-3.56,2.08-2.66,0-4.4-2.1-4.4-5.18ZM420.23,289.06v-.38c0-2.4-1.18-3.82-3.28-3.82-1.92,0-3.04,1.44-3.04,3.82v.38c0,2.36,1.1,3.82,3.04,3.82,2.12,0,3.28-1.44,3.28-3.82Z"/><path class="cls-5" d="M424.14,294v-10.26h1.56l.02,1.98c.62-1.42,1.76-2.22,3.18-2.22.16,0,.34,0,.54.04v1.6c-.22-.02-.36-.02-.58-.02-1.86,0-3.12,1.14-3.12,3.38v5.5h-1.6Z"/><path class="cls-5" d="M430.16,289.06v-.38c0-3.06,1.82-5.18,4.86-5.18,3.26,0,4.8,2.24,4.66,5.68h-7.88c.04,2.38,1.24,3.7,3.24,3.7,1.62,0,2.62-.74,2.96-2.06h1.62c-.5,2.16-2.14,3.42-4.58,3.42-3.1,0-4.88-2.14-4.88-5.18ZM438.01,287.88c-.16-1.9-1.16-3.02-2.98-3.02s-2.96,1.06-3.18,3.02h6.16Z"/><path class="cls-5" d="M441.54,294v-10.26h1.56l.04,1.66c.6-1.1,1.68-1.9,3.32-1.9,2.44,0,3.56,1.5,3.56,3.86v6.64h-1.58v-6.26c0-1.84-.72-2.86-2.4-2.86s-2.9,1.26-2.9,3.3v5.82h-1.6Z"/><path class="cls-5" d="M265.46,317.55c0-1.18.76-1.84,1.8-1.84s1.8.66,1.8,1.84-.78,1.82-1.8,1.82-1.8-.68-1.8-1.82Z"/><path class="cls-5" d="M282.81,316.43v-.56c0-4.22,2.58-7.06,6.58-7.06s6.56,2.84,6.56,7.06v.56c0,4.2-2.56,7.06-6.56,7.06s-6.58-2.86-6.58-7.06ZM294.21,316.43v-.56c0-3.34-1.8-5.54-4.82-5.54s-4.82,2.2-4.82,5.54v.56c0,3.34,1.8,5.54,4.82,5.54s4.82-2.2,4.82-5.54Z"/><path class="cls-5" d="M297.55,318.31v-.38c0-3.06,1.72-5.18,4.78-5.18,2.48,0,4.08,1.46,4.36,3.66h-1.6c-.28-1.42-1.18-2.3-2.8-2.3-2,0-3.1,1.4-3.1,3.82v.38c0,2.42,1.1,3.82,3.12,3.82,1.6,0,2.56-.94,2.84-2.36h1.6c-.38,2.28-1.98,3.72-4.44,3.72-3.04,0-4.76-2.14-4.76-5.18Z"/><path class="cls-5" d="M307.81,318.31v-.38c0-3.06,1.72-5.18,4.78-5.18,2.48,0,4.08,1.46,4.36,3.66h-1.6c-.28-1.42-1.18-2.3-2.8-2.3-2,0-3.1,1.4-3.1,3.82v.38c0,2.42,1.1,3.82,3.12,3.82,1.6,0,2.56-.94,2.84-2.36h1.6c-.38,2.28-1.98,3.72-4.44,3.72-3.04,0-4.76-2.14-4.76-5.18Z"/><path class="cls-5" d="M318.69,319.61v-6.62h1.6v6.32c0,1.72.66,2.78,2.38,2.78s2.76-1.36,2.76-3.34v-5.76h1.6v10.26h-1.56l-.02-1.62c-.62,1.1-1.74,1.86-3.24,1.86-2.36,0-3.52-1.48-3.52-3.88Z"/><path class="cls-5" d="M329.43,326.65v-13.66h1.5l.04,1.84c.52-1.08,1.74-2.08,3.56-2.08,2.66,0,4.4,2.08,4.4,5.18v.38c0,3.08-1.74,5.18-4.42,5.18-1.74,0-2.92-.9-3.48-1.92v5.08h-1.6ZM337.29,318.31v-.38c0-2.38-1.12-3.82-3.04-3.82-2.12,0-3.28,1.44-3.28,3.82v.38c0,2.4,1.18,3.82,3.26,3.82,1.94,0,3.06-1.44,3.06-3.82Z"/><path class="cls-5" d="M340.39,320.57c0-1.48.88-2.6,2.52-2.84l4.32-.64v-.9c0-1.48-1.04-2.14-2.36-2.14-1.42,0-2.4.7-2.52,1.94h-1.56c.18-2.04,1.72-3.24,4.1-3.24,2.5,0,3.92,1.42,3.92,3.54v6.96h-1.5l-.06-1.6c-.66,1.2-1.98,1.84-3.42,1.84-2.14,0-3.44-1.2-3.44-2.92ZM347.23,319.45v-1.06l-3.8.56c-.98.14-1.42.7-1.42,1.58,0,.98.68,1.62,1.98,1.62,1.72,0,3.24-1.14,3.24-2.7Z"/><path class="cls-5" d="M352.13,320.67v-6.4h-2.06v-1.28h2.06v-3.16h1.6v3.16h2.94v1.28h-2.94v6.18c0,1.14.38,1.68,1.72,1.68.4,0,.96-.1,1.3-.2v1.36c-.42.1-1.06.2-1.5.2-2.04,0-3.12-.94-3.12-2.82Z"/><path class="cls-5" d="M360.21,311.33h-1.68v-2.88h1.68v2.88ZM360.15,312.99v10.26h-1.6v-10.26h1.6Z"/><path class="cls-5" d="M362.11,318.31v-.38c0-3.14,1.88-5.18,4.86-5.18s4.88,2.04,4.88,5.18v.38c0,3.14-1.9,5.18-4.88,5.18s-4.86-2.04-4.86-5.18ZM370.21,318.31v-.38c0-2.4-1.14-3.82-3.24-3.82s-3.22,1.42-3.22,3.82v.38c0,2.4,1.14,3.82,3.22,3.82s3.24-1.42,3.24-3.82Z"/><path class="cls-5" d="M373.81,323.25v-10.26h1.56l.04,1.66c.6-1.1,1.68-1.9,3.32-1.9,2.44,0,3.56,1.5,3.56,3.86v6.64h-1.58v-6.26c0-1.84-.72-2.86-2.4-2.86s-2.9,1.26-2.9,3.3v5.82h-1.6Z"/><path class="cls-5" d="M265.46,346.4c0-1.18.76-1.84,1.8-1.84s1.8.66,1.8,1.84-.78,1.82-1.8,1.82-1.8-.68-1.8-1.82Z"/><path class="cls-5" d="M293.41,352.1l-1.48-3.88h-6.44l-1.48,3.88h-1.72l5.54-14.2h1.84l5.54,14.2h-1.8ZM286.05,346.76h5.32l-2.66-6.98-2.66,6.98Z"/><path class="cls-5" d="M296.71,352.1v-10.26h1.56l.04,1.66c.6-1.1,1.68-1.9,3.32-1.9,2.44,0,3.56,1.5,3.56,3.86v6.64h-1.58v-6.26c0-1.84-.72-2.86-2.4-2.86s-2.9,1.26-2.9,3.3v5.82h-1.6Z"/><path class="cls-5" d="M307.51,352.1v-10.26h1.56l.04,1.66c.6-1.1,1.68-1.9,3.32-1.9,2.44,0,3.56,1.5,3.56,3.86v6.64h-1.58v-6.26c0-1.84-.72-2.86-2.4-2.86s-2.9,1.26-2.9,3.3v5.82h-1.6Z"/><path class="cls-5" d="M318.23,348.46v-6.62h1.6v6.32c0,1.72.66,2.78,2.38,2.78s2.76-1.36,2.76-3.34v-5.76h1.6v10.26h-1.56l-.02-1.62c-.62,1.1-1.74,1.86-3.24,1.86-2.36,0-3.52-1.48-3.52-3.88Z"/><path class="cls-5" d="M328.47,349.42c0-1.48.88-2.6,2.52-2.84l4.32-.64v-.9c0-1.48-1.04-2.14-2.36-2.14-1.42,0-2.4.7-2.52,1.94h-1.56c.18-2.04,1.72-3.24,4.1-3.24,2.5,0,3.92,1.42,3.92,3.54v6.96h-1.5l-.06-1.6c-.66,1.2-1.98,1.84-3.42,1.84-2.14,0-3.44-1.2-3.44-2.92ZM335.31,348.3v-1.06l-3.8.56c-.98.14-1.42.7-1.42,1.58,0,.98.68,1.62,1.98,1.62,1.72,0,3.24-1.14,3.24-2.7Z"/><path class="cls-5" d="M340.81,337.3v14.8h-1.6v-14.8h1.6Z"/><path class="cls-5" d="M347.31,352.1v-14.2h1.7v14.2h-1.7Z"/><path class="cls-5" d="M351.65,352.1v-10.26h1.56l.04,1.66c.6-1.1,1.68-1.9,3.32-1.9,2.44,0,3.56,1.5,3.56,3.86v6.64h-1.58v-6.26c0-1.84-.72-2.86-2.4-2.86s-2.9,1.26-2.9,3.3v5.82h-1.6Z"/><path class="cls-5" d="M362.01,347.16v-.38c0-3.06,1.72-5.18,4.78-5.18,2.48,0,4.08,1.46,4.36,3.66h-1.6c-.28-1.42-1.18-2.3-2.8-2.3-2,0-3.1,1.4-3.1,3.82v.38c0,2.42,1.1,3.82,3.12,3.82,1.6,0,2.56-.94,2.84-2.36h1.6c-.38,2.28-1.98,3.72-4.44,3.72-3.04,0-4.76-2.14-4.76-5.18Z"/><path class="cls-5" d="M372.25,347.16v-.38c0-3.14,1.88-5.18,4.86-5.18s4.88,2.04,4.88,5.18v.38c0,3.14-1.9,5.18-4.88,5.18s-4.86-2.04-4.86-5.18ZM380.35,347.16v-.38c0-2.4-1.14-3.82-3.24-3.82s-3.22,1.42-3.22,3.82v.38c0,2.4,1.14,3.82,3.22,3.82s3.24-1.42,3.24-3.82Z"/><path class="cls-5" d="M383.95,352.1v-10.26h1.56l.02,1.62c.56-1.02,1.62-1.86,3.24-1.86s2.6.74,3.08,2.04c.72-1.3,1.88-2.04,3.42-2.04,2.26,0,3.4,1.44,3.4,3.82v6.68h-1.6v-6.34c0-1.84-.7-2.78-2.26-2.78-1.7,0-2.7,1.28-2.7,3.32v5.8h-1.6v-6.34c0-1.82-.66-2.78-2.22-2.78-1.7,0-2.74,1.28-2.74,3.36v5.76h-1.6Z"/><path class="cls-5" d="M400.54,347.16v-.38c0-3.06,1.82-5.18,4.86-5.18,3.26,0,4.8,2.24,4.66,5.68h-7.88c.04,2.38,1.24,3.7,3.24,3.7,1.62,0,2.62-.74,2.96-2.06h1.62c-.5,2.16-2.14,3.42-4.58,3.42-3.1,0-4.88-2.14-4.88-5.18ZM408.39,345.98c-.16-1.9-1.16-3.02-2.98-3.02s-2.96,1.06-3.18,3.02h6.16Z"/><path class="cls-5" d="M265.46,375.25c0-1.18.76-1.84,1.8-1.84s1.8.66,1.8,1.84-.78,1.82-1.8,1.82-1.8-.68-1.8-1.82Z"/><path class="cls-5" d="M283.33,380.95v-14.2h9.34v1.48h-7.64v4.72h7.04v1.48h-7.04v5.04h7.74v1.48h-9.44Z"/><path class="cls-5" d="M294.29,376.01v-.38c0-3.08,1.7-5.18,4.4-5.18,1.74,0,2.9.86,3.46,1.88v-6.18h1.62v14.8h-1.48l-.04-1.84c-.52,1.06-1.74,2.08-3.56,2.08-2.66,0-4.4-2.1-4.4-5.18ZM302.25,376.01v-.38c0-2.4-1.18-3.82-3.28-3.82-1.92,0-3.04,1.44-3.04,3.82v.38c0,2.36,1.1,3.82,3.04,3.82,2.12,0,3.28-1.44,3.28-3.82Z"/><path class="cls-5" d="M306.09,377.31v-6.62h1.6v6.32c0,1.72.66,2.78,2.38,2.78s2.76-1.36,2.76-3.34v-5.76h1.6v10.26h-1.56l-.02-1.62c-.62,1.1-1.74,1.86-3.24,1.86-2.36,0-3.52-1.48-3.52-3.88Z"/><path class="cls-5" d="M316.39,376.01v-.38c0-3.06,1.72-5.18,4.78-5.18,2.48,0,4.08,1.46,4.36,3.66h-1.6c-.28-1.42-1.18-2.3-2.8-2.3-2,0-3.1,1.4-3.1,3.82v.38c0,2.42,1.1,3.82,3.12,3.82,1.6,0,2.56-.94,2.84-2.36h1.6c-.38,2.28-1.98,3.72-4.44,3.72-3.04,0-4.76-2.14-4.76-5.18Z"/><path class="cls-5" d="M326.87,378.27c0-1.48.88-2.6,2.52-2.84l4.32-.64v-.9c0-1.48-1.04-2.14-2.36-2.14-1.42,0-2.4.7-2.52,1.94h-1.56c.18-2.04,1.72-3.24,4.1-3.24,2.5,0,3.92,1.42,3.92,3.54v6.96h-1.5l-.06-1.6c-.66,1.2-1.98,1.84-3.42,1.84-2.14,0-3.44-1.2-3.44-2.92ZM333.71,377.15v-1.06l-3.8.56c-.98.14-1.42.7-1.42,1.58,0,.98.68,1.62,1.98,1.62,1.72,0,3.24-1.14,3.24-2.7Z"/><path class="cls-5" d="M338.61,378.37v-6.4h-2.06v-1.28h2.06v-3.16h1.6v3.16h2.94v1.28h-2.94v6.18c0,1.14.38,1.68,1.72,1.68.4,0,.96-.1,1.3-.2v1.36c-.42.1-1.06.2-1.5.2-2.04,0-3.12-.94-3.12-2.82Z"/><path class="cls-5" d="M346.69,369.03h-1.68v-2.88h1.68v2.88ZM346.63,370.69v10.26h-1.6v-10.26h1.6Z"/><path class="cls-5" d="M348.59,376.01v-.38c0-3.14,1.88-5.18,4.86-5.18s4.88,2.04,4.88,5.18v.38c0,3.14-1.9,5.18-4.88,5.18s-4.86-2.04-4.86-5.18ZM356.69,376.01v-.38c0-2.4-1.14-3.82-3.24-3.82s-3.22,1.42-3.22,3.82v.38c0,2.4,1.14,3.82,3.22,3.82s3.24-1.42,3.24-3.82Z"/><path class="cls-5" d="M360.29,380.95v-10.26h1.56l.04,1.66c.6-1.1,1.68-1.9,3.32-1.9,2.44,0,3.56,1.5,3.56,3.86v6.64h-1.58v-6.26c0-1.84-.72-2.86-2.4-2.86s-2.9,1.26-2.9,3.3v5.82h-1.6Z"/><path class="cls-5" d="M375.1,380.95v-14.2h1.7v12.72h6.26v1.48h-7.96Z"/><path class="cls-5" d="M383.96,376.01v-.38c0-3.06,1.82-5.18,4.86-5.18,3.26,0,4.8,2.24,4.66,5.68h-7.88c.04,2.38,1.24,3.7,3.24,3.7,1.62,0,2.62-.74,2.96-2.06h1.62c-.5,2.16-2.14,3.42-4.58,3.42-3.1,0-4.88-2.14-4.88-5.18ZM391.81,374.83c-.16-1.9-1.16-3.02-2.98-3.02s-2.96,1.06-3.18,3.02h6.16Z"/><path class="cls-5" d="M397.87,380.95l-3.9-10.26h1.7l3.1,8.56,3.04-8.56h1.66l-3.84,10.26h-1.76Z"/><path class="cls-5" d="M403.94,376.01v-.38c0-3.06,1.82-5.18,4.86-5.18,3.26,0,4.8,2.24,4.66,5.68h-7.88c.04,2.38,1.24,3.7,3.24,3.7,1.62,0,2.62-.74,2.96-2.06h1.62c-.5,2.16-2.14,3.42-4.58,3.42-3.1,0-4.88-2.14-4.88-5.18ZM411.79,374.83c-.16-1.9-1.16-3.02-2.98-3.02s-2.96,1.06-3.18,3.02h6.16Z"/><path class="cls-5" d="M416.93,366.15v14.8h-1.6v-14.8h1.6Z"/><rect class="cls-1" x="520.62" y="58.15" width="232.93" height="91.87"/><path class="cls-4" d="M580.3,109.85v-15.62h6.86c3.32,0,5.81,1.76,5.81,5.06v.22c0,3.32-2.46,5.06-5.81,5.06h-3.19v5.28h-3.67ZM583.98,101.56h2.79c1.41,0,2.38-.62,2.38-2.05v-.22c0-1.43-.97-2.05-2.38-2.05h-2.79v4.31Z"/><path class="cls-4" d="M593.99,104.26v-.22c0-3.43,2.38-5.85,5.96-5.85s5.96,2.42,5.96,5.85v.22c0,3.45-2.35,5.88-5.96,5.88s-5.96-2.42-5.96-5.88ZM602.35,104.26v-.22c0-2.07-.73-3.17-2.4-3.17s-2.4,1.1-2.4,3.17v.22c0,2.09.75,3.19,2.4,3.19s2.4-1.1,2.4-3.19Z"/><path class="cls-4" d="M607.63,113.59v-15.12h3.28l.11,1.8c.48-1.06,1.72-2.09,3.52-2.09,3.08,0,4.93,2.51,4.93,5.85v.22c0,3.37-1.85,5.88-4.91,5.88-1.58,0-2.79-.79-3.39-1.85v5.3h-3.54ZM615.9,104.26v-.22c0-2.11-.79-3.21-2.42-3.21s-2.42,1.1-2.42,3.21v.22c0,2.09.79,3.21,2.42,3.21s2.42-1.12,2.42-3.21Z"/><path class="cls-4" d="M621.07,105.72v-7.24h3.54v6.56c0,1.52.55,2.29,1.74,2.29s2.05-.88,2.05-2.66v-6.18h3.54v11.38h-3.39l-.09-1.63c-.62.97-1.78,1.91-3.43,1.91-2.73,0-3.96-1.72-3.96-4.42Z"/><path class="cls-4" d="M637.53,93.57v16.28h-3.52v-16.28h3.52Z"/><path class="cls-4" d="M639.13,106.68c0-1.96,1.25-3.12,3.43-3.39l3.96-.53v-.73c0-.84-.55-1.34-1.69-1.34s-1.8.46-1.89,1.32h-3.34c.13-2.42,2.2-3.83,5.3-3.83s5.06,1.5,5.06,3.87v7.79h-3.3l-.11-1.69c-.68,1.23-1.96,1.98-3.67,1.98-2.2,0-3.74-1.45-3.74-3.45ZM646.52,105.72v-.81l-2.68.35c-.88.11-1.3.53-1.3,1.21,0,.75.55,1.19,1.56,1.19,1.32,0,2.42-.77,2.42-1.94Z"/><path class="cls-4" d="M653.12,106.42v-5.41h-2.07v-2.53h2.07v-3.63h3.52v3.63h2.86v2.53h-2.86v5.17c0,.9.44,1.28,1.54,1.28.53,0,.97-.11,1.36-.22v2.62c-.59.18-1.47.29-2.22.29-2.88,0-4.2-1.28-4.2-3.72Z"/><path class="cls-4" d="M664.78,97.11h-3.65v-3.54h3.65v3.54ZM664.72,98.48v11.38h-3.52v-11.38h3.52Z"/><path class="cls-4" d="M666.41,104.26v-.22c0-3.43,2.38-5.85,5.96-5.85s5.96,2.42,5.96,5.85v.22c0,3.45-2.35,5.88-5.96,5.88s-5.96-2.42-5.96-5.88ZM674.77,104.26v-.22c0-2.07-.73-3.17-2.4-3.17s-2.4,1.1-2.4,3.17v.22c0,2.09.75,3.19,2.4,3.19s2.4-1.1,2.4-3.19Z"/><path class="cls-4" d="M680.05,109.85v-11.38h3.37l.09,1.74c.55-1.01,1.67-2.02,3.59-2.02,2.88,0,3.96,1.83,3.96,4.36v7.31h-3.52v-6.4c0-1.54-.48-2.44-1.83-2.44s-2.13.92-2.13,2.6v6.25h-3.52Z"/><rect class="cls-3" x="520.62" y="58.15" width="232.93" height="344.94"/><path class="cls-5" d="M534.79,172.9c0-1.18.76-1.84,1.8-1.84s1.8.66,1.8,1.84-.78,1.82-1.8,1.82-1.8-.68-1.8-1.82Z"/><path class="cls-5" d="M552.01,174.18h1.72c.2,2.3,1.86,3.16,3.96,3.16,1.88,0,3.5-.82,3.5-2.48v-.14c0-1.36-.96-2.1-3.96-2.62-3.52-.6-4.7-1.84-4.7-3.86v-.2c0-2.14,1.9-3.88,4.9-3.88,2.78,0,4.86,1.38,5.18,4.22h-1.72c-.24-1.84-1.56-2.74-3.46-2.74s-3.24.9-3.24,2.38v.14c0,1.32.82,2,3.62,2.46,3.34.54,5.06,1.68,5.06,4v.2c0,2.26-1.92,4.02-5.26,4.02s-5.44-1.6-5.6-4.66Z"/><path class="cls-5" d="M566.43,166.68h-1.68v-2.88h1.68v2.88ZM566.37,168.34v10.26h-1.6v-10.26h1.6Z"/><path class="cls-5" d="M568.33,178.6v-1.22l5.62-7.72h-5.38v-1.32h7.22v1.2l-5.56,7.7h5.78v1.36h-7.68Z"/><path class="cls-5" d="M577.25,173.66v-.38c0-3.06,1.82-5.18,4.86-5.18,3.26,0,4.8,2.24,4.66,5.68h-7.88c.04,2.38,1.24,3.7,3.24,3.7,1.62,0,2.62-.74,2.96-2.06h1.62c-.5,2.16-2.14,3.42-4.58,3.42-3.1,0-4.88-2.14-4.88-5.18ZM585.09,172.48c-.16-1.9-1.16-3.02-2.98-3.02s-2.96,1.06-3.18,3.02h6.16Z"/><path class="cls-5" d="M534.79,201.75c0-1.18.76-1.84,1.8-1.84s1.8.66,1.8,1.84-.78,1.82-1.8,1.82-1.8-.68-1.8-1.82Z"/><path class="cls-5" d="M552.65,207.45v-14.2h4.64c4.06,0,6.86,2.4,6.86,6.82v.56c0,4.38-2.76,6.82-6.86,6.82h-4.64ZM554.35,205.97h2.8c3.22,0,5.24-1.7,5.24-5.34v-.56c0-3.6-2-5.34-5.28-5.34h-2.76v11.24Z"/><path class="cls-5" d="M565.73,202.51v-.38c0-3.06,1.82-5.18,4.86-5.18,3.26,0,4.8,2.24,4.66,5.68h-7.88c.04,2.38,1.24,3.7,3.24,3.7,1.62,0,2.62-.74,2.96-2.06h1.62c-.5,2.16-2.14,3.42-4.58,3.42-3.1,0-4.88-2.14-4.88-5.18ZM573.57,201.33c-.16-1.9-1.16-3.02-2.98-3.02s-2.96,1.06-3.18,3.02h6.16Z"/><path class="cls-5" d="M577.11,207.45v-10.26h1.56l.04,1.66c.6-1.1,1.68-1.9,3.32-1.9,2.44,0,3.56,1.5,3.56,3.86v6.64h-1.58v-6.26c0-1.84-.72-2.86-2.4-2.86s-2.9,1.26-2.9,3.3v5.82h-1.6Z"/><path class="cls-5" d="M587.37,204.31h1.54c.24,1.46,1.2,2.08,2.76,2.08,1.44,0,2.4-.58,2.4-1.7,0-.98-.68-1.44-2.74-1.8-2.38-.44-3.6-1.16-3.6-2.98s1.54-2.96,3.76-2.96,3.76,1.12,3.98,3.12h-1.58c-.18-1.2-1.1-1.82-2.4-1.82s-2.18.6-2.18,1.58.62,1.4,2.64,1.72c2.38.4,3.74,1.18,3.74,2.98,0,1.92-1.66,3.16-4.06,3.16s-4.06-1.18-4.26-3.38Z"/><path class="cls-5" d="M599.25,195.53h-1.68v-2.88h1.68v2.88ZM599.19,197.19v10.26h-1.6v-10.26h1.6Z"/><path class="cls-5" d="M602.67,204.87v-6.4h-2.06v-1.28h2.06v-3.16h1.6v3.16h2.94v1.28h-2.94v6.18c0,1.14.38,1.68,1.72,1.68.4,0,.96-.1,1.3-.2v1.36c-.42.1-1.06.2-1.5.2-2.04,0-3.12-.94-3.12-2.82Z"/><path class="cls-5" d="M610.87,210.86l1.32-3.42-4-10.24h1.72l3.12,8.4,2.98-8.4h1.66l-5.16,13.66h-1.64Z"/><path class="cls-5" d="M534.79,230.6c0-1.18.76-1.84,1.8-1.84s1.8.66,1.8,1.84-.78,1.82-1.8,1.82-1.8-.68-1.8-1.82Z"/><path class="cls-5" d="M552.65,265.15v-14.2h5.74c2.76,0,4.56,1.42,4.56,4.04v.36c0,2.34-1.42,3.7-3.66,3.98l3.7,5.82h-1.96l-3.64-5.76h-3.04v5.76h-1.7ZM554.35,257.91h3.98c1.78,0,2.9-.82,2.9-2.56v-.36c0-1.74-1.12-2.56-2.9-2.56h-3.98v5.48Z"/><path class="cls-5" d="M564.01,260.21v-.38c0-3.06,1.82-5.18,4.86-5.18,3.26,0,4.8,2.24,4.66,5.68h-7.88c.04,2.38,1.24,3.7,3.24,3.7,1.62,0,2.62-.74,2.96-2.06h1.62c-.5,2.16-2.14,3.42-4.58,3.42-3.1,0-4.88-2.14-4.88-5.18ZM571.85,259.03c-.16-1.9-1.16-3.02-2.98-3.02s-2.96,1.06-3.18,3.02h6.16Z"/><path class="cls-5" d="M575.29,265.86h1.72c.14,1.06,1.06,1.64,2.74,1.64s3.06-.84,3.06-2.74v-1.68c-.54,1.04-1.72,1.92-3.46,1.92-2.68,0-4.4-2.1-4.4-4.9v-.56c0-2.9,1.72-4.88,4.4-4.88,1.8,0,3.04,1,3.56,2.08l.04-1.84h1.48v9.76c0,2.44-1.7,4.14-4.74,4.14-2.6,0-4.22-1.18-4.4-2.94ZM582.91,260.09v-.56c0-2.2-1.16-3.52-3.28-3.52-1.94,0-3.04,1.34-3.04,3.52v.56c0,2.1,1.12,3.54,3.04,3.54,2.1,0,3.28-1.42,3.28-3.54Z"/><path class="cls-5" d="M588.49,253.23h-1.68v-2.88h1.68v2.88ZM588.43,254.89v10.26h-1.6v-10.26h1.6Z"/><path class="cls-5" d="M590.39,260.21v-.38c0-3.14,1.88-5.18,4.86-5.18s4.88,2.04,4.88,5.18v.38c0,3.14-1.9,5.18-4.88,5.18s-4.86-2.04-4.86-5.18ZM598.49,260.21v-.38c0-2.4-1.14-3.82-3.24-3.82s-3.22,1.42-3.22,3.82v.38c0,2.4,1.14,3.82,3.22,3.82s3.24-1.42,3.24-3.82Z"/><path class="cls-5" d="M602.09,265.15v-10.26h1.56l.04,1.66c.6-1.1,1.68-1.9,3.32-1.9,2.44,0,3.56,1.5,3.56,3.86v6.64h-1.58v-6.26c0-1.84-.72-2.86-2.4-2.86s-2.9,1.26-2.9,3.3v5.82h-1.6Z"/><path class="cls-5" d="M534.79,288.3c0-1.18.76-1.84,1.8-1.84s1.8.66,1.8,1.84-.78,1.82-1.8,1.82-1.8-.68-1.8-1.82Z"/><path class="cls-5" d="M562.73,294l-1.48-3.88h-6.44l-1.48,3.88h-1.72l5.54-14.2h1.84l5.54,14.2h-1.8ZM555.37,288.66h5.32l-2.66-6.98-2.66,6.98Z"/><path class="cls-5" d="M565.45,294.71h1.72c.14,1.06,1.06,1.64,2.74,1.64s3.06-.84,3.06-2.74v-1.68c-.54,1.04-1.72,1.92-3.46,1.92-2.68,0-4.4-2.1-4.4-4.9v-.56c0-2.9,1.72-4.88,4.4-4.88,1.8,0,3.04,1,3.56,2.08l.04-1.84h1.48v9.76c0,2.44-1.7,4.14-4.74,4.14-2.6,0-4.22-1.18-4.4-2.94ZM573.07,288.94v-.56c0-2.2-1.16-3.52-3.28-3.52-1.94,0-3.04,1.34-3.04,3.52v.56c0,2.1,1.12,3.54,3.04,3.54,2.1,0,3.28-1.42,3.28-3.54Z"/><path class="cls-5" d="M576.55,289.06v-.38c0-3.06,1.82-5.18,4.86-5.18,3.26,0,4.8,2.24,4.66,5.68h-7.88c.04,2.38,1.24,3.7,3.24,3.7,1.62,0,2.62-.74,2.96-2.06h1.62c-.5,2.16-2.14,3.42-4.58,3.42-3.1,0-4.88-2.14-4.88-5.18ZM584.39,287.88c-.16-1.9-1.16-3.02-2.98-3.02s-2.96,1.06-3.18,3.02h6.16Z"/><path class="cls-5" d="M591.31,289.58h1.72c.2,2.3,1.86,3.16,3.96,3.16,1.88,0,3.5-.82,3.5-2.48v-.14c0-1.36-.96-2.1-3.96-2.62-3.52-.6-4.7-1.84-4.7-3.86v-.2c0-2.14,1.9-3.88,4.9-3.88,2.78,0,4.86,1.38,5.18,4.22h-1.72c-.24-1.84-1.56-2.74-3.46-2.74s-3.24.9-3.24,2.38v.14c0,1.32.82,2,3.62,2.46,3.34.54,5.06,1.68,5.06,4v.2c0,2.26-1.92,4.02-5.26,4.02s-5.44-1.6-5.6-4.66Z"/><path class="cls-5" d="M605.05,291.42v-6.4h-2.06v-1.28h2.06v-3.16h1.6v3.16h2.94v1.28h-2.94v6.18c0,1.14.38,1.68,1.72,1.68.4,0,.96-.1,1.3-.2v1.36c-.42.1-1.06.2-1.5.2-2.04,0-3.12-.94-3.12-2.82Z"/><path class="cls-5" d="M611.47,294v-10.26h1.56l.02,1.98c.62-1.42,1.76-2.22,3.18-2.22.16,0,.34,0,.54.04v1.6c-.22-.02-.36-.02-.58-.02-1.86,0-3.12,1.14-3.12,3.38v5.5h-1.6Z"/><path class="cls-5" d="M618.19,290.36v-6.62h1.6v6.32c0,1.72.66,2.78,2.38,2.78s2.76-1.36,2.76-3.34v-5.76h1.6v10.26h-1.56l-.02-1.62c-.62,1.1-1.74,1.86-3.24,1.86-2.36,0-3.52-1.48-3.52-3.88Z"/><path class="cls-5" d="M628.49,289.06v-.38c0-3.06,1.72-5.18,4.78-5.18,2.48,0,4.08,1.46,4.36,3.66h-1.6c-.28-1.42-1.18-2.3-2.8-2.3-2,0-3.1,1.4-3.1,3.82v.38c0,2.42,1.1,3.82,3.12,3.82,1.6,0,2.56-.94,2.84-2.36h1.6c-.38,2.28-1.98,3.72-4.44,3.72-3.04,0-4.76-2.14-4.76-5.18Z"/><path class="cls-5" d="M640.55,291.42v-6.4h-2.06v-1.28h2.06v-3.16h1.6v3.16h2.94v1.28h-2.94v6.18c0,1.14.38,1.68,1.72,1.68.4,0,.96-.1,1.3-.2v1.36c-.42.1-1.06.2-1.5.2-2.04,0-3.12-.94-3.12-2.82Z"/><path class="cls-5" d="M646.89,290.36v-6.62h1.6v6.32c0,1.72.66,2.78,2.38,2.78s2.76-1.36,2.76-3.34v-5.76h1.6v10.26h-1.56l-.02-1.62c-.62,1.1-1.74,1.86-3.24,1.86-2.36,0-3.52-1.48-3.52-3.88Z"/><path class="cls-5" d="M657.63,294v-10.26h1.56l.02,1.98c.62-1.42,1.76-2.22,3.18-2.22.16,0,.34,0,.54.04v1.6c-.22-.02-.36-.02-.58-.02-1.86,0-3.12,1.14-3.12,3.38v5.5h-1.6Z"/><path class="cls-5" d="M663.63,289.06v-.38c0-3.06,1.82-5.18,4.86-5.18,3.26,0,4.8,2.24,4.66,5.68h-7.88c.04,2.38,1.24,3.7,3.24,3.7,1.62,0,2.62-.74,2.96-2.06h1.62c-.5,2.16-2.14,3.42-4.58,3.42-3.1,0-4.88-2.14-4.88-5.18ZM671.47,287.88c-.16-1.9-1.16-3.02-2.98-3.02s-2.96,1.06-3.18,3.02h6.16Z"/><path class="cls-5" d="M534.79,317.15c0-1.18.76-1.84,1.8-1.84s1.8.66,1.8,1.84-.78,1.82-1.8,1.82-1.8-.68-1.8-1.82Z"/><path class="cls-5" d="M552.65,322.86v-14.2h5.42c2.74,0,4.54,1.1,4.54,3.7v.18c0,1.26-.62,2.3-1.7,2.8,1.46.46,2.36,1.74,2.36,3.3v.3c0,2.58-2,3.92-4.74,3.92h-5.88ZM554.33,314.83h3.78c1.88,0,2.76-.88,2.76-2.28v-.18c0-1.7-1.08-2.26-2.86-2.26h-3.68v4.72ZM554.33,321.39h4.14c1.78,0,3.06-.76,3.06-2.48v-.28c0-1.54-1-2.36-2.86-2.36h-4.34v5.12Z"/><path class="cls-5" d="M566.87,310.93h-1.68v-2.88h1.68v2.88ZM566.81,312.59v10.26h-1.6v-10.26h1.6Z"/><path class="cls-5" d="M569.21,322.86v-10.26h1.56l.02,1.98c.62-1.42,1.76-2.22,3.18-2.22.16,0,.34,0,.54.04v1.6c-.22-.02-.36-.02-.58-.02-1.86,0-3.12,1.14-3.12,3.38v5.5h-1.6Z"/><path class="cls-5" d="M577.09,320.27v-6.4h-2.06v-1.28h2.06v-3.16h1.6v3.16h2.94v1.28h-2.94v6.18c0,1.14.38,1.68,1.72,1.68.4,0,.96-.1,1.3-.2v1.36c-.42.1-1.06.2-1.5.2-2.04,0-3.12-.94-3.12-2.82Z"/><path class="cls-5" d="M583.51,322.86v-14.8h1.6v6.18c.6-1.1,1.7-1.88,3.32-1.88,2.44,0,3.56,1.5,3.56,3.86v6.64h-1.58v-6.26c0-1.84-.72-2.86-2.4-2.86s-2.9,1.26-2.9,3.3v5.82h-1.6Z"/><path class="cls-5" d="M598.33,322.86v-14.2h5.74c2.76,0,4.56,1.42,4.56,4.04v.36c0,2.34-1.42,3.7-3.66,3.98l3.7,5.82h-1.96l-3.64-5.76h-3.04v5.76h-1.7ZM600.03,315.61h3.98c1.78,0,2.9-.82,2.9-2.56v-.36c0-1.74-1.12-2.56-2.9-2.56h-3.98v5.48Z"/><path class="cls-5" d="M609.81,320.17c0-1.48.88-2.6,2.52-2.84l4.32-.64v-.9c0-1.48-1.04-2.14-2.36-2.14-1.42,0-2.4.7-2.52,1.94h-1.56c.18-2.04,1.72-3.24,4.1-3.24,2.5,0,3.92,1.42,3.92,3.54v6.96h-1.5l-.06-1.6c-.66,1.2-1.98,1.84-3.42,1.84-2.14,0-3.44-1.2-3.44-2.92ZM616.65,319.05v-1.06l-3.8.56c-.98.14-1.42.7-1.42,1.58,0,.98.68,1.62,1.98,1.62,1.72,0,3.24-1.14,3.24-2.7Z"/><path class="cls-5" d="M621.53,320.27v-6.4h-2.06v-1.28h2.06v-3.16h1.6v3.16h2.94v1.28h-2.94v6.18c0,1.14.38,1.68,1.72,1.68.4,0,.96-.1,1.3-.2v1.36c-.42.1-1.06.2-1.5.2-2.04,0-3.12-.94-3.12-2.82Z"/><path class="cls-5" d="M627.23,317.91v-.38c0-3.06,1.82-5.18,4.86-5.18,3.26,0,4.8,2.24,4.66,5.68h-7.88c.04,2.38,1.24,3.7,3.24,3.7,1.62,0,2.62-.74,2.96-2.06h1.62c-.5,2.16-2.14,3.42-4.58,3.42-3.1,0-4.88-2.14-4.88-5.18ZM635.07,316.73c-.16-1.9-1.16-3.02-2.98-3.02s-2.96,1.06-3.18,3.02h6.16Z"/><path class="cls-5" d="M638.07,319.71h1.54c.24,1.46,1.2,2.08,2.76,2.08,1.44,0,2.4-.58,2.4-1.7,0-.98-.68-1.44-2.74-1.8-2.38-.44-3.6-1.16-3.6-2.98s1.54-2.96,3.76-2.96,3.76,1.12,3.98,3.12h-1.58c-.18-1.2-1.1-1.82-2.4-1.82s-2.18.6-2.18,1.58.62,1.4,2.64,1.72c2.38.4,3.74,1.18,3.74,2.98,0,1.92-1.66,3.16-4.06,3.16s-4.06-1.18-4.26-3.38Z"/><path class="cls-5" d="M534.79,346c0-1.18.76-1.84,1.8-1.84s1.8.66,1.8,1.84-.78,1.82-1.8,1.82-1.8-.68-1.8-1.82Z"/><path class="cls-5" d="M552.65,351.71v-14.2h4.64c4.06,0,6.86,2.4,6.86,6.82v.56c0,4.38-2.76,6.82-6.86,6.82h-4.64ZM554.35,350.22h2.8c3.22,0,5.24-1.7,5.24-5.34v-.56c0-3.6-2-5.34-5.28-5.34h-2.76v11.24Z"/><path class="cls-5" d="M565.73,346.76v-.38c0-3.06,1.82-5.18,4.86-5.18,3.26,0,4.8,2.24,4.66,5.68h-7.88c.04,2.38,1.24,3.7,3.24,3.7,1.62,0,2.62-.74,2.96-2.06h1.62c-.5,2.16-2.14,3.42-4.58,3.42-3.1,0-4.88-2.14-4.88-5.18ZM573.57,345.58c-.16-1.9-1.16-3.02-2.98-3.02s-2.96,1.06-3.18,3.02h6.16Z"/><path class="cls-5" d="M576.61,349.02c0-1.48.88-2.6,2.52-2.84l4.32-.64v-.9c0-1.48-1.04-2.14-2.36-2.14-1.42,0-2.4.7-2.52,1.94h-1.56c.18-2.04,1.72-3.24,4.1-3.24,2.5,0,3.92,1.42,3.92,3.54v6.96h-1.5l-.06-1.6c-.66,1.2-1.98,1.84-3.42,1.84-2.14,0-3.44-1.2-3.44-2.92ZM583.45,347.9v-1.06l-3.8.56c-.98.14-1.42.7-1.42,1.58,0,.98.68,1.62,1.98,1.62,1.72,0,3.24-1.14,3.24-2.7Z"/><path class="cls-5" d="M588.35,349.12v-6.4h-2.06v-1.28h2.06v-3.16h1.6v3.16h2.94v1.28h-2.94v6.18c0,1.14.38,1.68,1.72,1.68.4,0,.96-.1,1.3-.2v1.36c-.42.1-1.06.2-1.5.2-2.04,0-3.12-.94-3.12-2.82Z"/><path class="cls-5" d="M594.77,351.71v-14.8h1.6v6.18c.6-1.1,1.7-1.88,3.32-1.88,2.44,0,3.56,1.5,3.56,3.86v6.64h-1.58v-6.26c0-1.84-.72-2.86-2.4-2.86s-2.9,1.26-2.9,3.3v5.82h-1.6Z"/><path class="cls-5" d="M609.59,351.71v-14.2h5.74c2.76,0,4.56,1.42,4.56,4.04v.36c0,2.34-1.42,3.7-3.66,3.98l3.7,5.82h-1.96l-3.64-5.76h-3.04v5.76h-1.7ZM611.29,344.46h3.98c1.78,0,2.9-.82,2.9-2.56v-.36c0-1.74-1.12-2.56-2.9-2.56h-3.98v5.48Z"/><path class="cls-5" d="M621.07,349.02c0-1.48.88-2.6,2.52-2.84l4.32-.64v-.9c0-1.48-1.04-2.14-2.36-2.14-1.42,0-2.4.7-2.52,1.94h-1.56c.18-2.04,1.72-3.24,4.1-3.24,2.5,0,3.92,1.42,3.92,3.54v6.96h-1.5l-.06-1.6c-.66,1.2-1.98,1.84-3.42,1.84-2.14,0-3.44-1.2-3.44-2.92ZM627.91,347.9v-1.06l-3.8.56c-.98.14-1.42.7-1.42,1.58,0,.98.68,1.62,1.98,1.62,1.72,0,3.24-1.14,3.24-2.7Z"/><path class="cls-5" d="M632.81,349.12v-6.4h-2.06v-1.28h2.06v-3.16h1.6v3.16h2.94v1.28h-2.94v6.18c0,1.14.38,1.68,1.72,1.68.4,0,.96-.1,1.3-.2v1.36c-.42.1-1.06.2-1.5.2-2.04,0-3.12-.94-3.12-2.82Z"/><path class="cls-5" d="M638.51,346.76v-.38c0-3.06,1.82-5.18,4.86-5.18,3.26,0,4.8,2.24,4.66,5.68h-7.88c.04,2.38,1.24,3.7,3.24,3.7,1.62,0,2.62-.74,2.96-2.06h1.62c-.5,2.16-2.14,3.42-4.58,3.42-3.1,0-4.88-2.14-4.88-5.18ZM646.35,345.58c-.16-1.9-1.16-3.02-2.98-3.02s-2.96,1.06-3.18,3.02h6.16Z"/><path class="cls-5" d="M649.35,348.56h1.54c.24,1.46,1.2,2.08,2.76,2.08,1.44,0,2.4-.58,2.4-1.7,0-.98-.68-1.44-2.74-1.8-2.38-.44-3.6-1.16-3.6-2.98s1.54-2.96,3.76-2.96,3.76,1.12,3.98,3.12h-1.58c-.18-1.2-1.1-1.82-2.4-1.82s-2.18.6-2.18,1.58.62,1.4,2.64,1.72c2.38.4,3.74,1.18,3.74,2.98,0,1.92-1.66,3.16-4.06,3.16s-4.06-1.18-4.26-3.38Z"/><path class="cls-5" d="M534.79,374.85c0-1.18.76-1.84,1.8-1.84s1.8.66,1.8,1.84-.78,1.82-1.8,1.82-1.8-.68-1.8-1.82Z"/><path class="cls-5" d="M552.01,376.13h1.72c.2,2.3,1.86,3.16,3.96,3.16,1.88,0,3.5-.82,3.5-2.48v-.14c0-1.36-.96-2.1-3.96-2.62-3.52-.6-4.7-1.84-4.7-3.86v-.2c0-2.14,1.9-3.88,4.9-3.88,2.78,0,4.86,1.38,5.18,4.22h-1.72c-.24-1.84-1.56-2.74-3.46-2.74s-3.24.9-3.24,2.38v.14c0,1.32.82,2,3.62,2.46,3.34.54,5.06,1.68,5.06,4v.2c0,2.26-1.92,4.02-5.26,4.02s-5.44-1.6-5.6-4.66Z"/><path class="cls-5" d="M564.33,375.61v-.38c0-3.06,1.82-5.18,4.86-5.18,3.26,0,4.8,2.24,4.66,5.68h-7.88c.04,2.38,1.24,3.7,3.24,3.7,1.62,0,2.62-.74,2.96-2.06h1.62c-.5,2.16-2.14,3.42-4.58,3.42-3.1,0-4.88-2.14-4.88-5.18ZM572.17,374.43c-.16-1.9-1.16-3.02-2.98-3.02s-2.96,1.06-3.18,3.02h6.16Z"/><path class="cls-5" d="M574.23,380.56l3.74-5.26-3.56-5h1.9l2.66,3.8,2.68-3.8h1.78l-3.56,4.94,3.8,5.32h-1.9l-2.9-4.14-2.86,4.14h-1.78Z"/><path class="cls-5" d="M589.17,380.56v-14.2h5.74c2.76,0,4.56,1.42,4.56,4.04v.36c0,2.34-1.42,3.7-3.66,3.98l3.7,5.82h-1.96l-3.64-5.76h-3.04v5.76h-1.7ZM590.87,373.31h3.98c1.78,0,2.9-.82,2.9-2.56v-.36c0-1.74-1.12-2.56-2.9-2.56h-3.98v5.48Z"/><path class="cls-5" d="M600.65,377.88c0-1.48.88-2.6,2.52-2.84l4.32-.64v-.9c0-1.48-1.04-2.14-2.36-2.14-1.42,0-2.4.7-2.52,1.94h-1.56c.18-2.04,1.72-3.24,4.1-3.24,2.5,0,3.92,1.42,3.92,3.54v6.96h-1.5l-.06-1.6c-.66,1.2-1.98,1.84-3.42,1.84-2.14,0-3.44-1.2-3.44-2.92ZM607.49,376.75v-1.06l-3.8.56c-.98.14-1.42.7-1.42,1.58,0,.98.68,1.62,1.98,1.62,1.72,0,3.24-1.14,3.24-2.7Z"/><path class="cls-5" d="M612.39,377.98v-6.4h-2.06v-1.28h2.06v-3.16h1.6v3.16h2.94v1.28h-2.94v6.18c0,1.14.38,1.68,1.72,1.68.4,0,.96-.1,1.3-.2v1.36c-.42.1-1.06.2-1.5.2-2.04,0-3.12-.94-3.12-2.82Z"/><path class="cls-5" d="M620.47,368.63h-1.68v-2.88h1.68v2.88ZM620.41,370.29v10.26h-1.6v-10.26h1.6Z"/><path class="cls-5" d="M622.37,375.61v-.38c0-3.14,1.88-5.18,4.86-5.18s4.88,2.04,4.88,5.18v.38c0,3.14-1.9,5.18-4.88,5.18s-4.86-2.04-4.86-5.18ZM630.47,375.61v-.38c0-2.4-1.14-3.82-3.24-3.82s-3.22,1.42-3.22,3.82v.38c0,2.4,1.14,3.82,3.22,3.82s3.24-1.42,3.24-3.82Z"/><path class="cls-5" d="M552.13,229.48v-.56c0-4.16,2.62-7.06,6.5-7.06,3.14,0,5.38,1.96,5.76,4.84h-1.72c-.36-2.1-1.92-3.32-4.06-3.32-2.98,0-4.72,2.28-4.72,5.54v.56c0,3.26,1.78,5.54,4.66,5.54s4.26-2.08,4.26-4.02v-.66h-4.38v-1.46h5.98v7.42h-1.44l-.22-2.06c-.66,1.34-2.32,2.3-4.22,2.3-3.82,0-6.4-2.84-6.4-7.06Z"/><path class="cls-5" d="M566.25,231.36v-.38c0-3.06,1.82-5.18,4.86-5.18,3.26,0,4.8,2.24,4.66,5.68h-7.88c.04,2.38,1.24,3.7,3.24,3.7,1.62,0,2.62-.74,2.96-2.06h1.62c-.5,2.16-2.14,3.42-4.58,3.42-3.1,0-4.88-2.14-4.88-5.18ZM574.09,230.18c-.16-1.9-1.16-3.02-2.98-3.02s-2.96,1.06-3.18,3.02h6.16Z"/><path class="cls-5" d="M577.19,231.36v-.38c0-3.14,1.88-5.18,4.86-5.18s4.88,2.04,4.88,5.18v.38c0,3.14-1.9,5.18-4.88,5.18s-4.86-2.04-4.86-5.18ZM585.29,231.36v-.38c0-2.4-1.14-3.82-3.24-3.82s-3.22,1.42-3.22,3.82v.38c0,2.4,1.14,3.82,3.22,3.82s3.24-1.42,3.24-3.82Z"/><path class="cls-5" d="M588.79,237h1.72c.14,1.06,1.06,1.64,2.74,1.64s3.06-.84,3.06-2.74v-1.68c-.54,1.04-1.72,1.92-3.46,1.92-2.68,0-4.4-2.1-4.4-4.9v-.56c0-2.9,1.72-4.88,4.4-4.88,1.8,0,3.04,1,3.56,2.08l.04-1.84h1.48v9.76c0,2.44-1.7,4.14-4.74,4.14-2.6,0-4.22-1.18-4.4-2.94ZM596.41,231.24v-.56c0-2.2-1.16-3.52-3.28-3.52-1.94,0-3.04,1.34-3.04,3.52v.56c0,2.1,1.12,3.54,3.04,3.54,2.1,0,3.28-1.42,3.28-3.54Z"/><path class="cls-5" d="M600.33,236.3v-10.26h1.56l.02,1.98c.62-1.42,1.76-2.22,3.18-2.22.16,0,.34,0,.54.04v1.6c-.22-.02-.36-.02-.58-.02-1.86,0-3.12,1.14-3.12,3.38v5.5h-1.6Z"/><path class="cls-5" d="M606.63,233.62c0-1.48.88-2.6,2.52-2.84l4.32-.64v-.9c0-1.48-1.04-2.14-2.36-2.14-1.42,0-2.4.7-2.52,1.94h-1.56c.18-2.04,1.72-3.24,4.1-3.24,2.5,0,3.92,1.42,3.92,3.54v6.96h-1.5l-.06-1.6c-.66,1.2-1.98,1.84-3.42,1.84-2.14,0-3.44-1.2-3.44-2.92ZM613.47,232.5v-1.06l-3.8.56c-.98.14-1.42.7-1.42,1.58,0,.98.68,1.62,1.98,1.62,1.72,0,3.24-1.14,3.24-2.7Z"/><path class="cls-5" d="M617.37,239.71v-13.66h1.5l.04,1.84c.52-1.08,1.74-2.08,3.56-2.08,2.66,0,4.4,2.08,4.4,5.18v.38c0,3.08-1.74,5.18-4.42,5.18-1.74,0-2.92-.9-3.48-1.92v5.08h-1.6ZM625.23,231.36v-.38c0-2.38-1.12-3.82-3.04-3.82-2.12,0-3.28,1.44-3.28,3.82v.38c0,2.4,1.18,3.82,3.26,3.82,1.94,0,3.06-1.44,3.06-3.82Z"/><path class="cls-5" d="M628.83,236.3v-14.8h1.6v6.18c.6-1.1,1.7-1.88,3.32-1.88,2.44,0,3.56,1.5,3.56,3.86v6.64h-1.58v-6.26c0-1.84-.72-2.86-2.4-2.86s-2.9,1.26-2.9,3.3v5.82h-1.6Z"/><path class="cls-5" d="M641.29,224.38h-1.68v-2.88h1.68v2.88ZM641.23,226.04v10.26h-1.6v-10.26h1.6Z"/><path class="cls-5" d="M643.19,231.36v-.38c0-3.06,1.72-5.18,4.78-5.18,2.48,0,4.08,1.46,4.36,3.66h-1.6c-.28-1.42-1.18-2.3-2.8-2.3-2,0-3.1,1.4-3.1,3.82v.38c0,2.42,1.1,3.82,3.12,3.82,1.6,0,2.56-.94,2.84-2.36h1.6c-.38,2.28-1.98,3.72-4.44,3.72-3.04,0-4.76-2.14-4.76-5.18Z"/></svg>