<?xml version="1.0" encoding="UTF-8"?>
<svg id="Layer_1" xmlns="http://www.w3.org/2000/svg" version="1.1" viewBox="0 0 410 170">
  <!-- Generator: Adobe Illustrator 29.3.1, SVG Export Plug-In . SVG Version: 2.1.0 Build 151)  -->
  <defs>
    <style>
      .st0 {
        fill: #162a3f;
      }

      .st1 {
        fill: #fff;
        stroke: #a7a9ab;
        stroke-miterlimit: 10;
        stroke-width: 1px;
      }

      .st2 {
        fill: #e3deaa;
      }
    </style>
  </defs>
  <rect class="st1" x="4.6" y="3.4" width="400.8" height="160.9" rx="26" ry="26"/>
  <g>
    <path class="st0" d="M199.7,88.3v2.6h-12.6v-16.8h12.3v2.6h-9.1v4.4h8.1v2.6h-8.1v4.6h9.5Z"/>
    <path class="st0" d="M221.7,74.1v16.8h-2.6l-9.3-11.4v11.4h-3.1v-16.8h2.6l9.3,11.4v-11.4h3.1Z"/>
    <path class="st0" d="M242.4,88.3v2.6h-12.6v-16.8h12.3v2.6h-9.1v4.4h8.1v2.6h-8.1v4.6h9.5Z"/>
    <path class="st0" d="M260.5,90.9l-3.4-4.9c-.1,0-.4,0-.6,0h-3.8v4.9h-3.1v-16.8h6.9c1.5,0,2.7.2,3.8.7,1.1.5,1.9,1.2,2.5,2.1.6.9.9,2,.9,3.2s-.3,2.4-.9,3.3c-.6.9-1.5,1.6-2.7,2l3.9,5.5h-3.4ZM259.4,77.6c-.7-.6-1.7-.9-3.1-.9h-3.6v6.7h3.6c1.4,0,2.4-.3,3.1-.9.7-.6,1.1-1.4,1.1-2.5s-.4-1.9-1.1-2.5Z"/>
    <path class="st0" d="M282.1,82.3h3v6.7c-.9.7-1.9,1.2-3,1.6-1.2.4-2.3.6-3.6.6s-3.3-.4-4.6-1.1c-1.4-.7-2.5-1.8-3.2-3.1-.8-1.3-1.2-2.8-1.2-4.4s.4-3.1,1.2-4.4c.8-1.3,1.9-2.3,3.3-3.1s2.9-1.1,4.7-1.1,2.7.2,3.8.7c1.2.5,2.1,1.1,2.9,2l-2,1.9c-1.3-1.3-2.8-1.9-4.6-1.9s-2.2.2-3.2.7c-.9.5-1.6,1.2-2.2,2.1-.5.9-.8,1.9-.8,3.1s.3,2.1.8,3c.5.9,1.2,1.6,2.2,2.1.9.5,2,.8,3.1.8s2.5-.3,3.5-.9v-5.2Z"/>
    <path class="st0" d="M292.8,74.1h3.1v16.8h-3.1v-16.8Z"/>
    <path class="st0" d="M317.1,88.3v2.6h-14.3v-2.1l9.9-12.1h-9.7v-2.6h13.8v2.1l-9.9,12.1h10.2Z"/>
    <path class="st0" d="M336.1,88.3v2.6h-12.6v-16.8h12.3v2.6h-9.1v4.4h8.1v2.6h-8.1v4.6h9.5Z"/>
  </g>
  <circle class="st2" cx="79.6" cy="83.9" r="39.2"/>
</svg>