<?xml version="1.0" encoding="UTF-8"?>
<svg id="Layer_1" xmlns="http://www.w3.org/2000/svg" version="1.1" viewBox="0 0 410 170">
  <!-- Generator: Adobe Illustrator 29.3.1, SVG Export Plug-In . SVG Version: 2.1.0 Build 151)  -->
  <defs>
    <style>
      .st0 {
        fill: #162a3f;
      }

      .st1 {
        fill: #455a68;
      }

      .st2 {
        fill: #fff;
        stroke: #a7a9ab;
        stroke-miterlimit: 10;
      }
    </style>
  </defs>
  <rect class="st2" x="4.6" y="3.4" width="400.8" height="160.9" rx="26" ry="26"/>
  <g>
    <path class="st0" d="M198.1,83.7c.5.7.8,1.6.8,2.7s-.6,2.6-1.7,3.4c-1.1.8-2.8,1.2-4.9,1.2h-8.4v-16.8h7.9c2,0,3.5.4,4.6,1.2,1.1.8,1.6,1.8,1.6,3.2s-.2,1.6-.6,2.2c-.4.6-.9,1.1-1.6,1.5.9.3,1.7.8,2.2,1.5ZM187.1,76.6v4.6h4.4c1.1,0,1.9-.2,2.5-.6.6-.4.9-1,.9-1.7s-.3-1.3-.9-1.7-1.4-.6-2.5-.6h-4.4ZM195.7,86c0-1.6-1.2-2.4-3.6-2.4h-5v4.8h5c2.4,0,3.6-.8,3.6-2.4Z"/>
    <path class="st0" d="M216.7,87h-8.4l-1.7,3.9h-3.2l7.6-16.8h3.1l7.6,16.8h-3.3l-1.7-3.9ZM215.7,84.6l-3.2-7.3-3.1,7.3h6.3Z"/>
    <path class="st0" d="M227.4,74.1h3.1v14.2h8.8v2.6h-11.9v-16.8Z"/>
    <path class="st0" d="M256.4,87h-8.4l-1.7,3.9h-3.2l7.6-16.8h3.1l7.6,16.8h-3.3l-1.7-3.9ZM255.4,84.6l-3.2-7.3-3.1,7.3h6.3Z"/>
    <path class="st0" d="M282,74.1v16.8h-2.6l-9.3-11.4v11.4h-3.1v-16.8h2.6l9.3,11.4v-11.4h3.1Z"/>
    <path class="st0" d="M293.3,90c-1.4-.7-2.4-1.8-3.2-3.1-.8-1.3-1.2-2.8-1.2-4.4s.4-3.1,1.2-4.4c.8-1.3,1.9-2.3,3.2-3.1s2.9-1.1,4.6-1.1,2.6.2,3.8.7c1.1.5,2.1,1.2,2.9,2.1l-2,1.9c-1.2-1.3-2.7-2-4.5-2s-2.2.3-3.1.8-1.6,1.2-2.1,2.1c-.5.9-.8,1.9-.8,3s.3,2.2.8,3c.5.9,1.2,1.6,2.1,2.1s1.9.8,3.1.8c1.8,0,3.3-.7,4.5-2l2,1.9c-.8.9-1.7,1.6-2.9,2.1-1.1.5-2.4.7-3.8.7s-3.2-.4-4.6-1.1Z"/>
    <path class="st0" d="M323.8,88.3v2.6h-12.6v-16.8h12.3v2.6h-9.1v4.4h8.1v2.6h-8.1v4.6h9.5Z"/>
    <path class="st0" d="M330.8,74.1h7.3c1.8,0,3.4.3,4.8,1s2.5,1.7,3.2,3c.8,1.3,1.2,2.7,1.2,4.4s-.4,3.1-1.2,4.4c-.8,1.3-1.8,2.3-3.2,3s-3,1-4.8,1h-7.3v-16.8ZM338,88.3c1.2,0,2.3-.2,3.3-.7s1.7-1.1,2.2-2c.5-.9.8-1.9.8-3s-.3-2.2-.8-3c-.5-.9-1.2-1.5-2.2-2-.9-.5-2-.7-3.3-.7h-4.1v11.5h4.1Z"/>
  </g>
  <g>
    <path class="st1" d="M115.4,62h-13.4c1.9-2.5,3-5.5,3-8.8,0-8.1-6.6-14.7-14.7-14.7s-14.7,6.6-14.7,14.7,1.1,6.4,3,8.8h-13.4c-6.3,0-11.4,4.7-11.4,10.6s5.1,10.6,11.4,10.6h6.9v34.9c0,5.8,4.7,10.6,10.6,10.6s5.7-1.3,7.7-3.3c1.9,2,4.6,3.3,7.7,3.3,5.8,0,10.6-4.7,10.6-10.6v-34.9h6.9c6.3,0,11.4-4.7,11.4-10.6s-5.1-10.6-11.4-10.6Z"/>
    <path class="st1" d="M90.3,30.3c1,0,1.8-.8,1.8-1.7s-.8-1.8-1.8-1.8-1.8.8-1.8,1.8.8,1.7,1.8,1.7Z"/>
    <path class="st1" d="M90.3,24.5c1,0,1.8-.8,1.8-1.8s-.8-1.8-1.8-1.8-1.8.8-1.8,1.8.8,1.8,1.8,1.8Z"/>
    <g>
      <path class="st1" d="M111.3,33.9c.5,0,.9-.2,1.2-.5.7-.7.7-1.8,0-2.5-.7-.7-1.8-.7-2.5,0-.7.7-.7,1.8,0,2.5.3.3.8.5,1.2.5Z"/>
      <path class="st1" d="M107.2,38c.5,0,.9-.2,1.2-.5.7-.7.7-1.8,0-2.5-.7-.7-1.8-.7-2.5,0-.7.7-.7,1.8,0,2.5.3.3.8.5,1.2.5Z"/>
      <path class="st1" d="M69.2,33.9c.5,0,.9-.2,1.2-.5.7-.7.7-1.8,0-2.5-.7-.7-1.8-.7-2.5,0s-.7,1.8,0,2.5.8.5,1.2.5Z"/>
      <path class="st1" d="M73.3,38c.5,0,.9-.2,1.2-.5.7-.7.7-1.8,0-2.5-.7-.7-1.8-.7-2.5,0-.7.7-.7,1.8,0,2.5.3.3.8.5,1.2.5Z"/>
    </g>
    <g>
      <path class="st1" d="M121.3,111.2c-1,0-1.8.8-1.8,1.8s.8,1.8,1.8,1.8,1.7-.8,1.7-1.8-.8-1.8-1.7-1.8Z"/>
      <path class="st1" d="M115.5,111.2c-1,0-1.8.8-1.8,1.8s.8,1.8,1.8,1.8,1.8-.8,1.8-1.8-.8-1.8-1.8-1.8Z"/>
      <path class="st1" d="M66.8,112.9c0-1-.8-1.8-1.7-1.8s-1.8.8-1.8,1.8.8,1.8,1.8,1.8,1.7-.8,1.7-1.8Z"/>
      <circle class="st1" cx="59.2" cy="112.9" r="1.8"/>
    </g>
    <path class="st1" d="M90.3,137.4c-1,0-1.8.8-1.8,1.8s.8,1.8,1.8,1.8,1.8-.8,1.8-1.8-.8-1.8-1.8-1.8Z"/>
    <path class="st1" d="M90.3,143.3c-1,0-1.8.8-1.8,1.8s.8,1.7,1.8,1.7,1.8-.8,1.8-1.7-.8-1.8-1.8-1.8Z"/>
    <g>
      <path class="st1" d="M107.1,129.8c-.7.7-.7,1.8,0,2.5s.8.5,1.2.5.9-.2,1.2-.5c.7-.7.7-1.8,0-2.5s-1.8-.7-2.5,0Z"/>
      <path class="st1" d="M111.2,133.9c-.7.7-.7,1.8,0,2.5s.8.5,1.2.5.9-.2,1.2-.5c.7-.7.7-1.8,0-2.5s-1.8-.7-2.5,0Z"/>
      <path class="st1" d="M70.9,129.8c-.7.7-.7,1.8,0,2.5s.8.5,1.2.5.9-.2,1.2-.5c.7-.7.7-1.8,0-2.5s-1.8-.7-2.5,0Z"/>
      <path class="st1" d="M66.8,133.9c-.7.7-.7,1.8,0,2.5s.8.5,1.2.5.9-.2,1.2-.5c.7-.7.7-1.8,0-2.5s-1.8-.7-2.5,0Z"/>
    </g>
    <g>
      <path class="st1" d="M115.5,91.3c-1,0-1.8.8-1.8,1.7s.8,1.8,1.8,1.8,1.8-.8,1.8-1.8-.8-1.7-1.8-1.7Z"/>
      <path class="st1" d="M121.3,91.3c-1,0-1.8.8-1.8,1.7s.8,1.8,1.8,1.8,1.7-.8,1.7-1.8-.8-1.7-1.7-1.7Z"/>
      <path class="st1" d="M59.2,91.3c-1,0-1.7.8-1.7,1.7s.8,1.8,1.7,1.8,1.8-.8,1.8-1.8-.8-1.7-1.8-1.7Z"/>
      <path class="st1" d="M65,94.8c1,0,1.7-.8,1.7-1.8s-.8-1.7-1.7-1.7-1.8.8-1.8,1.7.8,1.8,1.8,1.8Z"/>
    </g>
    <g>
      <path class="st1" d="M121.3,55c1,0,1.7-.8,1.7-1.8s-.8-1.7-1.7-1.7-1.8.8-1.8,1.7.8,1.8,1.8,1.8Z"/>
      <path class="st1" d="M115.5,55c1,0,1.8-.8,1.8-1.8s-.8-1.7-1.8-1.7-1.8.8-1.8,1.7.8,1.8,1.8,1.8Z"/>
      <path class="st1" d="M59.2,55c1,0,1.8-.8,1.8-1.8s-.8-1.7-1.8-1.7-1.8.8-1.8,1.7.8,1.8,1.8,1.8Z"/>
      <path class="st1" d="M65,55c1,0,1.7-.8,1.7-1.8s-.8-1.7-1.7-1.7-1.8.8-1.8,1.7.8,1.8,1.8,1.8Z"/>
    </g>
    <g>
      <path class="st1" d="M139.5,70.9c-1,0-1.8.8-1.8,1.7s.8,1.8,1.8,1.8,1.7-.8,1.7-1.8-.8-1.7-1.7-1.7Z"/>
      <path class="st1" d="M133.7,70.9c-1,0-1.8.8-1.8,1.7s.8,1.8,1.8,1.8,1.8-.8,1.8-1.8-.8-1.7-1.8-1.7Z"/>
      <path class="st1" d="M41,70.9c-1,0-1.8.8-1.8,1.7s.8,1.8,1.8,1.8,1.8-.8,1.8-1.8-.8-1.7-1.8-1.7Z"/>
      <path class="st1" d="M46.8,70.9c-1,0-1.8.8-1.8,1.7s.8,1.8,1.8,1.8,1.7-.8,1.7-1.8-.8-1.7-1.7-1.7Z"/>
    </g>
  </g>
</svg>