<?xml version="1.0" encoding="UTF-8"?>
<svg id="Layer_1" xmlns="http://www.w3.org/2000/svg" version="1.1" viewBox="0 0 410 170">
  <!-- Generator: Adobe Illustrator 29.3.1, SVG Export Plug-In . SVG Version: 2.1.0 Build 151)  -->
  <defs>
    <style>
      .st0 {
        fill: #162a3f;
      }

      .st1 {
        fill: #455a68;
      }

      .st2 {
        fill: #fff;
        stroke: #a7a9ab;
        stroke-miterlimit: 10;
      }
    </style>
  </defs>
  <rect class="st2" x="4.6" y="3.4" width="400.8" height="160.9" rx="26" ry="26"/>
  <g>
    <path class="st0" d="M198.1,83.7c.5.7.8,1.6.8,2.7s-.6,2.6-1.7,3.4c-1.1.8-2.8,1.2-4.9,1.2h-8.4v-16.8h7.9c2,0,3.5.4,4.6,1.2,1.1.8,1.6,1.8,1.6,3.2s-.2,1.6-.6,2.2c-.4.6-.9,1.1-1.6,1.5.9.3,1.7.8,2.2,1.5ZM187.1,76.6v4.6h4.4c1.1,0,1.9-.2,2.5-.6.6-.4.9-1,.9-1.7s-.3-1.3-.9-1.7c-.6-.4-1.4-.6-2.5-.6h-4.4ZM195.7,86c0-1.6-1.2-2.4-3.6-2.4h-5v4.8h5c2.4,0,3.6-.8,3.6-2.4Z"/>
    <path class="st0" d="M209,90c-1.4-.7-2.5-1.8-3.2-3.1-.8-1.3-1.2-2.8-1.2-4.4s.4-3.1,1.2-4.4c.8-1.3,1.9-2.4,3.2-3.1,1.4-.7,2.9-1.1,4.6-1.1s3.3.4,4.6,1.1,2.5,1.8,3.2,3.1c.8,1.3,1.2,2.8,1.2,4.4s-.4,3.1-1.2,4.4c-.8,1.3-1.9,2.3-3.2,3.1-1.4.7-2.9,1.1-4.6,1.1s-3.3-.4-4.6-1.1ZM216.7,87.7c.9-.5,1.6-1.2,2.1-2.1.5-.9.8-1.9.8-3s-.3-2.1-.8-3c-.5-.9-1.2-1.6-2.1-2.1-.9-.5-1.9-.8-3-.8s-2.1.3-3,.8c-.9.5-1.6,1.2-2.1,2.1s-.8,1.9-.8,3,.3,2.1.8,3,1.2,1.6,2.1,2.1c.9.5,1.9.8,3,.8s2.1-.3,3-.8Z"/>
    <path class="st0" d="M229.6,74.1h7.3c1.8,0,3.4.3,4.8,1,1.4.7,2.5,1.7,3.2,3,.8,1.3,1.2,2.7,1.2,4.4s-.4,3.1-1.2,4.4c-.8,1.3-1.8,2.3-3.2,3-1.4.7-3,1-4.8,1h-7.3v-16.8ZM236.8,88.3c1.2,0,2.3-.2,3.3-.7.9-.5,1.7-1.1,2.2-2,.5-.9.8-1.9.8-3s-.3-2.2-.8-3c-.5-.9-1.2-1.5-2.2-2-.9-.5-2-.7-3.3-.7h-4.1v11.5h4.1Z"/>
    <path class="st0" d="M259.6,85v5.9h-3.1v-5.9l-6.6-10.9h3.3l4.9,8.2,5-8.2h3.1l-6.6,10.9Z"/>
  </g>
  <g>
    <path class="st1" d="M115.4,53.3h-13.4c1.9-2.5,3-5.5,3-8.8,0-8.1-6.6-14.7-14.7-14.7s-14.7,6.6-14.7,14.7,1.1,6.4,3,8.8h-13.4c-6.3,0-11.4,4.7-11.4,10.6s5.1,10.6,11.4,10.6h6.9v34.9c0,5.8,4.7,10.6,10.6,10.6s5.7-1.3,7.7-3.3c1.9,2,4.6,3.3,7.7,3.3,5.8,0,10.6-4.7,10.6-10.6v-34.9h6.9c6.3,0,11.4-4.7,11.4-10.6s-5.1-10.6-11.4-10.6ZM81.4,44.4c0-4.9,4-8.8,8.8-8.8s8.8,4,8.8,8.8-4,8.8-8.8,8.8-8.8-4-8.8-8.8Z"/>
    <g>
      <path class="st1" d="M121.3,102.4c-1,0-1.8.8-1.8,1.7s.8,1.8,1.8,1.8,1.7-.8,1.7-1.8-.8-1.7-1.7-1.7Z"/>
      <path class="st1" d="M115.5,102.4c-1,0-1.8.8-1.8,1.7s.8,1.8,1.8,1.8,1.8-.8,1.8-1.8-.8-1.7-1.8-1.7Z"/>
      <path class="st1" d="M66.8,104.2c0-1-.8-1.8-1.7-1.8s-1.8.8-1.8,1.8.8,1.8,1.8,1.8,1.7-.8,1.7-1.8Z"/>
      <path class="st1" d="M59.2,102.4c-1,0-1.7.8-1.7,1.8s.8,1.8,1.7,1.8,1.8-.8,1.8-1.8-.8-1.8-1.8-1.8Z"/>
    </g>
    <path class="st1" d="M90.3,134.5c-1,0-1.8.8-1.8,1.8s.8,1.7,1.8,1.7,1.8-.8,1.8-1.7-.8-1.8-1.8-1.8Z"/>
    <path class="st1" d="M90.3,128.7c-1,0-1.8.8-1.8,1.7s.8,1.8,1.8,1.8,1.8-.8,1.8-1.8-.8-1.7-1.8-1.7Z"/>
    <g>
      <path class="st1" d="M111.2,125.2c-.7.7-.7,1.8,0,2.5s.8.5,1.2.5.9-.2,1.2-.5c.7-.7.7-1.8,0-2.5-.7-.7-1.8-.7-2.5,0Z"/>
      <path class="st1" d="M107.1,121c-.7.7-.7,1.8,0,2.5s.8.5,1.2.5.9-.2,1.2-.5c.7-.7.7-1.8,0-2.5s-1.8-.7-2.5,0Z"/>
      <path class="st1" d="M70.9,121c-.7.7-.7,1.8,0,2.5s.8.5,1.2.5.9-.2,1.2-.5c.7-.7.7-1.8,0-2.5s-1.8-.7-2.5,0Z"/>
      <path class="st1" d="M66.8,125.2c-.7.7-.7,1.8,0,2.5s.8.5,1.2.5.9-.2,1.2-.5c.7-.7.7-1.8,0-2.5-.7-.7-1.8-.7-2.5,0Z"/>
    </g>
    <g>
      <g>
        <path class="st1" d="M121.3,82.5c-1,0-1.8.8-1.8,1.8s.8,1.7,1.8,1.7,1.7-.8,1.7-1.7-.8-1.8-1.7-1.8Z"/>
        <path class="st1" d="M115.5,82.5c-1,0-1.8.8-1.8,1.8s.8,1.7,1.8,1.7,1.8-.8,1.8-1.7-.8-1.8-1.8-1.8Z"/>
      </g>
      <path class="st1" d="M59.2,82.5c-1,0-1.8.8-1.8,1.8s.8,1.7,1.8,1.7,1.8-.8,1.8-1.7-.8-1.8-1.8-1.8Z"/>
      <path class="st1" d="M65,86c1,0,1.7-.8,1.7-1.7s-.8-1.8-1.7-1.8-1.8.8-1.8,1.8.8,1.7,1.8,1.7Z"/>
    </g>
    <g>
      <g>
        <path class="st1" d="M139.5,62.1c-1,0-1.8.8-1.8,1.7s.8,1.8,1.8,1.8,1.7-.8,1.7-1.8-.8-1.7-1.7-1.7Z"/>
        <path class="st1" d="M133.7,62.1c-1,0-1.8.8-1.8,1.7s.8,1.8,1.8,1.8,1.8-.8,1.8-1.8-.8-1.7-1.8-1.7Z"/>
      </g>
      <g>
        <path class="st1" d="M41,62.1c-1,0-1.8.8-1.8,1.7s.8,1.8,1.8,1.8,1.8-.8,1.8-1.8-.8-1.7-1.8-1.7Z"/>
        <path class="st1" d="M46.8,62.1c-1,0-1.8.8-1.8,1.7s.8,1.8,1.8,1.8,1.7-.8,1.7-1.8-.8-1.7-1.7-1.7Z"/>
      </g>
    </g>
  </g>
</svg>