<?xml version="1.0" encoding="UTF-8"?>
<svg id="Layer_1" xmlns="http://www.w3.org/2000/svg" version="1.1" viewBox="0 0 410 170">
  <!-- Generator: Adobe Illustrator 29.3.1, SVG Export Plug-In . SVG Version: 2.1.0 Build 151)  -->
  <defs>
    <style>
      .st0 {
        fill: #162a3f;
      }

      .st1 {
        fill: #455a68;
      }

      .st2 {
        fill: #fff;
        stroke: #a7a9ab;
        stroke-miterlimit: 10;
      }
    </style>
  </defs>
  <rect class="st2" x="4.6" y="3.4" width="400.8" height="160.9" rx="26" ry="26"/>
  <g>
    <path class="st0" d="M199.4,90.9v-11.1s-5.5,9.2-5.5,9.2h-1.4l-5.5-9.1v11h-3v-16.8h2.6l6.7,11.1,6.6-11.1h2.6v16.8s-2.9,0-2.9,0Z"/>
    <path class="st0" d="M210.5,74.1h3.1v16.8h-3.1v-16.8Z"/>
    <path class="st0" d="M236.7,74.1v16.8h-2.6l-9.3-11.4v11.4h-3.1v-16.8h2.6l9.3,11.4v-11.4h3.1Z"/>
    <path class="st0" d="M244.8,74.1h7.3c1.8,0,3.4.3,4.8,1s2.5,1.7,3.2,3c.8,1.3,1.2,2.7,1.2,4.4s-.4,3.1-1.2,4.4c-.8,1.3-1.8,2.3-3.2,3s-3,1-4.8,1h-7.3v-16.8ZM252,88.3c1.2,0,2.3-.2,3.3-.7s1.7-1.1,2.2-2c.5-.9.8-1.9.8-3s-.3-2.2-.8-3c-.5-.9-1.2-1.5-2.2-2-.9-.5-2-.7-3.3-.7h-4.1v11.5h4.1Z"/>
  </g>
  <g>
    <path class="st1" d="M115.4,70.8h-13.4c1.9-2.5,3-5.5,3-8.8,0-8.1-6.6-14.7-14.7-14.7s-14.7,6.6-14.7,14.7,1.1,6.4,3,8.8h-13.4c-6.3,0-11.4,4.7-11.4,10.6s5.1,10.6,11.4,10.6h6.9v35.5c0,5.8,4.7,10.6,10.6,10.6s5.7-1.3,7.7-3.3c1.9,2,4.6,3.3,7.7,3.3,5.8,0,10.6-4.7,10.6-10.6v-35.5h6.9c6.3,0,11.4-4.7,11.4-10.6s-5.1-10.6-11.4-10.6ZM115.4,86.1h-9.8c-1.6,0-2.9,1.3-2.9,2.9s0,.2,0,.3c0,0,0,.2,0,.3v37.8c0,2.6-2.1,4.7-4.7,4.7s-4.7-2.1-4.7-4.7v-18.5c0-1.6-1.3-2.9-2.9-2.9s-2.9,1.3-2.9,2.9v18.5c0,2.6-2.1,4.7-4.7,4.7s-4.7-2.1-4.7-4.7v-37.8c0,0,0-.2,0-.3,0,0,0-.2,0-.3,0-1.6-1.3-2.9-2.9-2.9h-9.8c-3.1,0-5.5-2.1-5.5-4.7s2.5-4.7,5.5-4.7h50.2c3.1,0,5.5,2.1,5.5,4.7s-2.5,4.7-5.5,4.7Z"/>
    <path class="st1" d="M90.3,33.3c1,0,1.8-.8,1.8-1.8s-.8-1.7-1.8-1.7-1.8.8-1.8,1.7.8,1.8,1.8,1.8Z"/>
    <path class="st1" d="M90.3,39.1c1,0,1.8-.8,1.8-1.8s-.8-1.8-1.8-1.8-1.8.8-1.8,1.8.8,1.8,1.8,1.8Z"/>
    <g>
      <path class="st1" d="M111.3,42.7c.5,0,.9-.2,1.2-.5.7-.7.7-1.8,0-2.5s-1.8-.7-2.5,0c-.7.7-.7,1.8,0,2.5.3.3.8.5,1.2.5Z"/>
      <path class="st1" d="M107.2,46.8c.5,0,.9-.2,1.2-.5.7-.7.7-1.8,0-2.5-.7-.7-1.8-.7-2.5,0-.7.7-.7,1.8,0,2.5.3.3.8.5,1.2.5Z"/>
      <path class="st1" d="M69.2,42.7c.5,0,.9-.2,1.2-.5.7-.7.7-1.8,0-2.5s-1.8-.7-2.5,0c-.7.7-.7,1.8,0,2.5.3.3.8.5,1.2.5Z"/>
      <path class="st1" d="M73.3,46.8c.5,0,.9-.2,1.2-.5.7-.7.7-1.8,0-2.5-.7-.7-1.8-.7-2.5,0-.7.7-.7,1.8,0,2.5.3.3.8.5,1.2.5Z"/>
    </g>
    <g>
      <path class="st1" d="M115.5,63.7c1,0,1.8-.8,1.8-1.7s-.8-1.8-1.8-1.8-1.8.8-1.8,1.8.8,1.7,1.8,1.7Z"/>
      <path class="st1" d="M121.3,63.7c1,0,1.7-.8,1.7-1.7s-.8-1.8-1.7-1.8-1.8.8-1.8,1.8.8,1.7,1.8,1.7Z"/>
      <path class="st1" d="M65,63.7c1,0,1.7-.8,1.7-1.7s-.8-1.8-1.7-1.8-1.8.8-1.8,1.8.8,1.7,1.8,1.7Z"/>
      <path class="st1" d="M59.2,63.7c1,0,1.8-.8,1.8-1.7s-.8-1.8-1.8-1.8-1.8.8-1.8,1.8.8,1.7,1.8,1.7Z"/>
    </g>
  </g>
</svg>