<?xml version="1.0" encoding="UTF-8"?>
<svg id="Layer_1" xmlns="http://www.w3.org/2000/svg" version="1.1" viewBox="0 0 410 170">
  <!-- Generator: Adobe Illustrator 29.3.1, SVG Export Plug-In . SVG Version: 2.1.0 Build 151)  -->
  <defs>
    <style>
      .st0 {
        fill: #162a3f;
      }

      .st1 {
        fill: #a3b9dd;
      }

      .st2 {
        fill: #fff;
        stroke: #a7a9ab;
        stroke-miterlimit: 10;
        stroke-width: 1px;
      }
    </style>
  </defs>
  <rect class="st2" x="4.6" y="3.4" width="400.8" height="160.9" rx="26" ry="26"/>
  <g>
    <path class="st0" d="M190.3,90c-1.4-.7-2.4-1.8-3.2-3.1-.8-1.3-1.2-2.8-1.2-4.4s.4-3.1,1.2-4.4c.8-1.3,1.9-2.3,3.2-3.1s2.9-1.1,4.6-1.1,2.6.2,3.8.7c1.1.5,2.1,1.2,2.9,2.1l-2,1.9c-1.2-1.3-2.7-2-4.5-2s-2.2.3-3.1.8-1.6,1.2-2.1,2.1c-.5.9-.8,1.9-.8,3s.3,2.2.8,3c.5.9,1.2,1.6,2.1,2.1s1.9.8,3.1.8c1.8,0,3.3-.7,4.5-2l2,1.9c-.8.9-1.7,1.6-2.9,2.1-1.1.5-2.4.7-3.8.7s-3.2-.4-4.6-1.1Z"/>
    <path class="st0" d="M218.7,87h-8.4l-1.7,3.9h-3.2l7.6-16.8h3.1l7.6,16.8h-3.3l-1.7-3.9ZM217.7,84.6l-3.2-7.3-3.1,7.3h6.3Z"/>
    <path class="st0" d="M229.4,74.1h3.1v14.2h8.8v2.6h-11.9v-16.8Z"/>
    <path class="st0" d="M262.8,90.9v-11.1s-5.5,9.2-5.5,9.2h-1.4l-5.5-9.1v11h-3v-16.8h2.6l6.7,11.1,6.6-11.1h2.6v16.8s-2.9,0-2.9,0Z"/>
  </g>
  <circle class="st1" cx="79.6" cy="83.9" r="39.2"/>
</svg>