<?xml version="1.0" encoding="UTF-8"?>
<svg id="Layer_1" xmlns="http://www.w3.org/2000/svg" version="1.1" viewBox="0 0 410 170">
  <!-- Generator: Adobe Illustrator 29.3.1, SVG Export Plug-In . SVG Version: 2.1.0 Build 151)  -->
  <defs>
    <style>
      .st0 {
        fill: #162a3f;
      }

      .st1 {
        fill: #fff;
        stroke: #a7a9ab;
        stroke-miterlimit: 10;
        stroke-width: 1px;
      }

      .st2 {
        fill: #bcafd2;
      }
    </style>
  </defs>
  <rect class="st1" x="4.6" y="3.4" width="400.8" height="160.9" rx="26" ry="26"/>
  <g>
    <path class="st0" d="M198.1,90.9l-3.4-4.9c-.1,0-.4,0-.6,0h-3.8v4.9h-3.1v-16.8h6.9c1.5,0,2.7.2,3.8.7,1.1.5,1.9,1.2,2.5,2.1.6.9.9,2,.9,3.2s-.3,2.4-.9,3.3c-.6.9-1.5,1.6-2.7,2l3.9,5.5h-3.4ZM197,77.6c-.7-.6-1.7-.9-3.1-.9h-3.6v6.7h3.6c1.4,0,2.4-.3,3.1-.9.7-.6,1.1-1.4,1.1-2.5s-.4-1.9-1.1-2.5Z"/>
    <path class="st0" d="M220.9,88.3v2.6h-12.6v-16.8h12.3v2.6h-9.1v4.4h8.1v2.6h-8.1v4.6h9.5Z"/>
    <path class="st0" d="M229.4,90.6c-1.2-.4-2.2-.9-2.9-1.5l1.1-2.4c.7.5,1.5,1,2.5,1.3,1,.3,2,.5,3,.5s2.2-.2,2.8-.6c.6-.4.9-.9.9-1.6s-.2-.9-.5-1.2c-.3-.3-.8-.6-1.3-.7-.5-.2-1.2-.4-2.2-.6-1.3-.3-2.3-.6-3.1-.9-.8-.3-1.5-.8-2-1.4s-.9-1.5-.9-2.6.3-1.8.8-2.5c.5-.8,1.3-1.4,2.3-1.8,1-.4,2.3-.7,3.7-.7s2,.1,3,.4c1,.3,1.8.6,2.6,1.1l-1,2.4c-.7-.4-1.5-.8-2.3-1-.8-.2-1.6-.3-2.3-.3-1.2,0-2.1.2-2.7.6-.6.4-.9,1-.9,1.7s.2.9.5,1.2c.3.3.8.5,1.3.7.5.2,1.2.4,2.2.6,1.2.3,2.3.6,3.1.9.8.3,1.5.8,2.1,1.4.6.6.9,1.5.9,2.6s-.3,1.8-.8,2.5-1.3,1.4-2.3,1.8c-1,.4-2.3.7-3.7.7s-2.5-.2-3.8-.6Z"/>
    <path class="st0" d="M249.8,76.7h-5.6v-2.6h14.3v2.6h-5.6v14.2h-3.1v-14.2Z"/>
  </g>
  <circle class="st2" cx="79.6" cy="83.9" r="39.2"/>
</svg>