<?xml version="1.0" encoding="UTF-8"?>
<svg id="Layer_1" xmlns="http://www.w3.org/2000/svg" version="1.1" viewBox="0 0 388.9 102.4">
  <!-- Generator: Adobe Illustrator 29.3.1, SVG Export Plug-In . SVG Version: 2.1.0 Build 151)  -->
  <defs>
    <style>
      .st0 {
        fill: white;
      }
    </style>
  </defs>
  <g>
    <path class="st0" d="M73.6,34.3h-8.5c0,6.1-5,11.1-11.1,11.1s-11.1-5-11.1-11.1h-8.5c0,7.2,3.9,13.5,9.7,16.9-5.8,3.4-9.7,9.7-9.7,16.9h8.5c0-6.1,5-11.1,11.1-11.1s11.1,5,11.1,11.1h8.5c0-7.2-3.9-13.5-9.7-16.9,5.8-3.4,9.7-9.7,9.7-16.9Z"/>
    <path class="st0" d="M54,8.5c-23.5,0-42.7,19.1-42.7,42.7s19.1,42.7,42.7,42.7,42.7-19.1,42.7-42.7S77.6,8.5,54,8.5ZM54,85.4c-18.9,0-34.2-15.3-34.2-34.2s15.3-34.2,34.2-34.2,34.2,15.3,34.2,34.2-15.3,34.2-34.2,34.2Z"/>
    <path class="st0" d="M54,37.9c3.5,0,6.3-2.8,6.3-6.3s-2.8-6.3-6.3-6.3-6.3,2.8-6.3,6.3,2.8,6.3,6.3,6.3Z"/>
    <circle class="st0" cx="54" cy="70.8" r="6.3"/>
  </g>
  <g>
    <path class="st0" d="M117.5,20.8h10.6c8.6,0,14.5,5.9,14.5,13.5h0c0,7.7-5.9,13.7-14.5,13.7h-10.6v-27.2ZM123.5,26.2v16.4h4.6c4.9,0,8.2-3.3,8.2-8.1h0c0-4.9-3.3-8.3-8.2-8.3h-4.6Z"/>
    <path class="st0" d="M147.9,20.8h6v27.2h-6v-27.2Z"/>
    <path class="st0" d="M158.5,44.1l3.5-4.2c2.4,2,5,3.3,8.1,3.3s3.9-1,3.9-2.6h0c0-1.6-.9-2.4-5.5-3.5-5.5-1.4-9-2.9-9-8.3h0c0-5,4-8.3,9.5-8.3s7.3,1.2,10.1,3.5l-3.1,4.5c-2.4-1.7-4.8-2.7-7.1-2.7s-3.5,1-3.5,2.4h0c0,1.9,1.2,2.4,5.9,3.7,5.5,1.4,8.6,3.4,8.6,8.2h0c0,5.5-4.1,8.5-10,8.5s-8.3-1.4-11.5-4.4Z"/>
    <path class="st0" d="M183.4,34.5h0c0-7.8,5.8-14.1,14.2-14.1s8.2,1.7,10.7,4.2l-3.8,4.4c-2.1-1.9-4.2-3.1-7-3.1-4.6,0-7.9,3.8-7.9,8.5h0c0,4.7,3.2,8.6,7.9,8.6s5-1.2,7.2-3.2l3.8,3.8c-2.8,3-5.9,4.9-11.2,4.9-8,0-14-6.2-14-14Z"/>
    <path class="st0" d="M210.7,34.5h0c0-7.8,6.1-14.1,14.5-14.1s14.4,6.3,14.4,14h0c0,7.8-6.1,14.1-14.5,14.1s-14.4-6.3-14.4-14ZM233.4,34.5h0c0-4.7-3.4-8.6-8.2-8.6s-8.2,3.8-8.2,8.5h0c0,4.7,3.4,8.6,8.2,8.6s8.2-3.8,8.2-8.5Z"/>
    <path class="st0" d="M240.8,20.8h6.6l7.1,19.2,7.1-19.2h6.5l-11,27.4h-5.3l-11-27.4Z"/>
    <path class="st0" d="M271.8,20.8h20.5v5.3h-14.6v5.5h12.8v5.3h-12.8v5.7h14.8v5.3h-20.7v-27.2Z"/>
    <path class="st0" d="M298.1,20.8h12.4c3.5,0,6.1,1,7.9,2.8,1.5,1.5,2.3,3.7,2.3,6.2h0c0,4.5-2.4,7.2-5.8,8.5l6.6,9.7h-7l-5.8-8.7h-4.7v8.7h-6v-27.2ZM310.1,34c2.9,0,4.6-1.6,4.6-3.8h0c0-2.6-1.8-4-4.7-4h-5.9v7.8h6.1Z"/>
    <path class="st0" d="M123.9,74.3l-10.3-17.6h10.2l4.7,8.9,4.7-8.9h10.1l-10.3,17.5v9.8h-9.1v-9.6Z"/>
    <path class="st0" d="M141.3,70.4h0c0-8,6.5-14.3,14.9-14.3s14.8,6.2,14.8,14.1h0c0,8-6.5,14.3-14.9,14.3s-14.8-6.2-14.8-14.1ZM161.8,70.4h0c0-3.3-2.2-6.2-5.7-6.2s-5.6,2.9-5.6,6.1h0c0,3.3,2.2,6.2,5.7,6.2s5.6-2.9,5.6-6.1Z"/>
    <path class="st0" d="M173.4,71.7v-15h9.3v14.9c0,3.4,1.7,4.8,4.2,4.8s4.2-1.3,4.2-4.6v-15.1h9.3v14.8c0,9.3-5.4,12.9-13.5,12.9s-13.4-3.7-13.4-12.7Z"/>
    <path class="st0" d="M203.9,56.7h13.3c4.8,0,7.9,1.2,9.8,3.1,1.6,1.6,2.5,3.7,2.5,6.5h0c0,4-2.1,6.8-5.4,8.4l6.3,9.3h-10.4l-5.1-7.8h-1.9v7.8h-9.1v-27.2ZM216.9,69.7c2.2,0,3.5-1,3.5-2.6h0c0-1.8-1.4-2.7-3.5-2.7h-4v5.3h3.9Z"/>
    <path class="st0" d="M236.9,70.4h0c0-7.8,5.8-14.1,14.2-14.1s8.2,1.7,10.7,4.2l-3.8,4.4c-2.1-1.9-4.2-3.1-7-3.1-4.6,0-7.9,3.8-7.9,8.5h0c0,4.7,3.2,8.6,7.9,8.6s5-1.2,7.2-3.2l3.8,3.8c-2.8,3-5.9,4.9-11.2,4.9-8,0-14-6.2-14-14Z"/>
    <path class="st0" d="M264.2,70.4h0c0-7.8,6.1-14.1,14.5-14.1s14.4,6.3,14.4,14h0c0,7.8-6.1,14.1-14.5,14.1s-14.4-6.3-14.4-14ZM286.8,70.4h0c0-4.7-3.4-8.6-8.2-8.6s-8.2,3.8-8.2,8.5h0c0,4.7,3.4,8.6,8.2,8.6s8.2-3.8,8.2-8.5Z"/>
    <path class="st0" d="M298.2,56.7h6v21.8h13.6v5.4h-19.6v-27.2Z"/>
    <path class="st0" d="M320,70.4h0c0-7.8,6.1-14.1,14.5-14.1s14.4,6.3,14.4,14h0c0,7.8-6.1,14.1-14.5,14.1s-14.4-6.3-14.4-14ZM342.6,70.4h0c0-4.7-3.4-8.6-8.2-8.6s-8.2,3.8-8.2,8.5h0c0,4.7,3.4,8.6,8.2,8.6s8.2-3.8,8.2-8.5Z"/>
    <path class="st0" d="M354,56.7h12.4c3.5,0,6.1,1,7.9,2.8,1.5,1.5,2.3,3.7,2.3,6.2h0c0,4.5-2.4,7.2-5.8,8.5l6.6,9.7h-7l-5.8-8.7h-4.7v8.7h-6v-27.2ZM366,69.9c2.9,0,4.6-1.6,4.6-3.8h0c0-2.6-1.8-4-4.7-4h-5.9v7.8h6.1Z"/>
  </g>
</svg>