<?xml version="1.0" encoding="UTF-8"?>
<svg id="Layer_1" xmlns="http://www.w3.org/2000/svg" version="1.1" viewBox="0 0 56 56">
  <!-- Generator: Adobe Illustrator 29.3.1, SVG Export Plug-In . SVG Version: 2.1.0 Build 151)  -->
  <path d="M52,22.8c-.6-2.9-1.8-5.6-3.3-8l2.3-3.5-6.3-6.3-3.5,2.3c-2.4-1.5-5.1-2.7-8-3.3l-.8-4.1h-8.8l-.8,4.1c-2.9.6-5.6,1.8-8,3.3l-3.5-2.3-6.3,6.3,2.3,3.5c-1.5,2.4-2.7,5.1-3.3,8l-4.1.8v8.8l4.1.8c.6,2.9,1.8,5.6,3.3,8l-2.3,3.5,6.3,6.3,3.5-2.3c2.4,1.5,5.1,2.7,8,3.3l.8,4.1h8.8l.8-4.1c2.9-.6,5.6-1.8,8-3.3l3.5,2.3,6.3-6.3-2.3-3.5c1.5-2.4,2.7-5.1,3.3-8l4.1-.8v-8.8l-4.1-.8ZM28,45.8c-9.8,0-17.8-8-17.8-17.8s8-17.8,17.8-17.8,17.8,8,17.8,17.8-8,17.8-17.8,17.8Z"/>
  <path d="M28,13.5c-8,0-14.5,6.5-14.5,14.5s6.5,14.5,14.5,14.5,14.5-6.5,14.5-14.5-6.5-14.5-14.5-14.5ZM26.1,34l-5.6-5.6,2.3-2.3,3.2,3.2,7.1-7.1,2.3,2.3-9.4,9.4Z"/>
</svg>