<?xml version="1.0" encoding="UTF-8"?>
<svg id="Layer_1" xmlns="http://www.w3.org/2000/svg" xmlns:xlink="http://www.w3.org/1999/xlink" version="1.1" viewBox="0 0 783.7 364">
  <!-- Generator: Adobe Illustrator 29.3.1, SVG Export Plug-In . SVG Version: 2.1.0 Build 151)  -->
  <defs>
    <style>
      .st0, .st1 {
        fill: none;
      }

      .st2, .st1 {
        stroke: #4a5a67;
        stroke-miterlimit: 10;
        stroke-width: 4.5px;
      }

      .st2, .st3 {
        fill: #4a5a67;
      }

      .st4 {
        clip-path: url(#clippath-1);
      }

      .st5 {
        clip-path: url(#clippath-2);
      }

      .st6 {
        fill: #fff;
      }

      .st7 {
        clip-path: url(#clippath);
      }
    </style>
    <clipPath id="clippath">
      <rect class="st0" x="529.3" y="41.7" width="226.1" height="226.1"/>
    </clipPath>
    <clipPath id="clippath-1">
      <path class="st0" d="M505,267.8h-226.1V41.7h199c15,0,27.1,12.1,27.1,27.1v199Z"/>
    </clipPath>
    <clipPath id="clippath-2">
      <path class="st0" d="M254.6,267.8H28.5V41.7h199c15,0,27.1,12.1,27.1,27.1v199Z"/>
    </clipPath>
  </defs>
  <g>
    <g class="st7">
      <path class="st3" d="M768.2,275.4c-1.3-1.3-1.3-3.5,0-4.8h0c1.3-1.3,3.5-1.3,4.8,0h0c1.3,1.3,1.3,3.5,0,4.8h0c-.6.7-1.5,1-2.3,1h0c-.9,0-1.7-.3-2.4-1ZM758.7,265.8c-1.3-1.3-1.3-3.4,0-4.8h0c1.3-1.3,3.5-1.3,4.8,0h0c1.3,1.3,1.3,3.5,0,4.8h0c-.6.7-1.5,1-2.4,1h0c-.8,0-1.7-.3-2.4-1ZM749.2,256.3c-1.3-1.3-1.3-3.5,0-4.8h0c1.3-1.3,3.5-1.3,4.8,0h0c1.3,1.3,1.3,3.5,0,4.8h0c-.6.7-1.5,1-2.4,1h0c-.8,0-1.7-.3-2.4-1ZM739.6,246.8c-1.3-1.3-1.3-3.5,0-4.8h0c1.3-1.3,3.5-1.3,4.8,0h0c1.3,1.3,1.3,3.5,0,4.8h0c-.7.6-1.5,1-2.4,1h0c-.8,0-1.7-.4-2.4-1ZM730.1,237.3c-1.3-1.3-1.3-3.5,0-4.8h0c1.3-1.3,3.5-1.3,4.8,0h0c1.3,1.3,1.3,3.4,0,4.8h0c-.7.6-1.5,1-2.4,1h0c-.8,0-1.7-.4-2.4-1ZM720.6,227.8c-1.3-1.3-1.3-3.5,0-4.8h0c1.3-1.3,3.5-1.3,4.8,0h0c1.3,1.3,1.3,3.4,0,4.8h0c-.7.6-1.5,1-2.4,1h0c-.9,0-1.8-.4-2.4-1ZM711.1,218.3c-1.3-1.3-1.3-3.4,0-4.8h0c1.3-1.3,3.4-1.3,4.8,0h0c1.3,1.3,1.3,3.5,0,4.8h0c-.7.7-1.5,1-2.4,1h0c-.9,0-1.8-.4-2.4-1ZM701.6,208.7c-1.3-1.3-1.3-3.4,0-4.8h0c1.3-1.3,3.5-1.3,4.8,0h0c1.3,1.3,1.3,3.5,0,4.8h0c-.7.7-1.5,1-2.4,1h0c-.9,0-1.7-.3-2.4-1ZM692,199.2c-1.3-1.3-1.3-3.5,0-4.8h0c1.3-1.3,3.5-1.3,4.8,0h0c1.3,1.3,1.3,3.5,0,4.8h0c-.6.7-1.5,1-2.4,1h0c-.9,0-1.7-.3-2.4-1ZM682.5,189.7c-1.3-1.3-1.3-3.5,0-4.8h0c1.3-1.3,3.5-1.3,4.8,0h0c1.3,1.3,1.3,3.5,0,4.8h0c-.6.7-1.5,1-2.4,1h0c-.9,0-1.7-.3-2.4-1ZM511.2,18.4c-1.3-1.3-1.3-3.5,0-4.8h0c1.3-1.3,3.5-1.3,4.8,0h0c1.3,1.3,1.3,3.4,0,4.8h0c-.7.6-1.5,1-2.4,1h0c-.9,0-1.7-.4-2.4-1Z"/>
      <path class="st3" d="M797.7,238.3c-1.6-.9-2.2-3-1.2-4.6h0c.9-1.6,3-2.2,4.6-1.3h0c1.6.9,2.2,3,1.3,4.6h0c-.6,1.1-1.7,1.7-2.9,1.7h0c-.6,0-1.2-.1-1.7-.5ZM786.1,231.6c-1.6-.9-2.2-3-1.3-4.6h0c.9-1.6,3-2.2,4.6-1.2h0c1.6.9,2.2,3,1.2,4.6h0c-.6,1.1-1.8,1.7-2.9,1.7h0c-.6,0-1.2-.1-1.7-.5ZM774.4,224.9c-1.6-.9-2.2-3-1.3-4.6h0c.9-1.6,3-2.2,4.6-1.3h0c1.6.9,2.2,3,1.2,4.6h0c-.6,1.1-1.7,1.7-2.9,1.7h0c-.5,0-1.1-.1-1.7-.5ZM762.7,218.2c-1.6-.9-2.2-3-1.2-4.6h0c.9-1.6,3-2.2,4.6-1.2h0c1.6.9,2.2,3,1.2,4.6h0c-.6,1.1-1.8,1.7-2.9,1.7h0c-.5,0-1.1-.1-1.7-.5ZM751.1,211.4c-1.6-.9-2.2-3-1.2-4.6h0c.9-1.6,3-2.2,4.6-1.3h0c1.6.9,2.2,3,1.3,4.6h0c-.6,1.1-1.8,1.7-2.9,1.7h0c-.6,0-1.2-.1-1.7-.5ZM739.5,204.7c-1.6-.9-2.2-3-1.3-4.6h0c.9-1.6,3-2.2,4.6-1.2h0c1.6.9,2.2,3,1.3,4.6h0c-.6,1.1-1.7,1.7-2.9,1.7h0c-.6,0-1.2-.1-1.7-.5ZM727.8,198c-1.6-.9-2.2-3-1.3-4.6h0c.9-1.6,3-2.2,4.6-1.3h0c1.6.9,2.2,3,1.2,4.6h0c-.6,1.1-1.8,1.7-2.9,1.7h0c-.6,0-1.1-.1-1.7-.5ZM716.1,191.2c-1.6-.9-2.2-3-1.2-4.6h0c.9-1.6,3-2.2,4.6-1.2h0c1.6.9,2.2,3,1.2,4.6h0c-.6,1.1-1.7,1.7-2.9,1.7h0c-.6,0-1.1-.1-1.7-.5ZM704.5,184.5c-1.6-.9-2.2-3-1.2-4.6h0c.9-1.6,3-2.2,4.6-1.3h0c1.6.9,2.2,3,1.2,4.6h0c-.6,1.1-1.7,1.7-2.9,1.7h0c-.5,0-1.1-.1-1.7-.5ZM692.8,177.8c-1.6-.9-2.2-3-1.2-4.6h0c.9-1.6,3-2.2,4.6-1.2h0c1.6.9,2.2,3,1.3,4.6h0c-.6,1.1-1.8,1.7-2.9,1.7h0c-.6,0-1.2-.1-1.7-.5ZM681.1,171.1c-1.6-.9-2.2-3-1.2-4.6h0c.9-1.6,3-2.2,4.6-1.3h0c1.6.9,2.2,3,1.3,4.6h0c-.6,1.1-1.7,1.7-2.9,1.7h0c-.6,0-1.2-.1-1.7-.5ZM494.6,63.4c-1.6-.9-2.2-3-1.2-4.6h0c.9-1.6,3-2.2,4.6-1.3h0c1.6.9,2.1,3,1.2,4.6h0c-.6,1-1.8,1.7-2.9,1.7h0c-.6,0-1.2-.1-1.7-.4ZM483,56.7c-1.6-.9-2.2-3-1.3-4.6h0c.9-1.6,3-2.2,4.6-1.2h0c1.6.9,2.2,3,1.2,4.6h0c-.6,1.1-1.7,1.7-2.9,1.7h0c-.6,0-1.1-.1-1.7-.4Z"/>
      <path class="st3" d="M816.6,194.9c-1.8-.4-2.8-2.3-2.4-4.1h0c.5-1.8,2.3-2.9,4.1-2.4h0c1.8.5,2.9,2.3,2.4,4.1h0c-.4,1.5-1.8,2.5-3.2,2.5h0c-.3,0-.6,0-.9-.1ZM803.7,191.5c-1.8-.5-2.9-2.3-2.4-4.1h0c.5-1.8,2.3-2.9,4.1-2.4h0c1.8.5,2.9,2.3,2.4,4.1h0c-.4,1.5-1.7,2.5-3.2,2.5h0c-.3,0-.6,0-.9,0ZM790.6,188c-1.8-.5-2.9-2.3-2.4-4.1h0c.5-1.8,2.3-2.9,4.1-2.4h0c1.8.5,2.8,2.3,2.4,4.1h0c-.4,1.5-1.8,2.5-3.3,2.5h0c-.3,0-.6,0-.8-.1ZM777.6,184.5c-1.8-.4-2.9-2.3-2.4-4.1h0c.5-1.8,2.3-2.9,4.1-2.4h0c1.8.5,2.9,2.3,2.4,4.1h0c-.4,1.5-1.7,2.5-3.2,2.5h0c-.3,0-.6,0-.9-.1ZM764.6,181c-1.8-.5-2.9-2.3-2.4-4.1h0c.5-1.8,2.3-2.9,4.1-2.4h0c1.8.5,2.9,2.3,2.4,4.1h0c-.4,1.5-1.7,2.5-3.2,2.5h0c-.3,0-.6,0-.9,0ZM751.6,177.5c-1.8-.5-2.8-2.3-2.3-4.1h0c.5-1.8,2.3-2.9,4.1-2.4h0c1.8.5,2.9,2.3,2.4,4.1h0c-.4,1.5-1.8,2.5-3.2,2.5h0c-.3,0-.6,0-.9-.1ZM738.7,174c-1.8-.4-2.9-2.3-2.4-4.1h0c.5-1.8,2.3-2.9,4.1-2.4h0c1.8.4,2.8,2.3,2.3,4.1h0c-.4,1.5-1.7,2.5-3.2,2.5h0c-.3,0-.6,0-.9-.1ZM725.6,170.6c-1.8-.5-2.9-2.3-2.4-4.1h0c.5-1.8,2.3-2.9,4.1-2.4h0c1.8.5,2.8,2.3,2.4,4.1h0c-.4,1.5-1.8,2.5-3.3,2.5h0c-.3,0-.6,0-.8,0ZM712.6,167.1c-1.8-.4-2.9-2.3-2.4-4.1h0c.5-1.8,2.3-2.8,4.1-2.4h0c1.8.5,2.9,2.3,2.4,4.1h0c-.4,1.5-1.7,2.5-3.3,2.5h0c-.3,0-.5,0-.9-.1ZM699.6,163.6c-1.8-.5-2.8-2.3-2.4-4.1h0c.5-1.8,2.3-2.9,4.1-2.4h0c1.8.4,2.9,2.3,2.4,4.1h0c-.4,1.5-1.8,2.5-3.2,2.5h0c-.3,0-.6,0-.9,0ZM491.6,107.8c-1.8-.4-2.9-2.3-2.4-4.1h0c.5-1.8,2.3-2.9,4.1-2.4h0c1.8.5,2.8,2.3,2.4,4.1h0c-.4,1.5-1.8,2.5-3.3,2.5h0c-.3,0-.6,0-.8-.1ZM478.6,104.4c-1.8-.5-2.9-2.3-2.4-4.1h0c.5-1.8,2.3-2.9,4.1-2.4h0c1.8.4,2.9,2.3,2.4,4.1h0c-.4,1.5-1.7,2.5-3.3,2.5h0c-.3,0-.5,0-.9,0ZM465.6,100.9c-1.8-.5-2.9-2.3-2.4-4.1h0c.5-1.8,2.3-2.9,4.1-2.4h0c1.8.5,2.9,2.3,2.4,4.1h0c-.4,1.5-1.8,2.5-3.2,2.5h0c-.3,0-.6,0-.9-.1Z"/>
      <path class="st3" d="M820.3,144.7c0-1.8,1.5-3.4,3.4-3.4h0c1.8,0,3.4,1.5,3.4,3.4h0c0,1.9-1.5,3.4-3.4,3.4h0c-1.9,0-3.4-1.5-3.4-3.4ZM806.9,144.7c0-1.8,1.5-3.4,3.4-3.4h0c1.8,0,3.4,1.5,3.4,3.4h0c0,1.9-1.5,3.4-3.4,3.4h0c-1.9,0-3.4-1.5-3.4-3.4ZM793.4,144.7c0-1.8,1.5-3.4,3.4-3.4h0c1.8,0,3.4,1.5,3.4,3.4h0c0,1.9-1.5,3.4-3.4,3.4h0c-1.9,0-3.4-1.5-3.4-3.4ZM780,144.7c0-1.8,1.5-3.4,3.4-3.4h0c1.8,0,3.4,1.5,3.4,3.4h0c0,1.9-1.5,3.4-3.4,3.4h0c-1.9,0-3.4-1.5-3.4-3.4ZM766.5,144.7c0-1.8,1.5-3.4,3.4-3.4h0c1.8,0,3.4,1.5,3.4,3.4h0c0,1.9-1.5,3.4-3.4,3.4h0c-1.9,0-3.4-1.5-3.4-3.4ZM753.1,144.7c0-1.8,1.5-3.4,3.4-3.4h0c1.8,0,3.4,1.5,3.4,3.4h0c0,1.9-1.5,3.4-3.4,3.4h0c-1.9,0-3.4-1.5-3.4-3.4ZM739.6,144.7c0-1.8,1.5-3.4,3.4-3.4h0c1.8,0,3.4,1.5,3.4,3.4h0c0,1.9-1.5,3.4-3.4,3.4h0c-1.9,0-3.4-1.5-3.4-3.4ZM726.1,144.7c0-1.8,1.5-3.4,3.4-3.4h0c1.8,0,3.4,1.5,3.4,3.4h0c0,1.9-1.5,3.4-3.4,3.4h0c-1.9,0-3.4-1.5-3.4-3.4ZM712.7,144.7c0-1.8,1.5-3.4,3.4-3.4h0c1.8,0,3.4,1.5,3.4,3.4h0c0,1.9-1.5,3.4-3.4,3.4h0c-1.9,0-3.4-1.5-3.4-3.4ZM699.2,144.7c0-1.8,1.5-3.4,3.4-3.4h0c1.8,0,3.4,1.5,3.4,3.4h0c0,1.9-1.5,3.4-3.4,3.4h0c-1.9,0-3.4-1.5-3.4-3.4ZM578.1,144.7c0-1.8,1.5-3.4,3.4-3.4h0c1.8,0,3.4,1.5,3.4,3.4h0c0,1.9-1.5,3.4-3.4,3.4h0c-1.9,0-3.4-1.5-3.4-3.4ZM564.6,144.7c0-1.8,1.5-3.4,3.4-3.4h0c1.8,0,3.4,1.5,3.4,3.4h0c0,1.9-1.5,3.4-3.4,3.4h0c-1.9,0-3.4-1.5-3.4-3.4ZM551.2,144.7c0-1.8,1.5-3.4,3.4-3.4h0c1.8,0,3.4,1.5,3.4,3.4h0c0,1.9-1.5,3.4-3.4,3.4h0c-1.9,0-3.4-1.5-3.4-3.4ZM537.7,144.7c0-1.8,1.5-3.4,3.4-3.4h0c1.8,0,3.4,1.5,3.4,3.4h0c0,1.9-1.5,3.4-3.4,3.4h0c-1.9,0-3.4-1.5-3.4-3.4ZM524.3,144.7c0-1.8,1.5-3.4,3.4-3.4h0c1.8,0,3.4,1.5,3.4,3.4h0c0,1.9-1.5,3.4-3.4,3.4h0c-1.9,0-3.4-1.5-3.4-3.4ZM510.8,144.7c0-1.8,1.5-3.4,3.4-3.4h0c1.8,0,3.4,1.5,3.4,3.4h0c0,1.9-1.5,3.4-3.4,3.4h0c-1.9,0-3.4-1.5-3.4-3.4ZM497.3,144.7c0-1.8,1.5-3.4,3.4-3.4h0c1.8,0,3.4,1.5,3.4,3.4h0c0,1.9-1.5,3.4-3.4,3.4h0c-1.9,0-3.4-1.5-3.4-3.4ZM483.9,144.7c0-1.8,1.5-3.4,3.4-3.4h0c1.8,0,3.4,1.5,3.4,3.4h0c0,1.9-1.5,3.4-3.4,3.4h0c-1.9,0-3.4-1.5-3.4-3.4ZM470.4,144.7c0-1.8,1.5-3.4,3.4-3.4h0c1.8,0,3.4,1.5,3.4,3.4h0c0,1.9-1.5,3.4-3.4,3.4h0c-1.9,0-3.4-1.5-3.4-3.4ZM457,144.7c0-1.8,1.5-3.4,3.4-3.4h0c1.8,0,3.4,1.5,3.4,3.4h0c0,1.9-1.5,3.4-3.4,3.4h0c-1.9,0-3.4-1.5-3.4-3.4Z"/>
      <path class="st3" d="M463.2,192.7c-.5-1.8.6-3.6,2.4-4.1h0c1.8-.5,3.7.6,4.1,2.4h0c.5,1.8-.6,3.6-2.4,4.1h0c-.3,0-.6.1-.8.1h0c-1.5,0-2.9-1-3.3-2.5ZM476.3,189.2c-.5-1.8.6-3.6,2.4-4.1h0c1.8-.5,3.6.6,4.1,2.4h0c.5,1.8-.6,3.6-2.4,4.1h0c-.3,0-.6.1-.9.1h0c-1.5,0-2.8-1-3.2-2.5ZM489.3,185.8c-.5-1.8.6-3.6,2.4-4.1h0c1.8-.5,3.6.6,4.1,2.4h0c.4,1.8-.6,3.6-2.4,4.1h0c-.3,0-.6,0-.9,0h0c-1.5,0-2.8-1-3.2-2.5ZM502.3,182.3c-.5-1.8.6-3.6,2.4-4.1h0c1.8-.4,3.6.6,4.1,2.4h0c.4,1.8-.6,3.7-2.4,4.1h0c-.3,0-.6.1-.9.1h0c-1.5,0-2.8-1-3.2-2.5ZM515.2,178.8c-.4-1.8.6-3.7,2.4-4.1h0c1.7-.5,3.6.6,4.1,2.4h0c.5,1.8-.6,3.6-2.4,4.1h0c-.3,0-.6,0-.8,0h0c-1.5,0-2.9-1-3.3-2.5ZM528.3,175.3c-.5-1.8.6-3.6,2.4-4.1h0c1.8-.5,3.6.6,4.1,2.4h0c.5,1.8-.6,3.6-2.4,4.1h0c-.3,0-.6.1-.9.1h0c-1.5,0-2.9-1-3.3-2.5ZM541.3,171.8c-.5-1.8.6-3.6,2.4-4.1h0c1.8-.4,3.6.6,4.1,2.4h0c.5,1.8-.6,3.7-2.4,4.1h0c-.3,0-.6.1-.9.1h0c-1.5,0-2.8-1-3.2-2.5ZM554.3,168.4c-.5-1.8.6-3.7,2.4-4.1h0c1.8-.5,3.6.6,4.1,2.4h0c.4,1.8-.6,3.6-2.4,4.1h0c-.3,0-.6,0-.9,0h0c-1.5,0-2.8-1-3.2-2.5ZM567.3,164.9c-.5-1.8.6-3.6,2.4-4.1h0c1.8-.5,3.6.6,4.1,2.4h0c.5,1.8-.6,3.6-2.4,4.1h0c-.3,0-.6.1-.8.1h0c-1.5,0-2.8-1-3.2-2.5ZM580.2,161.4c-.4-1.8.6-3.6,2.4-4.1h0c1.8-.4,3.7.6,4.1,2.4h0c.5,1.8-.6,3.6-2.4,4.1h0c-.3,0-.6.1-.9.1h0c-1.5,0-2.9-1-3.3-2.5ZM788.3,105.6c-.5-1.8.6-3.6,2.4-4.1h0c1.8-.5,3.6.6,4.1,2.4h0c.4,1.8-.6,3.6-2.4,4.1h0c-.3,0-.6.1-.9.1h0c-1.5,0-2.8-1-3.2-2.5ZM801.3,102.1c-.5-1.8.6-3.6,2.4-4.1h0c1.7-.5,3.6.6,4.1,2.4h0c.5,1.8-.6,3.7-2.4,4.1h0c-.3,0-.6.1-.8.1h0c-1.5,0-2.9-1-3.2-2.5ZM814.2,98.7c-.5-1.8.6-3.7,2.4-4.1h0c1.8-.5,3.6.6,4.1,2.4h0c.5,1.8-.6,3.6-2.4,4.1h0c-.3,0-.6,0-.9,0h0c-1.5,0-2.9-1-3.3-2.5Z"/>
      <path class="st3" d="M481.8,237.4c-.9-1.6-.4-3.7,1.3-4.6h0c1.6-.9,3.6-.4,4.6,1.3h0c.9,1.6.4,3.6-1.2,4.6h0c-.5.3-1.1.4-1.7.4h0c-1.2,0-2.3-.6-2.9-1.7ZM493.4,230.7c-.9-1.6-.4-3.7,1.2-4.6h0c1.6-.9,3.7-.4,4.6,1.3h0c.9,1.6.4,3.7-1.2,4.6h0c-.5.3-1.1.4-1.7.4h0c-1.2,0-2.3-.6-2.9-1.7ZM505.1,224c-.9-1.6-.4-3.7,1.2-4.6h0c1.6-.9,3.7-.4,4.6,1.3h0c.9,1.6.4,3.6-1.3,4.6h0c-.5.3-1.1.4-1.7.4h0c-1.2,0-2.3-.6-2.9-1.7ZM516.8,217.3c-.9-1.6-.4-3.7,1.2-4.6h0c1.6-.9,3.7-.4,4.6,1.3h0c.9,1.6.4,3.7-1.3,4.6h0c-.5.3-1.1.4-1.7.4h0c-1.2,0-2.3-.6-2.9-1.7ZM528.4,210.5c-.9-1.6-.4-3.7,1.3-4.6h0c1.6-.9,3.7-.4,4.6,1.3h0c.9,1.6.4,3.6-1.2,4.6h0c-.5.3-1.1.4-1.7.4h0c-1.2,0-2.3-.6-3-1.7ZM540,203.8c-.9-1.6-.4-3.7,1.3-4.6h0c1.6-.9,3.6-.4,4.6,1.3h0c.9,1.6.4,3.7-1.2,4.6h0c-.5.3-1.1.4-1.7.4h0c-1.2,0-2.3-.6-2.9-1.7ZM551.7,197.1c-.9-1.6-.4-3.7,1.2-4.6h0c1.6-.9,3.7-.4,4.6,1.3h0c.9,1.6.4,3.6-1.2,4.6h0c-.5.3-1.1.4-1.7.4h0c-1.2,0-2.3-.6-2.9-1.7ZM563.4,190.3c-.9-1.6-.4-3.7,1.2-4.6h0c1.6-.9,3.7-.4,4.6,1.3h0c.9,1.6.4,3.7-1.3,4.6h0c-.5.3-1.1.4-1.7.4h0c-1.2,0-2.3-.6-2.9-1.7ZM575,183.6c-.9-1.6-.4-3.7,1.2-4.6h0c1.6-.9,3.7-.4,4.6,1.3h0c.9,1.6.4,3.6-1.3,4.6h0c-.5.3-1.1.4-1.7.4h0c-1.2,0-2.3-.6-2.9-1.7ZM586.7,176.9c-.9-1.6-.4-3.7,1.3-4.6h0c1.6-.9,3.7-.4,4.6,1.3h0c.9,1.6.4,3.6-1.2,4.6h0c-.5.3-1.1.4-1.7.4h0c-1.2,0-2.3-.6-3-1.7ZM598.3,170.2c-.9-1.6-.4-3.7,1.3-4.6h0c1.6-.9,3.6-.4,4.6,1.3h0c.9,1.6.4,3.6-1.2,4.6h0c-.5.3-1.1.4-1.7.4h0c-1.2,0-2.3-.6-2.9-1.7ZM784.8,62.5c-.9-1.6-.4-3.7,1.3-4.6h0c1.6-.9,3.6-.4,4.6,1.3h0c.9,1.6.4,3.6-1.2,4.6h0c-.5.3-1.1.4-1.7.4h0c-1.2,0-2.3-.6-2.9-1.7ZM796.5,55.8c-.9-1.6-.4-3.7,1.2-4.6h0c1.6-.9,3.7-.4,4.6,1.3h0c.9,1.6.4,3.6-1.3,4.6h0c-.5.3-1.1.4-1.7.4h0c-1.2,0-2.3-.6-2.9-1.7Z"/>
      <path class="st3" d="M511.2,275.9c-1.3-1.3-1.3-3.5,0-4.8h0c1.3-1.3,3.5-1.3,4.8,0h0c1.3,1.3,1.3,3.5,0,4.8h0c-.7.6-1.5.9-2.4.9h0c-.9,0-1.7-.3-2.4-.9ZM520.8,266.3c-1.3-1.3-1.3-3.4,0-4.8h0c1.3-1.3,3.5-1.3,4.8,0h0c1.3,1.3,1.3,3.5,0,4.8h0c-.7.7-1.5,1-2.4,1h0c-.8,0-1.7-.3-2.4-1ZM530.3,256.8c-1.3-1.3-1.3-3.4,0-4.8h0c1.3-1.3,3.5-1.3,4.8,0h0c1.3,1.3,1.3,3.5,0,4.8h0c-.7.7-1.5,1-2.4,1h0c-.8,0-1.7-.3-2.4-1ZM539.8,247.3c-1.3-1.3-1.3-3.5,0-4.8h0c1.3-1.3,3.5-1.3,4.8,0h0c1.3,1.3,1.3,3.5,0,4.8h0c-.6.7-1.5,1-2.4,1h0c-.8,0-1.7-.3-2.4-1ZM549.3,237.8c-1.3-1.3-1.3-3.5,0-4.8h0c1.3-1.3,3.5-1.3,4.8,0h0c1.3,1.3,1.3,3.5,0,4.8h0c-.6.7-1.5,1-2.3,1h0c-.9,0-1.7-.3-2.4-1ZM558.8,228.3c-1.3-1.3-1.3-3.5,0-4.8h0c1.3-1.3,3.4-1.3,4.8,0h0c1.3,1.3,1.3,3.5,0,4.8h0c-.7.7-1.5,1-2.4,1h0c-.9,0-1.7-.3-2.4-1ZM568.4,218.7c-1.3-1.3-1.3-3.5,0-4.8h0c1.3-1.3,3.4-1.3,4.8,0h0c1.3,1.3,1.3,3.4,0,4.8h0c-.7.6-1.5,1-2.4,1h0c-.9,0-1.7-.4-2.4-1ZM577.9,209.2c-1.3-1.3-1.3-3.5,0-4.8h0c1.3-1.3,3.5-1.3,4.8,0h0c1.3,1.3,1.3,3.4,0,4.8h0c-.7.6-1.5,1-2.4,1h0c-.9,0-1.7-.4-2.4-1ZM587.4,199.7c-1.3-1.3-1.3-3.4,0-4.8h0c1.3-1.3,3.5-1.3,4.8,0h0c1.3,1.3,1.3,3.5,0,4.8h0c-.7.7-1.5,1-2.4,1h0c-.9,0-1.7-.3-2.4-1ZM596.9,190.2c-1.3-1.3-1.3-3.4,0-4.8h0c1.3-1.3,3.5-1.3,4.8,0h0c1.3,1.3,1.3,3.5,0,4.8h0c-.7.7-1.5,1-2.4,1h0c-.9,0-1.7-.3-2.4-1ZM768.2,18.9c-1.3-1.3-1.3-3.5,0-4.8h0c1.3-1.3,3.5-1.3,4.8,0h0c1.3,1.3,1.3,3.5,0,4.8h0c-.6.7-1.5,1-2.3,1h0c-.9,0-1.7-.3-2.4-1Z"/>
      <path class="st3" d="M549.6,305.3c-1.6-.9-2.2-3-1.3-4.6h0c.9-1.6,3-2.2,4.6-1.3h0c1.6.9,2.2,3,1.2,4.6h0c-.6,1.1-1.8,1.7-2.9,1.7h0c-.6,0-1.2-.1-1.7-.5ZM556.4,293.7c-1.6-.9-2.2-3-1.3-4.6h0c.9-1.6,3-2.2,4.6-1.3h0c1.6.9,2.2,3,1.2,4.6h0c-.6,1.1-1.8,1.7-2.9,1.7h0c-.6,0-1.2-.1-1.7-.4ZM563.1,282c-1.6-.9-2.2-3-1.3-4.6h0c.9-1.6,3-2.2,4.6-1.2h0c1.6.9,2.2,3,1.2,4.6h0c-.6,1.1-1.8,1.7-2.9,1.7h0c-.6,0-1.2-.2-1.7-.4ZM569.8,270.3c-1.6-.9-2.2-3-1.3-4.6h0c.9-1.6,3-2.2,4.6-1.2h0c1.6.9,2.2,3,1.2,4.6h0c-.6,1.1-1.8,1.7-2.9,1.7h0c-.6,0-1.1-.1-1.7-.5ZM576.6,258.7c-1.6-.9-2.2-3-1.3-4.6h0c.9-1.6,3-2.2,4.6-1.2h0c1.6.9,2.2,3,1.2,4.6h0c-.6,1.1-1.8,1.7-2.9,1.7h0c-.6,0-1.2-.1-1.7-.4ZM583.3,247c-1.6-.9-2.2-3-1.3-4.6h0c.9-1.6,3-2.2,4.6-1.3h0c1.6.9,2.2,3,1.2,4.6h0c-.6,1.1-1.8,1.7-2.9,1.7h0c-.6,0-1.1-.1-1.7-.4ZM590,235.3c-1.6-.9-2.2-3-1.3-4.6h0c.9-1.6,3-2.2,4.6-1.2h0c1.6.9,2.2,3,1.2,4.6h0c-.6,1.1-1.8,1.7-2.9,1.7h0c-.6,0-1.1-.1-1.7-.5ZM596.8,223.7c-1.6-.9-2.2-3-1.3-4.6h0c.9-1.6,3-2.2,4.6-1.2h0c1.6.9,2.2,3,1.2,4.6h0c-.6,1.1-1.8,1.7-2.9,1.7h0c-.5,0-1.1-.2-1.7-.5ZM603.5,212.1c-1.6-.9-2.2-3-1.3-4.6h0c.9-1.6,3-2.2,4.6-1.2h0c1.6.9,2.2,3,1.2,4.6h0c-.6,1.1-1.8,1.7-2.9,1.7h0c-.6,0-1.1-.1-1.7-.4ZM717.9,13.9c-1.6-.9-2.2-3-1.3-4.6h0c.9-1.6,3-2.2,4.6-1.2h0c1.6.9,2.2,3,1.2,4.6h0c-.6,1.1-1.8,1.7-2.9,1.7h0c-.6,0-1.2-.1-1.7-.4ZM724.6,2.2c-1.6-.9-2.2-3-1.3-4.6h0c.9-1.6,3-2.2,4.6-1.3h0c1.6.9,2.2,3,1.2,4.6h0c-.6,1.1-1.8,1.7-2.9,1.7h0c-.6,0-1.2-.1-1.7-.4ZM731.3-9.4c-1.6-.9-2.2-3-1.3-4.6h0c.9-1.6,3-2.2,4.6-1.3h0c1.6.9,2.2,3,1.2,4.6h0c-.6,1.1-1.8,1.7-2.9,1.7h0c-.6,0-1.1-.1-1.7-.4Z"/>
      <path class="st3" d="M594.3,323.8c-1.8-.5-2.8-2.3-2.4-4.1h0c.5-1.8,2.3-2.9,4.1-2.4h0c1.8.5,2.9,2.3,2.4,4.1h0c-.4,1.5-1.7,2.5-3.2,2.5h0c-.3,0-.6,0-.9-.1ZM597.8,310.8c-1.8-.5-2.9-2.3-2.4-4.1h0c.5-1.8,2.3-2.8,4.1-2.3h0c1.8.5,2.9,2.3,2.4,4.1h0c-.4,1.5-1.8,2.5-3.3,2.5h0c-.3,0-.6,0-.9-.1ZM601.3,297.8c-1.7-.4-2.8-2.3-2.4-4.1h0c.5-1.7,2.3-2.8,4.1-2.4h0c1.8.5,2.9,2.3,2.4,4.1h0c-.4,1.5-1.8,2.5-3.2,2.5h0c-.3,0-.6,0-.9-.1ZM604.8,284.8c-1.8-.5-2.9-2.3-2.4-4.1h0c.5-1.8,2.3-2.9,4.1-2.4h0c1.8.5,2.9,2.3,2.4,4.1h0c-.4,1.5-1.7,2.5-3.2,2.5h0c-.3,0-.6,0-.9,0ZM608.3,271.8c-1.8-.5-2.9-2.3-2.4-4.1h0c.5-1.8,2.3-2.9,4.1-2.4h0c1.8.5,2.8,2.3,2.4,4.1h0c-.4,1.5-1.8,2.5-3.3,2.5h0c-.3,0-.6,0-.8-.1ZM611.8,258.8c-1.8-.5-2.9-2.3-2.4-4.1h0c.4-1.8,2.3-2.9,4.1-2.4h0c1.8.5,2.9,2.3,2.4,4.1h0c-.4,1.5-1.7,2.5-3.2,2.5h0c-.3,0-.6,0-.8-.1ZM615.2,245.8c-1.8-.5-2.9-2.4-2.4-4.2h0c.5-1.7,2.3-2.8,4.1-2.4h0c1.8.5,2.9,2.3,2.4,4.1h0c-.4,1.5-1.7,2.5-3.2,2.5h0c-.3,0-.6,0-.9,0ZM618.7,232.8c-1.8-.5-2.9-2.3-2.4-4.1h0c.5-1.8,2.3-2.9,4.1-2.4h0c1.8.4,2.8,2.3,2.4,4.1h0c-.4,1.5-1.8,2.5-3.3,2.5h0c-.3,0-.6,0-.8,0ZM674.5,24.8c-1.8-.5-2.9-2.3-2.4-4.1h0c.5-1.8,2.3-2.8,4.1-2.4h0c1.8.5,2.9,2.3,2.4,4.1h0c-.4,1.5-1.7,2.5-3.2,2.5h0c-.3,0-.6,0-.9-.1ZM678,11.8c-1.8-.4-2.9-2.3-2.4-4.1h0c.4-1.8,2.3-2.9,4.1-2.4h0c1.8.4,2.8,2.3,2.4,4.1h0c-.4,1.5-1.8,2.5-3.3,2.5h0c-.3,0-.6,0-.8-.1ZM681.4-1.2c-1.8-.5-2.8-2.3-2.4-4.1h0c.5-1.8,2.3-2.9,4.1-2.4h0c1.8.4,2.9,2.3,2.4,4.1h0c-.4,1.5-1.7,2.5-3.2,2.5h0c-.3,0-.6,0-.9,0ZM684.9-14.2c-1.8-.5-2.9-2.3-2.4-4.1h0c.5-1.8,2.3-2.9,4.1-2.4h0c1.8.5,2.9,2.3,2.4,4.1h0c-.4,1.5-1.7,2.5-3.2,2.5h0c-.3,0-.6,0-.9,0ZM688.4-27.2c-1.8-.5-2.9-2.3-2.4-4.1h0c.4-1.8,2.3-2.9,4.1-2.4h0c1.7.5,2.8,2.3,2.4,4.1h0c-.4,1.5-1.8,2.5-3.3,2.5h0c-.3,0-.6,0-.8-.1Z"/>
      <path class="st3" d="M639,326.8c0-1.9,1.5-3.4,3.4-3.4h0c1.8,0,3.4,1.5,3.4,3.4h0c0,1.8-1.5,3.4-3.4,3.4h0c-1.9,0-3.4-1.5-3.4-3.4ZM639,313.3c0-1.9,1.5-3.4,3.4-3.4h0c1.8,0,3.4,1.5,3.4,3.4h0c0,1.8-1.5,3.4-3.4,3.4h0c-1.9,0-3.4-1.5-3.4-3.4ZM639,299.9c0-1.9,1.5-3.4,3.4-3.4h0c1.8,0,3.4,1.5,3.4,3.4h0c0,1.8-1.5,3.4-3.4,3.4h0c-1.9,0-3.4-1.5-3.4-3.4ZM639,286.4c0-1.9,1.5-3.4,3.4-3.4h0c1.8,0,3.4,1.5,3.4,3.4h0c0,1.8-1.5,3.4-3.4,3.4h0c-1.9,0-3.4-1.5-3.4-3.4ZM639,272.9c0-1.9,1.5-3.4,3.4-3.4h0c1.8,0,3.4,1.5,3.4,3.4h0c0,1.8-1.5,3.4-3.4,3.4h0c-1.9,0-3.4-1.5-3.4-3.4ZM639,259.5c0-1.9,1.5-3.4,3.4-3.4h0c1.8,0,3.4,1.5,3.4,3.4h0c0,1.8-1.5,3.4-3.4,3.4h0c-1.9,0-3.4-1.5-3.4-3.4ZM639,246c0-1.9,1.5-3.4,3.4-3.4h0c1.8,0,3.4,1.5,3.4,3.4h0c0,1.8-1.5,3.4-3.4,3.4h0c-1.9,0-3.4-1.5-3.4-3.4ZM639,232.6c0-1.9,1.5-3.4,3.4-3.4h0c1.8,0,3.4,1.5,3.4,3.4h0c0,1.8-1.5,3.4-3.4,3.4h0c-1.9,0-3.4-1.5-3.4-3.4ZM639,17.2c0-1.9,1.5-3.4,3.4-3.4h0c1.8,0,3.4,1.5,3.4,3.4h0c0,1.8-1.5,3.4-3.4,3.4h0c-1.9,0-3.4-1.5-3.4-3.4ZM639,3.8c0-1.9,1.5-3.4,3.4-3.4h0c1.8,0,3.4,1.5,3.4,3.4h0c0,1.8-1.5,3.4-3.4,3.4h0c-1.9,0-3.4-1.5-3.4-3.4ZM639-9.7c0-1.9,1.5-3.4,3.4-3.4h0c1.8,0,3.4,1.5,3.4,3.4h0c0,1.8-1.5,3.4-3.4,3.4h0c-1.9,0-3.4-1.5-3.4-3.4ZM639-23.2c0-1.9,1.5-3.4,3.4-3.4h0c1.8,0,3.4,1.5,3.4,3.4h0c0,1.8-1.5,3.4-3.4,3.4h0c-1.9,0-3.4-1.5-3.4-3.4ZM639-36.6c0-1.9,1.5-3.4,3.4-3.4h0c1.8,0,3.4,1.5,3.4,3.4h0c0,1.8-1.5,3.4-3.4,3.4h0c-1.9,0-3.4-1.5-3.4-3.4Z"/>
      <path class="st3" d="M686.2,321.4c-.5-1.8.5-3.6,2.4-4.1h0c1.8-.5,3.6.6,4.1,2.4h0c.5,1.8-.6,3.6-2.4,4.1h0c-.3,0-.6.1-.9.1h0c-1.5,0-2.8-1-3.2-2.5ZM682.7,308.4c-.5-1.8.6-3.6,2.4-4.1h0c1.8-.5,3.6.5,4.1,2.4h0c.4,1.8-.6,3.6-2.4,4.1h0c-.3,0-.6.1-.9.1h0c-1.5,0-2.8-1-3.2-2.5ZM679.2,295.4c-.5-1.8.6-3.6,2.4-4.1h0c1.8-.5,3.6.6,4.1,2.3h0c.5,1.8-.6,3.7-2.4,4.1h0c-.3,0-.6.1-.9.1h0c-1.5,0-2.8-1-3.2-2.5ZM675.7,282.4c-.5-1.8.6-3.6,2.4-4.1h0c1.8-.5,3.7.6,4.2,2.4h0c.4,1.8-.6,3.6-2.4,4.1h0c-.3,0-.6,0-.9,0h0c-1.5,0-2.8-1-3.3-2.5ZM672.3,269.4c-.5-1.8.6-3.6,2.4-4.1h0c1.8-.5,3.6.6,4.1,2.4h0c.5,1.8-.6,3.6-2.4,4.1h0c-.3,0-.6.1-.9.1h0c-1.5,0-2.8-1-3.2-2.5ZM668.8,256.4c-.4-1.8.6-3.6,2.4-4.1h0c1.8-.5,3.6.6,4.1,2.4h0c.5,1.8-.6,3.7-2.4,4.1h0c-.3,0-.6.1-.9.1h0c-1.5,0-2.9-1-3.3-2.5ZM665.3,243.4c-.5-1.8.6-3.6,2.4-4.1h0c1.8-.4,3.7.6,4.2,2.4h0c.4,1.8-.6,3.7-2.4,4.1h0c-.3,0-.6.1-.9.1h0c-1.5,0-2.9-1-3.3-2.5ZM661.8,230.5c-.5-1.8.6-3.7,2.4-4.1h0c1.8-.5,3.6.6,4.1,2.4h0c.5,1.8-.6,3.6-2.4,4.1h0c-.3,0-.6,0-.9,0h0c-1.5,0-2.8-1-3.2-2.5ZM606.1,22.4c-.5-1.8.6-3.6,2.4-4.1h0c1.8-.4,3.6.6,4.1,2.4h0c.5,1.8-.5,3.6-2.4,4.1h0c-.3,0-.6.1-.9.1h0c-1.5,0-2.8-1-3.2-2.5ZM602.6,9.4c-.5-1.8.6-3.6,2.4-4.1h0c1.8-.5,3.6.6,4.1,2.4h0c.5,1.8-.6,3.6-2.4,4.1h0c-.3,0-.6.1-.9.1h0c-1.5,0-2.8-1-3.2-2.5ZM599.1-3.5c-.5-1.8.6-3.7,2.4-4.1h0c1.8-.5,3.7.6,4.1,2.4h0c.5,1.8-.6,3.6-2.4,4.1h0c-.3,0-.6,0-.9,0h0c-1.5,0-2.9-1-3.3-2.5ZM595.6-16.6c-.5-1.8.6-3.6,2.4-4.1h0c1.8-.5,3.6.6,4.1,2.4h0c.4,1.8-.6,3.6-2.4,4.1h0c-.3,0-.6,0-.9,0h0c-1.5,0-2.8-1-3.2-2.5ZM592.1-29.6c-.5-1.8.6-3.6,2.4-4.1h0c1.8-.5,3.6.6,4.1,2.4h0c.5,1.8-.6,3.6-2.4,4.1h0c-.3,0-.6.1-.9.1h0c-1.5,0-2.8-1-3.2-2.5Z"/>
      <path class="st3" d="M730.4,304.1c-.9-1.6-.4-3.7,1.3-4.6h0c1.6-.9,3.7-.4,4.6,1.3h0c.9,1.6.4,3.6-1.2,4.6h0c-.5.3-1.1.5-1.7.5h0c-1.2,0-2.3-.6-3-1.7ZM723.7,292.4c-.9-1.6-.4-3.7,1.2-4.6h0c1.6-.9,3.7-.4,4.6,1.2h0c.9,1.6.4,3.7-1.2,4.6h0c-.5.3-1.1.4-1.7.4h0c-1.2,0-2.3-.6-2.9-1.7ZM716.9,280.7c-.9-1.6-.4-3.7,1.3-4.6h0c1.6-.9,3.7-.4,4.6,1.2h0c.9,1.6.4,3.7-1.2,4.6h0c-.5.3-1.1.4-1.7.4h0c-1.2,0-2.3-.6-3-1.7ZM710.2,269.1c-.9-1.6-.4-3.6,1.3-4.6h0c1.6-.9,3.7-.4,4.6,1.2h0c.9,1.6.4,3.7-1.2,4.6h0c-.5.3-1.1.5-1.7.5h0c-1.2,0-2.3-.6-3-1.7ZM703.5,257.5c-.9-1.6-.4-3.7,1.3-4.6h0c1.6-.9,3.7-.4,4.6,1.2h0c.9,1.6.4,3.7-1.2,4.6h0c-.5.3-1.1.4-1.7.4h0c-1.2,0-2.3-.6-3-1.7ZM696.8,245.8c-.9-1.6-.4-3.7,1.3-4.6h0c1.6-.9,3.7-.4,4.6,1.3h0c.9,1.6.4,3.6-1.2,4.6h0c-.5.3-1.1.4-1.7.4h0c-1.2,0-2.3-.6-3-1.7ZM690.1,234.1c-.9-1.6-.4-3.7,1.2-4.6h0c1.6-.9,3.7-.4,4.6,1.2h0c.9,1.6.4,3.7-1.2,4.6h0c-.5.3-1.1.5-1.7.5h0c-1.2,0-2.3-.6-2.9-1.7ZM683.3,222.5c-.9-1.6-.4-3.7,1.3-4.6h0c1.6-.9,3.7-.4,4.6,1.2h0c.9,1.6.4,3.7-1.2,4.6h0c-.5.3-1.1.4-1.7.4h0c-1.2,0-2.3-.6-3-1.7ZM676.6,210.8c-.9-1.6-.4-3.6,1.2-4.6h0c1.6-.9,3.7-.4,4.6,1.2h0c.9,1.6.4,3.7-1.2,4.6h0c-.5.3-1.1.4-1.7.4h0c-1.2,0-2.3-.6-2.9-1.7ZM562.2,12.6c-.9-1.6-.4-3.6,1.3-4.6h0c1.6-.9,3.7-.4,4.6,1.3h0c.9,1.6.4,3.6-1.2,4.6h0c-.5.3-1.1.4-1.7.4h0c-1.2,0-2.3-.6-3-1.7ZM555.4,1c-.9-1.6-.4-3.7,1.3-4.6h0c1.6-.9,3.7-.4,4.6,1.3h0c.9,1.6.4,3.7-1.2,4.6h0c-.5.3-1.1.4-1.7.4h0c-1.1,0-2.3-.6-2.9-1.7ZM548.8-10.6c-.9-1.6-.4-3.7,1.2-4.6h0c1.6-.9,3.7-.4,4.6,1.2h0c.9,1.6.4,3.7-1.2,4.6h0c-.5.3-1.1.4-1.7.4h0c-1.2,0-2.3-.6-2.9-1.7Z"/>
      <path class="st3" d="M677.5,126.3h-18.8c2.6-3.4,4.2-7.7,4.2-12.4,0-11.3-9.2-20.5-20.5-20.5s-20.5,9.2-20.5,20.5,1.6,8.9,4.2,12.4h-18.8c-8.8,0-15.9,6.6-15.9,14.8s7.1,14.8,15.9,14.8h9.6v45.2c0,8.2,6.6,14.8,14.8,14.8s8-1.8,10.7-4.6c2.7,2.8,6.5,4.6,10.7,4.6,8.2,0,14.8-6.6,14.8-14.8v-45.2h9.6c8.8,0,15.9-6.6,15.9-14.8s-7.1-14.8-15.9-14.8ZM630,114c0-6.8,5.5-12.4,12.4-12.4s12.4,5.5,12.4,12.4-5.5,12.4-12.4,12.4-12.4-5.5-12.4-12.4Z"/>
    </g>
    <path class="st2" d="M755.1,322.6h-198.8c-15,0-27.2-12.2-27.1-27.3l.2-27.6h226.1l-.3,54.9Z"/>
    <g>
      <path class="st6" d="M552.4,285.2h9.9c2.4,0,4.4.7,5.6,1.9s1.5,2.2,1.5,3.6h0c0,2.5-1.3,3.8-2.8,4.7,2.5.9,4,2.4,4,5.2h0c0,4-3.2,5.9-8,5.9h-10.1v-21.3ZM564.7,291.5c0-1.4-1.1-2.2-3.1-2.2h-4.6v4.5h4.3c2.1,0,3.4-.7,3.4-2.3h0ZM562.4,297.7h-5.4v4.7h5.6c2.1,0,3.3-.7,3.3-2.3h0c0-1.5-1.1-2.4-3.5-2.4Z"/>
      <path class="st6" d="M573.5,295.9h0c0-6.1,4.8-11.1,11.4-11.1s11.3,4.9,11.3,11h0c0,6.1-4.8,11.1-11.4,11.1s-11.3-4.9-11.3-11ZM591.2,295.9h0c0-3.7-2.7-6.8-6.5-6.8s-6.4,3-6.4,6.6h0c0,3.7,2.7,6.8,6.5,6.8s6.4-3,6.4-6.6Z"/>
      <path class="st6" d="M600.3,285.2h8.3c6.7,0,11.3,4.6,11.3,10.6h0c0,6.1-4.6,10.7-11.3,10.7h-8.3v-21.3ZM605,289.4v12.9h3.6c3.8,0,6.4-2.6,6.4-6.4h0c0-3.8-2.6-6.5-6.4-6.5h-3.6Z"/>
      <path class="st6" d="M628.2,298.1l-8.2-12.9h5.5l5.1,8.6,5.2-8.6h5.3l-8.2,12.8v8.5h-4.7v-8.4Z"/>
    </g>
    <path class="st1" d="M755.4,267.8h-226.1l.3-226.3h198.7c15,0,27.1,12.1,27.1,27.1v199.2Z"/>
  </g>
  <g>
    <g class="st4">
      <path class="st3" d="M517.8,275.4c-1.3-1.3-1.3-3.4,0-4.8h0c1.3-1.3,3.5-1.3,4.8,0h0c1.3,1.3,1.3,3.5,0,4.8h0c-.7.7-1.5,1-2.4,1h0c-.9,0-1.7-.3-2.4-1ZM508.3,265.8c-1.3-1.3-1.3-3.5,0-4.8h0c1.3-1.3,3.5-1.3,4.8,0h0c1.3,1.3,1.3,3.5,0,4.8h0c-.7.7-1.5,1-2.4,1h0c-.9,0-1.8-.3-2.4-1ZM498.8,256.3c-1.3-1.3-1.3-3.5,0-4.8h0c1.3-1.3,3.4-1.3,4.8,0h0c1.3,1.3,1.3,3.5,0,4.8h0c-.7.7-1.5,1-2.4,1h0c-.9,0-1.8-.3-2.4-1ZM489.3,246.8c-1.3-1.3-1.3-3.5,0-4.8h0c1.3-1.3,3.4-1.3,4.8,0h0c1.3,1.3,1.3,3.5,0,4.8h0c-.7.7-1.5,1-2.4,1h0c-.9,0-1.7-.3-2.4-1ZM479.7,237.3c-1.3-1.3-1.3-3.5,0-4.8h0c1.3-1.3,3.5-1.3,4.8,0h0c1.3,1.3,1.3,3.5,0,4.8h0c-.7.6-1.5,1-2.4,1h0c-.9,0-1.7-.4-2.4-1ZM470.2,227.8c-1.3-1.3-1.3-3.5,0-4.8h0c1.3-1.3,3.5-1.3,4.8,0h0c1.3,1.3,1.3,3.5,0,4.8h0c-.7.6-1.5,1-2.4,1h0c-.9,0-1.7-.4-2.4-1ZM460.7,218.3c-1.3-1.3-1.3-3.5,0-4.8h0c1.3-1.3,3.5-1.3,4.8,0h0c1.3,1.3,1.3,3.5,0,4.8h0c-.6.6-1.5,1-2.4,1h0c-.9,0-1.7-.4-2.4-1ZM451.2,208.7c-1.3-1.3-1.3-3.4,0-4.8h0c1.3-1.3,3.5-1.3,4.8,0h0c1.3,1.3,1.3,3.5,0,4.8h0c-.7.7-1.5,1-2.4,1h0c-.8,0-1.7-.3-2.4-1ZM441.7,199.2c-1.3-1.3-1.3-3.4,0-4.8h0c1.3-1.3,3.5-1.3,4.8,0h0c1.3,1.3,1.3,3.5,0,4.8h0c-.7.7-1.5,1-2.4,1h0c-.8,0-1.7-.3-2.4-1ZM432.1,189.7c-1.3-1.3-1.3-3.5,0-4.8h0c1.3-1.3,3.5-1.3,4.8,0h0c1.3,1.3,1.3,3.5,0,4.8h0c-.7.7-1.5,1-2.4,1h0c-.8,0-1.7-.3-2.4-1ZM356,113.6c-1.3-1.3-1.3-3.5,0-4.8h0c1.3-1.3,3.5-1.3,4.8,0h0c1.3,1.3,1.3,3.5,0,4.8h0c-.7.7-1.5,1-2.4,1h0c-.8,0-1.7-.3-2.4-1ZM346.5,104.1c-1.3-1.3-1.3-3.5,0-4.8h0c1.3-1.3,3.5-1.3,4.8,0h0c1.3,1.3,1.3,3.5,0,4.8h0c-.7.7-1.5,1-2.4,1h0c-.9,0-1.7-.3-2.4-1ZM337,94.6c-1.3-1.3-1.3-3.5,0-4.8h0c1.3-1.3,3.4-1.3,4.8,0h0c1.3,1.3,1.3,3.4,0,4.8h0c-.7.6-1.5,1-2.4,1h0c-.9,0-1.7-.4-2.4-1ZM327.4,85.1c-1.3-1.3-1.3-3.5,0-4.8h0c1.3-1.3,3.5-1.3,4.8,0h0c1.3,1.3,1.3,3.4,0,4.8h0c-.7.6-1.5.9-2.4.9h0c-.8,0-1.7-.3-2.4-.9ZM317.9,75.5c-1.3-1.3-1.3-3.5,0-4.8h0c1.3-1.3,3.5-1.3,4.8,0h0c1.3,1.3,1.3,3.4,0,4.8h0c-.6.6-1.5.9-2.4.9h0c-.8,0-1.7-.3-2.4-.9ZM308.4,66c-1.3-1.3-1.3-3.4,0-4.8h0c1.3-1.3,3.5-1.3,4.8,0h0c1.3,1.3,1.3,3.5,0,4.8h0c-.7.7-1.5,1-2.4,1h0c-.8,0-1.7-.3-2.4-1ZM298.9,56.5c-1.3-1.3-1.3-3.4,0-4.8h0c1.3-1.3,3.5-1.3,4.8,0h0c1.3,1.3,1.3,3.5,0,4.8h0c-.7.7-1.5,1-2.4,1h0c-.9,0-1.7-.3-2.4-1ZM289.4,47c-1.3-1.3-1.3-3.5,0-4.8h0c1.3-1.3,3.5-1.3,4.8,0h0c1.3,1.3,1.3,3.5,0,4.8h0c-.7.7-1.5,1-2.4,1h0c-.9,0-1.7-.3-2.4-1ZM279.9,37.5c-1.3-1.3-1.3-3.5,0-4.8h0c1.3-1.3,3.4-1.3,4.8,0h0c1.3,1.3,1.3,3.5,0,4.8h0c-.7.7-1.5,1-2.4,1h0c-.9,0-1.8-.3-2.4-1ZM270.4,27.9c-1.3-1.3-1.3-3.5,0-4.8h0c1.3-1.3,3.4-1.3,4.8,0h0c1.3,1.3,1.3,3.4,0,4.8h0c-.7.6-1.5,1-2.4,1h0c-.9,0-1.7-.4-2.4-1ZM260.9,18.4c-1.3-1.3-1.3-3.5,0-4.8h0c1.3-1.3,3.4-1.3,4.7,0h0c1.3,1.3,1.3,3.4,0,4.8h0c-.6.6-1.5,1-2.3,1h0c-.9,0-1.7-.4-2.4-1Z"/>
      <path class="st3" d="M547.3,238.3c-1.6-.9-2.2-3-1.2-4.6h0c.9-1.6,3-2.2,4.6-1.2h0c1.6.9,2.2,3,1.3,4.6h0c-.6,1.1-1.8,1.7-3,1.7h0c-.5,0-1.1-.1-1.7-.5ZM535.6,231.6c-1.6-.9-2.2-3-1.2-4.6h0c.9-1.6,3-2.2,4.6-1.2h0c1.6.9,2.2,3,1.3,4.6h0c-.6,1.1-1.8,1.7-3,1.7h0c-.5,0-1.1-.1-1.7-.5ZM524,224.9c-1.6-.9-2.2-3-1.2-4.6h0c.9-1.6,3-2.2,4.6-1.2h0c1.6.9,2.2,3,1.3,4.6h0c-.6,1-1.8,1.7-2.9,1.7h0c-.6,0-1.2-.1-1.7-.5ZM512.4,218.2c-1.6-.9-2.2-3-1.3-4.6h0c.9-1.6,3-2.2,4.6-1.2h0c1.6.9,2.2,3,1.2,4.6h0c-.6,1.1-1.7,1.7-2.9,1.7h0c-.6,0-1.2-.1-1.7-.5ZM500.7,211.4c-1.6-.9-2.2-3-1.3-4.6h0c.9-1.6,3-2.2,4.6-1.2h0c1.6.9,2.2,3,1.2,4.6h0c-.6,1.1-1.8,1.7-2.9,1.7h0c-.5,0-1.1-.1-1.7-.5ZM489,204.7c-1.6-.9-2.2-3-1.2-4.6h0c.9-1.6,3-2.2,4.6-1.2h0c1.6.9,2.2,3,1.2,4.6h0c-.6,1.1-1.7,1.7-2.9,1.7h0c-.6,0-1.2-.1-1.7-.5ZM477.4,198c-1.6-.9-2.2-3-1.2-4.6h0c.9-1.6,3-2.2,4.6-1.3h0c1.6.9,2.2,3,1.3,4.6h0c-.6,1.1-1.7,1.7-2.9,1.7h0c-.6,0-1.2-.1-1.7-.5ZM465.7,191.2c-1.6-.9-2.2-3-1.2-4.6h0c.9-1.6,3-2.2,4.6-1.3h0c1.6.9,2.2,3,1.3,4.6h0c-.6,1.1-1.7,1.7-2.9,1.7h0c-.6,0-1.2-.1-1.7-.5ZM454.1,184.5c-1.6-.9-2.2-3-1.3-4.6h0c.9-1.6,3-2.2,4.6-1.2h0c1.6.9,2.2,3,1.3,4.6h0c-.6,1.1-1.7,1.7-2.9,1.7h0c-.6,0-1.2-.1-1.7-.5ZM442.4,177.8c-1.6-.9-2.2-3-1.3-4.6h0c.9-1.6,3-2.2,4.6-1.2h0c1.6.9,2.2,3,1.2,4.6h0c-.6,1.1-1.7,1.7-2.9,1.7h0c-.6,0-1.2-.1-1.7-.5ZM430.8,171.1c-1.6-.9-2.2-3-1.3-4.6h0c.9-1.6,3-2.2,4.6-1.2h0c1.6.9,2.2,3,1.2,4.6h0c-.6,1-1.8,1.7-2.9,1.7h0c-.5,0-1.1-.1-1.7-.5ZM337.5,117.2c-1.6-.9-2.2-3-1.2-4.6h0c.9-1.6,3-2.2,4.6-1.2h0c1.6.9,2.2,3,1.3,4.6h0c-.6,1-1.7,1.7-2.9,1.7h0c-.6,0-1.2-.1-1.7-.5ZM325.9,110.5c-1.6-.9-2.2-3-1.3-4.6h0c.9-1.6,3-2.2,4.6-1.2h0c1.6.9,2.2,3,1.2,4.6h0c-.6,1-1.8,1.7-2.9,1.7h0c-.6,0-1.2-.1-1.7-.5ZM314.2,103.8c-1.6-.9-2.2-3-1.3-4.6h0c.9-1.6,3-2.2,4.6-1.2h0c1.6.9,2.2,3,1.2,4.6h0c-.6,1.1-1.7,1.7-2.9,1.7h0c-.5,0-1.1-.1-1.7-.5ZM302.5,97c-1.6-.9-2.2-3-1.2-4.6h0c.9-1.6,3-2.2,4.6-1.3h0c1.6.9,2.2,3,1.3,4.6h0c-.6,1.1-1.7,1.7-2.9,1.7h0c-.6,0-1.2-.1-1.7-.5ZM290.9,90.3c-1.6-.9-2.2-3-1.2-4.6h0c.9-1.6,3-2.2,4.6-1.3h0c1.6.9,2.2,3,1.3,4.6h0c-.6,1.1-1.8,1.7-2.9,1.7h0c-.6,0-1.2-.1-1.7-.5ZM279.2,83.6c-1.6-.9-2.2-3-1.2-4.6h0c.9-1.6,3-2.2,4.6-1.3h0c1.6.9,2.2,3,1.3,4.6h0c-.6,1.1-1.7,1.7-2.9,1.7h0c-.6,0-1.2-.1-1.7-.5ZM267.6,76.8c-1.6-.9-2.2-3-1.3-4.6h0c.9-1.6,3-2.2,4.6-1.2h0c1.6.9,2.2,3,1.2,4.6h0c-.6,1.1-1.8,1.7-2.9,1.7h0c-.6,0-1.2-.1-1.7-.4ZM255.9,70.1c-1.6-.9-2.2-3-1.3-4.6h0c.9-1.6,3-2.2,4.6-1.2h0c1.6.9,2.2,3,1.2,4.6h0c-.6,1-1.7,1.7-2.9,1.7h0c-.6,0-1.1-.1-1.7-.4ZM244.3,63.4c-1.6-.9-2.2-3-1.2-4.6h0c.9-1.6,3-2.2,4.6-1.2h0c1.6.9,2.2,3,1.2,4.6h0c-.6,1.1-1.7,1.7-2.9,1.7h0c-.5,0-1.1-.1-1.7-.4ZM232.6,56.7c-1.6-.9-2.2-3-1.2-4.6h0c.9-1.6,3-2.2,4.6-1.2h0c1.6.9,2.2,3,1.3,4.6h0c-.6,1-1.8,1.7-2.9,1.7h0c-.6,0-1.2-.1-1.7-.4Z"/>
      <path class="st3" d="M566.2,195c-1.8-.5-2.9-2.4-2.4-4.1h0c.5-1.8,2.3-2.9,4.1-2.4h0c1.8.5,2.9,2.3,2.4,4.1h0c-.4,1.5-1.8,2.5-3.3,2.5h0c-.3,0-.5,0-.9,0ZM553.2,191.5c-1.8-.5-2.9-2.3-2.4-4.1h0c.5-1.8,2.3-2.9,4.1-2.4h0c1.8.5,2.9,2.3,2.4,4.1h0c-.4,1.5-1.7,2.5-3.2,2.5h0c-.3,0-.6,0-.9,0ZM540.2,188c-1.8-.5-2.8-2.3-2.4-4.1h0c.5-1.8,2.3-2.9,4.1-2.4h0c1.8.5,2.9,2.3,2.4,4.1h0c-.4,1.5-1.7,2.5-3.2,2.5h0c-.3,0-.6,0-.9-.1ZM527.3,184.5c-1.8-.4-2.9-2.3-2.4-4.1h0c.5-1.8,2.3-2.9,4.1-2.4h0c1.8.5,2.9,2.3,2.4,4.1h0c-.4,1.5-1.7,2.5-3.2,2.5h0c-.3,0-.6,0-.9-.1ZM514.2,181c-1.8-.5-2.9-2.3-2.4-4.1h0c.5-1.8,2.3-2.9,4.1-2.4h0c1.8.5,2.9,2.3,2.4,4.1h0c-.4,1.5-1.8,2.5-3.3,2.5h0c-.3,0-.6,0-.8,0ZM501.2,177.5c-1.8-.5-2.9-2.3-2.4-4.1h0c.5-1.8,2.3-2.8,4.1-2.4h0c1.8.5,2.9,2.3,2.4,4.1h0c-.4,1.5-1.7,2.5-3.2,2.5h0c-.3,0-.6,0-.9-.1ZM488.2,174.1c-1.8-.5-2.8-2.3-2.4-4.1h0c.5-1.8,2.3-2.9,4.1-2.4h0c1.8.4,2.9,2.3,2.4,4.1h0c-.4,1.5-1.8,2.5-3.2,2.5h0c-.3,0-.6,0-.9,0ZM475.2,170.6c-1.7-.5-2.8-2.3-2.4-4.1h0c.5-1.8,2.3-2.9,4.1-2.4h0c1.8.5,2.9,2.3,2.4,4.1h0c-.4,1.5-1.7,2.5-3.2,2.5h0c-.3,0-.6,0-.9,0ZM462.2,167.1c-1.8-.5-2.9-2.3-2.4-4.1h0c.4-1.8,2.3-2.8,4.1-2.4h0c1.8.5,2.8,2.3,2.4,4.1h0c-.4,1.5-1.8,2.5-3.3,2.5h0c-.3,0-.6,0-.8-.1ZM449.2,163.6c-1.8-.5-2.9-2.3-2.4-4.1h0c.5-1.8,2.3-2.9,4.1-2.4h0c1.8.4,2.9,2.3,2.4,4.1h0c-.4,1.5-1.7,2.5-3.3,2.5h0c-.3,0-.6,0-.9,0ZM332.2,132.3c-1.8-.5-2.9-2.3-2.4-4.1h0c.5-1.8,2.3-2.9,4.1-2.4h0c1.8.5,2.9,2.3,2.4,4.1h0c-.4,1.5-1.7,2.5-3.3,2.5h0c-.3,0-.5,0-.9,0ZM319.2,128.7c-1.8-.5-2.9-2.3-2.4-4.1h0c.5-1.8,2.3-2.9,4.1-2.4h0c1.8.5,2.9,2.3,2.4,4.1h0c-.4,1.5-1.8,2.5-3.2,2.5h0c-.3,0-.6,0-.9-.1ZM306.2,125.2c-1.8-.4-2.8-2.3-2.4-4.1h0c.5-1.8,2.3-2.9,4.1-2.4h0c1.8.5,2.9,2.4,2.4,4.1h0c-.4,1.5-1.7,2.5-3.2,2.5h0c-.3,0-.6,0-.9-.1ZM293.3,121.8c-1.8-.5-2.9-2.3-2.4-4.1h0c.4-1.8,2.3-2.9,4.1-2.4h0c1.7.5,2.8,2.3,2.4,4.1h0c-.4,1.5-1.8,2.5-3.3,2.5h0c-.3,0-.6,0-.8,0ZM280.2,118.3c-1.8-.5-2.9-2.3-2.4-4.1h0c.5-1.8,2.3-2.9,4.1-2.4h0c1.8.5,2.8,2.3,2.4,4.1h0c-.4,1.5-1.7,2.5-3.2,2.5h0c-.3,0-.6,0-.9-.1ZM267.2,114.8c-1.8-.4-2.9-2.3-2.4-4.1h0c.5-1.7,2.3-2.8,4.1-2.3h0c1.8.4,2.9,2.3,2.4,4.1h0c-.4,1.5-1.7,2.5-3.3,2.5h0c-.3,0-.5,0-.9-.1ZM254.2,111.3c-1.8-.5-2.9-2.3-2.4-4.1h0c.5-1.8,2.3-2.9,4.1-2.4h0c1.8.5,2.9,2.3,2.4,4.1h0c-.4,1.5-1.7,2.5-3.2,2.5h0c-.3,0-.6,0-.9,0ZM241.3,107.8c-1.8-.5-2.9-2.3-2.4-4.1h0c.4-1.8,2.3-2.9,4.1-2.4h0c1.8.5,2.9,2.3,2.4,4.1h0c-.4,1.5-1.7,2.5-3.2,2.5h0c-.3,0-.6,0-.9-.1ZM228.2,104.3c-1.8-.4-2.9-2.3-2.4-4.1h0c.5-1.8,2.3-2.9,4.1-2.4h0c1.8.4,2.8,2.3,2.4,4.1h0c-.4,1.5-1.8,2.5-3.3,2.5h0c-.3,0-.6,0-.8-.1ZM215.2,100.9c-1.8-.5-2.9-2.3-2.4-4.1h0c.5-1.8,2.3-2.9,4.1-2.4h0c1.8.5,2.9,2.3,2.4,4.1h0c-.4,1.5-1.7,2.5-3.3,2.5h0c-.3,0-.5,0-.9,0Z"/>
      <path class="st3" d="M569.9,144.8c0-1.9,1.5-3.4,3.4-3.4h0c1.9,0,3.4,1.5,3.4,3.4h0c0,1.8-1.5,3.4-3.4,3.4h0c-1.8,0-3.4-1.5-3.4-3.4ZM556.5,144.8c0-1.9,1.5-3.4,3.4-3.4h0c1.8,0,3.4,1.5,3.4,3.4h0c0,1.8-1.5,3.4-3.4,3.4h0c-1.8,0-3.4-1.5-3.4-3.4ZM543,144.8c0-1.9,1.5-3.4,3.4-3.4h0c1.9,0,3.4,1.5,3.4,3.4h0c0,1.8-1.5,3.4-3.4,3.4h0c-1.8,0-3.4-1.5-3.4-3.4ZM529.5,144.8c0-1.9,1.5-3.4,3.4-3.4h0c1.9,0,3.4,1.5,3.4,3.4h0c0,1.8-1.5,3.4-3.4,3.4h0c-1.8,0-3.4-1.5-3.4-3.4ZM516.1,144.8c0-1.9,1.5-3.4,3.4-3.4h0c1.9,0,3.4,1.5,3.4,3.4h0c0,1.8-1.5,3.4-3.4,3.4h0c-1.8,0-3.4-1.5-3.4-3.4ZM502.6,144.8c0-1.9,1.5-3.4,3.4-3.4h0c1.9,0,3.4,1.5,3.4,3.4h0c0,1.8-1.5,3.4-3.4,3.4h0c-1.8,0-3.4-1.5-3.4-3.4ZM489.2,144.8c0-1.9,1.5-3.4,3.4-3.4h0c1.8,0,3.4,1.5,3.4,3.4h0c0,1.8-1.5,3.4-3.4,3.4h0c-1.8,0-3.4-1.5-3.4-3.4ZM475.7,144.8c0-1.9,1.5-3.4,3.4-3.4h0c1.9,0,3.4,1.5,3.4,3.4h0c0,1.8-1.5,3.4-3.4,3.4h0c-1.8,0-3.4-1.5-3.4-3.4ZM462.2,144.8c0-1.9,1.5-3.4,3.4-3.4h0c1.8,0,3.4,1.5,3.4,3.4h0c0,1.8-1.5,3.4-3.4,3.4h0c-1.8,0-3.4-1.5-3.4-3.4ZM448.8,144.8c0-1.9,1.5-3.4,3.4-3.4h0c1.9,0,3.4,1.5,3.4,3.4h0c0,1.8-1.5,3.4-3.4,3.4h0c-1.8,0-3.4-1.5-3.4-3.4ZM327.7,144.8c0-1.9,1.5-3.4,3.4-3.4h0c1.8,0,3.4,1.5,3.4,3.4h0c0,1.8-1.5,3.4-3.4,3.4h0c-1.8,0-3.4-1.5-3.4-3.4ZM314.2,144.8c0-1.9,1.5-3.4,3.4-3.4h0c1.9,0,3.4,1.5,3.4,3.4h0c0,1.8-1.5,3.4-3.4,3.4h0c-1.8,0-3.4-1.5-3.4-3.4ZM300.7,144.8c0-1.9,1.5-3.4,3.4-3.4h0c1.8,0,3.4,1.5,3.4,3.4h0c0,1.8-1.5,3.4-3.4,3.4h0c-1.8,0-3.4-1.5-3.4-3.4ZM287.3,144.8c0-1.9,1.5-3.4,3.4-3.4h0c1.9,0,3.4,1.5,3.4,3.4h0c0,1.8-1.5,3.4-3.4,3.4h0c-1.8,0-3.4-1.5-3.4-3.4ZM273.8,144.8c0-1.9,1.5-3.4,3.4-3.4h0c1.9,0,3.4,1.5,3.4,3.4h0c0,1.8-1.5,3.4-3.4,3.4h0c-1.8,0-3.4-1.5-3.4-3.4ZM260.4,144.8c0-1.9,1.5-3.4,3.4-3.4h0c1.9,0,3.4,1.5,3.4,3.4h0c0,1.8-1.5,3.4-3.4,3.4h0c-1.8,0-3.4-1.5-3.4-3.4ZM246.9,144.8c0-1.9,1.5-3.4,3.4-3.4h0c1.9,0,3.4,1.5,3.4,3.4h0c0,1.8-1.5,3.4-3.4,3.4h0c-1.8,0-3.4-1.5-3.4-3.4ZM233.5,144.8c0-1.9,1.5-3.4,3.4-3.4h0c1.8,0,3.4,1.5,3.4,3.4h0c0,1.8-1.5,3.4-3.4,3.4h0c-1.8,0-3.4-1.5-3.4-3.4ZM220,144.8c0-1.9,1.5-3.4,3.4-3.4h0c1.9,0,3.4,1.5,3.4,3.4h0c0,1.8-1.5,3.4-3.4,3.4h0c-1.8,0-3.4-1.5-3.4-3.4ZM206.5,144.8c0-1.9,1.5-3.4,3.4-3.4h0c1.8,0,3.4,1.5,3.4,3.4h0c0,1.8-1.5,3.4-3.4,3.4h0c-1.8,0-3.4-1.5-3.4-3.4Z"/>
      <path class="st3" d="M212.9,192.7c-.5-1.8.6-3.6,2.4-4.1h0c1.8-.5,3.6.6,4.1,2.4h0c.5,1.8-.6,3.6-2.4,4.1h0c-.3,0-.6.1-.9.1h0c-1.5,0-2.8-1-3.2-2.5ZM225.9,189.3c-.5-1.8.6-3.7,2.4-4.1h0c1.8-.5,3.6.6,4.1,2.4h0c.4,1.8-.6,3.6-2.4,4.1h0c-.3,0-.6,0-.9,0h0c-1.5,0-2.8-1-3.2-2.5ZM238.9,185.8c-.5-1.8.6-3.6,2.4-4.1h0c1.8-.5,3.6.6,4.1,2.4h0c.5,1.8-.6,3.6-2.4,4.1h0c-.3,0-.6,0-.9,0h0c-1.5,0-2.9-1-3.2-2.5ZM251.8,182.3c-.5-1.8.6-3.6,2.4-4.1h0c1.8-.4,3.6.6,4.1,2.4h0c.5,1.8-.6,3.6-2.4,4.1h0c-.3,0-.6.1-.8.1h0c-1.5,0-2.9-1-3.3-2.5ZM264.9,178.8c-.5-1.8.6-3.7,2.4-4.1h0c1.8-.5,3.6.6,4.1,2.4h0c.5,1.8-.6,3.6-2.4,4.1h0c-.3,0-.6,0-.9,0h0c-1.5,0-2.9-1-3.3-2.5ZM277.9,175.3c-.5-1.8.6-3.6,2.4-4.1h0c1.8-.5,3.6.6,4.1,2.4h0c.4,1.8-.6,3.6-2.4,4.1h0c-.3,0-.6.1-.9.1h0c-1.5,0-2.8-1-3.2-2.5ZM290.9,171.8c-.5-1.8.6-3.6,2.4-4.1h0c1.8-.4,3.6.6,4.1,2.4h0c.4,1.8-.6,3.7-2.4,4.1h0c-.3,0-.6.1-.9.1h0c-1.5,0-2.8-1-3.2-2.5ZM303.8,168.4c-.4-1.8.6-3.7,2.4-4.1h0c1.8-.5,3.7.6,4.1,2.4h0c.5,1.8-.6,3.6-2.4,4.1h0c-.3,0-.6,0-.8,0h0c-1.5,0-2.9-1-3.3-2.5ZM316.9,164.9c-.5-1.8.6-3.6,2.4-4.1h0c1.8-.5,3.6.6,4.1,2.4h0c.5,1.8-.6,3.6-2.4,4.1h0c-.3,0-.6,0-.9,0h0c-1.5,0-2.8-1-3.2-2.5ZM329.9,161.4c-.5-1.8.6-3.6,2.4-4.1h0c1.8-.4,3.6.6,4.1,2.4h0c.5,1.8-.6,3.7-2.4,4.1h0c-.3,0-.6.1-.9.1h0c-1.5,0-2.9-1-3.3-2.5ZM446.9,130c-.5-1.8.6-3.6,2.4-4.1h0c1.8-.5,3.6.6,4.1,2.3h0c.5,1.8-.6,3.7-2.4,4.1h0c-.3,0-.6.1-.9.1h0c-1.5,0-2.8-1-3.2-2.5ZM459.9,126.6c-.5-1.8.6-3.6,2.4-4.1h0c1.8-.5,3.6.6,4.1,2.4h0c.4,1.8-.6,3.6-2.4,4.1h0c-.3,0-.6,0-.9,0h0c-1.5,0-2.8-1-3.2-2.5ZM472.8,123.1c-.4-1.8.6-3.6,2.4-4.1h0c1.8-.5,3.7.6,4.1,2.4h0c.5,1.8-.6,3.6-2.4,4.1h0c-.3,0-.6.1-.8.1h0c-1.5,0-2.8-1-3.3-2.5ZM485.8,119.6c-.4-1.8.6-3.6,2.4-4.1h0c1.8-.5,3.7.6,4.1,2.4h0c.5,1.8-.6,3.6-2.4,4.1h0c-.3,0-.6.1-.9.1h0c-1.5,0-2.8-1-3.2-2.5ZM498.9,116.1c-.5-1.8.6-3.6,2.4-4.1h0c1.8-.5,3.6.6,4.1,2.4h0c.5,1.8-.6,3.6-2.4,4.1h0c-.3,0-.6,0-.9,0h0c-1.5,0-2.9-1-3.3-2.5ZM511.9,112.6c-.5-1.8.6-3.6,2.4-4.1h0c1.8-.4,3.6.6,4.1,2.4h0c.5,1.8-.6,3.7-2.4,4.1h0c-.3,0-.6.1-.9.1h0c-1.5,0-2.8-1-3.2-2.5ZM524.9,109.1c-.5-1.8.6-3.6,2.4-4.1h0c1.8-.5,3.6.6,4.1,2.4h0c.5,1.8-.5,3.6-2.4,4.1h0c-.3,0-.6,0-.9,0h0c-1.5,0-2.8-1-3.2-2.5ZM537.8,105.6c-.4-1.8.6-3.6,2.4-4.1h0c1.8-.5,3.7.6,4.1,2.4h0c.5,1.8-.6,3.6-2.4,4.1h0c-.3,0-.6.1-.8.1h0c-1.5,0-2.9-1-3.3-2.5ZM550.9,102.1c-.5-1.8.6-3.6,2.4-4.1h0c1.8-.5,3.6.6,4.1,2.4h0c.5,1.8-.6,3.6-2.4,4.1h0c-.3,0-.6.1-.9.1h0c-1.5,0-2.9-1-3.3-2.5ZM563.9,98.7c-.5-1.8.6-3.7,2.4-4.1h0c1.8-.5,3.6.6,4.1,2.4h0c.5,1.8-.6,3.6-2.4,4.1h0c-.3,0-.6,0-.9,0h0c-1.5,0-2.8-1-3.2-2.5Z"/>
      <path class="st3" d="M231.4,237.4c-.9-1.6-.4-3.7,1.2-4.6h0c1.6-.9,3.7-.4,4.6,1.3h0c.9,1.6.4,3.6-1.3,4.6h0c-.5.3-1.1.4-1.7.4h0c-1.2,0-2.3-.6-2.9-1.7ZM243.1,230.7c-.9-1.6-.4-3.7,1.2-4.6h0c1.6-.9,3.7-.4,4.6,1.3h0c.9,1.6.4,3.6-1.2,4.6h0c-.5.3-1.1.4-1.7.4h0c-1.1,0-2.2-.6-2.9-1.7ZM254.7,224c-.9-1.6-.4-3.7,1.3-4.6h0c1.6-.9,3.7-.4,4.6,1.3h0c.9,1.6.4,3.6-1.2,4.6h0c-.5.3-1.1.4-1.7.4h0c-1.1,0-2.3-.6-2.9-1.7ZM266.3,217.3c-.9-1.6-.4-3.7,1.3-4.6h0c1.6-.9,3.6-.4,4.6,1.3h0c.9,1.6.4,3.6-1.2,4.6h0c-.5.3-1.1.4-1.7.4h0c-1.2,0-2.3-.6-2.9-1.7ZM278,210.5c-.9-1.6-.4-3.7,1.2-4.6h0c1.6-.9,3.7-.4,4.6,1.3h0c.9,1.6.4,3.6-1.3,4.6h0c-.5.3-1.1.4-1.7.4h0c-1.2,0-2.3-.6-2.9-1.7ZM289.7,203.8c-.9-1.6-.4-3.7,1.2-4.6h0c1.6-.9,3.7-.4,4.6,1.3h0c.9,1.6.4,3.6-1.3,4.6h0c-.5.3-1.1.4-1.7.4h0c-1.2,0-2.3-.6-2.9-1.7ZM301.3,197.1c-.9-1.6-.4-3.7,1.2-4.6h0c1.6-.9,3.7-.4,4.6,1.3h0c.9,1.6.4,3.7-1.3,4.6h0c-.5.3-1.1.4-1.7.4h0c-1.2,0-2.3-.6-2.9-1.7ZM312.9,190.3c-.9-1.6-.4-3.7,1.3-4.6h0c1.6-.9,3.7-.4,4.6,1.3h0c.9,1.6.4,3.7-1.2,4.6h0c-.5.3-1.1.4-1.7.4h0c-1.2,0-2.3-.6-3-1.7ZM324.6,183.6c-.9-1.6-.4-3.7,1.3-4.6h0c1.6-.9,3.6-.4,4.6,1.3h0c.9,1.6.4,3.6-1.2,4.6h0c-.5.3-1.1.4-1.7.4h0c-1.2,0-2.3-.6-2.9-1.7ZM336.3,176.9c-.9-1.6-.4-3.7,1.2-4.6h0c1.6-.9,3.7-.4,4.6,1.3h0c.9,1.6.4,3.6-1.3,4.6h0c-.5.3-1.1.4-1.7.4h0c-1.2,0-2.3-.6-2.9-1.7ZM347.9,170.2c-.9-1.6-.4-3.7,1.2-4.6h0c1.6-.9,3.7-.4,4.6,1.3h0c.9,1.6.4,3.6-1.3,4.6h0c-.5.3-1.1.4-1.7.4h0c-1.2,0-2.3-.6-2.9-1.7ZM441.2,116.3c-.9-1.6-.4-3.7,1.3-4.6h0c1.6-.9,3.6-.4,4.6,1.3h0c.9,1.6.4,3.6-1.2,4.6h0c-.5.3-1.1.4-1.7.4h0c-1.2,0-2.3-.6-2.9-1.7ZM452.8,109.6c-.9-1.6-.4-3.7,1.3-4.6h0c1.6-.9,3.6-.4,4.6,1.3h0c.9,1.6.4,3.6-1.3,4.6h0c-.5.3-1.1.4-1.7.4h0c-1.2,0-2.3-.6-2.9-1.7ZM464.5,102.9c-.9-1.6-.4-3.7,1.2-4.6h0c1.6-.9,3.7-.4,4.6,1.3h0c.9,1.6.4,3.6-1.3,4.6h0c-.5.3-1.1.4-1.7.4h0c-1.2,0-2.3-.6-2.9-1.7ZM476.2,96.1c-.9-1.6-.4-3.7,1.2-4.6h0c1.6-.9,3.7-.4,4.6,1.3h0c.9,1.6.4,3.7-1.3,4.6h0c-.5.3-1.1.4-1.7.4h0c-1.2,0-2.3-.6-2.9-1.7ZM487.8,89.4c-.9-1.6-.4-3.7,1.2-4.6h0c1.6-.9,3.7-.4,4.6,1.3h0c.9,1.6.4,3.7-1.2,4.6h0c-.5.3-1.1.4-1.7.4h0c-1.2,0-2.3-.6-2.9-1.7ZM499.4,82.7c-.9-1.6-.4-3.7,1.3-4.6h0c1.6-.9,3.7-.4,4.6,1.3h0c.9,1.6.4,3.7-1.2,4.6h0c-.5.3-1.1.4-1.7.4h0c-1.2,0-2.3-.6-3-1.7ZM511.1,75.9c-.9-1.6-.4-3.7,1.3-4.6h0c1.6-.9,3.6-.4,4.6,1.3h0c.9,1.6.4,3.6-1.2,4.6h0c-.5.3-1.1.4-1.7.4h0c-1.2,0-2.3-.6-2.9-1.7ZM522.8,69.2c-.9-1.6-.4-3.7,1.2-4.6h0c1.6-.9,3.7-.4,4.6,1.3h0c.9,1.6.4,3.6-1.3,4.6h0c-.5.3-1.1.4-1.7.4h0c-1.2,0-2.3-.6-2.9-1.7ZM534.4,62.5c-.9-1.6-.4-3.7,1.2-4.6h0c1.6-.9,3.7-.4,4.6,1.3h0c.9,1.6.4,3.6-1.3,4.6h0c-.5.3-1.1.4-1.7.4h0c-1.2,0-2.3-.6-2.9-1.7ZM546.1,55.8c-.9-1.6-.4-3.7,1.2-4.6h0c1.6-.9,3.7-.4,4.6,1.3h0c.9,1.6.4,3.6-1.3,4.6h0c-.5.3-1.1.4-1.7.4h0c-1.2,0-2.3-.6-2.9-1.7Z"/>
      <path class="st3" d="M260.9,275.9c-1.3-1.3-1.3-3.5,0-4.8h0c1.3-1.3,3.4-1.3,4.7,0h0c1.3,1.3,1.3,3.5,0,4.8h0c-.6.6-1.5,1-2.3,1h0c-.9,0-1.7-.4-2.4-1ZM270.4,266.3c-1.3-1.3-1.3-3.4,0-4.8h0c1.3-1.3,3.4-1.3,4.8,0h0c1.3,1.3,1.3,3.5,0,4.8h0c-.7.7-1.5,1-2.4,1h0c-.9,0-1.7-.3-2.4-1ZM279.9,256.8c-1.3-1.3-1.3-3.5,0-4.8h0c1.3-1.3,3.4-1.3,4.8,0h0c1.3,1.3,1.3,3.5,0,4.8h0c-.7.7-1.5,1-2.4,1h0c-.9,0-1.8-.3-2.4-1ZM289.4,247.3c-1.3-1.3-1.3-3.5,0-4.8h0c1.3-1.3,3.5-1.3,4.8,0h0c1.3,1.3,1.3,3.5,0,4.8h0c-.7.7-1.5,1-2.4,1h0c-.9,0-1.7-.3-2.4-1ZM298.9,237.8c-1.3-1.3-1.3-3.5,0-4.8h0c1.3-1.3,3.5-1.3,4.8,0h0c1.3,1.3,1.3,3.5,0,4.8h0c-.7.7-1.5,1-2.4,1h0c-.9,0-1.7-.3-2.4-1ZM308.4,228.3c-1.3-1.3-1.3-3.5,0-4.8h0c1.3-1.3,3.5-1.3,4.8,0h0c1.3,1.3,1.3,3.5,0,4.8h0c-.7.7-1.5,1-2.4,1h0c-.8,0-1.7-.3-2.4-1ZM317.9,218.7c-1.3-1.3-1.3-3.5,0-4.8h0c1.3-1.3,3.5-1.3,4.8,0h0c1.3,1.3,1.3,3.4,0,4.8h0c-.6.7-1.5,1-2.4,1h0c-.8,0-1.7-.3-2.4-1ZM327.4,209.2c-1.3-1.3-1.3-3.4,0-4.7h0c1.3-1.3,3.5-1.3,4.8,0h0c1.3,1.3,1.3,3.4,0,4.7h0c-.7.7-1.5,1-2.4,1h0c-.8,0-1.7-.4-2.4-1ZM337,199.7c-1.3-1.3-1.3-3.4,0-4.8h0c1.3-1.3,3.4-1.3,4.8,0h0c1.3,1.3,1.3,3.5,0,4.8h0c-.7.7-1.5,1-2.4,1h0c-.9,0-1.7-.4-2.4-1ZM346.5,190.2c-1.3-1.3-1.3-3.4,0-4.8h0c1.3-1.3,3.5-1.3,4.8,0h0c1.3,1.3,1.3,3.5,0,4.8h0c-.7.7-1.5,1-2.4,1h0c-.9,0-1.7-.3-2.4-1ZM422.6,114c-1.3-1.3-1.3-3.4,0-4.8h0c1.3-1.3,3.5-1.3,4.8,0h0c1.3,1.3,1.3,3.5,0,4.8h0c-.7.7-1.5,1-2.4,1h0c-.8,0-1.7-.3-2.4-1ZM432.1,104.5c-1.3-1.3-1.3-3.5,0-4.8h0c1.3-1.3,3.5-1.3,4.8,0h0c1.3,1.3,1.3,3.5,0,4.8h0c-.7.7-1.5,1-2.4,1h0c-.8,0-1.7-.3-2.4-1ZM441.7,95c-1.3-1.3-1.3-3.5,0-4.8h0c1.3-1.3,3.5-1.3,4.8,0h0c1.3,1.3,1.3,3.5,0,4.8h0c-.7.7-1.5,1-2.4,1h0c-.8,0-1.7-.3-2.4-1ZM451.2,85.5c-1.3-1.3-1.3-3.5,0-4.8h0c1.3-1.3,3.5-1.3,4.8,0h0c1.3,1.3,1.3,3.4,0,4.8h0c-.7.7-1.5,1-2.4,1h0c-.8,0-1.7-.3-2.4-1ZM460.7,76c-1.3-1.3-1.3-3.5,0-4.8h0c1.3-1.3,3.5-1.3,4.8,0h0c1.3,1.3,1.3,3.4,0,4.8h0c-.6.6-1.5,1-2.4,1h0c-.9,0-1.7-.4-2.4-1ZM470.2,66.5c-1.3-1.3-1.3-3.5,0-4.8h0c1.3-1.3,3.5-1.3,4.8,0h0c1.3,1.3,1.3,3.4,0,4.8h0c-.7.6-1.5,1-2.4,1h0c-.9,0-1.7-.4-2.4-1ZM479.7,56.9c-1.3-1.3-1.3-3.4,0-4.8h0c1.3-1.3,3.5-1.3,4.8,0h0c1.3,1.3,1.3,3.5,0,4.8h0c-.7.7-1.5,1-2.4,1h0c-.9,0-1.7-.4-2.4-1ZM489.3,47.4c-1.3-1.3-1.3-3.4,0-4.8h0c1.3-1.3,3.4-1.3,4.8,0h0c1.3,1.3,1.3,3.5,0,4.8h0c-.7.7-1.5,1-2.4,1h0c-.9,0-1.7-.3-2.4-1ZM498.8,37.9c-1.3-1.3-1.3-3.5,0-4.8h0c1.3-1.3,3.4-1.3,4.8,0h0c1.3,1.3,1.3,3.5,0,4.8h0c-.7.7-1.5,1-2.4,1h0c-.9,0-1.8-.3-2.4-1ZM508.3,28.4c-1.3-1.3-1.3-3.5,0-4.8h0c1.3-1.3,3.5-1.3,4.8,0h0c1.3,1.3,1.3,3.5,0,4.8h0c-.7.7-1.5,1-2.4,1h0c-.9,0-1.8-.3-2.4-1ZM517.8,18.9c-1.3-1.3-1.3-3.5,0-4.8h0c1.3-1.3,3.5-1.3,4.8,0h0c1.3,1.3,1.3,3.5,0,4.8h0c-.7.7-1.5,1-2.4,1h0c-.9,0-1.7-.3-2.4-1Z"/>
      <path class="st3" d="M299.2,305.3c-1.6-.9-2.2-3-1.2-4.6h0c.9-1.6,3-2.2,4.6-1.3h0c1.6.9,2.2,3,1.3,4.6h0c-.6,1.1-1.7,1.7-2.9,1.7h0c-.6,0-1.2-.1-1.7-.5ZM306,293.6c-1.6-.9-2.2-3-1.2-4.6h0c.9-1.6,3-2.2,4.6-1.2h0c1.6.9,2.2,3,1.3,4.6h0c-.6,1.1-1.8,1.7-2.9,1.7h0c-.6,0-1.2-.1-1.7-.4ZM312.7,282c-1.6-.9-2.2-3-1.2-4.6h0c.9-1.6,3-2.2,4.6-1.2h0c1.6.9,2.2,3,1.3,4.6h0c-.6,1.1-1.7,1.7-2.9,1.7h0c-.6,0-1.2-.2-1.7-.4ZM319.4,270.3c-1.6-.9-2.2-3-1.2-4.6h0c.9-1.6,3-2.2,4.6-1.2h0c1.6.9,2.2,3,1.3,4.6h0c-.6,1.1-1.8,1.7-2.9,1.7h0c-.6,0-1.2-.1-1.7-.5ZM326.1,258.7c-1.6-.9-2.2-3-1.2-4.6h0c.9-1.6,3-2.2,4.6-1.2h0c1.6.9,2.2,3,1.3,4.6h0c-.6,1.1-1.7,1.7-2.9,1.7h0c-.6,0-1.2-.1-1.7-.4ZM332.9,247c-1.6-.9-2.2-3-1.2-4.6h0c.9-1.6,3-2.2,4.6-1.3h0c1.6.9,2.2,3,1.3,4.6h0c-.6,1.1-1.7,1.7-2.9,1.7h0c-.6,0-1.2-.1-1.7-.4ZM339.6,235.3c-1.6-.9-2.2-3-1.2-4.6h0c.9-1.6,3-2.2,4.6-1.2h0c1.6.9,2.2,3,1.3,4.6h0c-.6,1.1-1.7,1.7-2.9,1.7h0c-.6,0-1.2-.1-1.7-.5ZM346.3,223.7c-1.6-.9-2.2-3-1.2-4.6h0c.9-1.6,3-2.2,4.6-1.2h0c1.6.9,2.2,3,1.3,4.6h0c-.6,1.1-1.7,1.7-2.9,1.7h0c-.6,0-1.2-.2-1.7-.5ZM353.1,212.1c-1.6-.9-2.2-3-1.2-4.6h0c.9-1.6,3-2.2,4.6-1.2h0c1.6.9,2.2,3,1.3,4.6h0c-.6,1.1-1.7,1.7-2.9,1.7h0c-.6,0-1.2-.1-1.7-.4ZM420.3,95.5c-1.6-.9-2.2-3-1.2-4.6h0c.9-1.6,3-2.2,4.6-1.2h0c1.6.9,2.2,3,1.3,4.6h0c-.6,1.1-1.7,1.7-2.9,1.7h0c-.6,0-1.2-.2-1.7-.5ZM427.1,83.8c-1.6-.9-2.2-3-1.2-4.6h0c.9-1.6,3-2.2,4.6-1.2h0c1.6.9,2.2,3,1.3,4.6h0c-.6,1.1-1.7,1.7-2.9,1.7h0c-.6,0-1.2-.1-1.7-.4ZM433.8,72.2c-1.6-.9-2.2-3-1.2-4.6h0c.9-1.6,3-2.2,4.6-1.3h0c1.6.9,2.2,3,1.3,4.6h0c-.6,1.1-1.7,1.7-2.9,1.7h0c-.6,0-1.2-.1-1.7-.4ZM440.5,60.5c-1.6-.9-2.2-3-1.2-4.6h0c.9-1.6,3-2.2,4.6-1.3h0c1.6.9,2.2,3,1.3,4.6h0c-.6,1.1-1.7,1.7-2.9,1.7h0c-.6,0-1.2-.1-1.7-.4ZM447.3,48.9c-1.6-.9-2.2-3-1.2-4.6h0c.9-1.6,3-2.2,4.6-1.3h0c1.6.9,2.2,3,1.3,4.6h0c-.6,1.1-1.7,1.7-2.9,1.7h0c-.6,0-1.2-.2-1.7-.4ZM454,37.2c-1.6-.9-2.2-3-1.2-4.6h0c.9-1.6,3-2.2,4.6-1.2h0c1.6.9,2.2,3,1.3,4.6h0c-.6,1.1-1.7,1.7-2.9,1.7h0c-.6,0-1.2-.2-1.7-.4ZM460.7,25.6c-1.6-.9-2.2-3-1.2-4.6h0c.9-1.6,3-2.2,4.6-1.2h0c1.6.9,2.2,3,1.3,4.6h0c-.6,1.1-1.7,1.7-2.9,1.7h0c-.6,0-1.2-.1-1.7-.4ZM467.5,13.9c-1.6-.9-2.2-3-1.2-4.6h0c.9-1.6,3-2.2,4.6-1.3h0c1.6.9,2.2,3,1.3,4.6h0c-.6,1.1-1.7,1.7-2.9,1.7h0c-.6,0-1.2-.1-1.7-.4ZM474.2,2.2c-1.6-.9-2.2-3-1.2-4.6h0c.9-1.6,3-2.2,4.6-1.3h0c1.6.9,2.2,3,1.3,4.6h0c-.6,1.1-1.7,1.7-2.9,1.7h0c-.6,0-1.2-.1-1.7-.4ZM480.9-9.4c-1.6-.9-2.2-3-1.2-4.6h0c.9-1.6,3-2.2,4.6-1.2h0c1.6.9,2.2,3,1.3,4.6h0c-.6,1.1-1.7,1.7-2.9,1.7h0c-.6,0-1.2-.1-1.7-.4Z"/>
      <path class="st3" d="M343.9,323.8c-1.8-.5-2.9-2.3-2.4-4.1h0c.5-1.8,2.3-2.9,4.1-2.4h0c1.8.5,2.9,2.3,2.4,4.1h0c-.4,1.5-1.7,2.5-3.3,2.5h0c-.3,0-.6,0-.8-.1ZM347.4,310.8c-1.8-.5-2.9-2.3-2.4-4.1h0c.5-1.8,2.3-2.8,4.1-2.3h0c1.8.5,2.9,2.3,2.4,4.1h0c-.4,1.5-1.7,2.5-3.2,2.5h0c-.3,0-.6,0-.8-.1ZM350.9,297.8c-1.8-.4-2.9-2.3-2.4-4.1h0c.5-1.8,2.3-2.9,4.1-2.4h0c1.8.4,2.9,2.3,2.4,4.1h0c-.4,1.5-1.7,2.5-3.2,2.5h0c-.3,0-.6,0-.9-.1ZM354.4,284.8c-1.8-.5-2.9-2.3-2.4-4.1h0c.5-1.8,2.3-2.9,4.1-2.4h0c1.8.5,2.8,2.3,2.4,4.1h0c-.4,1.5-1.8,2.5-3.3,2.5h0c-.3,0-.6,0-.8,0ZM357.9,271.8c-1.7-.5-2.8-2.3-2.4-4.1h0c.5-1.8,2.3-2.9,4.1-2.4h0c1.8.5,2.9,2.3,2.4,4.1h0c-.4,1.5-1.7,2.5-3.2,2.5h0c-.3,0-.6,0-.9-.1ZM361.4,258.8c-1.8-.5-2.9-2.3-2.4-4.1h0c.5-1.8,2.3-2.9,4.1-2.4h0c1.8.5,2.9,2.3,2.4,4.1h0c-.4,1.5-1.7,2.5-3.3,2.5h0c-.3,0-.5,0-.8-.1ZM364.9,245.8c-1.8-.4-2.9-2.3-2.4-4.1h0c.5-1.8,2.3-2.9,4.1-2.4h0c1.7.5,2.9,2.3,2.4,4.1h0c-.4,1.5-1.8,2.5-3.3,2.5h0c-.3,0-.6,0-.8-.1ZM368.3,232.8c-1.7-.5-2.8-2.3-2.4-4.1h0c.5-1.8,2.3-2.9,4.1-2.4h0c1.8.5,2.9,2.3,2.4,4.1h0c-.4,1.5-1.7,2.5-3.2,2.5h0c-.3,0-.6,0-.9,0ZM406.6,89.8c-1.7-.5-2.8-2.3-2.3-4.1h0c.4-1.8,2.3-2.9,4.1-2.4h0c1.8.5,2.9,2.3,2.4,4.1h0c-.4,1.5-1.7,2.5-3.2,2.5h0c-.3,0-.6,0-.9-.1ZM410.1,76.8c-1.8-.4-2.9-2.3-2.4-4.1h0c.5-1.8,2.3-2.8,4.1-2.4h0c1.8.5,2.9,2.3,2.4,4.1h0c-.4,1.5-1.7,2.5-3.3,2.5h0c-.3,0-.6,0-.8-.1ZM413.6,63.8c-1.8-.5-2.9-2.3-2.4-4.1h0c.4-1.8,2.3-2.9,4.1-2.4h0c1.8.4,2.8,2.3,2.4,4.1h0c-.4,1.5-1.8,2.5-3.3,2.5h0c-.3,0-.6,0-.8,0ZM417.1,50.8c-1.8-.5-2.8-2.3-2.4-4.1h0c.5-1.8,2.3-2.9,4.1-2.4h0c1.8.5,2.9,2.3,2.4,4.1h0c-.4,1.5-1.7,2.5-3.2,2.5h0c-.3,0-.6,0-.9,0ZM420.6,37.8c-1.8-.5-2.9-2.3-2.4-4.1h0c.5-1.8,2.3-2.9,4.1-2.4h0c1.8.5,2.9,2.3,2.4,4.1h0c-.4,1.5-1.8,2.5-3.2,2.5h0c-.3,0-.6,0-.9-.1ZM424.1,24.8c-1.8-.5-2.9-2.3-2.4-4.1h0c.4-1.8,2.3-2.8,4.1-2.4h0c1.7.5,2.8,2.3,2.3,4.1h0c-.4,1.5-1.7,2.5-3.2,2.5h0c-.3,0-.6,0-.9-.1ZM427.5,11.8c-1.8-.4-2.8-2.3-2.4-4.1h0c.5-1.8,2.3-2.9,4.1-2.4h0c1.8.5,2.9,2.3,2.4,4.1h0c-.4,1.5-1.7,2.5-3.2,2.5h0c-.3,0-.6,0-.9-.1ZM431-1.2c-1.8-.5-2.9-2.3-2.4-4.1h0c.5-1.8,2.3-2.9,4.1-2.4h0c1.8.4,2.9,2.3,2.4,4.1h0c-.4,1.5-1.8,2.5-3.3,2.5h0c-.3,0-.5,0-.8,0ZM434.5-14.2c-1.8-.5-2.9-2.3-2.4-4.1h0c.5-1.8,2.3-2.9,4.1-2.4h0c1.8.5,2.9,2.3,2.4,4.1h0c-.4,1.5-1.7,2.5-3.2,2.5h0c-.3,0-.6,0-.9,0ZM438-27.2c-1.8-.5-2.9-2.3-2.4-4.1h0c.5-1.8,2.3-2.9,4.1-2.4h0c1.8.5,2.9,2.3,2.4,4.1h0c-.4,1.5-1.7,2.5-3.2,2.5h0c-.3,0-.6,0-.9-.1Z"/>
      <path class="st3" d="M388.5,326.8c0-1.9,1.5-3.4,3.4-3.4h0c1.9,0,3.4,1.5,3.4,3.4h0c0,1.8-1.5,3.4-3.4,3.4h0c-1.8,0-3.4-1.5-3.4-3.4ZM388.5,313.3c0-1.9,1.5-3.4,3.4-3.4h0c1.9,0,3.4,1.5,3.4,3.4h0c0,1.8-1.5,3.4-3.4,3.4h0c-1.8,0-3.4-1.5-3.4-3.4ZM388.5,299.9c0-1.9,1.5-3.4,3.4-3.4h0c1.9,0,3.4,1.5,3.4,3.4h0c0,1.8-1.5,3.4-3.4,3.4h0c-1.8,0-3.4-1.5-3.4-3.4ZM388.5,286.4c0-1.9,1.5-3.4,3.4-3.4h0c1.9,0,3.4,1.5,3.4,3.4h0c0,1.8-1.5,3.4-3.4,3.4h0c-1.8,0-3.4-1.5-3.4-3.4ZM388.5,272.9c0-1.9,1.5-3.4,3.4-3.4h0c1.9,0,3.4,1.5,3.4,3.4h0c0,1.8-1.5,3.4-3.4,3.4h0c-1.8,0-3.4-1.5-3.4-3.4ZM388.5,259.5c0-1.9,1.5-3.4,3.4-3.4h0c1.9,0,3.4,1.5,3.4,3.4h0c0,1.8-1.5,3.4-3.4,3.4h0c-1.8,0-3.4-1.5-3.4-3.4ZM388.5,246c0-1.9,1.5-3.4,3.4-3.4h0c1.9,0,3.4,1.5,3.4,3.4h0c0,1.8-1.5,3.4-3.4,3.4h0c-1.8,0-3.4-1.5-3.4-3.4ZM388.5,232.6c0-1.9,1.5-3.4,3.4-3.4h0c1.9,0,3.4,1.5,3.4,3.4h0c0,1.8-1.5,3.4-3.4,3.4h0c-1.8,0-3.4-1.5-3.4-3.4ZM388.5,84.5c0-1.9,1.5-3.4,3.4-3.4h0c1.9,0,3.4,1.5,3.4,3.4h0c0,1.8-1.5,3.4-3.4,3.4h0c-1.8,0-3.4-1.5-3.4-3.4ZM388.5,71.1c0-1.9,1.5-3.4,3.4-3.4h0c1.9,0,3.4,1.5,3.4,3.4h0c0,1.8-1.5,3.4-3.4,3.4h0c-1.8,0-3.4-1.5-3.4-3.4ZM388.5,57.6c0-1.9,1.5-3.4,3.4-3.4h0c1.9,0,3.4,1.5,3.4,3.4h0c0,1.8-1.5,3.4-3.4,3.4h0c-1.8,0-3.4-1.5-3.4-3.4ZM388.5,44.1c0-1.9,1.5-3.4,3.4-3.4h0c1.9,0,3.4,1.5,3.4,3.4h0c0,1.8-1.5,3.4-3.4,3.4h0c-1.8,0-3.4-1.5-3.4-3.4ZM388.5,30.7c0-1.9,1.5-3.4,3.4-3.4h0c1.9,0,3.4,1.5,3.4,3.4h0c0,1.8-1.5,3.4-3.4,3.4h0c-1.8,0-3.4-1.5-3.4-3.4ZM388.5,17.2c0-1.9,1.5-3.4,3.4-3.4h0c1.9,0,3.4,1.5,3.4,3.4h0c0,1.8-1.5,3.4-3.4,3.4h0c-1.8,0-3.4-1.5-3.4-3.4ZM388.5,3.8c0-1.9,1.5-3.4,3.4-3.4h0c1.9,0,3.4,1.5,3.4,3.4h0c0,1.8-1.5,3.4-3.4,3.4h0c-1.8,0-3.4-1.5-3.4-3.4ZM388.5-9.7c0-1.9,1.5-3.4,3.4-3.4h0c1.9,0,3.4,1.5,3.4,3.4h0c0,1.8-1.5,3.4-3.4,3.4h0c-1.8,0-3.4-1.5-3.4-3.4ZM388.5-23.2c0-1.9,1.5-3.4,3.4-3.4h0c1.9,0,3.4,1.5,3.4,3.4h0c0,1.8-1.5,3.4-3.4,3.4h0c-1.8,0-3.4-1.5-3.4-3.4ZM388.5-36.6c0-1.9,1.5-3.4,3.4-3.4h0c1.9,0,3.4,1.5,3.4,3.4h0c0,1.8-1.5,3.4-3.4,3.4h0c-1.8,0-3.4-1.5-3.4-3.4Z"/>
      <path class="st3" d="M435.8,321.4c-.5-1.8.6-3.6,2.4-4.1h0c1.8-.5,3.6.6,4.1,2.4h0c.5,1.8-.6,3.6-2.4,4.1h0c-.3,0-.6.1-.8.1h0c-1.5,0-2.9-1-3.3-2.5ZM432.3,308.4c-.4-1.8.6-3.6,2.4-4.1h0c1.8-.4,3.7.6,4.1,2.4h0c.5,1.8-.6,3.7-2.4,4.1h0c-.3,0-.6.1-.8.1h0c-1.5,0-2.9-1-3.3-2.5ZM428.8,295.4c-.5-1.8.6-3.6,2.4-4.1h0c1.8-.5,3.6.6,4.1,2.3h0c.4,1.8-.6,3.7-2.4,4.2h0c-.3,0-.6,0-.9,0h0c-1.5,0-2.8-1-3.2-2.5ZM425.3,282.4c-.5-1.8.6-3.6,2.4-4.1h0c1.8-.5,3.6.6,4.1,2.4h0c.5,1.8-.6,3.6-2.4,4.1h0c-.3,0-.6,0-.9,0h0c-1.5,0-2.8-1-3.2-2.5ZM421.9,269.4c-.5-1.8.6-3.6,2.3-4.1h0c1.8-.5,3.7.6,4.1,2.4h0c.5,1.8-.6,3.6-2.4,4.1h0c-.3,0-.6.1-.9.1h0c-1.5,0-2.9-1-3.2-2.5ZM418.4,256.4c-.5-1.8.6-3.6,2.4-4.1h0c1.8-.4,3.6.6,4.1,2.4h0c.5,1.8-.6,3.7-2.4,4.1h0c-.3,0-.6.1-.9.1h0c-1.5,0-2.8-1-3.2-2.5ZM414.9,243.4c-.5-1.8.6-3.6,2.4-4.1h0c1.8-.4,3.6.6,4.1,2.4h0c.5,1.8-.6,3.6-2.4,4.1h0c-.3,0-.6,0-.8,0h0c-1.5,0-2.9-1-3.3-2.5ZM411.4,230.5c-.5-1.8.6-3.7,2.3-4.1h0c1.8-.5,3.7.6,4.1,2.4h0c.5,1.8-.6,3.6-2.4,4.1h0c-.3,0-.6,0-.9,0h0c-1.5,0-2.9-1-3.2-2.5ZM373.1,87.4c-.5-1.8.6-3.6,2.4-4.1h0c1.8-.5,3.6.6,4.1,2.4h0c.5,1.8-.6,3.6-2.4,4.1h0c-.3,0-.6.1-.9.1h0c-1.5,0-2.9-1-3.3-2.5ZM369.6,74.4c-.5-1.8.6-3.6,2.4-4.1h0c1.8-.4,3.6.6,4.1,2.4h0c.4,1.8-.6,3.7-2.4,4.1h0c-.3,0-.6.1-.9.1h0c-1.5,0-2.8-1-3.2-2.5ZM366.1,61.5c-.5-1.8.6-3.7,2.4-4.1h0c1.8-.5,3.6.6,4.1,2.4h0c.5,1.8-.6,3.6-2.4,4.1h0c-.3,0-.6,0-.8,0h0c-1.5,0-2.9-1-3.3-2.5ZM362.6,48.4c-.5-1.8.6-3.6,2.4-4.1h0c1.8-.5,3.7.6,4.1,2.4h0c.5,1.8-.6,3.6-2.4,4.1h0c-.3,0-.6,0-.9,0h0c-1.5,0-2.9-1-3.3-2.5ZM359.2,35.4c-.5-1.8.6-3.6,2.4-4.1h0c1.8-.5,3.6.6,4.1,2.4h0c.4,1.8-.6,3.6-2.4,4.1h0c-.3,0-.6,0-.9,0h0c-1.5,0-2.8-1-3.2-2.5ZM355.7,22.4c-.5-1.8.6-3.6,2.4-4.1h0c1.8-.4,3.6.6,4.1,2.4h0c.5,1.8-.6,3.7-2.4,4.1h0c-.3,0-.6.1-.9.1h0c-1.5,0-2.9-1-3.3-2.5ZM352.2,9.4c-.5-1.8.6-3.6,2.4-4.1h0c1.8-.5,3.7.6,4.1,2.4h0c.5,1.8-.6,3.6-2.3,4.1h0c-.3,0-.6.1-.9.1h0c-1.5,0-2.8-1-3.3-2.5ZM348.7-3.5c-.5-1.8.6-3.7,2.4-4.1h0c1.8-.5,3.6.6,4.1,2.4h0c.4,1.8-.6,3.6-2.4,4.1h0c-.3,0-.6,0-.9,0h0c-1.5,0-2.8-1-3.2-2.5ZM345.2-16.6c-.5-1.8.6-3.6,2.4-4.1h0c1.8-.5,3.6.6,4.1,2.4h0c.5,1.8-.6,3.6-2.4,4.1h0c-.3,0-.6,0-.9,0h0c-1.5,0-2.9-1-3.3-2.5ZM341.7-29.6c-.5-1.8.6-3.6,2.4-4.1h0c1.8-.5,3.6.6,4.1,2.4h0c.4,1.8-.6,3.6-2.4,4.1h0c-.3,0-.6.1-.9.1h0c-1.5,0-2.8-1-3.2-2.5Z"/>
      <path class="st3" d="M480,304.1c-.9-1.6-.4-3.7,1.2-4.6h0c1.6-.9,3.7-.4,4.6,1.3h0c.9,1.6.4,3.6-1.3,4.6h0c-.5.3-1.1.5-1.7.5h0c-1.2,0-2.3-.6-2.9-1.7ZM473.3,292.4c-.9-1.6-.4-3.7,1.2-4.6h0c1.6-.9,3.7-.4,4.6,1.3h0c.9,1.6.4,3.7-1.3,4.6h0c-.5.3-1.1.4-1.7.4h0c-1.2,0-2.3-.6-2.9-1.7ZM466.6,280.7c-.9-1.6-.4-3.7,1.2-4.6h0c1.6-.9,3.7-.4,4.6,1.2h0c.9,1.6.4,3.7-1.3,4.6h0c-.5.3-1.1.4-1.7.4h0c-1.2,0-2.3-.6-2.9-1.7ZM459.8,269.1c-.9-1.6-.4-3.6,1.2-4.6h0c1.6-.9,3.7-.4,4.6,1.2h0c.9,1.6.4,3.7-1.3,4.6h0c-.5.3-1.1.5-1.7.5h0c-1.2,0-2.3-.6-2.9-1.7ZM453.1,257.5c-.9-1.6-.4-3.7,1.2-4.6h0c1.6-.9,3.7-.4,4.6,1.2h0c.9,1.6.4,3.7-1.3,4.6h0c-.5.3-1.1.4-1.7.4h0c-1.2,0-2.3-.6-2.9-1.7ZM446.4,245.8c-.9-1.6-.4-3.7,1.2-4.6h0c1.6-.9,3.7-.4,4.6,1.3h0c.9,1.6.4,3.6-1.3,4.6h0c-.5.3-1.1.4-1.7.4h0c-1.2,0-2.3-.6-2.9-1.7ZM439.6,234.1c-.9-1.6-.4-3.7,1.2-4.6h0c1.6-.9,3.7-.4,4.6,1.3h0c.9,1.6.4,3.7-1.3,4.6h0c-.5.3-1.1.5-1.7.5h0c-1.2,0-2.3-.6-2.9-1.7ZM432.9,222.5c-.9-1.6-.4-3.7,1.2-4.6h0c1.6-.9,3.7-.4,4.6,1.2h0c.9,1.6.4,3.7-1.3,4.6h0c-.5.3-1.1.4-1.7.4h0c-1.2,0-2.3-.6-2.9-1.7ZM426.2,210.8c-.9-1.6-.4-3.6,1.2-4.6h0c1.6-.9,3.7-.4,4.6,1.2h0c.9,1.6.4,3.7-1.3,4.6h0c-.5.3-1.1.4-1.7.4h0c-1.2,0-2.3-.6-2.9-1.7ZM358.9,94.2c-.9-1.6-.4-3.7,1.2-4.6h0c1.6-.9,3.7-.4,4.6,1.2h0c.9,1.6.4,3.7-1.3,4.6h0c-.5.3-1.1.5-1.7.5h0c-1.2,0-2.3-.6-2.9-1.7ZM352.2,82.6c-.9-1.6-.4-3.6,1.2-4.6h0c1.6-.9,3.7-.4,4.6,1.2h0c.9,1.6.4,3.7-1.3,4.6h0c-.5.3-1.1.4-1.7.4h0c-1.2,0-2.3-.6-2.9-1.7ZM345.4,71c-.9-1.6-.4-3.7,1.2-4.6h0c1.6-.9,3.7-.4,4.6,1.3h0c.9,1.6.4,3.6-1.3,4.6h0c-.5.3-1.1.4-1.7.4h0c-1.2,0-2.3-.6-2.9-1.7ZM338.7,59.3c-.9-1.6-.4-3.7,1.2-4.6h0c1.6-.9,3.7-.4,4.6,1.3h0c.9,1.6.4,3.7-1.3,4.6h0c-.5.3-1.1.4-1.7.4h0c-1.2,0-2.3-.6-2.9-1.7ZM332,47.6c-.9-1.6-.4-3.7,1.2-4.6h0c1.6-.9,3.7-.4,4.6,1.3h0c.9,1.6.4,3.7-1.3,4.6h0c-.5.3-1.1.4-1.7.4h0c-1.2,0-2.3-.6-2.9-1.7ZM325.2,36c-.9-1.6-.4-3.7,1.2-4.6h0c1.6-.9,3.7-.4,4.6,1.2h0c.9,1.6.4,3.7-1.3,4.6h0c-.5.3-1.1.4-1.7.4h0c-1.2,0-2.3-.6-2.9-1.7ZM318.5,24.3c-.9-1.6-.4-3.6,1.3-4.6h0c1.6-.9,3.6-.4,4.6,1.2h0c.9,1.6.4,3.7-1.2,4.6h0c-.5.3-1.1.4-1.7.4h0c-1.2,0-2.3-.6-2.9-1.7ZM311.8,12.7c-.9-1.6-.4-3.7,1.3-4.6h0c1.6-.9,3.6-.4,4.6,1.3h0c.9,1.6.4,3.6-1.2,4.6h0c-.5.3-1.1.4-1.7.4h0c-1.2,0-2.3-.6-2.9-1.7ZM305.1,1c-.9-1.6-.4-3.7,1.3-4.6h0c1.6-.9,3.6-.4,4.6,1.3h0c.9,1.6.4,3.7-1.2,4.6h0c-.5.3-1.1.4-1.7.4h0c-1.2,0-2.3-.6-2.9-1.7ZM298.3-10.6c-.9-1.6-.4-3.7,1.3-4.6h0c1.6-.9,3.6-.4,4.6,1.2h0c.9,1.6.4,3.7-1.2,4.6h0c-.5.3-1.1.5-1.7.5h0c-1.2,0-2.3-.6-2.9-1.7Z"/>
      <path class="st3" d="M427.1,126.3h-18.8c2.6-3.4,4.2-7.7,4.2-12.4,0-11.3-9.2-20.5-20.5-20.5s-20.5,9.2-20.5,20.5,1.6,8.9,4.2,12.4h-18.8c-8.8,0-15.9,6.6-15.9,14.8s7.1,14.8,15.9,14.8h9.6v45.2c0,8.2,6.6,14.8,14.8,14.8s8-1.8,10.7-4.6c2.7,2.8,6.5,4.6,10.7,4.6,8.2,0,14.8-6.6,14.8-14.8v-45.2h9.6c8.8,0,15.9-6.6,15.9-14.8s-7.1-14.8-15.9-14.8Z"/>
    </g>
    <path class="st2" d="M504.7,322.6h-198.8c-15,0-27.2-12.2-27.1-27.3l.2-27.6h226.1l-.3,54.9Z"/>
    <g>
      <path class="st6" d="M302,285.2h9.9c2.4,0,4.4.7,5.6,1.9s1.5,2.2,1.5,3.6h0c0,2.5-1.3,3.8-2.8,4.7,2.5.9,4,2.4,4,5.2h0c0,4-3.2,5.9-8,5.9h-10.1v-21.3ZM314.3,291.5c0-1.4-1.1-2.2-3.1-2.2h-4.6v4.5h4.3c2.1,0,3.4-.7,3.4-2.3h0ZM312,297.7h-5.4v4.7h5.6c2.1,0,3.3-.7,3.3-2.3h0c0-1.5-1.1-2.4-3.5-2.4Z"/>
      <path class="st6" d="M331.3,285h4.3l9.1,21.5h-4.9l-1.9-4.8h-9l-1.9,4.8h-4.8l9.1-21.5ZM336.3,297.6l-2.8-6.9-2.8,6.9h5.7Z"/>
      <path class="st6" d="M348.1,285.2h4.7v17.1h10.6v4.3h-15.3v-21.3Z"/>
      <path class="st6" d="M374.3,285h4.3l9.1,21.5h-4.9l-1.9-4.8h-9l-1.9,4.8h-4.8l9.1-21.5ZM379.2,297.6l-2.8-6.9-2.8,6.9h5.7Z"/>
      <path class="st6" d="M391.1,285.2h4.3l10,13.1v-13.1h4.6v21.3h-4l-10.3-13.6v13.6h-4.6v-21.3Z"/>
      <path class="st6" d="M414.2,295.9h0c0-6.1,4.6-11.1,11.1-11.1s6.4,1.3,8.4,3.3l-3,3.4c-1.6-1.5-3.3-2.4-5.5-2.4-3.6,0-6.2,3-6.2,6.6h0c0,3.7,2.5,6.8,6.2,6.8s3.9-1,5.6-2.5l3,3c-2.2,2.3-4.6,3.8-8.7,3.8-6.3,0-10.9-4.8-10.9-11Z"/>
      <path class="st6" d="M437.7,285.2h16.1v4.2h-11.4v4.3h10.1v4.2h-10.1v4.5h11.6v4.2h-16.2v-21.3Z"/>
      <path class="st6" d="M458.1,285.2h8.3c6.7,0,11.3,4.6,11.3,10.6h0c0,6.1-4.6,10.7-11.3,10.7h-8.3v-21.3ZM462.8,289.4v12.9h3.6c3.8,0,6.4-2.6,6.4-6.4h0c0-3.8-2.6-6.5-6.4-6.5h-3.6Z"/>
    </g>
    <path class="st1" d="M505,267.8h-226.1l.3-226.3h198.7c15,0,27.1,12.1,27.1,27.1v199.2Z"/>
  </g>
  <g>
    <g class="st5">
      <path class="st3" d="M115.1,91.8c-1.3-1.3-1.3-3.5,0-4.8h0c1.3-1.3,3.4-1.3,4.8,0h0c1.3,1.3,1.3,3.5,0,4.8h0c-.7.6-1.5.9-2.4.9h0c-.9,0-1.8-.3-2.4-.9ZM105.6,82.2c-1.3-1.3-1.3-3.4,0-4.8h0c1.3-1.3,3.4-1.3,4.8,0h0c1.3,1.3,1.3,3.5,0,4.8h0c-.7.7-1.5,1-2.4,1h0c-.8,0-1.7-.3-2.3-1ZM96.1,72.7c-1.3-1.3-1.3-3.4,0-4.8h0c1.3-1.3,3.5-1.3,4.8,0h0c1.3,1.3,1.3,3.5,0,4.8h0c-.6.7-1.5,1-2.4,1h0c-.9,0-1.7-.3-2.4-1ZM86.6,63.2c-1.3-1.3-1.3-3.5,0-4.8h0c1.3-1.3,3.5-1.3,4.8,0h0c1.3,1.3,1.3,3.5,0,4.8h0c-.6.7-1.5,1-2.4,1h0c-.9,0-1.7-.3-2.4-1ZM77.1,53.7c-1.3-1.3-1.3-3.5,0-4.8h0c1.3-1.3,3.5-1.3,4.8,0h0c1.3,1.3,1.3,3.5,0,4.8h0c-.6.7-1.5,1-2.4,1h0c-.9,0-1.7-.3-2.4-1ZM67.5,44.2c-1.3-1.3-1.3-3.5,0-4.8h0c1.3-1.3,3.5-1.3,4.8,0h0c1.3,1.3,1.3,3.5,0,4.8h0c-.7.6-1.5,1-2.4,1h0c-.9,0-1.7-.4-2.4-1ZM58,34.7c-1.3-1.3-1.3-3.5,0-4.8h0c1.3-1.3,3.5-1.3,4.8,0h0c1.3,1.3,1.3,3.4,0,4.8h0c-.7.6-1.5,1-2.4,1h0c-.9,0-1.7-.4-2.4-1ZM48.5,25.2c-1.3-1.3-1.3-3.5,0-4.8h0c1.3-1.3,3.4-1.3,4.8,0h0c1.3,1.3,1.3,3.4,0,4.8h0c-.7.6-1.5,1-2.4,1h0c-.9,0-1.7-.4-2.4-1ZM39,15.6c-1.3-1.3-1.3-3.4,0-4.8h0c1.3-1.3,3.4-1.3,4.8,0h0c1.3,1.3,1.3,3.5,0,4.8h0c-.7.7-1.5,1-2.4,1h0c-.9,0-1.7-.3-2.4-1ZM29.5,6.1c-1.3-1.3-1.3-3.4,0-4.8h0c1.3-1.3,3.5-1.3,4.8,0h0c1.3,1.3,1.3,3.5,0,4.8h0c-.7.7-1.5,1-2.4,1h0c-.9,0-1.7-.3-2.4-1ZM19.9-3.4c-1.3-1.3-1.3-3.5,0-4.8h0c1.3-1.3,3.5-1.3,4.8,0h0c1.3,1.3,1.3,3.5,0,4.8h0c-.6.7-1.5,1-2.4,1h0c-.8,0-1.7-.3-2.4-1ZM10.4-12.9c-1.3-1.3-1.3-3.5,0-4.8h0c1.3-1.3,3.5-1.3,4.8,0h0c1.3,1.3,1.3,3.5,0,4.8h0c-.6.7-1.5,1-2.4,1h0c-.8,0-1.7-.3-2.4-1Z"/>
      <path class="st3" d="M110.4,99.3c-1.6-.9-2.2-3-1.3-4.6h0c.9-1.6,3-2.2,4.6-1.3h0c1.6.9,2.2,3,1.2,4.6h0c-.6,1.1-1.7,1.7-2.9,1.7h0c-.5,0-1.1-.1-1.7-.4ZM98.8,92.6c-1.6-.9-2.2-3-1.2-4.6h0c.9-1.6,3-2.2,4.6-1.3h0c1.6.9,2.2,3,1.2,4.6h0c-.6,1.1-1.8,1.7-2.9,1.7h0c-.5,0-1.1-.1-1.7-.4ZM87.1,85.9c-1.6-.9-2.2-3-1.2-4.6h0c.9-1.6,3-2.2,4.6-1.3h0c1.6.9,2.2,3,1.3,4.6h0c-.6,1.1-1.8,1.7-2.9,1.7h0c-.6,0-1.2-.1-1.7-.4ZM75.4,79.1c-1.6-.9-2.2-3-1.2-4.6h0c.9-1.6,3-2.2,4.6-1.3h0c1.6.9,2.2,3,1.3,4.6h0c-.6,1.1-1.7,1.7-2.9,1.7h0c-.6,0-1.2-.1-1.7-.4ZM63.8,72.4c-1.6-.9-2.2-3-1.3-4.6h0c.9-1.6,3-2.2,4.6-1.3h0c1.6.9,2.2,3,1.2,4.6h0c-.6,1.1-1.8,1.7-2.9,1.7h0c-.6,0-1.2-.1-1.7-.4ZM52.2,65.7c-1.6-.9-2.2-3-1.3-4.6h0c.9-1.6,3-2.2,4.6-1.3h0c1.6.9,2.2,3,1.2,4.6h0c-.6,1.1-1.7,1.7-2.9,1.7h0c-.5,0-1.1-.1-1.7-.4ZM40.5,58.9c-1.6-.9-2.2-3-1.2-4.6h0c.9-1.6,3-2.2,4.6-1.3h0c1.6.9,2.2,3,1.2,4.6h0c-.6,1.1-1.7,1.7-2.9,1.7h0c-.5,0-1.1-.1-1.7-.4ZM28.8,52.2c-1.6-.9-2.2-3-1.2-4.6h0c.9-1.6,3-2.2,4.6-1.3h0c1.6.9,2.2,3,1.3,4.6h0c-.6,1.1-1.8,1.7-2.9,1.7h0c-.6,0-1.2-.1-1.7-.4ZM17.2,45.5c-1.6-.9-2.2-3-1.2-4.6h0c.9-1.6,3-2.2,4.6-1.3h0c1.6.9,2.2,3,1.3,4.6h0c-.6,1.1-1.7,1.7-2.9,1.7h0c-.6,0-1.2-.1-1.7-.4ZM5.5,38.8c-1.6-.9-2.2-3-1.3-4.6h0c.9-1.6,3-2.2,4.6-1.3h0c1.6.9,2.2,3,1.2,4.6h0c-.6,1.1-1.7,1.7-2.9,1.7h0c-.6,0-1.2-.1-1.7-.4ZM-6.1,32c-1.6-.9-2.2-3-1.3-4.6h0c.9-1.6,3-2.2,4.6-1.3h0c1.6.9,2.2,3,1.2,4.6h0c-.6,1.1-1.8,1.7-2.9,1.7h0c-.6,0-1.1-.1-1.7-.4ZM-17.8,25.3c-1.6-.9-2.2-3-1.2-4.6h0c.9-1.6,3-2.2,4.6-1.3h0c1.6.9,2.2,3,1.2,4.6h0c-.6,1.1-1.7,1.7-2.9,1.7h0c-.5,0-1.1-.1-1.7-.4Z"/>
      <path class="st3" d="M107.8,107.8c-1.8-.4-2.9-2.3-2.4-4.1h0c.5-1.8,2.3-2.9,4.1-2.4h0c1.8.5,2.9,2.3,2.4,4.1h0c-.4,1.5-1.8,2.5-3.2,2.5h0c-.3,0-.6,0-.9-.1ZM94.9,104.4c-1.8-.5-2.9-2.3-2.4-4.1h0c.5-1.8,2.3-2.9,4.1-2.4h0c1.8.5,2.9,2.3,2.4,4.1h0c-.4,1.5-1.7,2.5-3.2,2.5h0c-.3,0-.6,0-.9,0ZM81.9,100.9c-1.8-.5-2.9-2.3-2.4-4.1h0c.5-1.8,2.3-2.9,4.1-2.4h0c1.7.5,2.8,2.3,2.4,4.1h0c-.4,1.5-1.8,2.5-3.3,2.5h0c-.3,0-.6,0-.8-.1ZM68.8,97.4c-1.8-.4-2.9-2.3-2.4-4.1h0c.5-1.8,2.3-2.9,4.1-2.4h0c1.8.4,2.9,2.3,2.4,4.1h0c-.4,1.5-1.7,2.5-3.2,2.5h0c-.3,0-.6,0-.9-.1ZM55.8,93.9c-1.8-.5-2.9-2.3-2.4-4.1h0c.5-1.8,2.3-2.9,4.1-2.4h0c1.8.5,2.9,2.3,2.4,4.1h0c-.4,1.5-1.8,2.5-3.3,2.5h0c-.3,0-.5,0-.8,0ZM42.9,90.4c-1.8-.5-2.9-2.3-2.4-4.1h0c.5-1.8,2.3-2.8,4.1-2.4h0c1.8.5,2.9,2.3,2.4,4.1h0c-.4,1.5-1.7,2.5-3.2,2.5h0c-.3,0-.6,0-.9-.1ZM29.9,87c-1.8-.5-2.9-2.3-2.4-4.1h0c.4-1.8,2.3-2.9,4.1-2.4h0c1.8.4,2.8,2.3,2.4,4.1h0c-.5,1.5-1.8,2.5-3.3,2.5h0c-.3,0-.6,0-.8,0ZM16.8,83.5c-1.8-.5-2.9-2.3-2.4-4.1h0c.5-1.8,2.3-2.9,4.1-2.4h0c1.8.5,2.8,2.3,2.4,4.1h0c-.4,1.5-1.8,2.5-3.3,2.5h0c-.3,0-.6,0-.9,0ZM3.8,80c-1.8-.4-2.9-2.3-2.4-4.1h0c.5-1.8,2.3-2.8,4.1-2.4h0c1.8.5,2.9,2.3,2.4,4.1h0c-.4,1.5-1.7,2.5-3.3,2.5h0c-.3,0-.6,0-.9-.1ZM-9.2,76.5c-1.8-.5-2.8-2.3-2.4-4.1h0c.5-1.8,2.3-2.9,4.1-2.4h0c1.8.4,2.9,2.3,2.4,4.1h0c-.4,1.5-1.8,2.5-3.2,2.5h0c-.3,0-.6,0-.9,0ZM-22.1,73c-1.8-.5-2.9-2.3-2.4-4.1h0c.5-1.8,2.3-2.9,4.1-2.4h0c1.8.5,2.9,2.3,2.4,4.1h0c-.4,1.5-1.7,2.5-3.2,2.5h0c-.3,0-.6,0-.9,0ZM-35.1,69.5c-1.8-.4-2.9-2.3-2.4-4.1h0c.4-1.8,2.3-2.8,4.1-2.4h0c1.8.5,2.8,2.3,2.4,4.1h0c-.4,1.5-1.8,2.5-3.3,2.5h0c-.3,0-.6,0-.8-.1Z"/>
      <path class="st3" d="M319.5,113.4c0-1.9,1.5-3.4,3.4-3.4h0c1.8,0,3.4,1.5,3.4,3.4h0c0,1.8-1.5,3.4-3.4,3.4h0c-1.8,0-3.4-1.5-3.4-3.4ZM306.1,113.4c0-1.9,1.5-3.4,3.4-3.4h0c1.8,0,3.4,1.5,3.4,3.4h0c0,1.8-1.5,3.4-3.4,3.4h0c-1.8,0-3.4-1.5-3.4-3.4ZM292.6,113.4c0-1.9,1.5-3.4,3.4-3.4h0c1.8,0,3.4,1.5,3.4,3.4h0c0,1.8-1.5,3.4-3.4,3.4h0c-1.8,0-3.4-1.5-3.4-3.4ZM279.2,113.4c0-1.9,1.5-3.4,3.4-3.4h0c1.8,0,3.4,1.5,3.4,3.4h0c0,1.8-1.5,3.4-3.4,3.4h0c-1.8,0-3.4-1.5-3.4-3.4ZM265.7,113.4c0-1.9,1.5-3.4,3.4-3.4h0c1.8,0,3.4,1.5,3.4,3.4h0c0,1.8-1.5,3.4-3.4,3.4h0c-1.8,0-3.4-1.5-3.4-3.4ZM252.2,113.4c0-1.9,1.5-3.4,3.4-3.4h0c1.8,0,3.4,1.5,3.4,3.4h0c0,1.8-1.5,3.4-3.4,3.4h0c-1.8,0-3.4-1.5-3.4-3.4ZM238.8,113.4c0-1.9,1.5-3.4,3.4-3.4h0c1.8,0,3.4,1.5,3.4,3.4h0c0,1.8-1.5,3.4-3.4,3.4h0c-1.8,0-3.4-1.5-3.4-3.4ZM225.3,113.4c0-1.9,1.5-3.4,3.4-3.4h0c1.8,0,3.4,1.5,3.4,3.4h0c0,1.8-1.5,3.4-3.4,3.4h0c-1.8,0-3.4-1.5-3.4-3.4ZM211.9,113.4c0-1.9,1.5-3.4,3.4-3.4h0c1.8,0,3.4,1.5,3.4,3.4h0c0,1.8-1.5,3.4-3.4,3.4h0c-1.8,0-3.4-1.5-3.4-3.4ZM198.4,113.4c0-1.9,1.5-3.4,3.4-3.4h0c1.8,0,3.4,1.5,3.4,3.4h0c0,1.8-1.5,3.4-3.4,3.4h0c-1.8,0-3.4-1.5-3.4-3.4ZM184.9,113.4c0-1.9,1.5-3.4,3.4-3.4h0c1.8,0,3.4,1.5,3.4,3.4h0c0,1.8-1.5,3.4-3.4,3.4h0c-1.8,0-3.4-1.5-3.4-3.4ZM171.5,113.4c0-1.9,1.5-3.4,3.4-3.4h0c1.8,0,3.4,1.5,3.4,3.4h0c0,1.8-1.5,3.4-3.4,3.4h0c-1.9,0-3.4-1.5-3.4-3.4ZM104.2,113.4c0-1.9,1.5-3.4,3.4-3.4h0c1.8,0,3.4,1.5,3.4,3.4h0c0,1.8-1.5,3.4-3.4,3.4h0c-1.8,0-3.4-1.5-3.4-3.4ZM90.7,113.4c0-1.9,1.5-3.4,3.4-3.4h0c1.8,0,3.4,1.5,3.4,3.4h0c0,1.8-1.5,3.4-3.4,3.4h0c-1.8,0-3.4-1.5-3.4-3.4ZM77.3,113.4c0-1.9,1.5-3.4,3.4-3.4h0c1.8,0,3.4,1.5,3.4,3.4h0c0,1.8-1.5,3.4-3.4,3.4h0c-1.8,0-3.4-1.5-3.4-3.4ZM63.8,113.4c0-1.9,1.5-3.4,3.4-3.4h0c1.8,0,3.4,1.5,3.4,3.4h0c0,1.8-1.5,3.4-3.4,3.4h0c-1.8,0-3.4-1.5-3.4-3.4ZM50.4,113.4c0-1.9,1.5-3.4,3.4-3.4h0c1.8,0,3.4,1.5,3.4,3.4h0c0,1.8-1.5,3.4-3.4,3.4h0c-1.8,0-3.4-1.5-3.4-3.4ZM36.9,113.4c0-1.9,1.5-3.4,3.4-3.4h0c1.8,0,3.4,1.5,3.4,3.4h0c0,1.8-1.5,3.4-3.4,3.4h0c-1.8,0-3.4-1.5-3.4-3.4ZM23.4,113.4c0-1.9,1.5-3.4,3.4-3.4h0c1.8,0,3.4,1.5,3.4,3.4h0c0,1.8-1.5,3.4-3.4,3.4h0c-1.8,0-3.4-1.5-3.4-3.4ZM10,113.4c0-1.9,1.5-3.4,3.4-3.4h0c1.8,0,3.4,1.5,3.4,3.4h0c0,1.8-1.5,3.4-3.4,3.4h0c-1.8,0-3.4-1.5-3.4-3.4ZM-3.5,113.4c0-1.9,1.5-3.4,3.4-3.4H-.1c1.8,0,3.4,1.5,3.4,3.4h0c0,1.8-1.5,3.4-3.4,3.4H-.1c-1.8,0-3.4-1.5-3.4-3.4ZM-16.9,113.4c0-1.9,1.5-3.4,3.4-3.4h0c1.8,0,3.4,1.5,3.4,3.4h0c0,1.8-1.5,3.4-3.4,3.4h0c-1.8,0-3.4-1.5-3.4-3.4ZM-30.4,113.4c0-1.9,1.5-3.4,3.4-3.4h0c1.8,0,3.4,1.5,3.4,3.4h0c0,1.8-1.5,3.4-3.4,3.4h0c-1.8,0-3.4-1.5-3.4-3.4ZM-43.8,113.4c0-1.9,1.5-3.4,3.4-3.4h0c1.8,0,3.4,1.5,3.4,3.4h0c0,1.8-1.5,3.4-3.4,3.4h0c-1.8,0-3.4-1.5-3.4-3.4Z"/>
      <path class="st3" d="M170.5,105.6c-.5-1.8.6-3.6,2.4-4.1h0c1.8-.4,3.6.6,4.1,2.4h0c.5,1.8-.6,3.6-2.4,4.1h0c-.3,0-.6.1-.9.1h0c-1.5,0-2.9-1-3.3-2.5ZM183.5,102.1c-.5-1.8.6-3.6,2.4-4.1h0c1.8-.5,3.6.6,4.1,2.3h0c.5,1.8-.6,3.7-2.4,4.1h0c-.3,0-.6.1-.9.1h0c-1.5,0-2.8-1-3.2-2.5ZM196.5,98.7c-.5-1.8.6-3.6,2.4-4.1h0c1.8-.5,3.6.6,4.1,2.4h0c.4,1.8-.6,3.6-2.4,4.1h0c-.3,0-.6,0-.9,0h0c-1.5,0-2.8-1-3.2-2.5ZM209.5,95.2c-.5-1.8.6-3.6,2.3-4.1h0c1.8-.4,3.7.6,4.1,2.4h0c.5,1.8-.6,3.6-2.4,4.1h0c-.3,0-.6.1-.8.1h0c-1.5,0-2.9-1-3.2-2.5ZM222.5,91.7c-.5-1.8.6-3.7,2.4-4.1h0c1.8-.5,3.6.6,4.1,2.4h0c.5,1.8-.6,3.6-2.4,4.1h0c-.3,0-.6,0-.9,0h0c-1.5,0-2.9-1-3.3-2.5ZM235.5,88.2c-.5-1.8.6-3.6,2.4-4.1h0c1.8-.5,3.6.6,4.1,2.4h0c.5,1.8-.6,3.6-2.4,4.1h0c-.3,0-.6,0-.9,0h0c-1.5,0-2.8-1-3.2-2.5ZM248.5,84.7c-.5-1.8.6-3.6,2.4-4.1h0c1.8-.4,3.6.6,4.1,2.4h0c.4,1.8-.6,3.6-2.4,4.1h0c-.3,0-.6.1-.9.1h0c-1.5,0-2.8-1-3.2-2.5ZM261.5,81.3c-.5-1.8.6-3.6,2.4-4.1h0c1.8-.5,3.6.6,4.1,2.4h0c.5,1.8-.6,3.6-2.4,4.1h0c-.3,0-.6.1-.9.1h0c-1.5,0-2.8-1-3.2-2.5ZM274.5,77.8c-.5-1.8.6-3.6,2.3-4.1h0c1.8-.5,3.7.6,4.1,2.4h0c.5,1.8-.6,3.6-2.4,4.1h0c-.3,0-.6.1-.8.1h0c-1.5,0-2.9-1-3.2-2.5ZM287.5,74.3c-.5-1.8.6-3.6,2.4-4.1h0c1.8-.5,3.6.6,4.1,2.3h0c.5,1.8-.6,3.7-2.4,4.1h0c-.3,0-.6.1-.9.1h0c-1.5,0-2.9-1-3.3-2.5ZM300.5,70.8c-.5-1.8.6-3.7,2.4-4.1h0c1.8-.5,3.6.6,4.1,2.4h0c.5,1.8-.6,3.6-2.4,4.1h0c-.3,0-.6,0-.9,0h0c-1.5,0-2.8-1-3.2-2.5ZM313.5,67.3c-.5-1.8.6-3.6,2.4-4.1h0c1.8-.5,3.6.6,4.1,2.4h0c.4,1.8-.6,3.6-2.4,4.1h0c-.3,0-.6.1-.9.1h0c-1.5,0-2.8-1-3.2-2.5Z"/>
      <path class="st3" d="M167.5,98.4c-.9-1.6-.4-3.7,1.3-4.6h0c1.6-.9,3.7-.4,4.6,1.2h0c.9,1.6.4,3.7-1.2,4.6h0c-.5.3-1.1.5-1.7.5h0c-1.1,0-2.3-.6-2.9-1.7ZM179.1,91.7c-.9-1.6-.4-3.7,1.3-4.6h0c1.6-.9,3.7-.4,4.6,1.2h0c.9,1.6.4,3.7-1.2,4.6h0c-.5.3-1.1.5-1.7.5h0c-1.2,0-2.3-.6-2.9-1.7ZM190.8,85c-.9-1.6-.4-3.7,1.3-4.6h0c1.6-.9,3.6-.4,4.6,1.2h0c.9,1.6.4,3.7-1.2,4.6h0c-.5.3-1.1.5-1.7.5h0c-1.2,0-2.3-.6-2.9-1.7ZM202.4,78.2c-.9-1.6-.4-3.7,1.2-4.6h0c1.6-.9,3.7-.4,4.6,1.2h0c.9,1.6.4,3.7-1.3,4.6h0c-.5.3-1.1.5-1.7.5h0c-1.2,0-2.3-.6-2.9-1.7ZM214.1,71.5c-.9-1.6-.4-3.7,1.2-4.6h0c1.6-.9,3.7-.4,4.6,1.2h0c.9,1.6.4,3.7-1.3,4.6h0c-.5.3-1.1.4-1.7.4h0c-1.2,0-2.3-.6-2.9-1.7ZM225.7,64.8c-.9-1.6-.4-3.7,1.3-4.6h0c1.6-.9,3.7-.4,4.6,1.2h0c.9,1.6.4,3.7-1.2,4.6h0c-.5.3-1.1.4-1.7.4h0c-1.1,0-2.3-.6-2.9-1.7ZM237.4,58c-.9-1.6-.4-3.7,1.3-4.6h0c1.6-.9,3.7-.4,4.6,1.2h0c.9,1.6.4,3.7-1.2,4.6h0c-.5.3-1.1.5-1.7.5h0c-1.1,0-2.3-.6-2.9-1.7ZM249.1,51.3c-.9-1.6-.4-3.7,1.3-4.6h0c1.6-.9,3.6-.4,4.6,1.2h0c.9,1.6.4,3.7-1.2,4.6h0c-.5.3-1.1.5-1.7.5h0c-1.2,0-2.3-.6-2.9-1.7ZM260.7,44.6c-.9-1.6-.4-3.7,1.2-4.6h0c1.6-.9,3.7-.4,4.6,1.2h0c.9,1.6.4,3.7-1.3,4.6h0c-.5.3-1.1.5-1.7.5h0c-1.2,0-2.3-.6-2.9-1.7ZM272.4,37.9c-.9-1.6-.4-3.7,1.2-4.6h0c1.6-.9,3.7-.4,4.6,1.2h0c.9,1.6.4,3.7-1.3,4.6h0c-.5.3-1.1.4-1.7.4h0c-1.2,0-2.3-.6-2.9-1.7ZM284,31.1c-.9-1.6-.4-3.7,1.3-4.6h0c1.6-.9,3.7-.4,4.6,1.2h0c.9,1.6.4,3.7-1.2,4.6h0c-.5.3-1.1.4-1.7.4h0c-1.1,0-2.3-.6-2.9-1.7ZM295.7,24.4c-.9-1.6-.4-3.7,1.3-4.6h0c1.6-.9,3.7-.4,4.6,1.2h0c.9,1.6.4,3.7-1.2,4.6h0c-.5.3-1.1.4-1.7.4h0c-1.1,0-2.3-.6-2.9-1.7Z"/>
      <path class="st3" d="M162.7,92.2c-1.3-1.3-1.3-3.5,0-4.8h0c1.3-1.3,3.5-1.3,4.8,0h0c1.3,1.3,1.3,3.4,0,4.8h0c-.6.6-1.5,1-2.4,1h0c-.9,0-1.7-.4-2.4-1ZM172.2,82.7c-1.3-1.3-1.3-3.5,0-4.8h0c1.3-1.3,3.5-1.3,4.8,0h0c1.3,1.3,1.3,3.4,0,4.8h0c-.6.6-1.5,1-2.4,1h0c-.9,0-1.7-.4-2.4-1ZM181.8,73.2c-1.3-1.3-1.3-3.5,0-4.8h0c1.3-1.3,3.4-1.3,4.8,0h0c1.3,1.3,1.3,3.4,0,4.8h0c-.7.6-1.5.9-2.4.9h0c-.9,0-1.7-.3-2.4-.9ZM191.3,63.7c-1.3-1.3-1.3-3.4,0-4.8h0c1.3-1.3,3.4-1.3,4.8,0h0c1.3,1.3,1.3,3.5,0,4.8h0c-.7.7-1.5,1-2.4,1h0c-.9,0-1.8-.3-2.4-1ZM200.8,54.1c-1.3-1.3-1.3-3.5,0-4.8h0c1.3-1.3,3.5-1.3,4.8,0h0c1.3,1.3,1.3,3.5,0,4.8h0c-.7.7-1.5,1-2.4,1h0c-.9,0-1.8-.3-2.4-1ZM210.3,44.6c-1.3-1.3-1.3-3.5,0-4.8h0c1.3-1.3,3.5-1.3,4.8,0h0c1.3,1.3,1.3,3.5,0,4.8h0c-.7.7-1.5,1-2.4,1h0c-.9,0-1.7-.3-2.4-1ZM219.8,35.1c-1.3-1.3-1.3-3.5,0-4.8h0c1.3-1.3,3.5-1.3,4.8,0h0c1.3,1.3,1.3,3.5,0,4.8h0c-.6.7-1.5,1-2.4,1h0c-.8,0-1.7-.3-2.4-1ZM229.3,25.6c-1.3-1.3-1.3-3.5,0-4.8h0c1.3-1.3,3.5-1.3,4.8,0h0c1.3,1.3,1.3,3.4,0,4.8h0c-.6.7-1.5,1-2.4,1h0c-.8,0-1.7-.3-2.4-1ZM238.8,16.1c-1.3-1.3-1.3-3.5,0-4.8h0c1.3-1.3,3.5-1.3,4.8,0h0c1.3,1.3,1.3,3.4,0,4.8h0c-.6.6-1.5,1-2.4,1h0c-.8,0-1.7-.4-2.4-1ZM248.3,6.6c-1.3-1.3-1.3-3.5,0-4.8h0c1.3-1.3,3.5-1.3,4.8,0h0c1.3,1.3,1.3,3.4,0,4.8h0c-.6.6-1.5,1-2.3,1h0c-.9,0-1.7-.4-2.4-1ZM257.9-3c-1.3-1.3-1.3-3.4,0-4.8h0c1.3-1.3,3.4-1.3,4.8,0h0c1.3,1.3,1.3,3.5,0,4.8h0c-.7.7-1.5,1-2.4,1h0c-.8,0-1.7-.3-2.4-1ZM267.4-12.5c-1.3-1.3-1.3-3.4,0-4.8h0c1.3-1.3,3.5-1.3,4.8,0h0c1.3,1.3,1.3,3.5,0,4.8h0c-.7.7-1.5,1-2.4,1h0c-.8,0-1.7-.3-2.4-1Z"/>
      <path class="st3" d="M156.5,87.5c-1.6-.9-2.2-3-1.2-4.6h0c.9-1.6,3-2.2,4.6-1.2h0c1.6.9,2.2,3,1.2,4.6h0c-.6,1.1-1.8,1.7-2.9,1.7h0c-.5,0-1.1-.2-1.7-.5ZM163.2,75.8c-1.6-.9-2.2-3-1.2-4.6h0c.9-1.6,3-2.2,4.6-1.2h0c1.6.9,2.2,3,1.2,4.6h0c-.6,1.1-1.8,1.7-2.9,1.7h0c-.5,0-1.1-.1-1.7-.4ZM170,64.1c-1.6-.9-2.2-3-1.2-4.6h0c.9-1.6,3-2.2,4.6-1.3h0c1.6.9,2.2,3,1.2,4.6h0c-.6,1.1-1.8,1.7-2.9,1.7h0c-.5,0-1.1-.1-1.7-.4ZM176.7,52.5c-1.6-.9-2.2-3-1.3-4.6h0c.9-1.6,3-2.2,4.6-1.3h0c1.6.9,2.2,3,1.3,4.6h0c-.6,1.1-1.8,1.7-3,1.7h0c-.5,0-1.1-.1-1.7-.4ZM183.4,40.8c-1.6-.9-2.2-3-1.3-4.6h0c.9-1.6,3-2.2,4.6-1.2h0c1.6.9,2.2,3,1.3,4.6h0c-.6,1.1-1.8,1.7-3,1.7h0c-.5,0-1.1-.1-1.7-.4ZM190.2,29.2c-1.6-.9-2.2-3-1.2-4.6h0c.9-1.6,3-2.2,4.6-1.2h0c1.6.9,2.2,3,1.2,4.6h0c-.6,1.1-1.7,1.7-2.9,1.7h0c-.6,0-1.2-.2-1.7-.4ZM196.9,17.5c-1.6-.9-2.2-3-1.2-4.6h0c.9-1.6,3-2.2,4.6-1.2h0c1.6.9,2.2,3,1.2,4.6h0c-.6,1.1-1.8,1.7-2.9,1.7h0c-.6,0-1.2-.1-1.7-.4ZM203.6,5.9c-1.6-.9-2.2-3-1.2-4.6h0c.9-1.6,3-2.2,4.6-1.3h0c1.6.9,2.2,3,1.2,4.6h0c-.6,1.1-1.8,1.7-2.9,1.7h0c-.5,0-1.1-.1-1.7-.4ZM210.3-5.8c-1.6-.9-2.2-3-1.3-4.6h0c.9-1.6,3-2.2,4.6-1.3h0c1.6.9,2.2,3,1.3,4.6h0c-.6,1.1-1.8,1.7-3,1.7h0c-.5,0-1.1-.1-1.7-.4ZM217.1-17.5c-1.6-.9-2.2-3-1.2-4.6h0c.9-1.6,3-2.2,4.6-1.3h0c1.6.9,2.2,3,1.2,4.6h0c-.6,1.1-1.8,1.7-2.9,1.7h0c-.5,0-1.1-.1-1.7-.4ZM223.8-29.1c-1.6-.9-2.2-3-1.2-4.6h0c.9-1.6,3-2.2,4.6-1.2h0c1.6.9,2.2,3,1.2,4.6h0c-.6,1.1-1.8,1.7-2.9,1.7h0c-.6,0-1.2-.2-1.7-.4ZM230.5-40.7c-1.6-.9-2.2-3-1.2-4.6h0c.9-1.6,3-2.2,4.6-1.2h0c1.6.9,2.2,3,1.2,4.6h0c-.6,1.1-1.7,1.7-2.9,1.7h0c-.6,0-1.2-.1-1.7-.4Z"/>
      <path class="st3" d="M149.3,84.5c-1.8-.5-2.9-2.3-2.4-4.1h0c.5-1.8,2.3-2.9,4.1-2.4h0c1.8.5,2.9,2.3,2.4,4.1h0c-.4,1.5-1.8,2.5-3.3,2.5h0c-.3,0-.5,0-.9-.1ZM152.8,71.5c-1.8-.5-2.9-2.3-2.4-4.1h0c.5-1.8,2.3-2.9,4.1-2.4h0c1.8.5,2.9,2.3,2.4,4.1h0c-.4,1.5-1.8,2.5-3.3,2.5h0c-.3,0-.6,0-.9-.1ZM156.2,58.5c-1.8-.4-2.9-2.3-2.4-4.1h0c.5-1.8,2.3-2.8,4.1-2.4h0c1.8.5,2.9,2.3,2.4,4.1h0c-.4,1.5-1.8,2.5-3.2,2.5h0c-.3,0-.6,0-.9-.1ZM159.7,45.5c-1.8-.5-2.9-2.3-2.4-4.1h0c.5-1.8,2.3-2.9,4.1-2.4h0c1.8.4,2.9,2.3,2.4,4.1h0c-.4,1.5-1.8,2.5-3.3,2.5h0c-.3,0-.6,0-.9,0ZM163.2,32.5c-1.8-.5-2.8-2.3-2.3-4.1h0c.5-1.8,2.3-2.9,4.1-2.4h0c1.8.5,2.8,2.3,2.3,4.1h0c-.4,1.5-1.7,2.5-3.2,2.5h0c-.3,0-.6,0-.9,0ZM166.7,19.5c-1.8-.5-2.9-2.3-2.4-4.1h0c.5-1.8,2.3-2.9,4.1-2.4h0c1.8.5,2.9,2.3,2.4,4.1h0c-.4,1.5-1.8,2.5-3.2,2.5h0c-.3,0-.6,0-.9-.1ZM170.2,6.5c-1.8-.4-2.9-2.3-2.4-4.1h0c.5-1.8,2.3-2.8,4.1-2.4h0c1.8.5,2.8,2.3,2.4,4.1h0c-.4,1.5-1.8,2.5-3.3,2.5h0c-.3,0-.6,0-.9-.1ZM173.6-6.6c-1.8-.4-2.8-2.3-2.4-4.1h0c.5-1.8,2.3-2.9,4.1-2.4h0c1.8.4,2.9,2.3,2.4,4.1h0c-.4,1.5-1.8,2.5-3.2,2.5h0c-.3,0-.6,0-.9-.1ZM177.1-19.5c-1.8-.5-2.9-2.3-2.4-4.1h0c.5-1.8,2.3-2.9,4.1-2.4h0c1.8.4,2.9,2.3,2.4,4.1h0c-.4,1.5-1.8,2.5-3.3,2.5h0c-.3,0-.5,0-.9,0ZM180.6-32.5c-1.8-.5-2.9-2.3-2.4-4.1h0c.5-1.8,2.3-2.9,4.1-2.4h0c1.8.5,2.9,2.3,2.4,4.1h0c-.4,1.5-1.8,2.5-3.3,2.5h0c-.3,0-.6,0-.9-.1ZM184.1-45.5c-1.8-.5-2.9-2.3-2.4-4.1h0c.5-1.8,2.3-2.9,4.1-2.4h0c1.8.5,2.9,2.3,2.4,4.1h0c-.4,1.5-1.8,2.5-3.2,2.5h0c-.3,0-.6,0-.8-.1ZM187.6-58.5c-1.8-.4-2.9-2.3-2.4-4.1h0c.5-1.8,2.3-2.8,4.1-2.3h0c1.8.4,2.9,2.3,2.4,4.1h0c-.4,1.5-1.7,2.5-3.3,2.5h0c-.3,0-.5,0-.9-.1Z"/>
      <path class="st3" d="M138.2,80.1c0-1.8,1.5-3.4,3.4-3.4h0c1.9,0,3.4,1.5,3.4,3.4h0c0,1.8-1.5,3.4-3.4,3.4h0c-1.8,0-3.4-1.5-3.4-3.4ZM138.2,66.6c0-1.8,1.5-3.4,3.4-3.4h0c1.9,0,3.4,1.5,3.4,3.4h0c0,1.9-1.5,3.4-3.4,3.4h0c-1.8,0-3.4-1.5-3.4-3.4ZM138.2,53.2c0-1.8,1.5-3.4,3.4-3.4h0c1.9,0,3.4,1.5,3.4,3.4h0c0,1.9-1.5,3.4-3.4,3.4h0c-1.8,0-3.4-1.5-3.4-3.4ZM138.2,39.7c0-1.8,1.5-3.4,3.4-3.4h0c1.9,0,3.4,1.5,3.4,3.4h0c0,1.9-1.5,3.4-3.4,3.4h0c-1.8,0-3.4-1.5-3.4-3.4ZM138.2,26.2c0-1.8,1.5-3.4,3.4-3.4h0c1.9,0,3.4,1.5,3.4,3.4h0c0,1.9-1.5,3.4-3.4,3.4h0c-1.8,0-3.4-1.5-3.4-3.4ZM138.2,12.8c0-1.8,1.5-3.4,3.4-3.4h0c1.9,0,3.4,1.5,3.4,3.4h0c0,1.8-1.5,3.4-3.4,3.4h0c-1.8,0-3.4-1.5-3.4-3.4ZM138.2-.7c0-1.8,1.5-3.4,3.4-3.4h0c1.9,0,3.4,1.5,3.4,3.4h0c0,1.9-1.5,3.4-3.4,3.4h0c-1.8,0-3.4-1.5-3.4-3.4ZM138.2-14.1c0-1.8,1.5-3.4,3.4-3.4h0c1.9,0,3.4,1.5,3.4,3.4h0c0,1.9-1.5,3.4-3.4,3.4h0c-1.8,0-3.4-1.5-3.4-3.4ZM138.2-27.6c0-1.8,1.5-3.4,3.4-3.4h0c1.9,0,3.4,1.5,3.4,3.4h0c0,1.9-1.5,3.4-3.4,3.4h0c-1.8,0-3.4-1.5-3.4-3.4ZM138.2-41.1c0-1.8,1.5-3.4,3.4-3.4h0c1.9,0,3.4,1.5,3.4,3.4h0c0,1.9-1.5,3.4-3.4,3.4h0c-1.8,0-3.4-1.5-3.4-3.4ZM138.2-54.5c0-1.8,1.5-3.4,3.4-3.4h0c1.9,0,3.4,1.5,3.4,3.4h0c0,1.8-1.5,3.4-3.4,3.4h0c-1.8,0-3.4-1.5-3.4-3.4ZM138.2-68c0-1.8,1.5-3.4,3.4-3.4h0c1.9,0,3.4,1.5,3.4,3.4h0c0,1.9-1.5,3.4-3.4,3.4h0c-1.8,0-3.4-1.5-3.4-3.4Z"/>
      <path class="st3" d="M129.6,82.1c-.4-1.8.6-3.6,2.4-4.1h0c1.8-.5,3.7.6,4.1,2.4h0c.5,1.8-.6,3.6-2.4,4.1h0c-.3,0-.6,0-.8,0h0c-1.5,0-2.9-1-3.3-2.5ZM126.2,69.1c-.5-1.8.6-3.6,2.4-4.1h0c1.8-.5,3.6.6,4.1,2.4h0c.5,1.8-.6,3.6-2.4,4.1h0c-.3,0-.6.1-.9.1h0c-1.5,0-2.8-1-3.2-2.5ZM122.7,56.1c-.5-1.8.6-3.6,2.4-4.1h0c1.8-.4,3.6.6,4.1,2.4h0c.5,1.8-.6,3.6-2.4,4.1h0c-.3,0-.6.1-.8.1h0c-1.5,0-2.9-1-3.3-2.5ZM119.2,43.1c-.4-1.8.6-3.6,2.4-4.1h0c1.8-.5,3.6.6,4.1,2.4h0c.5,1.8-.6,3.6-2.4,4.1h0c-.3,0-.6.1-.8.1h0c-1.5,0-2.9-1-3.3-2.5ZM115.7,30.1c-.5-1.8.6-3.6,2.4-4.1h0c1.8-.5,3.6.6,4.1,2.4h0c.5,1.8-.6,3.6-2.4,4.1h0c-.3,0-.6,0-.9,0h0c-1.5,0-2.8-1-3.2-2.5ZM112.2,17.1c-.5-1.8.6-3.6,2.4-4.1h0c1.8-.5,3.6.6,4.1,2.4h0c.5,1.8-.6,3.6-2.4,4.1h0c-.3,0-.6.1-.8.1h0c-1.5,0-2.9-1-3.3-2.5ZM108.7,4.1c-.4-1.8.6-3.6,2.4-4.1h0c1.8-.4,3.6.6,4.1,2.4h0c.4,1.8-.6,3.7-2.4,4.1h0c-.3,0-.6.1-.9.1h0c-1.5,0-2.8-1-3.3-2.5ZM105.3-8.9c-.5-1.8.6-3.7,2.4-4.1h0c1.8-.5,3.6.6,4.1,2.4h0c.5,1.8-.6,3.6-2.4,4.1h0c-.3,0-.6.1-.9.1h0c-1.5,0-2.8-1-3.2-2.5ZM101.8-21.9c-.4-1.8.6-3.6,2.4-4.1h0c1.8-.5,3.6.6,4.1,2.4h0c.5,1.8-.6,3.6-2.4,4.1h0c-.3,0-.6,0-.8,0h0c-1.5,0-2.9-1-3.3-2.5ZM98.3-34.9c-.5-1.8.6-3.6,2.3-4.1h0c1.8-.5,3.7.6,4.1,2.4h0c.5,1.8-.6,3.6-2.4,4.1h0c-.3,0-.6,0-.9,0h0c-1.5,0-2.8-1-3.2-2.5ZM94.8-47.9c-.5-1.8.6-3.6,2.4-4.1h0c1.8-.5,3.6.6,4.1,2.4h0c.4,1.8-.6,3.6-2.4,4.1h0c-.3,0-.6.1-.9.1h0c-1.5,0-2.8-1-3.2-2.5ZM91.3-60.9c-.4-1.8.6-3.6,2.4-4.1h0c1.8-.4,3.6.6,4.1,2.4h0c.5,1.8-.6,3.6-2.4,4.1h0c-.3,0-.6.1-.8.1h0c-1.5,0-2.9-1-3.3-2.5Z"/>
      <path class="st3" d="M122,86.2c-.9-1.6-.4-3.7,1.2-4.6h0c1.6-.9,3.7-.4,4.6,1.2h0c.9,1.6.4,3.7-1.3,4.6h0c-.5.3-1.1.5-1.7.5h0c-1.2,0-2.3-.6-2.9-1.7ZM115.2,74.6c-.9-1.6-.4-3.6,1.2-4.6h0c1.6-.9,3.7-.4,4.6,1.2h0c.9,1.6.4,3.7-1.3,4.6h0c-.5.3-1.1.4-1.7.4h0c-1.2,0-2.3-.6-2.9-1.7ZM108.5,62.9c-.9-1.6-.4-3.7,1.2-4.6h0c1.6-.9,3.7-.4,4.6,1.3h0c.9,1.6.4,3.6-1.3,4.6h0c-.5.3-1.1.4-1.7.4h0c-1.2,0-2.3-.6-2.9-1.7ZM101.8,51.3c-.9-1.6-.4-3.7,1.2-4.6h0c1.6-.9,3.7-.4,4.6,1.3h0c.9,1.6.4,3.6-1.3,4.6h0c-.5.3-1.1.4-1.7.4h0c-1.2,0-2.3-.6-2.9-1.7ZM95,39.6c-.9-1.6-.4-3.7,1.2-4.6h0c1.6-.9,3.7-.4,4.6,1.3h0c.9,1.6.4,3.7-1.3,4.6h0c-.5.3-1.1.5-1.7.5h0c-1.2,0-2.3-.6-2.9-1.7ZM88.3,27.9c-.9-1.6-.4-3.7,1.2-4.6h0c1.6-.9,3.7-.4,4.6,1.2h0c.9,1.6.4,3.7-1.3,4.6h0c-.5.3-1.1.4-1.7.4h0c-1.2,0-2.3-.6-2.9-1.7ZM81.6,16.3c-.9-1.6-.4-3.6,1.2-4.6h0c1.6-.9,3.7-.4,4.6,1.2h0c.9,1.6.4,3.7-1.3,4.6h0c-.5.3-1.1.4-1.7.4h0c-1.2,0-2.3-.6-2.9-1.7ZM74.9,4.7c-.9-1.6-.4-3.7,1.2-4.6h0c1.6-.9,3.7-.4,4.6,1.2h0c.9,1.6.4,3.7-1.3,4.6h0c-.5.3-1.1.4-1.7.4h0c-1.2,0-2.3-.6-2.9-1.7ZM68.1-7c-.9-1.6-.4-3.7,1.2-4.6h0c1.6-.9,3.7-.4,4.6,1.3h0c.9,1.6.4,3.6-1.3,4.6h0c-.5.3-1.1.4-1.7.4h0c-1.2,0-2.3-.6-2.9-1.7ZM61.4-18.7c-.9-1.6-.4-3.7,1.2-4.6h0c1.6-.9,3.7-.4,4.6,1.3h0c.9,1.6.4,3.7-1.3,4.6h0c-.5.3-1.1.4-1.7.4h0c-1.2,0-2.3-.6-2.9-1.7ZM54.7-30.3c-.9-1.6-.4-3.7,1.2-4.6h0c1.6-.9,3.7-.4,4.6,1.2h0c.9,1.6.4,3.7-1.3,4.6h0c-.5.3-1.1.4-1.7.4h0c-1.2,0-2.3-.6-2.9-1.7ZM47.9-42c-.9-1.6-.4-3.6,1.2-4.6h0c1.6-.9,3.7-.4,4.6,1.2h0c.9,1.6.4,3.7-1.3,4.6h0c-.5.3-1.1.4-1.7.4h0c-1.2,0-2.3-.6-2.9-1.7Z"/>
      <path class="st3" d="M176.7,126.3h-18.8c2.6-3.4,4.2-7.7,4.2-12.4,0-11.3-9.2-20.5-20.5-20.5s-20.5,9.2-20.5,20.5,1.6,8.9,4.2,12.4h-18.8c-8.8,0-15.9,6.6-15.9,14.8s7.1,14.8,15.9,14.8h9.6v45.2c0,8.2,6.6,14.8,14.8,14.8s8-1.8,10.7-4.6c2.7,2.8,6.5,4.6,10.7,4.6,8.2,0,14.8-6.6,14.8-14.8v-45.2h9.6c8.8,0,15.9-6.6,15.9-14.8s-7.1-14.8-15.9-14.8ZM176.7,147.8h-13.7c-2.3,0-4.1,1.8-4.1,4.1s0,.3,0,.4c0,.1,0,.2,0,.4v48.5c0,3.7-3,6.6-6.6,6.6s-6.6-3-6.6-6.6v-25.9c0-2.3-1.8-4.1-4.1-4.1s-4.1,1.8-4.1,4.1v25.9c0,3.7-3,6.6-6.6,6.6s-6.6-3-6.6-6.6v-48.5c0-.1,0-.3,0-.4,0-.1,0-.2,0-.4,0-2.3-1.8-4.1-4.1-4.1h-13.7c-4.3,0-7.8-3-7.8-6.6s3.5-6.6,7.8-6.6h70.3c4.3,0,7.8,3,7.8,6.6s-3.5,6.6-7.8,6.6Z"/>
    </g>
    <path class="st2" d="M254.3,322.6H55.4c-15,0-27.2-12.2-27.1-27.3l.2-27.6h226.1l-.3,54.9Z"/>
    <g>
      <path class="st6" d="M51.6,285.2h5.1l5.6,9,5.6-9h5.1v21.3h-4.7v-13.9l-6,9.1h-.1l-5.9-9v13.8h-4.6v-21.3Z"/>
      <path class="st6" d="M78.3,285.2h4.7v21.3h-4.7v-21.3Z"/>
      <path class="st6" d="M88.3,285.2h4.3l10,13.1v-13.1h4.6v21.3h-4l-10.3-13.6v13.6h-4.6v-21.3Z"/>
      <path class="st6" d="M112.4,285.2h8.3c6.7,0,11.3,4.6,11.3,10.6h0c0,6.1-4.6,10.7-11.3,10.7h-8.3v-21.3ZM117.1,289.4v12.9h3.6c3.8,0,6.4-2.6,6.4-6.4h0c0-3.8-2.6-6.5-6.4-6.5h-3.6Z"/>
    </g>
    <path class="st1" d="M254.6,267.8H28.5l.3-226.3h198.7c15,0,27.1,12.1,27.1,27.1v199.2Z"/>
  </g>
</svg>