<?xml version="1.0" encoding="UTF-8"?>
<svg id="Layer_1" xmlns="http://www.w3.org/2000/svg" version="1.1" viewBox="0 0 52.9 52.9">
  <!-- Generator: Adobe Illustrator 29.3.1, SVG Export Plug-In . SVG Version: 2.1.0 Build 151)  -->
  <g id="surface1">
    <path d="M1.5,52.9h28.1c.9,0,1.5-.7,1.5-1.5v-1.7c0-1.7-1.4-3.1-3.1-3.1v-1.9c0-2.5-2-4.4-4.4-4.4H7.5c-2.5,0-4.4,2-4.4,4.4v1.9c-1.7,0-3.1,1.4-3.1,3.1v1.7c0,.9.7,1.5,1.5,1.5Z"/>
    <path d="M19.4,34.1c1,1.4,3,1.6,4.3.6,1.4-1,1.6-3,.6-4.3l-9.3-12.4c-1-1.4-3-1.6-4.3-.6-1.4,1-1.6,3-.6,4.3l9.3,12.4Z"/>
    <path d="M41.6,17.3c1,1.4,3,1.6,4.3.6,1.4-1,1.6-3,.6-4.3L37.3,1.2c-1-1.4-3-1.6-4.3-.6-1.4,1-1.6,3-.6,4.3l9.3,12.4Z"/>
    <path d="M34.8,26.3c2.3-1.7,4-3.9,5.1-6.1l-10.8-14.4c-2.5.4-5,1.5-7.3,3.2-2.3,1.7-4,3.9-5.1,6.1l10.8,14.4c2.5-.4,5-1.5,7.3-3.2Z"/>
    <path d="M39,26.7c-.7.7-1.5,1.4-2.3,2.1-.8.6-1.7,1.2-2.6,1.7l2,2.7,4.9-3.7-2-2.7Z"/>
    <path d="M42.9,31.9l-4.9,3.7,9.3,12.4c1,1.4,3,1.6,4.3.6,1.4-1,1.6-3,.6-4.3l-9.3-12.4Z"/>
  </g>
</svg>