<?xml version="1.0" encoding="UTF-8"?>
<svg id="Layer_1" xmlns="http://www.w3.org/2000/svg" version="1.1" viewBox="0 0 55.8 56">
  <!-- Generator: Adobe Illustrator 29.3.1, SVG Export Plug-In . SVG Version: 2.1.0 Build 151)  -->
  <path d="M9.2,36.1c.1,0,4,4.7,13.2,7.9-3.4-6.5-5.6-14.2-5.5-21.7-6.9-5-14.6-6.3-15-6.4-1.1-.2-2.1.8-1.9,1.9,0,.4,1.8,10.9,9.2,18.3h0Z"/>
  <path d="M33.4,44c4.1-1.4,8.1-3.5,11.5-6.4,1.3-1.1,1.7-1.6,1.8-1.6,7.3-7.4,9.1-17.8,9.1-18.2.2-1.1-.8-2.1-1.9-1.9-.4,0-8.1,1.4-15,6.4.1,7.4-2.1,15.1-5.5,21.7h0Z"/>
  <path d="M20.2,25.1c.7,10.7,6.1,19.2,6.3,19.6.6,1,2.1,1,2.8,0,.2-.4,5.6-8.9,6.3-19.6,0-1.3,0-2.4,0-3.6-.4-11.2-6.1-20.4-6.4-20.8-.6-1-2.1-1-2.8,0-.2.4-5.9,9.5-6.4,20.6,0,0-.1,1.4,0,3.8h0Z"/>
  <path d="M55.2,42.5c-.2-.1-2.9-2.1-6.9-3.4-4.5,4.3-10.4,7.2-16.2,8.8,2.5,1,5.6,1.9,9,1.9,7.6,0,13.8-4.5,14.1-4.7.9-.7.9-2,0-2.7Z"/>
  <path d="M26.3,48.4v6c0,.9.7,1.6,1.6,1.6s1.6-.7,1.6-1.6v-6c-1.1.4-2.2.4-3.3,0Z"/>
  <path d="M7.5,39c-4,1.3-6.7,3.3-6.9,3.4-.9.7-.9,2,0,2.7.3.2,6.5,4.7,14.1,4.7s6.5-.9,9-1.9c-5.9-1.6-11.7-4.6-16.2-8.8h0Z"/>
</svg>