<?xml version="1.0" encoding="UTF-8"?>
<svg id="Layer_1" xmlns="http://www.w3.org/2000/svg" version="1.1" viewBox="0 0 60.2 56">
  <!-- Generator: Adobe Illustrator 29.3.1, SVG Export Plug-In . SVG Version: 2.1.0 Build 151)  -->
  <path d="M25.6,15.8h8.6c2.5-1.5,4.2-4.2,4.2-7.3,0-4.7-3.8-8.5-8.5-8.5s-8.5,3.8-8.5,8.5,1.7,5.8,4.2,7.3Z"/>
  <path d="M59.2,23.4c-1.1-.5-2.1-.9-3.2-1.4l-1.2-.5c-1.3-2.4-3.3-4.7-5.7-6.5v-7.5c0-1-.8-1.8-1.8-1.8-2,0-3.9.7-5.4,1.9,0,.3,0,.6,0,.9,0,3-1.2,5.9-3.2,8.1.2.3.4.7.4,1.1,0,1-.8,1.8-1.8,1.8h-14.8c-1,0-1.8-.8-1.8-1.8s.1-.8.4-1.1c-1.2-1.4-2.2-3-2.7-4.7-1.9.9-3.6,1.9-5.2,3.2-3.9,3.1-6.4,6.9-7.3,11.2-1.4-.8-2.3-2.3-2.3-3.9s.2-1.5.6-2.2c.5-.9.2-1.9-.7-2.4-.9-.5-1.9-.2-2.4.7-.7,1.2-1,2.5-1,3.9,0,3.5,2.2,6.5,5.5,7.6,0,6.1,3.4,11.8,9.2,15.7.7,3,1.4,6.1,2.1,9.1.2.8.9,1.4,1.7,1.4h5.8c.8,0,1.5-.6,1.7-1.4l1.1-4.5c2.8.4,5.6.4,8.4,0,.4,1.5.7,3,1.1,4.6.2.8.9,1.4,1.7,1.4h5.8c.8,0,1.5-.6,1.7-1.4l.6-2.7c.5-2.1,1-4.3,1.5-6.4,3-2,5.4-4.6,6.9-7.5l1.3-.6c1-.4,2.1-.9,3.1-1.3.6-.3,1.1-.9,1.1-1.6v-9.5c0-.7-.4-1.3-1.1-1.6h0ZM44.9,27.6c-1,0-1.8-.8-1.8-1.8s.8-1.8,1.8-1.8,1.8.8,1.8,1.8-.8,1.8-1.8,1.8Z"/>
</svg>