<?xml version="1.0" encoding="UTF-8"?>
<svg id="Layer_1" xmlns="http://www.w3.org/2000/svg" xmlns:xlink="http://www.w3.org/1999/xlink" version="1.1" viewBox="0 0 39.3 56">
  <!-- Generator: Adobe Illustrator 29.3.1, SVG Export Plug-In . SVG Version: 2.1.0 Build 151)  -->
  <defs>
    <style>
      .st0, .st1 {
        fill: none;
      }

      .st2 {
        clip-path: url(#clippath-1);
      }

      .st1 {
        stroke: #221f20;
        stroke-miterlimit: 10;
      }

      .st3 {
        clip-path: url(#clippath);
      }
    </style>
    <clipPath id="clippath">
      <rect class="st1" x="-3032.1" y="-3585.9" width="1920" height="7097.3"/>
    </clipPath>
    <clipPath id="clippath-1">
      <rect class="st0" x="-3032.1" y="-1150.6" width="1920" height="936.8"/>
    </clipPath>
  </defs>
  <g>
    <path d="M19.6,11.1c-5.3,0-9.6,4.3-9.6,9.6s4.3,9.6,9.6,9.6,9.6-4.3,9.6-9.6-4.3-9.6-9.6-9.6Z"/>
    <polygon points="17.5 43.8 17.4 43.7 16.2 42.6 13.3 40 10.2 40.4 8.3 40.6 7.9 40.6 6.4 40.8 1.8 50.5 8.9 50.6 13.5 56 18.8 44.9 17.5 43.8"/>
    <polygon points="32.9 40.8 31.4 40.6 31 40.6 29.1 40.4 25.9 40 23.1 42.6 21.8 43.7 21.8 43.8 20.5 44.9 25.7 56 30.4 50.6 37.5 50.5 32.9 40.8"/>
    <path d="M36.4,20.6l2.9-6.4-6.1-3.5-1.4-6.8-7,.7L19.6,0l-5.2,4.7-7-.7-1.4,6.8L0,14.3l2.9,6.4-2.9,6.4,6.1,3.5,1.4,6.8h.5c0,0,1.9-.3,1.9-.3l1.9-.2h.5c0,0,0,0,0,0l2.1-.2,1.6,1.4,1.7,1.5.5.5.8.7.7.6.7-.6.8-.7.5-.5,1.3-1.2h0s1.9-1.8,1.9-1.8l3.4.4h.3s.8.1.8.1h0l1.9.2h.5c0,0,1.4-6.8,1.4-6.8l6.1-3.5-2.9-6.4ZM19.6,33.5c-7.1,0-12.9-5.8-12.9-12.9s5.8-12.9,12.9-12.9,12.9,5.8,12.9,12.9-5.8,12.9-12.9,12.9Z"/>
  </g>
  <g>
    <g class="st3">
      <g class="st2">
        <g id="qQ87qL">
          <g id="close-up-hand-holding-leaves-against-sky">
            <image id="close-up-hand-holding-leaves-against-sky1" data-name="close-up-hand-holding-leaves-against-sky" width="10001" height="4160" transform="translate(322.6 -1716.9) rotate(-180) scale(.4 -.4)" xlink:href="Home-Icon-06-1.png"/>
          </g>
        </g>
      </g>
    </g>
    <rect class="st1" x="-3032.1" y="-3585.9" width="1920" height="7097.3"/>
  </g>
</svg>