<?xml version="1.0" encoding="UTF-8"?>
<svg id="Layer_1" xmlns="http://www.w3.org/2000/svg" version="1.1" viewBox="0 0 62.5 56">
  <!-- Generator: Adobe Illustrator 29.3.1, SVG Export Plug-In . SVG Version: 2.1.0 Build 151)  -->
  <path d="M4.5,10.1l12.2,8.1L28.9,1.2c.3-.4.6-.7,1-.9s.9-.3,1.3-.3.9.1,1.3.3.8.5,1,.9l12.2,17,12.2-8.1c.5-.3,1-.5,1.6-.5.6,0,1.1.1,1.6.4.5.3.9.7,1.1,1.2.2.5.3,1.1.3,1.6l-4.8,40.6c0,.7-.4,1.4-1,1.8-.5.5-1.2.7-1.9.7H7.7c-.7,0-1.4-.3-1.9-.7-.5-.5-.9-1.1-1-1.8L0,12.9c0-.6,0-1.1.3-1.6.2-.5.6-.9,1.1-1.2.5-.3,1-.4,1.6-.4s1.1.2,1.6.5h0ZM31.3,38.6c1.5,0,3-.6,4.1-1.7s1.7-2.6,1.7-4.1-.6-3-1.7-4.1-2.6-1.7-4.1-1.7-3,.6-4.1,1.7-1.7,2.6-1.7,4.1.6,3,1.7,4.1,2.6,1.7,4.1,1.7Z"/>
</svg>