<?xml version="1.0" encoding="UTF-8"?>
<svg id="Layer_1" xmlns="http://www.w3.org/2000/svg" version="1.1" viewBox="0 0 575.5 680.3">
  <!-- Generator: Adobe Illustrator 29.3.1, SVG Export Plug-In . SVG Version: 2.1.0 Build 151)  -->
  <defs>
    <style>
      .st0 {
        fill: #455a68;
      }

      .st1 {
        fill: #a3b9dd;
      }

      .st2 {
        fill: #b1cbc1;
      }

      .st3 {
        fill: #e3deaa;
      }

      .st4 {
        fill: none;
        stroke: #000;
        stroke-miterlimit: 10;
      }

      .st5 {
        fill: #bcafd2;
      }
    </style>
  </defs>
  <g>
    <g>
      <path class="st0" d="M194.7,86.1l-10.1-17.7h6.8l6.4,11.9,6.4-11.9h6.8l-10.1,17.7v10.3h-6.2v-10.3Z"/>
      <path class="st0" d="M214,68.3h19.1v5.2h-13.1v6.3h11.9v4.7h-11.9v6.6h13.5v5.2h-19.5v-28Z"/>
      <path class="st0" d="M236.7,68.3h6v22.8h12.9v5.2h-18.9v-28Z"/>
      <path class="st0" d="M258.7,68.3h6v22.8h12.9v5.2h-18.9v-28Z"/>
      <path class="st0" d="M279.4,82.3c0-8.6,5.3-14.4,13.4-14.4s13.4,5.8,13.4,14.4-5.3,14.4-13.4,14.4-13.4-5.8-13.4-14.4ZM299.9,82.3c0-5.6-2.6-9.2-7.2-9.2s-7.2,3.6-7.2,9.2,2.6,9.2,7.2,9.2,7.2-3.7,7.2-9.2Z"/>
      <path class="st0" d="M307.2,68.3h6.2l4.5,19.6h.3l5.4-19.6h6.2l5.4,19.6h.3l4.5-19.6h6.2l-7.3,28h-6.2l-5.9-20.4-5.9,20.4h-6.2l-7.3-28Z"/>
      <path d="M185.7,132.6v-21.3h13.3v2.2h-10.8v7.3h9.8v2.2h-9.8v9.5h-2.5Z"/>
      <path d="M200.3,125.2v-.6c0-4.7,2.8-7.8,7.3-7.8s7.3,3.1,7.3,7.8v.6c0,4.7-2.9,7.8-7.3,7.8s-7.3-3.1-7.3-7.8ZM212.4,125.2v-.6c0-3.6-1.7-5.7-4.9-5.7s-4.8,2.1-4.8,5.7v.6c0,3.6,1.7,5.7,4.8,5.7s4.9-2.1,4.9-5.7Z"/>
      <path d="M217.8,132.6v-15.4h2.3v3c1-2.1,2.7-3.3,4.8-3.3s.5,0,.8,0v2.4c-.3,0-.5,0-.9,0-2.8,0-4.7,1.7-4.7,5.1v8.2h-2.4Z"/>
      <path d="M233.2,125.2v-.6c0-4.6,2.7-7.8,7.3-7.8s7.2,3.4,7,8.5h-11.8c0,3.6,1.9,5.5,4.9,5.5s3.9-1.1,4.4-3.1h2.4c-.8,3.2-3.2,5.1-6.9,5.1s-7.3-3.2-7.3-7.8ZM244.9,123.5c-.2-2.8-1.7-4.5-4.5-4.5s-4.4,1.6-4.8,4.5h9.2Z"/>
      <path d="M250.3,132.6v-15.4h2.3v2.5c1-1.6,2.6-2.8,5-2.8,3.7,0,5.3,2.2,5.3,5.8v10h-2.4v-9.4c0-2.8-1.1-4.3-3.6-4.3s-4.3,1.9-4.3,5v8.7h-2.4Z"/>
      <path d="M265.8,125.2v-.6c0-4.6,2.7-7.8,7.3-7.8s7.2,3.4,7,8.5h-11.8c0,3.6,1.9,5.5,4.9,5.5s3.9-1.1,4.4-3.1h2.4c-.8,3.2-3.2,5.1-6.9,5.1s-7.3-3.2-7.3-7.8ZM277.6,123.5c-.2-2.8-1.7-4.5-4.5-4.5s-4.4,1.6-4.8,4.5h9.2Z"/>
      <path d="M282.9,132.6v-15.4h2.3v3c1-2.1,2.7-3.3,4.8-3.3s.5,0,.8,0v2.4c-.3,0-.5,0-.9,0-2.8,0-4.7,1.7-4.7,5.1v8.2h-2.4Z"/>
      <path d="M292.4,133.7h2.6c.2,1.6,1.6,2.5,4.1,2.5s4.6-1.3,4.6-4.1v-2.5c-.8,1.6-2.6,2.9-5.2,2.9-4,0-6.6-3.1-6.6-7.3v-.8c0-4.3,2.6-7.3,6.6-7.3s4.6,1.5,5.3,3.1v-2.8h2.3v14.6c0,3.7-2.5,6.2-7.1,6.2s-6.3-1.8-6.6-4.4ZM303.8,125.1v-.8c0-3.3-1.7-5.3-4.9-5.3s-4.6,2-4.6,5.3v.8c0,3.2,1.7,5.3,4.6,5.3s4.9-2.1,4.9-5.3Z"/>
      <path d="M312.4,137.7l2-5.1-6-15.4h2.6l4.7,12.6,4.5-12.6h2.5l-7.7,20.5h-2.5Z"/>
      <path d="M329.9,128.6c0-2.2,1.3-3.9,3.8-4.3l6.5-1v-1.3c0-2.2-1.6-3.2-3.5-3.2s-3.6,1-3.8,2.9h-2.3c.3-3.1,2.6-4.9,6.1-4.9s5.9,2.1,5.9,5.3v10.4h-2.2v-2.4c-1.1,1.8-3.1,2.8-5.2,2.8-3.2,0-5.2-1.8-5.2-4.4ZM340.2,126.9v-1.6l-5.7.8c-1.5.2-2.1,1-2.1,2.4s1,2.4,3,2.4,4.9-1.7,4.9-4Z"/>
      <path d="M346,132.6v-15.4h2.3v2.5c1-1.6,2.6-2.8,5-2.8,3.7,0,5.3,2.2,5.3,5.8v10h-2.4v-9.4c0-2.8-1.1-4.3-3.6-4.3s-4.3,1.9-4.3,5v8.7h-2.4Z"/>
      <path d="M361.6,125.2v-.6c0-4.6,2.5-7.8,6.6-7.8s4.3,1.3,5.2,2.8v-9.3h2.4v22.2h-2.2v-2.8c-.8,1.6-2.7,3.1-5.4,3.1-4,0-6.6-3.2-6.6-7.8ZM373.5,125.2v-.6c0-3.6-1.8-5.7-4.9-5.7s-4.6,2.2-4.6,5.7v.6c0,3.5,1.6,5.7,4.6,5.7s4.9-2.2,4.9-5.7Z"/>
      <path d="M386.8,128.8v-9.6h-3.1v-1.9h3.1v-4.7h2.4v4.7h4.4v1.9h-4.4v9.3c0,1.7.6,2.5,2.6,2.5s1.4-.2,1.9-.3v2c-.6.1-1.6.3-2.2.3-3.1,0-4.7-1.4-4.7-4.2Z"/>
      <path d="M395.5,125.2v-.6c0-4.7,2.8-7.8,7.3-7.8s7.3,3.1,7.3,7.8v.6c0,4.7-2.8,7.8-7.3,7.8s-7.3-3.1-7.3-7.8ZM407.6,125.2v-.6c0-3.6-1.7-5.7-4.9-5.7s-4.8,2.1-4.8,5.7v.6c0,3.6,1.7,5.7,4.8,5.7s4.9-2.1,4.9-5.7Z"/>
      <path d="M421.1,129.9v2.7h-2.3v-22.2h2.4v9.3c.8-1.5,2.6-2.8,5.2-2.8,4,0,6.6,3.1,6.6,7.8v.6c0,4.6-2.7,7.8-6.6,7.8s-4.5-1.5-5.3-3.1ZM430.6,125.2v-.6c0-3.6-1.7-5.7-4.6-5.7s-4.9,2.1-4.9,5.7v.6c0,3.6,1.7,5.7,4.9,5.7s4.6-2.2,4.6-5.7Z"/>
      <path d="M435.4,125.2v-.6c0-4.6,2.7-7.8,7.3-7.8s7.2,3.4,7,8.5h-11.8c0,3.6,1.9,5.5,4.9,5.5s3.9-1.1,4.4-3.1h2.4c-.8,3.2-3.2,5.1-6.9,5.1s-7.3-3.2-7.3-7.8ZM447.1,123.5c-.2-2.8-1.7-4.5-4.5-4.5s-4.4,1.6-4.8,4.5h9.2Z"/>
      <path d="M457.5,128.6c0-2.2,1.3-3.9,3.8-4.3l6.5-1v-1.3c0-2.2-1.6-3.2-3.5-3.2s-3.6,1-3.8,2.9h-2.3c.3-3.1,2.6-4.9,6.2-4.9s5.9,2.1,5.9,5.3v10.4h-2.2v-2.4c-1.1,1.8-3.1,2.8-5.2,2.8-3.2,0-5.2-1.8-5.2-4.4ZM467.8,126.9v-1.6l-5.7.8c-1.5.2-2.1,1-2.1,2.4s1,2.4,3,2.4,4.9-1.7,4.9-4Z"/>
      <path d="M472.9,125.2v-.6c0-4.6,2.6-7.8,7.2-7.8s6.1,2.2,6.5,5.5h-2.4c-.4-2.1-1.8-3.4-4.2-3.4s-4.6,2.1-4.6,5.7v.6c0,3.6,1.6,5.7,4.7,5.7s3.8-1.4,4.3-3.5h2.4c-.6,3.4-3,5.6-6.7,5.6s-7.1-3.2-7.1-7.8Z"/>
      <path d="M490.9,128.8v-9.6h-3.1v-1.9h3.1v-4.7h2.4v4.7h4.4v1.9h-4.4v9.3c0,1.7.6,2.5,2.6,2.5s1.4-.2,1.9-.3v2c-.6.1-1.6.3-2.2.3-3.1,0-4.7-1.4-4.7-4.2Z"/>
      <path d="M503,114.8h-2.5v-4.3h2.5v4.3ZM502.9,117.3v15.4h-2.4v-15.4h2.4Z"/>
      <path d="M511,132.6l-5.8-15.4h2.5l4.6,12.8,4.6-12.8h2.5l-5.8,15.4h-2.6Z"/>
      <path d="M520.4,125.2v-.6c0-4.6,2.7-7.8,7.3-7.8s7.2,3.4,7,8.5h-11.8c0,3.6,1.9,5.5,4.9,5.5s3.9-1.1,4.4-3.1h2.4c-.8,3.2-3.2,5.1-6.9,5.1s-7.3-3.2-7.3-7.8ZM532.2,123.5c-.2-2.8-1.7-4.5-4.5-4.5s-4.4,1.6-4.8,4.5h9.2Z"/>
    </g>
    <g>
      <path class="st0" d="M185.2,235.7c0-9.2,5.1-14.5,13-14.5s11,2.9,11.8,9.2h-5.9c-.8-3.3-3.6-4.1-5.9-4.1-5,0-6.9,4-6.9,9.1s2,9.3,7,9.3,6.3-1.4,6.3-5.8h-5.4v-4.8h11.4v2.9c0,8.5-4.6,12.9-12.2,12.9s-13.1-5.4-13.1-14.3Z"/>
      <path class="st0" d="M214.3,221.5h11.3c7.4,0,10.7,3.9,10.7,9.4s-1.7,7.2-5.6,8.6l5.9,10.1h-5.9l-5.3-9.3h-5v9.3h-6v-28ZM230.1,230.9c0-2.5-1.4-4.2-4.7-4.2h-5.1v8.3h5.1c3.3,0,4.7-1.6,4.7-4.1Z"/>
      <path class="st0" d="M239.7,221.5h19.1v5.2h-13.1v6.3h11.9v4.7h-11.9v6.6h13.5v5.2h-19.5v-28Z"/>
      <path class="st0" d="M262.4,221.5h19.1v5.2h-13.1v6.3h11.9v4.7h-11.9v6.6h13.5v5.2h-19.5v-28Z"/>
      <path class="st0" d="M285.1,221.5h6.2l11.3,18.4h.1v-18.4h6v28h-6.5l-11-18h-.1v18h-6v-28Z"/>
      <path d="M185.7,285.8v-21.3h13.3v2.2h-10.8v7.3h9.8v2.2h-9.8v9.5h-2.5Z"/>
      <path d="M200.3,278.4v-.6c0-4.7,2.8-7.8,7.3-7.8s7.3,3.1,7.3,7.8v.6c0,4.7-2.9,7.8-7.3,7.8s-7.3-3.1-7.3-7.8ZM212.4,278.4v-.6c0-3.6-1.7-5.7-4.9-5.7s-4.8,2.1-4.8,5.7v.6c0,3.6,1.7,5.7,4.8,5.7s4.9-2.1,4.9-5.7Z"/>
      <path d="M217.8,285.8v-15.4h2.3v3c1-2.1,2.7-3.3,4.8-3.3s.5,0,.8,0v2.4c-.3,0-.5,0-.9,0-2.8,0-4.7,1.7-4.7,5.1v8.2h-2.4Z"/>
      <path d="M233.8,285.8v-15.4h2.3v2.4c.9-1.5,2.5-2.8,4.9-2.8s3.9,1.1,4.6,3.1c1.1-2,2.8-3.1,5.1-3.1,3.4,0,5.1,2.2,5.1,5.7v10h-2.4v-9.5c0-2.8-1-4.2-3.4-4.2s-4,1.9-4,5v8.7h-2.4v-9.5c0-2.7-1-4.2-3.3-4.2s-4.1,1.9-4.1,5v8.6h-2.4Z"/>
      <path d="M258.7,278.4v-.6c0-4.7,2.8-7.8,7.3-7.8s7.3,3.1,7.3,7.8v.6c0,4.7-2.9,7.8-7.3,7.8s-7.3-3.1-7.3-7.8ZM270.9,278.4v-.6c0-3.6-1.7-5.7-4.9-5.7s-4.8,2.1-4.8,5.7v.6c0,3.6,1.7,5.7,4.8,5.7s4.9-2.1,4.9-5.7Z"/>
      <path d="M277.6,282v-9.6h-3.1v-1.9h3.1v-4.7h2.4v4.7h4.4v1.9h-4.4v9.3c0,1.7.6,2.5,2.6,2.5s1.4-.2,2-.3v2c-.6.1-1.6.3-2.2.3-3.1,0-4.7-1.4-4.7-4.2Z"/>
      <path d="M289.7,268h-2.5v-4.3h2.5v4.3ZM289.6,270.5v15.4h-2.4v-15.4h2.4Z"/>
      <path d="M297.7,285.8l-5.8-15.4h2.5l4.6,12.8,4.6-12.8h2.5l-5.8,15.4h-2.6Z"/>
      <path d="M307,281.8c0-2.2,1.3-3.9,3.8-4.3l6.5-1v-1.3c0-2.2-1.6-3.2-3.5-3.2s-3.6,1-3.8,2.9h-2.3c.3-3.1,2.6-4.9,6.1-4.9s5.9,2.1,5.9,5.3v10.4h-2.2v-2.4c-1.1,1.8-3.1,2.8-5.2,2.8-3.2,0-5.2-1.8-5.2-4.4ZM317.2,280.1v-1.6l-5.7.8c-1.5.2-2.1,1-2.1,2.4s1,2.4,3,2.4,4.9-1.7,4.9-4Z"/>
      <path d="M324.4,282v-9.6h-3.1v-1.9h3.1v-4.7h2.4v4.7h4.4v1.9h-4.4v9.3c0,1.7.6,2.5,2.6,2.5s1.4-.2,2-.3v2c-.6.1-1.6.3-2.2.3-3.1,0-4.7-1.4-4.7-4.2Z"/>
      <path d="M336.5,268h-2.5v-4.3h2.5v4.3ZM336.4,270.5v15.4h-2.4v-15.4h2.4Z"/>
      <path d="M339.4,278.4v-.6c0-4.7,2.8-7.8,7.3-7.8s7.3,3.1,7.3,7.8v.6c0,4.7-2.9,7.8-7.3,7.8s-7.3-3.1-7.3-7.8ZM351.5,278.4v-.6c0-3.6-1.7-5.7-4.9-5.7s-4.8,2.1-4.8,5.7v.6c0,3.6,1.7,5.7,4.8,5.7s4.9-2.1,4.9-5.7Z"/>
      <path d="M356.9,285.8v-15.4h2.3v2.5c1-1.6,2.6-2.9,5-2.9,3.7,0,5.3,2.2,5.3,5.8v10h-2.4v-9.4c0-2.8-1.1-4.3-3.6-4.3s-4.3,1.9-4.3,5v8.7h-2.4Z"/>
      <path d="M378.2,281.8c0-2.2,1.3-3.9,3.8-4.3l6.5-1v-1.3c0-2.2-1.6-3.2-3.5-3.2s-3.6,1-3.8,2.9h-2.3c.3-3.1,2.6-4.9,6.1-4.9s5.9,2.1,5.9,5.3v10.4h-2.2v-2.4c-1.1,1.8-3.1,2.8-5.2,2.8-3.2,0-5.2-1.8-5.2-4.4ZM388.4,280.1v-1.6l-5.7.8c-1.5.2-2.1,1-2.1,2.4s1,2.4,3,2.4,4.9-1.7,4.9-4Z"/>
      <path d="M394.3,285.8v-15.4h2.3v2.5c1-1.6,2.6-2.9,5-2.9,3.7,0,5.3,2.2,5.3,5.8v10h-2.4v-9.4c0-2.8-1.1-4.3-3.6-4.3s-4.3,1.9-4.3,5v8.7h-2.4Z"/>
      <path d="M409.8,278.4v-.6c0-4.6,2.5-7.8,6.6-7.8s4.3,1.3,5.2,2.8v-9.3h2.4v22.2h-2.2v-2.8c-.8,1.6-2.7,3.1-5.4,3.1-4,0-6.6-3.1-6.6-7.8ZM421.8,278.4v-.6c0-3.6-1.8-5.7-4.9-5.7s-4.6,2.2-4.6,5.7v.6c0,3.5,1.6,5.7,4.6,5.7s4.9-2.2,4.9-5.7Z"/>
      <path d="M435.1,285.8v-13.5h-3.1v-1.9h3.1v-2.9c0-2.8,1.6-4.2,4.7-4.2s1.6.1,2.2.3v2c-.5-.1-1.3-.3-1.9-.3-2,0-2.6.8-2.6,2.6v2.6h4.4v1.9h-4.4v13.5h-2.4Z"/>
      <path d="M442.8,278.4v-.6c0-4.7,2.8-7.8,7.3-7.8s7.3,3.1,7.3,7.8v.6c0,4.7-2.8,7.8-7.3,7.8s-7.3-3.1-7.3-7.8ZM455,278.4v-.6c0-3.6-1.7-5.7-4.9-5.7s-4.8,2.1-4.8,5.7v.6c0,3.6,1.7,5.7,4.8,5.7s4.9-2.1,4.9-5.7Z"/>
      <path d="M459.7,278.4v-.6c0-4.6,2.6-7.8,7.2-7.8s6.1,2.2,6.5,5.5h-2.4c-.4-2.1-1.8-3.4-4.2-3.4s-4.7,2.1-4.7,5.7v.6c0,3.6,1.7,5.7,4.7,5.7s3.8-1.4,4.3-3.5h2.4c-.6,3.4-3,5.6-6.7,5.6s-7.1-3.2-7.1-7.8Z"/>
      <path d="M476.1,280.4v-9.9h2.4v9.5c0,2.6,1,4.2,3.6,4.2s4.1-2,4.1-5v-8.6h2.4v15.4h-2.3v-2.4c-1,1.6-2.6,2.8-4.9,2.8-3.5,0-5.3-2.2-5.3-5.8Z"/>
      <path d="M491.1,281.1h2.3c.4,2.2,1.8,3.1,4.1,3.1s3.6-.9,3.6-2.5-1-2.2-4.1-2.7c-3.6-.7-5.4-1.7-5.4-4.5s2.3-4.4,5.6-4.4,5.6,1.7,6,4.7h-2.4c-.3-1.8-1.6-2.7-3.6-2.7s-3.3.9-3.3,2.4.9,2.1,4,2.6c3.6.6,5.6,1.8,5.6,4.5s-2.5,4.7-6.1,4.7-6.1-1.8-6.4-5.1Z"/>
    </g>
    <g>
      <path class="st0" d="M185.8,388.6h11.4c6.2,0,9.1,2.8,9.1,7s-1.4,4.8-4,5.6c4.2,1.1,6,3.7,6,7.2s-3.1,8.2-10.5,8.2h-11.8v-28ZM200.2,396.8c0-2.3-1.5-3.1-3.3-3.1h-5.1v6.3h5.1c1.8,0,3.3-1,3.3-3.2ZM202,407.7c0-2.1-1.2-4-4.5-4h-5.6v7.8h5.6c3.4,0,4.5-1.8,4.5-3.8Z"/>
      <path class="st0" d="M211.3,388.6h6v22.8h12.9v5.2h-18.9v-28Z"/>
      <path class="st0" d="M233,406v-17.4h6v16.9c0,4.2,2.1,6.3,5.5,6.3s5.5-2.1,5.5-6.3v-16.9h6v17.4c0,7.5-4.7,11-11.5,11s-11.6-3.6-11.6-11Z"/>
      <path class="st0" d="M260.2,388.6h19.1v5.2h-13.1v6.3h11.9v4.7h-11.9v6.6h13.5v5.2h-19.5v-28Z"/>
      <path d="M185.7,452.9v-21.3h13.3v2.2h-10.8v7.3h9.8v2.2h-9.8v9.5h-2.5Z"/>
      <path d="M200.3,445.5v-.6c0-4.7,2.8-7.8,7.3-7.8s7.3,3.1,7.3,7.8v.6c0,4.7-2.8,7.8-7.3,7.8s-7.3-3.1-7.3-7.8ZM212.4,445.5v-.6c0-3.6-1.7-5.7-4.9-5.7s-4.8,2.1-4.8,5.7v.6c0,3.6,1.7,5.7,4.8,5.7s4.9-2.1,4.9-5.7Z"/>
      <path d="M217.8,452.9v-15.4h2.3v3c1-2.1,2.7-3.3,4.8-3.3s.5,0,.8,0v2.4c-.3,0-.5,0-.9,0-2.8,0-4.7,1.7-4.7,5.1v8.2h-2.4Z"/>
      <path d="M233.8,452.9v-15.4h2.3v3c1-2.1,2.7-3.3,4.8-3.3s.5,0,.8,0v2.4c-.3,0-.5,0-.9,0-2.8,0-4.7,1.7-4.7,5.1v8.2h-2.4Z"/>
      <path d="M242.9,445.5v-.6c0-4.6,2.7-7.8,7.3-7.8s7.2,3.4,7,8.5h-11.8c0,3.6,1.9,5.5,4.9,5.5s3.9-1.1,4.4-3.1h2.4c-.8,3.2-3.2,5.1-6.9,5.1s-7.3-3.2-7.3-7.8ZM254.6,443.7c-.2-2.8-1.7-4.5-4.5-4.5s-4.4,1.6-4.8,4.5h9.2Z"/>
      <path d="M262.3,430.7v22.2h-2.4v-22.2h2.4Z"/>
      <path d="M265.2,448.9c0-2.2,1.3-3.9,3.8-4.3l6.5-1v-1.3c0-2.2-1.6-3.2-3.5-3.2s-3.6,1-3.8,2.9h-2.3c.3-3.1,2.6-4.9,6.1-4.9s5.9,2.1,5.9,5.3v10.4h-2.2v-2.4c-1.1,1.8-3.1,2.8-5.2,2.8-3.2,0-5.2-1.8-5.2-4.4ZM275.5,447.2v-1.6l-5.7.8c-1.5.2-2.1,1-2.1,2.4s1,2.4,3,2.4,4.9-1.7,4.9-4Z"/>
      <path d="M280,452.9l5.6-7.9-5.3-7.5h2.9l4,5.7,4-5.7h2.7l-5.3,7.4,5.7,8h-2.8l-4.3-6.2-4.3,6.2h-2.7Z"/>
      <path d="M295.4,448.9c0-2.2,1.3-3.9,3.8-4.3l6.5-1v-1.3c0-2.2-1.6-3.2-3.5-3.2s-3.6,1-3.8,2.9h-2.3c.3-3.1,2.6-4.9,6.1-4.9s5.9,2.1,5.9,5.3v10.4h-2.2v-2.4c-1.1,1.8-3.1,2.8-5.2,2.8-3.2,0-5.2-1.8-5.2-4.4ZM305.7,447.2v-1.6l-5.7.8c-1.5.2-2.1,1-2.1,2.4s1,2.4,3,2.4,4.9-1.7,4.9-4Z"/>
      <path d="M312.8,449.1v-9.6h-3.1v-1.9h3.1v-4.7h2.4v4.7h4.4v1.9h-4.4v9.3c0,1.7.6,2.5,2.6,2.5s1.4-.2,2-.3v2c-.6.1-1.6.3-2.2.3-3.1,0-4.7-1.4-4.7-4.2Z"/>
      <path d="M325,435h-2.5v-4.3h2.5v4.3ZM324.9,437.5v15.4h-2.4v-15.4h2.4Z"/>
      <path d="M327.8,445.5v-.6c0-4.7,2.8-7.8,7.3-7.8s7.3,3.1,7.3,7.8v.6c0,4.7-2.9,7.8-7.3,7.8s-7.3-3.1-7.3-7.8ZM340,445.5v-.6c0-3.6-1.7-5.7-4.9-5.7s-4.8,2.1-4.8,5.7v.6c0,3.6,1.7,5.7,4.8,5.7s4.9-2.1,4.9-5.7Z"/>
      <path d="M345.4,452.9v-15.4h2.3v2.5c1-1.6,2.6-2.9,5-2.9,3.7,0,5.3,2.2,5.3,5.8v10h-2.4v-9.4c0-2.8-1.1-4.3-3.6-4.3s-4.3,1.9-4.3,5v8.7h-2.4Z"/>
      <path d="M366.6,448.9c0-2.2,1.3-3.9,3.8-4.3l6.5-1v-1.3c0-2.2-1.6-3.2-3.5-3.2s-3.6,1-3.8,2.9h-2.3c.3-3.1,2.6-4.9,6.1-4.9s5.9,2.1,5.9,5.3v10.4h-2.2v-2.4c-1.1,1.8-3.1,2.8-5.2,2.8-3.2,0-5.2-1.8-5.2-4.4ZM376.9,447.2v-1.6l-5.7.8c-1.5.2-2.1,1-2.1,2.4s1,2.4,3,2.4,4.9-1.7,4.9-4Z"/>
      <path d="M382.7,452.9v-15.4h2.3v2.5c1-1.6,2.6-2.9,5-2.9,3.7,0,5.3,2.2,5.3,5.8v10h-2.4v-9.4c0-2.8-1.1-4.3-3.6-4.3s-4.3,1.9-4.3,5v8.7h-2.4Z"/>
      <path d="M398.3,445.5v-.6c0-4.6,2.5-7.8,6.6-7.8s4.3,1.3,5.2,2.8v-9.3h2.4v22.2h-2.2v-2.8c-.8,1.6-2.7,3.1-5.4,3.1-4,0-6.6-3.1-6.6-7.8ZM410.2,445.5v-.6c0-3.6-1.8-5.7-4.9-5.7s-4.6,2.2-4.6,5.7v.6c0,3.5,1.6,5.7,4.6,5.7s4.9-2.2,4.9-5.7Z"/>
      <path d="M421.3,445.5v-.6c0-4.6,2.6-7.8,7.2-7.8s6.1,2.2,6.5,5.5h-2.4c-.4-2.1-1.8-3.4-4.2-3.4s-4.6,2.1-4.6,5.7v.6c0,3.6,1.6,5.7,4.7,5.7s3.8-1.4,4.3-3.5h2.4c-.6,3.4-3,5.6-6.7,5.6s-7.1-3.2-7.1-7.8Z"/>
      <path d="M437,448.9c0-2.2,1.3-3.9,3.8-4.3l6.5-1v-1.3c0-2.2-1.6-3.2-3.5-3.2s-3.6,1-3.8,2.9h-2.3c.3-3.1,2.6-4.9,6.2-4.9s5.9,2.1,5.9,5.3v10.4h-2.2v-2.4c-1.1,1.8-3.1,2.8-5.2,2.8-3.2,0-5.2-1.8-5.2-4.4ZM447.2,447.2v-1.6l-5.7.8c-1.5.2-2.1,1-2.1,2.4s1,2.4,3,2.4,4.9-1.7,4.9-4Z"/>
      <path d="M455.5,430.7v22.2h-2.4v-22.2h2.4Z"/>
      <path d="M459.1,452.9v-15.4h2.3v2.4c.9-1.5,2.5-2.8,4.9-2.8s3.9,1.1,4.6,3.1c1.1-2,2.8-3.1,5.1-3.1,3.4,0,5.1,2.2,5.1,5.7v10h-2.4v-9.5c0-2.8-1-4.2-3.4-4.2s-4,1.9-4,5v8.7h-2.4v-9.5c0-2.7-1-4.2-3.3-4.2s-4.1,1.9-4.1,5v8.6h-2.4Z"/>
    </g>
    <g>
      <path class="st0" d="M185.8,541.8h11.3c7.4,0,10.7,3.9,10.7,9.4s-3.2,9.3-10.7,9.3h-5.3v9.3h-6v-28ZM201.6,551.2c0-2.5-1.4-4.2-4.7-4.2h-5.1v8.3h5.1c3.3,0,4.7-1.6,4.7-4.1Z"/>
      <path class="st0" d="M211,559.2v-17.4h6v16.9c0,4.2,2.1,6.3,5.5,6.3s5.5-2.1,5.5-6.3v-16.9h6v17.4c0,7.5-4.7,11-11.5,11s-11.6-3.6-11.6-11Z"/>
      <path class="st0" d="M238.2,541.8h11.3c7.4,0,10.7,3.9,10.7,9.4s-1.7,7.2-5.6,8.6l5.9,10.1h-5.9l-5.3-9.3h-5v9.3h-6v-28ZM254,551.2c0-2.5-1.4-4.2-4.7-4.2h-5.1v8.3h5.1c3.3,0,4.7-1.6,4.7-4.1Z"/>
      <path class="st0" d="M263.6,541.8h11.3c7.4,0,10.7,3.9,10.7,9.4s-3.2,9.3-10.7,9.3h-5.3v9.3h-6v-28ZM279.5,551.2c0-2.5-1.4-4.2-4.7-4.2h-5.1v8.3h5.1c3.3,0,4.7-1.6,4.7-4.1Z"/>
      <path class="st0" d="M288.8,541.8h6v22.8h12.9v5.2h-18.9v-28Z"/>
      <path class="st0" d="M310.8,541.8h19.1v5.2h-13.1v6.3h11.9v4.7h-11.9v6.6h13.5v5.2h-19.5v-28Z"/>
      <path d="M185.7,606.1v-21.3h13.3v2.2h-10.8v7.3h9.8v2.2h-9.8v9.5h-2.5Z"/>
      <path d="M200.3,598.7v-.6c0-4.7,2.8-7.8,7.3-7.8s7.3,3.1,7.3,7.8v.6c0,4.7-2.9,7.8-7.3,7.8s-7.3-3.1-7.3-7.8ZM212.4,598.7v-.6c0-3.6-1.7-5.7-4.9-5.7s-4.8,2.1-4.8,5.7v.6c0,3.6,1.7,5.7,4.8,5.7s4.9-2.1,4.9-5.7Z"/>
      <path d="M217.8,606.1v-15.4h2.3v3c1-2.1,2.7-3.3,4.8-3.3s.5,0,.8,0v2.4c-.3,0-.5,0-.9,0-2.8,0-4.7,1.7-4.7,5.1v8.2h-2.4Z"/>
      <path d="M235.5,606.1v-13.5h-3.1v-1.9h3.1v-2.9c0-2.8,1.6-4.2,4.7-4.2s1.6.1,2.2.3v2c-.5-.1-1.3-.3-1.9-.3-2,0-2.6.8-2.6,2.6v2.6h4.4v1.9h-4.4v13.5h-2.4Z"/>
      <path d="M243.2,602.1c0-2.2,1.3-3.9,3.8-4.3l6.5-1v-1.3c0-2.2-1.6-3.2-3.5-3.2s-3.6,1-3.8,2.9h-2.3c.3-3.1,2.6-4.9,6.2-4.9s5.9,2.1,5.9,5.3v10.4h-2.2v-2.4c-1.1,1.8-3.1,2.8-5.2,2.8-3.2,0-5.2-1.8-5.2-4.4ZM253.5,600.4v-1.6l-5.7.8c-1.5.2-2.1,1-2.1,2.4s1,2.4,3,2.4,4.9-1.7,4.9-4Z"/>
      <path d="M261.7,583.9v22.2h-2.4v-22.2h2.4Z"/>
      <path d="M267.7,583.9v22.2h-2.4v-22.2h2.4Z"/>
      <path d="M273.8,588.3h-2.5v-4.3h2.5v4.3ZM273.7,590.7v15.4h-2.4v-15.4h2.4Z"/>
      <path d="M277.3,606.1v-15.4h2.3v2.5c1-1.6,2.6-2.9,5-2.9,3.7,0,5.3,2.2,5.3,5.8v10h-2.4v-9.4c0-2.8-1.1-4.3-3.6-4.3s-4.3,1.9-4.3,5v8.7h-2.4Z"/>
      <path d="M293.4,607.2h2.6c.2,1.6,1.6,2.5,4.1,2.5s4.6-1.3,4.6-4.1v-2.5c-.8,1.6-2.6,2.9-5.2,2.9-4,0-6.6-3.1-6.6-7.3v-.8c0-4.3,2.6-7.3,6.6-7.3s4.6,1.5,5.3,3.1v-2.8h2.3v14.6c0,3.7-2.6,6.2-7.1,6.2s-6.3-1.8-6.6-4.4ZM304.8,598.5v-.8c0-3.3-1.7-5.3-4.9-5.3s-4.6,2-4.6,5.3v.8c0,3.1,1.7,5.3,4.6,5.3s4.9-2.1,4.9-5.3Z"/>
      <path d="M315.7,602.1c0-2.2,1.3-3.9,3.8-4.3l6.5-1v-1.3c0-2.2-1.6-3.2-3.5-3.2s-3.6,1-3.8,2.9h-2.3c.3-3.1,2.6-4.9,6.1-4.9s5.9,2.1,5.9,5.3v10.4h-2.2v-2.4c-1.1,1.8-3.1,2.8-5.2,2.8-3.2,0-5.2-1.8-5.2-4.4ZM326,600.4v-1.6l-5.7.8c-1.5.2-2.1,1-2.1,2.4s1,2.4,3,2.4,4.9-1.7,4.9-4Z"/>
      <path d="M331.9,606.1v-15.4h2.3v2.5c1-1.6,2.6-2.9,5-2.9,3.7,0,5.3,2.2,5.3,5.8v10h-2.4v-9.4c0-2.8-1.1-4.3-3.6-4.3s-4.4,1.9-4.4,5v8.7h-2.4Z"/>
      <path d="M347.4,598.7v-.6c0-4.6,2.5-7.8,6.6-7.8s4.3,1.3,5.2,2.8v-9.3h2.4v22.2h-2.2v-2.8c-.8,1.6-2.7,3.1-5.4,3.1-4,0-6.6-3.1-6.6-7.8ZM359.3,598.7v-.6c0-3.6-1.8-5.7-4.9-5.7s-4.6,2.2-4.6,5.7v.6c0,3.5,1.6,5.7,4.6,5.7s4.9-2.2,4.9-5.7Z"/>
      <path d="M370.2,601.4h2.3c.4,2.2,1.8,3.1,4.1,3.1s3.6-.9,3.6-2.5-1-2.2-4.1-2.7c-3.6-.7-5.4-1.7-5.4-4.5s2.3-4.4,5.6-4.4,5.6,1.7,6,4.7h-2.4c-.3-1.8-1.6-2.7-3.6-2.7s-3.3.9-3.3,2.4.9,2.1,4,2.6c3.6.6,5.6,1.8,5.6,4.5s-2.5,4.7-6.1,4.7-6.1-1.8-6.4-5.1Z"/>
      <path d="M386.7,602.3v-9.6h-3.1v-1.9h3.1v-4.7h2.4v4.7h4.4v1.9h-4.4v9.3c0,1.7.6,2.5,2.6,2.5s1.4-.2,2-.3v2c-.6.1-1.6.3-2.2.3-3.1,0-4.7-1.4-4.7-4.2Z"/>
      <path d="M395.5,602.1c0-2.2,1.3-3.9,3.8-4.3l6.5-1v-1.3c0-2.2-1.6-3.2-3.5-3.2s-3.6,1-3.8,2.9h-2.3c.3-3.1,2.6-4.9,6.2-4.9s5.9,2.1,5.9,5.3v10.4h-2.2v-2.4c-1.1,1.8-3.1,2.8-5.2,2.8-3.2,0-5.2-1.8-5.2-4.4ZM405.8,600.4v-1.6l-5.7.8c-1.5.2-2.1,1-2.1,2.4s1,2.4,3,2.4,4.9-1.7,4.9-4Z"/>
      <path d="M413.6,611.2l2-5.1-6-15.4h2.6l4.7,12.6,4.5-12.6h2.5l-7.7,20.5h-2.5Z"/>
      <path d="M428.5,588.3h-2.5v-4.3h2.5v4.3ZM428.4,590.7v15.4h-2.4v-15.4h2.4Z"/>
      <path d="M432,606.1v-15.4h2.3v2.5c1-1.6,2.6-2.9,5-2.9,3.7,0,5.3,2.2,5.3,5.8v10h-2.4v-9.4c0-2.8-1.1-4.3-3.6-4.3s-4.3,1.9-4.3,5v8.7h-2.4Z"/>
      <path d="M448.1,607.2h2.6c.2,1.6,1.6,2.5,4.1,2.5s4.6-1.3,4.6-4.1v-2.5c-.8,1.6-2.6,2.9-5.2,2.9-4,0-6.6-3.1-6.6-7.3v-.8c0-4.3,2.6-7.3,6.6-7.3s4.6,1.5,5.3,3.1v-2.8h2.3v14.6c0,3.7-2.5,6.2-7.1,6.2s-6.3-1.8-6.6-4.4ZM459.5,598.5v-.8c0-3.3-1.7-5.3-4.9-5.3s-4.6,2-4.6,5.3v.8c0,3.1,1.7,5.3,4.6,5.3s4.9-2.1,4.9-5.3Z"/>
      <path d="M470.5,602.1c0-2.2,1.3-3.9,3.8-4.3l6.5-1v-1.3c0-2.2-1.6-3.2-3.5-3.2s-3.6,1-3.8,2.9h-2.3c.3-3.1,2.6-4.9,6.1-4.9s5.9,2.1,5.9,5.3v10.4h-2.2v-2.4c-1.1,1.8-3.1,2.8-5.2,2.8-3.2,0-5.2-1.8-5.2-4.4ZM480.7,600.4v-1.6l-5.7.8c-1.5.2-2.1,1-2.1,2.4s1,2.4,3,2.4,4.9-1.7,4.9-4Z"/>
      <path d="M485.8,601.4h2.3c.4,2.2,1.8,3.1,4.1,3.1s3.6-.9,3.6-2.5-1-2.2-4.1-2.7c-3.6-.7-5.4-1.7-5.4-4.5s2.3-4.4,5.6-4.4,5.6,1.7,6,4.7h-2.4c-.3-1.8-1.7-2.7-3.6-2.7s-3.3.9-3.3,2.4.9,2.1,4,2.6c3.6.6,5.6,1.8,5.6,4.5s-2.5,4.7-6.1,4.7-6.1-1.8-6.4-5.1Z"/>
      <path d="M503.5,583.9v22.2h-2.4v-22.2h2.4Z"/>
      <path d="M506.4,598.7v-.6c0-4.6,2.7-7.8,7.3-7.8s7.2,3.4,7,8.5h-11.8c0,3.6,1.9,5.5,4.9,5.5s3.9-1.1,4.4-3.1h2.4c-.8,3.2-3.2,5.1-6.9,5.1s-7.3-3.2-7.3-7.8ZM518.2,597c-.2-2.8-1.7-4.5-4.5-4.5s-4.4,1.6-4.8,4.5h9.2Z"/>
      <path d="M522.8,598.7v-.6c0-4.6,2.7-7.8,7.3-7.8s7.2,3.4,7,8.5h-11.8c0,3.6,1.9,5.5,4.9,5.5s3.9-1.1,4.4-3.1h2.4c-.8,3.2-3.2,5.1-6.9,5.1s-7.3-3.2-7.3-7.8ZM534.6,597c-.2-2.8-1.7-4.5-4.5-4.5s-4.4,1.6-4.8,4.5h9.2Z"/>
      <path d="M539.9,611.2v-20.5h2.2v2.8c.8-1.6,2.7-3.1,5.4-3.1,4,0,6.6,3.1,6.6,7.8v.6c0,4.6-2.6,7.8-6.6,7.8s-4.4-1.3-5.2-2.9v7.6h-2.4ZM551.7,598.7v-.6c0-3.6-1.7-5.7-4.6-5.7s-4.9,2.2-4.9,5.7v.6c0,3.6,1.8,5.7,4.9,5.7s4.6-2.2,4.6-5.7Z"/>
    </g>
    <path class="st1" d="M147.5,420.2c.9,47.9-50.8,79.2-93.1,56.5-42.8-23-44.3-84.5-2.7-109.6,41.7-25.1,94.9,4.7,95.8,53.1Z"/>
    <path class="st5" d="M147.5,577c.9,47.9-50.8,79.2-93.1,56.5-42.8-23-44.3-84.5-2.7-109.6,41.7-25.1,94.9,4.7,95.8,53.1Z"/>
    <path class="st2" d="M147.5,263.6c.5,49.7-54.4,80.6-96.7,54.2-38.5-24-39.5-80.5-1.7-105.8,41.6-27.9,97.9,1.7,98.4,51.6Z"/>
    <path class="st3" d="M40.9,147.4C6.5,113.5,21.9,54.4,68.4,41.7s90.5,30.5,77.5,78c-12.6,45.9-71.1,61.3-105,27.8Z"/>
  </g>
  <rect class="st4" x="-62.3" y="-59.1" width="783.7" height="781.3" rx="55.8" ry="55.8"/>
</svg>