<?xml version="1.0" encoding="UTF-8"?>
<svg id="Layer_1" xmlns="http://www.w3.org/2000/svg" version="1.1" viewBox="0 0 410 170">
  <!-- Generator: Adobe Illustrator 29.3.1, SVG Export Plug-In . SVG Version: 2.1.0 Build 151)  -->
  <defs>
    <style>
      .st0 {
        fill: #162a3f;
      }

      .st1 {
        fill: #b1cbc1;
      }

      .st2 {
        fill: #fff;
        stroke: #a7a9ab;
        stroke-miterlimit: 10;
        stroke-width: 1px;
      }
    </style>
  </defs>
  <rect class="st2" x="4.6" y="3.4" width="400.8" height="160.9" rx="26" ry="26"/>
  <g>
    <path class="st0" d="M190.2,76.7v5.1h8.1v2.6h-8.1v6.4h-3.1v-16.8h12.3v2.6h-9.1Z"/>
    <path class="st0" d="M209,90c-1.4-.7-2.5-1.8-3.2-3.1-.8-1.3-1.2-2.8-1.2-4.4s.4-3.1,1.2-4.4c.8-1.3,1.9-2.4,3.2-3.1,1.4-.7,2.9-1.1,4.6-1.1s3.3.4,4.6,1.1,2.5,1.8,3.2,3.1c.8,1.3,1.2,2.8,1.2,4.4s-.4,3.1-1.2,4.4c-.8,1.3-1.9,2.3-3.2,3.1s-2.9,1.1-4.6,1.1-3.3-.4-4.6-1.1ZM216.7,87.7c.9-.5,1.6-1.2,2.1-2.1.5-.9.8-1.9.8-3s-.3-2.1-.8-3c-.5-.9-1.2-1.6-2.1-2.1s-1.9-.8-3-.8-2.1.3-3,.8c-.9.5-1.6,1.2-2.1,2.1-.5.9-.8,1.9-.8,3s.3,2.1.8,3c.5.9,1.2,1.6,2.1,2.1.9.5,1.9.8,3,.8s2.1-.3,3-.8Z"/>
    <path class="st0" d="M232.8,90c-1.4-.7-2.4-1.8-3.2-3.1-.8-1.3-1.2-2.8-1.2-4.4s.4-3.1,1.2-4.4c.8-1.3,1.9-2.3,3.2-3.1s2.9-1.1,4.6-1.1,2.6.2,3.8.7c1.1.5,2.1,1.2,2.9,2.1l-2,1.9c-1.2-1.3-2.7-2-4.5-2s-2.2.3-3.1.8-1.6,1.2-2.1,2.1c-.5.9-.8,1.9-.8,3s.3,2.2.8,3c.5.9,1.2,1.6,2.1,2.1s1.9.8,3.1.8c1.8,0,3.3-.7,4.5-2l2,1.9c-.8.9-1.7,1.6-2.9,2.1-1.1.5-2.4.7-3.8.7s-3.2-.4-4.6-1.1Z"/>
    <path class="st0" d="M252.3,89.2c-1.3-1.3-1.9-3.2-1.9-5.6v-9.5h3.1v9.4c0,3.3,1.4,4.9,4.3,4.9s4.2-1.6,4.2-4.9v-9.4h3.1v9.5c0,2.4-.6,4.3-1.9,5.6-1.3,1.3-3.1,2-5.4,2s-4.1-.7-5.4-2Z"/>
    <path class="st0" d="M274.5,90.6c-1.2-.4-2.2-.9-2.9-1.5l1.1-2.4c.7.5,1.5,1,2.5,1.3,1,.3,2,.5,3,.5s2.2-.2,2.8-.6c.6-.4.9-.9.9-1.6s-.2-.9-.5-1.2c-.3-.3-.8-.6-1.3-.7-.5-.2-1.2-.4-2.2-.6-1.3-.3-2.3-.6-3.1-.9s-1.5-.8-2-1.4c-.6-.6-.9-1.5-.9-2.6s.3-1.8.8-2.5,1.3-1.4,2.3-1.8c1-.4,2.3-.7,3.7-.7s2,.1,3,.4c1,.3,1.8.6,2.6,1.1l-1,2.4c-.7-.4-1.5-.8-2.3-1-.8-.2-1.6-.3-2.3-.3-1.2,0-2.1.2-2.7.6-.6.4-.9,1-.9,1.7s.2.9.5,1.2c.3.3.8.5,1.3.7.5.2,1.2.4,2.2.6,1.2.3,2.3.6,3.1.9.8.3,1.5.8,2.1,1.4s.9,1.5.9,2.6-.3,1.8-.8,2.5-1.3,1.4-2.3,1.8c-1,.4-2.3.7-3.7.7s-2.5-.2-3.8-.6Z"/>
  </g>
  <circle class="st1" cx="79.6" cy="83.9" r="39.2"/>
</svg>