<?xml version="1.0" encoding="UTF-8"?>
<svg id="Layer_1" xmlns="http://www.w3.org/2000/svg" version="1.1" viewBox="0 0 94 94">
  <!-- Generator: Adobe Illustrator 29.3.1, SVG Export Plug-In . SVG Version: 2.1.0 Build 151)  -->
  <defs>
    <style>
      .st0 {
        fill: #fff;
      }

      .st1 {
        fill: none;
        stroke: #221f20;
        stroke-miterlimit: 10;
      }
    </style>
  </defs>
  <rect class="st1" x="-2330.4" y="-6764.9" width="1920" height="7097.3"/>
  <g>
    <path class="st0" d="M69.7,1.6H24.3C11.8,1.6,1.6,11.8,1.6,24.3v45.4c0,12.5,10.2,22.7,22.7,22.7h45.4c12.5,0,22.7-10.2,22.7-22.7V24.3c0-12.5-10.2-22.7-22.7-22.7h0ZM84.8,69.7c0,8.3-6.8,15.1-15.1,15.1H24.3c-8.3,0-15.1-6.8-15.1-15.1V24.3c0-8.3,6.8-15.1,15.1-15.1h45.4c8.3,0,15.1,6.8,15.1,15.1v45.4ZM84.8,69.7"/>
    <path class="st0" d="M77.3,22.4c0,3.1-2.5,5.7-5.7,5.7s-5.7-2.5-5.7-5.7,2.5-5.7,5.7-5.7,5.7,2.5,5.7,5.7h0ZM77.3,22.4"/>
    <path class="st0" d="M47,24.3c-12.5,0-22.7,10.2-22.7,22.7s10.2,22.7,22.7,22.7,22.7-10.2,22.7-22.7-10.2-22.7-22.7-22.7h0ZM47,62.1c-8.4,0-15.1-6.8-15.1-15.1s6.8-15.1,15.1-15.1,15.1,6.8,15.1,15.1-6.8,15.1-15.1,15.1h0ZM47,62.1"/>
  </g>
</svg>