<?xml version="1.0" encoding="UTF-8"?>
<svg id="Layer_1" xmlns="http://www.w3.org/2000/svg" version="1.1" viewBox="0 0 96 92.3">
  <!-- Generator: Adobe Illustrator 29.3.1, SVG Export Plug-In . SVG Version: 2.1.0 Build 151)  -->
  <defs>
    <style>
      .st0 {
        fill: #fff;
      }

      .st1 {
        fill: none;
        stroke: #221f20;
        stroke-miterlimit: 10;
      }
    </style>
  </defs>
  <rect class="st1" x="-2181.4" y="-6765.8" width="1920" height="7097.3"/>
  <g>
    <path class="st0" d="M20.8,30.2H4.6c-1.5,0-2.7,1.2-2.7,2.7v54.8c0,1.5,1.2,2.7,2.7,2.7h16.2c1.5,0,2.7-1.2,2.7-2.7v-54.8c0-1.5-1.2-2.7-2.7-2.7h0ZM18,85H7.4v-49.3h10.7v49.3ZM18,85"/>
    <path class="st0" d="M87.4,39c-4.7-5.8-11.4-8.8-19.2-8.8s-8,.9-11.2,2.7c0-1.5-1.2-2.7-2.7-2.7h-16.2c-1.5,0-2.7,1.2-2.7,2.7v54.8c0,1.5,1.2,2.7,2.7,2.7h16.2c1.5,0,2.7-1.2,2.7-2.7v-28.2c0-4.3,3.5-7.8,7.8-7.8s7.8,3.5,7.8,7.8v28.2c0,1.5,1.2,2.7,2.7,2.7h16.2c1.5,0,2.7-1.2,2.7-2.7v-28.2c0-8-2.4-15.3-6.7-20.6h0ZM88.6,85h-10.7v-25.4c0-7.3-5.9-13.2-13.2-13.2s-13.2,5.9-13.2,13.2v25.4h-10.7v-49.3h10.7v2.7c0,1.1.7,2.1,1.7,2.5,1,.4,2.2.2,3-.6,3-3,7-4.6,12-4.6,14.1,0,20.5,12,20.5,23.9v25.4ZM88.6,85"/>
    <path class="st0" d="M12.7,1.8C6.7,1.8,1.9,6.7,1.9,12.6s4.9,10.8,10.8,10.8,10.8-4.9,10.8-10.8S18.7,1.8,12.7,1.8h0ZM12.7,18c-2.9,0-5.3-2.4-5.3-5.3s2.4-5.3,5.3-5.3,5.3,2.4,5.3,5.3-2.4,5.3-5.3,5.3h0ZM12.7,18"/>
  </g>
</svg>